<svg xmlns="http://www.w3.org/2000/svg" xmlns:xlink="http://www.w3.org/1999/xlink" width="48" height="24"><path fill="black" stroke="black" d="M6 2.61L6 2.61Q10.66 2.61 10.66 11.50L10.66 11.50Q10.66 20.38 6 20.38L6 20.38Q1.35 20.38 1.35 11.50L1.35 11.50Q1.35 2.61 6 2.61ZM3.66 15.67L3.66 15.67L7.95 5.88Q7.27 4.27 5.98 4.27L5.98 4.27Q3.32 4.27 3.32 11.50L3.32 11.50Q3.32 13.96 3.66 15.67ZM8.36 7.34L4.05 17.09Q4.71 18.73 6 18.73L6 18.73Q8.70 18.73 8.70 11.47L8.70 11.47Q8.70 9.07 8.36 7.34L8.36 7.34ZM18 2.61L18 2.61Q22.66 2.61 22.66 11.50L22.66 11.50Q22.66 20.38 18 20.38L18 20.38Q13.35 20.38 13.35 11.50L13.35 11.50Q13.35 2.61 18 2.61ZM15.66 15.67L15.66 15.67L19.95 5.88Q19.27 4.27 17.98 4.27L17.98 4.27Q15.32 4.27 15.32 11.50L15.32 11.50Q15.32 13.96 15.66 15.67ZM20.36 7.34L16.05 17.09Q16.71 18.73 18 18.73L18 18.73Q20.70 18.73 20.70 11.47L20.70 11.47Q20.70 9.07 20.36 7.34L20.36 7.34ZM25.46 19.90L25.46 3.09L27.39 3.09L27.39 10.24L32.61 10.24L32.61 3.09L34.54 3.09L34.54 19.90L32.61 19.90L32.61 12.07L27.39 12.07L27.39 19.90L25.46 19.90ZM42.94 3.09L42.94 17.27Q42.94 18.30 43.92 18.30L43.92 18.30Q44.73 18.30 45.69 18.12L45.69 18.12L45.69 19.91Q44.27 20.11 43.61 20.11L43.61 20.11Q41.06 20.11 41.06 17.61L41.06 17.61L41.06 3.09L42.94 3.09Z"/></svg>