<svg xmlns="http://www.w3.org/2000/svg" xmlns:xlink="http://www.w3.org/1999/xlink" width="48" height="24"><path fill="black" stroke="black" d="M6 2.61L6 2.61Q10.66 2.61 10.66 11.50L10.66 11.50Q10.66 20.38 6 20.38L6 20.38Q1.35 20.38 1.35 11.50L1.35 11.50Q1.35 2.61 6 2.61ZM3.66 15.67L3.66 15.67L7.95 5.88Q7.27 4.27 5.98 4.27L5.98 4.27Q3.32 4.27 3.32 11.50L3.32 11.50Q3.32 13.96 3.66 15.67ZM8.36 7.34L4.05 17.09Q4.71 18.73 6 18.73L6 18.73Q8.70 18.73 8.70 11.47L8.70 11.47Q8.70 9.07 8.36 7.34L8.36 7.34ZM16.17 11.66L16.17 10.13L17.37 10.13Q18.90 10.13 19.48 9.69L19.48 9.69Q20.55 8.86 20.55 7.20L20.55 7.20Q20.55 4.24 17.87 4.24L17.87 4.24Q15.64 4.24 15.14 6.76L15.14 6.76L13.24 6.76Q13.50 5.18 14.34 4.15L14.34 4.15Q15.63 2.61 17.87 2.61L17.87 2.61Q19.75 2.61 20.96 3.69L20.96 3.69Q22.41 4.96 22.41 7.13L22.41 7.13Q22.41 10.04 19.79 10.95L19.79 10.95Q22.95 12.16 22.95 15.39L22.95 15.39Q22.95 17.45 21.77 18.77L21.77 18.77Q20.37 20.38 17.91 20.38L17.91 20.38Q15.60 20.38 14.23 18.80L14.23 18.80Q13.22 17.64 13.01 15.60L13.01 15.60L14.98 15.60Q15.22 18.73 17.91 18.73L17.91 18.73Q19.15 18.73 19.99 18.02L19.99 18.02Q21.05 17.12 21.05 15.39L21.05 15.39Q21.05 11.66 17.37 11.66L17.37 11.66L16.17 11.66ZM25.76 16.42L25.76 8.50L27.54 8.50L27.54 16.23Q27.54 18.70 29.50 18.70L29.50 18.70Q30.76 18.70 31.72 17.77L31.72 17.77Q32.59 16.93 32.59 15.57L32.59 15.57L32.59 8.50L34.37 8.50L34.37 19.90L33.05 19.90L32.73 18.55Q31.16 20.38 29.10 20.38L29.10 20.38Q27.30 20.38 26.40 19.01L26.40 19.01Q25.76 18 25.76 16.42L25.76 16.42ZM46.88 19.90L45.34 19.90L45.34 17.64Q44.00 20.38 41.78 20.38L41.78 20.38Q39.61 20.38 38.34 18.14L38.34 18.14Q37.10 15.90 37.10 11.52L37.10 11.52Q37.10 7.41 38.40 4.99L38.40 4.99Q39.69 2.61 42.09 2.61L42.09 2.61Q45.95 2.61 46.71 7.90L46.71 7.90L44.74 7.90Q44.20 4.42 42.09 4.42L42.09 4.42Q39.16 4.42 39.16 11.47L39.16 11.47Q39.16 18.57 42 18.57L42 18.57Q44.58 18.57 45.13 13.63L45.13 13.63L42.60 13.63L42.60 11.91L46.88 11.91L46.88 19.90Z"/></svg>