<svg xmlns="http://www.w3.org/2000/svg" xmlns:xlink="http://www.w3.org/1999/xlink" width="48" height="24"><path fill="black" stroke="black" d="M6 2.61L6 2.61Q10.66 2.61 10.66 11.50L10.66 11.50Q10.66 20.38 6 20.38L6 20.38Q1.35 20.38 1.35 11.50L1.35 11.50Q1.35 2.61 6 2.61ZM3.66 15.67L3.66 15.67L7.95 5.88Q7.27 4.27 5.98 4.27L5.98 4.27Q3.32 4.27 3.32 11.50L3.32 11.50Q3.32 13.96 3.66 15.67ZM8.36 7.34L4.05 17.09Q4.71 18.73 6 18.73L6 18.73Q8.70 18.73 8.70 11.47L8.70 11.47Q8.70 9.07 8.36 7.34L8.36 7.34ZM21.02 8.50L22.27 8.50L22.27 18.57Q22.27 23.34 17.88 23.34L17.88 23.34Q14.13 23.34 13.49 19.65L13.49 19.65L15.36 19.65Q15.68 21.74 17.93 21.74L17.93 21.74Q20.54 21.74 20.54 18.71L20.54 18.71L20.54 16.77Q19.29 18.23 17.52 18.23L17.52 18.23Q15.61 18.23 14.34 16.72L14.34 16.72Q13.20 15.32 13.20 13.22L13.20 13.22Q13.20 11.70 13.79 10.54L13.79 10.54Q15.06 8.04 17.61 8.04L17.61 8.04Q19.39 8.04 20.61 9.48L20.61 9.48L21.02 8.50ZM17.78 9.69L17.78 9.69Q16.45 9.69 15.67 10.86L15.67 10.86Q15.02 11.80 15.02 13.20L15.02 13.20Q15.02 14.65 15.74 15.62L15.74 15.62Q16.51 16.68 17.80 16.68L17.80 16.68Q18.87 16.68 19.61 15.86L19.61 15.86Q20.59 14.80 20.59 13.22L20.59 13.22Q20.59 11.65 19.75 10.63L19.75 10.63Q18.93 9.69 17.78 9.69ZM25.78 19.90L25.78 3.09L27.56 3.09L27.56 9.79Q29.03 8.04 30.73 8.04L30.73 8.04Q32.50 8.04 33.61 9.57L33.61 9.57Q34.78 11.21 34.78 14.09L34.78 14.09Q34.78 16.10 34.16 17.64L34.16 17.64Q33.05 20.38 30.68 20.38L30.68 20.38Q28.72 20.38 27.54 18.41L27.54 18.41L27.08 19.90L25.78 19.90ZM30.29 9.74L30.29 9.74Q28.92 9.74 28.14 11.13L28.14 11.13Q27.49 12.28 27.49 14.09L27.49 14.09Q27.49 16.04 28.18 17.29L28.18 17.29Q28.97 18.68 30.32 18.68L30.32 18.68Q31.50 18.68 32.19 17.47L32.19 17.47Q32.91 16.25 32.91 14.09L32.91 14.09Q32.91 11.96 32.09 10.79L32.09 10.79Q31.41 9.74 30.29 9.74ZM46.68 6.83L44.71 6.83Q44.34 4.29 42.42 4.29L42.42 4.29Q40.76 4.29 39.86 6.30L39.86 6.30Q39.01 8.19 38.98 11.41L38.98 11.41Q40.35 9.42 42.47 9.42L42.47 9.42Q44.23 9.42 45.45 10.72L45.45 10.72Q46.89 12.23 46.89 14.71L46.89 14.71Q46.89 16.77 45.90 18.30L45.90 18.30Q44.57 20.37 42.14 20.37L42.14 20.37Q39.94 20.37 38.61 18.35L38.61 18.35Q37.20 16.14 37.20 12.21L37.20 12.21Q37.20 8.04 38.44 5.47L38.44 5.47Q39.86 2.61 42.40 2.61L42.40 2.61Q45.88 2.61 46.68 6.83L46.68 6.83ZM42.16 10.98L42.16 10.98Q40.77 10.98 39.93 12.26L39.93 12.26Q39.28 13.27 39.28 14.78L39.28 14.78Q39.28 16.14 39.74 17.09L39.74 17.09Q40.54 18.71 42.19 18.71L42.19 18.71Q43.51 18.71 44.32 17.52L44.32 17.52Q45.04 16.46 45.04 14.75L45.04 14.75Q45.04 13.20 44.41 12.21L44.41 12.21Q43.65 10.98 42.16 10.98Z"/></svg>