<svg xmlns="http://www.w3.org/2000/svg" xmlns:xlink="http://www.w3.org/1999/xlink" width="48" height="24"><path fill="black" stroke="black" d="M6 2.61L6 2.61Q10.66 2.61 10.66 11.50L10.66 11.50Q10.66 20.38 6 20.38L6 20.38Q1.35 20.38 1.35 11.50L1.35 11.50Q1.35 2.61 6 2.61ZM3.66 15.67L3.66 15.67L7.95 5.88Q7.27 4.27 5.98 4.27L5.98 4.27Q3.32 4.27 3.32 11.50L3.32 11.50Q3.32 13.96 3.66 15.67ZM8.36 7.34L4.05 17.09Q4.71 18.73 6 18.73L6 18.73Q8.70 18.73 8.70 11.47L8.70 11.47Q8.70 9.07 8.36 7.34L8.36 7.34ZM13.76 19.90L13.76 3.09L15.54 3.09L15.54 9.79Q17.29 8.04 19.01 8.04L19.01 8.04Q20.96 8.04 21.87 9.76L21.87 9.76Q22.37 10.73 22.37 12.12L22.37 12.12L22.37 19.90L20.59 19.90L20.59 12.64Q20.59 9.74 18.73 9.74L18.73 9.74Q17.47 9.74 16.52 10.65L16.52 10.65Q15.54 11.64 15.54 12.90L15.54 12.90L15.54 19.90L13.76 19.90ZM25.39 14.75L25.39 3.09L27.32 3.09L27.32 14.75Q27.32 18.57 30 18.57L30 18.57Q32.68 18.57 32.68 14.75L32.68 14.75L32.68 3.09L34.61 3.09L34.61 14.75Q34.61 17.17 33.62 18.62L33.62 18.62Q32.44 20.38 30 20.38L30 20.38Q25.39 20.38 25.39 14.75L25.39 14.75ZM46.22 23.34L44.44 23.34L44.44 18.47Q43.03 20.05 41.30 20.05L41.30 20.05Q39.50 20.05 38.39 18.45L38.39 18.45Q37.20 16.73 37.20 13.93L37.20 13.93Q37.20 11.70 38.06 10.15L38.06 10.15Q39.20 8.04 41.25 8.04L41.25 8.04Q42.96 8.04 44.60 10.01L44.60 10.01L44.89 8.50L46.22 8.50L46.22 23.34ZM41.66 9.74L41.66 9.74Q40.43 9.74 39.74 11.02L39.74 11.02Q39.09 12.13 39.09 13.98L39.09 13.98Q39.09 18.33 41.68 18.33L41.68 18.33Q43.03 18.33 43.86 16.89L43.86 16.89Q44.51 15.74 44.51 13.96L44.51 13.96Q44.51 11.82 43.43 10.61L43.43 10.61Q42.68 9.74 41.66 9.74Z"/></svg>