<svg xmlns="http://www.w3.org/2000/svg" xmlns:xlink="http://www.w3.org/1999/xlink" width="48" height="24"><path fill="black" stroke="black" d="M6 2.61L6 2.61Q10.66 2.61 10.66 11.50L10.66 11.50Q10.66 20.38 6 20.38L6 20.38Q1.35 20.38 1.35 11.50L1.35 11.50Q1.35 2.61 6 2.61ZM3.66 15.67L3.66 15.67L7.95 5.88Q7.27 4.27 5.98 4.27L5.98 4.27Q3.32 4.27 3.32 11.50L3.32 11.50Q3.32 13.96 3.66 15.67ZM8.36 7.34L4.05 17.09Q4.71 18.73 6 18.73L6 18.73Q8.70 18.73 8.70 11.47L8.70 11.47Q8.70 9.07 8.36 7.34L8.36 7.34ZM13.76 8.50L15.18 8.50L15.45 9.96Q17.25 8.04 19.01 8.04L19.01 8.04Q20.96 8.04 21.87 9.76L21.87 9.76Q22.37 10.73 22.37 12.12L22.37 12.12L22.37 19.90L20.59 19.90L20.59 12.64Q20.59 9.74 18.73 9.74L18.73 9.74Q17.46 9.74 16.52 10.65L16.52 10.65Q15.54 11.64 15.54 12.91L15.54 12.91L15.54 19.90L13.76 19.90L13.76 8.50ZM30.94 3.09L30.94 17.27Q30.94 18.30 31.92 18.30L31.92 18.30Q32.73 18.30 33.69 18.12L33.69 18.12L33.69 19.91Q32.27 20.11 31.61 20.11L31.61 20.11Q29.06 20.11 29.06 17.61L29.06 17.61L29.06 3.09L30.94 3.09ZM45.02 8.50L46.27 8.50L46.27 18.57Q46.27 23.34 41.88 23.34L41.88 23.34Q38.13 23.34 37.49 19.65L37.49 19.65L39.36 19.65Q39.68 21.74 41.93 21.74L41.93 21.74Q44.54 21.74 44.54 18.71L44.54 18.71L44.54 16.77Q43.29 18.23 41.52 18.23L41.52 18.23Q39.61 18.23 38.34 16.72L38.34 16.72Q37.20 15.32 37.20 13.22L37.20 13.22Q37.20 11.70 37.79 10.54L37.79 10.54Q39.06 8.04 41.61 8.04L41.61 8.04Q43.39 8.04 44.61 9.48L44.61 9.48L45.02 8.50ZM41.78 9.69L41.78 9.69Q40.45 9.69 39.67 10.86L39.67 10.86Q39.02 11.80 39.02 13.20L39.02 13.20Q39.02 14.65 39.74 15.62L39.74 15.62Q40.51 16.68 41.80 16.68L41.80 16.68Q42.87 16.68 43.61 15.86L43.61 15.86Q44.59 14.80 44.59 13.22L44.59 13.22Q44.59 11.65 43.75 10.63L43.75 10.63Q42.93 9.69 41.78 9.69Z"/></svg>