<svg xmlns="http://www.w3.org/2000/svg" xmlns:xlink="http://www.w3.org/1999/xlink" width="48" height="24"><path fill="black" stroke="black" d="M7.32 19.90L5.36 19.90L5.36 5.54Q4.45 6.15 2.84 6.83L2.84 6.83L2.84 4.90Q4.71 4.21 5.86 3.09L5.86 3.09L7.32 3.09L7.32 19.90ZM20.61 16.08L22.56 16.08Q21.62 20.38 18.02 20.38L18.02 20.38Q15.86 20.38 14.59 18.57L14.59 18.57Q13.44 16.92 13.44 14.20L13.44 14.20Q13.44 11.61 14.52 9.96L14.52 9.96Q15.79 8.04 18 8.04L18 8.04Q21.43 8.04 22.37 11.93L22.37 11.93L20.45 11.93Q19.95 9.71 18.02 9.71L18.02 9.71Q16.80 9.71 16.09 10.84L16.09 10.84Q15.32 12.05 15.32 14.20L15.32 14.20Q15.32 15.98 15.84 17.12L15.84 17.12Q16.56 18.70 18.02 18.70L18.02 18.70Q20.16 18.70 20.61 16.08L20.61 16.08ZM24.94 4.97L24.94 3.09L35.06 3.09L35.06 4.97L31.01 4.97L31.01 19.90L28.99 19.90L28.99 4.97L24.94 4.97ZM37.68 19.90L37.68 3.09L46.13 3.09L46.13 4.97L39.64 4.97L39.64 10.27L45.26 10.27L45.26 12.09L39.64 12.09L39.64 19.90L37.68 19.90Z"/></svg>