<svg xmlns="http://www.w3.org/2000/svg" xmlns:xlink="http://www.w3.org/1999/xlink" width="48" height="24"><path fill="black" stroke="black" d="M7.32 19.90L5.36 19.90L5.36 5.54Q4.45 6.15 2.84 6.83L2.84 6.83L2.84 4.90Q4.71 4.21 5.86 3.09L5.86 3.09L7.32 3.09L7.32 19.90ZM16.95 5.25L16.95 3.09L19.05 3.09L19.05 5.25L16.95 5.25ZM17.06 19.90L17.06 8.50L18.94 8.50L18.94 19.90L17.06 19.90ZM29.03 13.31L24.73 3.09L26.88 3.09L30.01 11.11L33.13 3.09L35.29 3.09L31.00 13.31L31.00 19.90L29.03 19.90L29.03 13.31ZM44.82 14.30L46.84 14.30Q46.31 20.37 42.09 20.37L42.09 20.37Q39.62 20.37 38.27 17.80L38.27 17.80Q37.10 15.55 37.10 11.52L37.10 11.52Q37.10 7.41 38.40 4.99L38.40 4.99Q39.69 2.61 42.09 2.61L42.09 2.61Q45.95 2.61 46.70 7.90L46.70 7.90L44.73 7.90Q44.23 4.42 42.09 4.42L42.09 4.42Q39.16 4.42 39.16 11.52L39.16 11.52Q39.16 18.56 42.12 18.56L42.12 18.56Q44.61 18.56 44.82 14.30L44.82 14.30Z"/></svg>