<svg xmlns="http://www.w3.org/2000/svg" xmlns:xlink="http://www.w3.org/1999/xlink" width="48" height="24"><path fill="black" stroke="black" d="M7.32 19.90L5.36 19.90L5.36 5.54Q4.45 6.15 2.84 6.83L2.84 6.83L2.84 4.90Q4.71 4.21 5.86 3.09L5.86 3.09L7.32 3.09L7.32 19.90ZM17.45 18.89L13.42 8.50L15.48 8.50L18.34 16.61L20.86 8.50L22.95 8.50L18.23 21.67Q17.85 22.82 16.90 23.18L16.90 23.18Q16.45 23.36 14.06 23.36L14.06 23.36L14.06 21.62L15.09 21.62Q15.46 21.62 15.62 21.62L15.62 21.62Q16.43 21.62 16.68 20.98L16.68 20.98L17.45 18.89ZM26.41 19.90L24.71 8.50L26.39 8.50L27.40 17.23L29.09 8.50L30.90 8.50L32.59 17.23L33.60 8.50L35.27 8.50L33.57 19.90L31.72 19.90L30 11.02L28.27 19.90L26.41 19.90ZM37.90 19.90L37.90 3.09L39.68 3.09L39.68 13.39L43.88 8.50L46.11 8.50L42.49 12.55L47.05 19.90L44.81 19.90L41.38 13.82L39.68 15.64L39.68 19.90L37.90 19.90Z"/></svg>