<svg xmlns="http://www.w3.org/2000/svg" xmlns:xlink="http://www.w3.org/1999/xlink" width="48" height="24"><path fill="black" stroke="black" d="M10.88 18.12L10.88 19.90L0.94 19.90Q1.65 15.29 5.73 11.92L5.73 11.92Q7.36 10.59 7.93 9.74L7.93 9.74Q8.68 8.67 8.68 7.22L8.68 7.22Q8.68 6.04 8.16 5.30L8.16 5.30Q7.48 4.27 6.12 4.27L6.12 4.27Q3.35 4.27 3.09 8.34L3.09 8.34L1.21 8.34Q1.35 5.91 2.36 4.51L2.36 4.51Q3.68 2.64 6.16 2.64L6.16 2.64Q7.90 2.64 9.09 3.64L9.09 3.64Q10.61 4.95 10.61 7.20L10.61 7.20Q10.61 10.34 7.05 13.03L7.05 13.03Q4.02 15.34 3.41 18.12L3.41 18.12L10.88 18.12ZM13.20 4.92L13.20 3.09L22.79 3.09L22.79 4.46Q19.42 12.82 17.73 19.90L17.73 19.90L15.55 19.90Q17.38 13.43 20.73 4.92L20.73 4.92L13.20 4.92ZM25.83 4.97L25.83 3.09L34.30 3.09L34.30 4.78L27.66 17.98L34.56 17.98L34.56 19.90L25.51 19.90L25.51 18.02L32.10 4.97L25.83 4.97ZM46.68 6.83L44.71 6.83Q44.34 4.29 42.42 4.29L42.42 4.29Q40.76 4.29 39.86 6.30L39.86 6.30Q39.01 8.19 38.98 11.41L38.98 11.41Q40.35 9.42 42.47 9.42L42.47 9.42Q44.23 9.42 45.45 10.72L45.45 10.72Q46.89 12.23 46.89 14.71L46.89 14.71Q46.89 16.77 45.90 18.30L45.90 18.30Q44.57 20.37 42.14 20.37L42.14 20.37Q39.94 20.37 38.61 18.35L38.61 18.35Q37.20 16.14 37.20 12.21L37.20 12.21Q37.20 8.04 38.44 5.47L38.44 5.47Q39.86 2.61 42.40 2.61L42.40 2.61Q45.88 2.61 46.68 6.83L46.68 6.83ZM42.16 10.98L42.16 10.98Q40.77 10.98 39.93 12.26L39.93 12.26Q39.28 13.27 39.28 14.78L39.28 14.78Q39.28 16.14 39.74 17.09L39.74 17.09Q40.54 18.71 42.19 18.71L42.19 18.71Q43.51 18.71 44.32 17.52L44.32 17.52Q45.04 16.46 45.04 14.75L45.04 14.75Q45.04 13.20 44.41 12.21L44.41 12.21Q43.65 10.98 42.16 10.98Z"/></svg>