<svg xmlns="http://www.w3.org/2000/svg" xmlns:xlink="http://www.w3.org/1999/xlink" width="48" height="24"><path fill="black" stroke="black" d="M10.88 18.12L10.88 19.90L0.94 19.90Q1.65 15.29 5.73 11.92L5.73 11.92Q7.36 10.59 7.93 9.74L7.93 9.74Q8.68 8.67 8.68 7.22L8.68 7.22Q8.68 6.04 8.16 5.30L8.16 5.30Q7.48 4.27 6.12 4.27L6.12 4.27Q3.35 4.27 3.09 8.34L3.09 8.34L1.21 8.34Q1.35 5.91 2.36 4.51L2.36 4.51Q3.68 2.64 6.16 2.64L6.16 2.64Q7.90 2.64 9.09 3.64L9.09 3.64Q10.61 4.95 10.61 7.20L10.61 7.20Q10.61 10.34 7.05 13.03L7.05 13.03Q4.02 15.34 3.41 18.12L3.41 18.12L10.88 18.12ZM13.15 19.90L13.15 3.09L15.54 3.09L17.99 16.89L20.44 3.09L22.84 3.09L22.84 19.90L21.21 19.90L21.21 6.86L18.88 19.90L17.11 19.90L14.87 6.86L14.87 19.90L13.15 19.90ZM29.11 19.90L24.64 19.90L24.64 18.12L26.02 18.12L26.02 4.88L24.64 4.88L24.64 3.09L28.99 3.09Q31.85 3.09 33.39 5.09L33.39 5.09Q34.90 7.04 34.90 11.23L34.90 11.23Q34.90 15.56 33.50 17.59L33.50 17.59Q31.92 19.90 29.11 19.90L29.11 19.90ZM28.90 4.88L27.94 4.88L27.94 18.12L29.04 18.12Q32.93 18.12 32.93 11.23L32.93 11.23Q32.93 7.80 31.82 6.26L31.82 6.26Q30.83 4.88 28.90 4.88L28.90 4.88ZM38.41 19.90L36.71 8.50L38.39 8.50L39.40 17.23L41.09 8.50L42.90 8.50L44.59 17.23L45.60 8.50L47.27 8.50L45.57 19.90L43.72 19.90L42 11.02L40.27 19.90L38.41 19.90Z"/></svg>