<svg xmlns="http://www.w3.org/2000/svg" xmlns:xlink="http://www.w3.org/1999/xlink" width="48" height="24"><path fill="black" stroke="black" d="M4.17 11.66L4.17 10.13L5.37 10.13Q6.90 10.13 7.48 9.69L7.48 9.69Q8.55 8.86 8.55 7.20L8.55 7.20Q8.55 4.24 5.87 4.24L5.87 4.24Q3.64 4.24 3.14 6.76L3.14 6.76L1.24 6.76Q1.50 5.18 2.34 4.15L2.34 4.15Q3.63 2.61 5.87 2.61L5.87 2.61Q7.75 2.61 8.96 3.69L8.96 3.69Q10.41 4.96 10.41 7.13L10.41 7.13Q10.41 10.04 7.79 10.95L7.79 10.95Q10.95 12.16 10.95 15.39L10.95 15.39Q10.95 17.45 9.77 18.77L9.77 18.77Q8.37 20.38 5.91 20.38L5.91 20.38Q3.60 20.38 2.23 18.80L2.23 18.80Q1.22 17.64 1.01 15.60L1.01 15.60L2.98 15.60Q3.22 18.73 5.91 18.73L5.91 18.73Q7.15 18.73 7.99 18.02L7.99 18.02Q9.05 17.12 9.05 15.39L9.05 15.39Q9.05 11.66 5.37 11.66L5.37 11.66L4.17 11.66ZM13.78 19.90L13.78 3.09L15.56 3.09L15.56 9.79Q17.03 8.04 18.73 8.04L18.73 8.04Q20.50 8.04 21.61 9.57L21.61 9.57Q22.78 11.21 22.78 14.09L22.78 14.09Q22.78 16.10 22.16 17.64L22.16 17.64Q21.05 20.38 18.68 20.38L18.68 20.38Q16.72 20.38 15.54 18.41L15.54 18.41L15.08 19.90L13.78 19.90ZM18.29 9.74L18.29 9.74Q16.92 9.74 16.14 11.13L16.14 11.13Q15.49 12.28 15.49 14.09L15.49 14.09Q15.49 16.04 16.18 17.29L16.18 17.29Q16.97 18.68 18.32 18.68L18.32 18.68Q19.50 18.68 20.19 17.47L20.19 17.47Q20.91 16.25 20.91 14.09L20.91 14.09Q20.91 11.96 20.09 10.79L20.09 10.79Q19.41 9.74 18.29 9.74ZM26.43 19.90L24.57 3.09L26.47 3.09L27.46 15.95L29.11 3.09L30.89 3.09L32.54 15.95L33.53 3.09L35.43 3.09L33.57 19.90L31.68 19.90L30 6.55L28.31 19.90L26.43 19.90ZM41.03 13.31L36.73 3.09L38.88 3.09L42.01 11.11L45.13 3.09L47.29 3.09L43.00 13.31L43.00 19.90L41.03 19.90L41.03 13.31Z"/></svg>