<svg xmlns="http://www.w3.org/2000/svg" xmlns:xlink="http://www.w3.org/1999/xlink" width="48" height="24"><path fill="black" stroke="black" d="M4.17 11.66L4.17 10.13L5.37 10.13Q6.90 10.13 7.48 9.69L7.48 9.69Q8.55 8.86 8.55 7.20L8.55 7.20Q8.55 4.24 5.87 4.24L5.87 4.24Q3.64 4.24 3.14 6.76L3.14 6.76L1.24 6.76Q1.50 5.18 2.34 4.15L2.34 4.15Q3.63 2.61 5.87 2.61L5.87 2.61Q7.75 2.61 8.96 3.69L8.96 3.69Q10.41 4.96 10.41 7.13L10.41 7.13Q10.41 10.04 7.79 10.95L7.79 10.95Q10.95 12.16 10.95 15.39L10.95 15.39Q10.95 17.45 9.77 18.77L9.77 18.77Q8.37 20.38 5.91 20.38L5.91 20.38Q3.60 20.38 2.23 18.80L2.23 18.80Q1.22 17.64 1.01 15.60L1.01 15.60L2.98 15.60Q3.22 18.73 5.91 18.73L5.91 18.73Q7.15 18.73 7.99 18.02L7.99 18.02Q9.05 17.12 9.05 15.39L9.05 15.39Q9.05 11.66 5.37 11.66L5.37 11.66L4.17 11.66ZM13.68 19.90L13.68 3.09L22.13 3.09L22.13 4.97L15.64 4.97L15.64 10.27L21.26 10.27L21.26 12.09L15.64 12.09L15.64 19.90L13.68 19.90ZM25.76 8.50L27.18 8.50L27.45 9.96Q29.25 8.04 31.01 8.04L31.01 8.04Q32.96 8.04 33.87 9.76L33.87 9.76Q34.37 10.73 34.37 12.12L34.37 12.12L34.37 19.90L32.59 19.90L32.59 12.64Q32.59 9.74 30.73 9.74L30.73 9.74Q29.46 9.74 28.52 10.65L28.52 10.65Q27.54 11.64 27.54 12.91L27.54 12.91L27.54 19.90L25.76 19.90L25.76 8.50ZM37.68 19.90L37.68 3.09L41.88 3.09Q43.96 3.09 45.25 4.05L45.25 4.05Q46.95 5.37 46.95 7.83L46.95 7.83Q46.95 10.79 44.54 12.08L44.54 12.08Q43.41 12.70 41.93 12.70L41.93 12.70L39.60 12.70L39.60 19.90L37.68 19.90ZM41.73 4.92L39.60 4.92L39.60 10.88L41.73 10.88Q44.98 10.88 44.98 7.85L44.98 7.85Q44.98 6.08 43.54 5.33L43.54 5.33Q42.76 4.92 41.73 4.92L41.73 4.92Z"/></svg>