<svg xmlns="http://www.w3.org/2000/svg" xmlns:xlink="http://www.w3.org/1999/xlink" width="48" height="24"><path fill="black" stroke="black" d="M0.60 14.06L7.37 3.09L9.41 3.09L9.41 14.11L11.40 14.11L11.40 15.74L9.41 15.74L9.41 19.90L7.63 19.90L7.63 15.74L0.60 15.74L0.60 14.06ZM7.63 14.11L7.63 5.71L2.40 14.11L7.63 14.11ZM17.11 19.90L12.64 19.90L12.64 18.12L14.02 18.12L14.02 4.88L12.64 4.88L12.64 3.09L16.99 3.09Q19.85 3.09 21.39 5.09L21.39 5.09Q22.90 7.04 22.90 11.23L22.90 11.23Q22.90 15.56 21.50 17.59L21.50 17.59Q19.92 19.90 17.11 19.90L17.11 19.90ZM16.90 4.88L15.94 4.88L15.94 18.12L17.04 18.12Q20.93 18.12 20.93 11.23L20.93 11.23Q20.93 7.80 19.82 6.26L19.82 6.26Q18.83 4.88 16.90 4.88L16.90 4.88ZM25.76 8.50L27.18 8.50L27.45 9.96Q29.25 8.04 31.01 8.04L31.01 8.04Q32.96 8.04 33.87 9.76L33.87 9.76Q34.37 10.73 34.37 12.12L34.37 12.12L34.37 19.90L32.59 19.90L32.59 12.64Q32.59 9.74 30.73 9.74L30.73 9.74Q29.46 9.74 28.52 10.65L28.52 10.65Q27.54 11.64 27.54 12.91L27.54 12.91L27.54 19.90L25.76 19.90L25.76 8.50ZM37.78 19.90L37.78 3.09L39.56 3.09L39.56 9.79Q41.03 8.04 42.73 8.04L42.73 8.04Q44.50 8.04 45.61 9.57L45.61 9.57Q46.78 11.21 46.78 14.09L46.78 14.09Q46.78 16.10 46.16 17.64L46.16 17.64Q45.05 20.38 42.68 20.38L42.68 20.38Q40.72 20.38 39.54 18.41L39.54 18.41L39.08 19.90L37.78 19.90ZM42.29 9.74L42.29 9.74Q40.92 9.74 40.14 11.13L40.14 11.13Q39.49 12.28 39.49 14.09L39.49 14.09Q39.49 16.04 40.18 17.29L40.18 17.29Q40.97 18.68 42.32 18.68L42.32 18.68Q43.50 18.68 44.19 17.47L44.19 17.47Q44.91 16.25 44.91 14.09L44.91 14.09Q44.91 11.96 44.09 10.79L44.09 10.79Q43.41 9.74 42.29 9.74Z"/></svg>