<svg xmlns="http://www.w3.org/2000/svg" xmlns:xlink="http://www.w3.org/1999/xlink" width="48" height="24"><path fill="black" stroke="black" d="M0.60 14.06L7.37 3.09L9.41 3.09L9.41 14.11L11.40 14.11L11.40 15.74L9.41 15.74L9.41 19.90L7.63 19.90L7.63 15.74L0.60 15.74L0.60 14.06ZM7.63 14.11L7.63 5.71L2.40 14.11L7.63 14.11ZM13.46 19.90L13.46 3.09L15.39 3.09L15.39 10.24L20.61 10.24L20.61 3.09L22.54 3.09L22.54 19.90L20.61 19.90L20.61 12.07L15.39 12.07L15.39 19.90L13.46 19.90ZM27.50 8.50L29.33 8.50L29.33 10.90Q31.41 8.71 33.77 8.04L33.77 8.04L33.77 10.13Q31.05 10.78 29.33 13.08L29.33 13.08L29.33 19.90L27.50 19.90L27.50 8.50ZM37.78 19.90L37.78 3.09L39.56 3.09L39.56 9.79Q41.03 8.04 42.73 8.04L42.73 8.04Q44.50 8.04 45.61 9.57L45.61 9.57Q46.78 11.21 46.78 14.09L46.78 14.09Q46.78 16.10 46.16 17.64L46.16 17.64Q45.05 20.38 42.68 20.38L42.68 20.38Q40.72 20.38 39.54 18.41L39.54 18.41L39.08 19.90L37.78 19.90ZM42.29 9.74L42.29 9.74Q40.92 9.74 40.14 11.13L40.14 11.13Q39.49 12.28 39.49 14.09L39.49 14.09Q39.49 16.04 40.18 17.29L40.18 17.29Q40.97 18.68 42.32 18.68L42.32 18.68Q43.50 18.68 44.19 17.47L44.19 17.47Q44.91 16.25 44.91 14.09L44.91 14.09Q44.91 11.96 44.09 10.79L44.09 10.79Q43.41 9.74 42.29 9.74Z"/></svg>