<svg xmlns="http://www.w3.org/2000/svg" xmlns:xlink="http://www.w3.org/1999/xlink" width="48" height="24"><path fill="black" stroke="black" d="M0.60 14.06L7.37 3.09L9.41 3.09L9.41 14.11L11.40 14.11L11.40 15.74L9.41 15.74L9.41 19.90L7.63 19.90L7.63 15.74L0.60 15.74L0.60 14.06ZM7.63 14.11L7.63 5.71L2.40 14.11L7.63 14.11ZM13.68 19.90L13.68 3.09L15.69 3.09L15.69 17.98L22.77 17.98L22.77 19.90L13.68 19.90ZM30.02 8.04L30.02 8.04Q32.23 8.04 33.48 9.98L33.48 9.98Q34.56 11.60 34.56 14.20L34.56 14.20Q34.56 16.16 33.91 17.64L33.91 17.64Q32.72 20.38 29.98 20.38L29.98 20.38Q27.86 20.38 26.59 18.57L26.59 18.57Q25.44 16.92 25.44 14.20L25.44 14.20Q25.44 11.27 26.77 9.60L26.77 9.60Q28.03 8.04 30.02 8.04ZM29.98 9.71L29.98 9.71Q28.69 9.71 27.96 11.06L27.96 11.06Q27.32 12.25 27.32 14.20L27.32 14.20Q27.32 16.01 27.84 17.14L27.84 17.14Q28.57 18.70 30 18.70L30 18.70Q31.31 18.70 32.04 17.36L32.04 17.36Q32.68 16.17 32.68 14.23L32.68 14.23Q32.68 12.20 32.02 11.04L32.02 11.04Q31.30 9.71 29.98 9.71ZM37.71 12.46L38.12 3.09L46.09 3.09L46.09 4.77L39.80 4.77L39.54 10.29Q40.72 8.93 42.52 8.93L42.52 8.93Q44.44 8.93 45.70 10.56L45.70 10.56Q46.91 12.13 46.91 14.47L46.91 14.47Q46.91 16.48 46.11 17.95L46.11 17.95Q44.78 20.38 41.96 20.38L41.96 20.38Q38.02 20.38 37.23 15.96L37.23 15.96L39.15 15.96Q39.55 18.70 41.95 18.70L41.95 18.70Q43.50 18.70 44.36 17.38L44.36 17.38Q45.08 16.27 45.08 14.50L45.08 14.50Q45.08 12.93 44.47 11.91L44.47 11.91Q43.72 10.54 42.20 10.54L42.20 10.54Q40.34 10.54 39.22 12.77L39.22 12.77L37.71 12.46Z"/></svg>