<svg xmlns="http://www.w3.org/2000/svg" xmlns:xlink="http://www.w3.org/1999/xlink" width="48" height="24"><path fill="black" stroke="black" d="M0.60 14.06L7.37 3.09L9.41 3.09L9.41 14.11L11.40 14.11L11.40 15.74L9.41 15.74L9.41 19.90L7.63 19.90L7.63 15.74L0.60 15.74L0.60 14.06ZM7.63 14.11L7.63 5.71L2.40 14.11L7.63 14.11ZM18.94 3.09L18.94 17.27Q18.94 18.30 19.92 18.30L19.92 18.30Q20.73 18.30 21.69 18.12L21.69 18.12L21.69 19.91Q20.27 20.11 19.61 20.11L19.61 20.11Q17.06 20.11 17.06 17.61L17.06 17.61L17.06 3.09L18.94 3.09ZM24.94 4.97L24.94 3.09L35.06 3.09L35.06 4.97L31.01 4.97L31.01 19.90L28.99 19.90L28.99 4.97L24.94 4.97ZM41.45 18.89L37.42 8.50L39.48 8.50L42.34 16.61L44.86 8.50L46.95 8.50L42.23 21.67Q41.85 22.82 40.90 23.18L40.90 23.18Q40.45 23.36 38.06 23.36L38.06 23.36L38.06 21.62L39.09 21.62Q39.46 21.62 39.62 21.62L39.62 21.62Q40.43 21.62 40.68 20.98L40.68 20.98L41.45 18.89Z"/></svg>