<svg xmlns="http://www.w3.org/2000/svg" xmlns:xlink="http://www.w3.org/1999/xlink" width="48" height="24"><path fill="black" stroke="black" d="M0.60 14.06L7.37 3.09L9.41 3.09L9.41 14.11L11.40 14.11L11.40 15.74L9.41 15.74L9.41 19.90L7.63 19.90L7.63 15.74L0.60 15.74L0.60 14.06ZM7.63 14.11L7.63 5.71L2.40 14.11L7.63 14.11ZM13.68 19.90L13.68 3.09L15.69 3.09L15.69 17.98L22.77 17.98L22.77 19.90L13.68 19.90ZM26.43 19.90L24.57 3.09L26.47 3.09L27.46 15.95L29.11 3.09L30.89 3.09L32.54 15.95L33.53 3.09L35.43 3.09L33.57 19.90L31.68 19.90L30 6.55L28.31 19.90L26.43 19.90ZM38.43 19.90L36.57 3.09L38.47 3.09L39.46 15.95L41.11 3.09L42.89 3.09L44.54 15.95L45.53 3.09L47.43 3.09L45.57 19.90L43.68 19.90L42 6.55L40.31 19.90L38.43 19.90Z"/></svg>