<svg xmlns="http://www.w3.org/2000/svg" xmlns:xlink="http://www.w3.org/1999/xlink" width="48" height="24"><path fill="black" stroke="black" d="M0.60 14.06L7.37 3.09L9.41 3.09L9.41 14.11L11.40 14.11L11.40 15.74L9.41 15.74L9.41 19.90L7.63 19.90L7.63 15.74L0.60 15.74L0.60 14.06ZM7.63 14.11L7.63 5.71L2.40 14.11L7.63 14.11ZM13.44 16.36L15.34 16.36Q15.66 18.76 18.14 18.76L18.14 18.76Q20.64 18.76 20.64 17.00L20.64 17.00Q20.64 16.16 20.06 15.69L20.06 15.69Q19.45 15.19 17.88 14.64L17.88 14.64L17.54 14.51Q15.81 13.91 15.02 13.31L15.02 13.31Q13.90 12.43 13.90 11.19L13.90 11.19Q13.90 9.70 15.20 8.80L15.20 8.80Q16.32 8.03 17.93 8.03L17.93 8.03Q21.55 8.03 22.13 11.32L22.13 11.32L20.26 11.32Q19.97 9.56 17.91 9.56L17.91 9.56Q15.70 9.56 15.70 11.12L15.70 11.12Q15.70 12.14 18.66 13.18L18.66 13.18Q20.32 13.77 21.05 14.30L21.05 14.30Q22.46 15.30 22.46 16.96L22.46 16.96Q22.46 18.56 21.20 19.50L21.20 19.50Q20.00 20.37 18.09 20.37L18.09 20.37Q13.91 20.37 13.44 16.36L13.44 16.36ZM29.02 19.90L25.22 8.50L27.23 8.50L30 17.71L32.75 8.50L34.77 8.50L30.98 19.90L29.02 19.90ZM46.88 18.12L46.88 19.90L36.94 19.90Q37.65 15.29 41.73 11.92L41.73 11.92Q43.36 10.59 43.93 9.74L43.93 9.74Q44.68 8.67 44.68 7.22L44.68 7.22Q44.68 6.04 44.16 5.30L44.16 5.30Q43.48 4.27 42.12 4.27L42.12 4.27Q39.35 4.27 39.09 8.34L39.09 8.34L37.21 8.34Q37.35 5.91 38.36 4.51L38.36 4.51Q39.68 2.64 42.16 2.64L42.16 2.64Q43.90 2.64 45.09 3.64L45.09 3.64Q46.61 4.95 46.61 7.20L46.61 7.20Q46.61 10.34 43.05 13.03L43.05 13.03Q40.02 15.34 39.41 18.12L39.41 18.12L46.88 18.12Z"/></svg>