<svg xmlns="http://www.w3.org/2000/svg" xmlns:xlink="http://www.w3.org/1999/xlink" width="48" height="24"><path fill="black" stroke="black" d="M1.71 12.46L2.12 3.09L10.09 3.09L10.09 4.77L3.80 4.77L3.54 10.29Q4.72 8.93 6.52 8.93L6.52 8.93Q8.44 8.93 9.70 10.56L9.70 10.56Q10.91 12.13 10.91 14.47L10.91 14.47Q10.91 16.48 10.11 17.95L10.11 17.95Q8.78 20.38 5.96 20.38L5.96 20.38Q2.02 20.38 1.23 15.96L1.23 15.96L3.15 15.96Q3.55 18.70 5.95 18.70L5.95 18.70Q7.50 18.70 8.36 17.38L8.36 17.38Q9.08 16.27 9.08 14.50L9.08 14.50Q9.08 12.93 8.47 11.91L8.47 11.91Q7.72 10.54 6.20 10.54L6.20 10.54Q4.34 10.54 3.22 12.77L3.22 12.77L1.71 12.46ZM13.78 19.90L13.78 3.09L15.56 3.09L15.56 9.79Q17.03 8.04 18.73 8.04L18.73 8.04Q20.50 8.04 21.61 9.57L21.61 9.57Q22.78 11.21 22.78 14.09L22.78 14.09Q22.78 16.10 22.16 17.64L22.16 17.64Q21.05 20.38 18.68 20.38L18.68 20.38Q16.72 20.38 15.54 18.41L15.54 18.41L15.08 19.90L13.78 19.90ZM18.29 9.74L18.29 9.74Q16.92 9.74 16.14 11.13L16.14 11.13Q15.49 12.28 15.49 14.09L15.49 14.09Q15.49 16.04 16.18 17.29L16.18 17.29Q16.97 18.68 18.32 18.68L18.32 18.68Q19.50 18.68 20.19 17.47L20.19 17.47Q20.91 16.25 20.91 14.09L20.91 14.09Q20.91 11.96 20.09 10.79L20.09 10.79Q19.41 9.74 18.29 9.74ZM32.61 16.08L34.56 16.08Q33.62 20.38 30.02 20.38L30.02 20.38Q27.86 20.38 26.59 18.57L26.59 18.57Q25.44 16.92 25.44 14.20L25.44 14.20Q25.44 11.61 26.52 9.96L26.52 9.96Q27.79 8.04 30 8.04L30 8.04Q33.43 8.04 34.37 11.93L34.37 11.93L32.45 11.93Q31.95 9.71 30.02 9.71L30.02 9.71Q28.80 9.71 28.09 10.84L28.09 10.84Q27.32 12.05 27.32 14.20L27.32 14.20Q27.32 15.98 27.84 17.12L27.84 17.12Q28.56 18.70 30.02 18.70L30.02 18.70Q32.16 18.70 32.61 16.08L32.61 16.08ZM39.50 8.50L41.33 8.50L41.33 10.90Q43.41 8.71 45.77 8.04L45.77 8.04L45.77 10.13Q43.05 10.78 41.33 13.08L41.33 13.08L41.33 19.90L39.50 19.90L39.50 8.50Z"/></svg>