<svg xmlns="http://www.w3.org/2000/svg" xmlns:xlink="http://www.w3.org/1999/xlink" width="48" height="24"><path fill="black" stroke="black" d="M1.71 12.46L2.12 3.09L10.09 3.09L10.09 4.77L3.80 4.77L3.54 10.29Q4.72 8.93 6.52 8.93L6.52 8.93Q8.44 8.93 9.70 10.56L9.70 10.56Q10.91 12.13 10.91 14.47L10.91 14.47Q10.91 16.48 10.11 17.95L10.11 17.95Q8.78 20.38 5.96 20.38L5.96 20.38Q2.02 20.38 1.23 15.96L1.23 15.96L3.15 15.96Q3.55 18.70 5.95 18.70L5.95 18.70Q7.50 18.70 8.36 17.38L8.36 17.38Q9.08 16.27 9.08 14.50L9.08 14.50Q9.08 12.93 8.47 11.91L8.47 11.91Q7.72 10.54 6.20 10.54L6.20 10.54Q4.34 10.54 3.22 12.77L3.22 12.77L1.71 12.46ZM13.51 19.90L13.51 3.09L15.39 3.09L15.39 11.11L20.26 3.09L22.58 3.09L18.57 9.57L23.19 19.90L20.86 19.90L17.33 11.16L15.39 14.09L15.39 19.90L13.51 19.90ZM30 2.61L30 2.61Q34.66 2.61 34.66 11.50L34.66 11.50Q34.66 20.38 30 20.38L30 20.38Q25.35 20.38 25.35 11.50L25.35 11.50Q25.35 2.61 30 2.61ZM27.66 15.67L27.66 15.67L31.95 5.88Q31.27 4.27 29.98 4.27L29.98 4.27Q27.32 4.27 27.32 11.50L27.32 11.50Q27.32 13.96 27.66 15.67ZM32.36 7.34L28.05 17.09Q28.71 18.73 30 18.73L30 18.73Q32.70 18.73 32.70 11.47L32.70 11.47Q32.70 9.07 32.36 7.34L32.36 7.34ZM43.65 15.64L43.65 3.09L45.67 3.09L45.67 15.55Q45.67 20.37 41.50 20.37L41.50 20.37Q37.31 20.37 37.05 15.26L37.05 15.26L39.09 15.26Q39.13 18.49 41.50 18.49L41.50 18.49Q43.65 18.49 43.65 15.64L43.65 15.64Z"/></svg>