<svg xmlns="http://www.w3.org/2000/svg" xmlns:xlink="http://www.w3.org/1999/xlink" width="48" height="24"><path fill="black" stroke="black" d="M1.71 12.46L2.12 3.09L10.09 3.09L10.09 4.77L3.80 4.77L3.54 10.29Q4.72 8.93 6.52 8.93L6.52 8.93Q8.44 8.93 9.70 10.56L9.70 10.56Q10.91 12.13 10.91 14.47L10.91 14.47Q10.91 16.48 10.11 17.95L10.11 17.95Q8.78 20.38 5.96 20.38L5.96 20.38Q2.02 20.38 1.23 15.96L1.23 15.96L3.15 15.96Q3.55 18.70 5.95 18.70L5.95 18.70Q7.50 18.70 8.36 17.38L8.36 17.38Q9.08 16.27 9.08 14.50L9.08 14.50Q9.08 12.93 8.47 11.91L8.47 11.91Q7.72 10.54 6.20 10.54L6.20 10.54Q4.34 10.54 3.22 12.77L3.22 12.77L1.71 12.46ZM13.51 19.90L13.51 3.09L15.39 3.09L15.39 11.11L20.26 3.09L22.58 3.09L18.57 9.57L23.19 19.90L20.86 19.90L17.33 11.16L15.39 14.09L15.39 19.90L13.51 19.90ZM32.82 14.30L34.84 14.30Q34.31 20.37 30.09 20.37L30.09 20.37Q27.62 20.37 26.27 17.80L26.27 17.80Q25.10 15.55 25.10 11.52L25.10 11.52Q25.10 7.41 26.40 4.99L26.40 4.99Q27.69 2.61 30.09 2.61L30.09 2.61Q33.95 2.61 34.70 7.90L34.70 7.90L32.73 7.90Q32.23 4.42 30.09 4.42L30.09 4.42Q27.16 4.42 27.16 11.52L27.16 11.52Q27.16 18.56 30.12 18.56L30.12 18.56Q32.61 18.56 32.82 14.30L32.82 14.30ZM46.68 6.83L44.71 6.83Q44.34 4.29 42.42 4.29L42.42 4.29Q40.76 4.29 39.86 6.30L39.86 6.30Q39.01 8.19 38.98 11.41L38.98 11.41Q40.35 9.42 42.47 9.42L42.47 9.42Q44.23 9.42 45.45 10.72L45.45 10.72Q46.89 12.23 46.89 14.71L46.89 14.71Q46.89 16.77 45.90 18.30L45.90 18.30Q44.57 20.37 42.14 20.37L42.14 20.37Q39.94 20.37 38.61 18.35L38.61 18.35Q37.20 16.14 37.20 12.21L37.20 12.21Q37.20 8.04 38.44 5.47L38.44 5.47Q39.86 2.61 42.40 2.61L42.40 2.61Q45.88 2.61 46.68 6.83L46.68 6.83ZM42.16 10.98L42.16 10.98Q40.77 10.98 39.93 12.26L39.93 12.26Q39.28 13.27 39.28 14.78L39.28 14.78Q39.28 16.14 39.74 17.09L39.74 17.09Q40.54 18.71 42.19 18.71L42.19 18.71Q43.51 18.71 44.32 17.52L44.32 17.52Q45.04 16.46 45.04 14.75L45.04 14.75Q45.04 13.20 44.41 12.21L44.41 12.21Q43.65 10.98 42.16 10.98Z"/></svg>