<svg xmlns="http://www.w3.org/2000/svg" xmlns:xlink="http://www.w3.org/1999/xlink" width="48" height="24"><path fill="black" stroke="black" d="M1.71 12.46L2.12 3.09L10.09 3.09L10.09 4.77L3.80 4.77L3.54 10.29Q4.72 8.93 6.52 8.93L6.52 8.93Q8.44 8.93 9.70 10.56L9.70 10.56Q10.91 12.13 10.91 14.47L10.91 14.47Q10.91 16.48 10.11 17.95L10.11 17.95Q8.78 20.38 5.96 20.38L5.96 20.38Q2.02 20.38 1.23 15.96L1.23 15.96L3.15 15.96Q3.55 18.70 5.95 18.70L5.95 18.70Q7.50 18.70 8.36 17.38L8.36 17.38Q9.08 16.27 9.08 14.50L9.08 14.50Q9.08 12.93 8.47 11.91L8.47 11.91Q7.72 10.54 6.20 10.54L6.20 10.54Q4.34 10.54 3.22 12.77L3.22 12.77L1.71 12.46ZM13.51 19.90L13.51 3.09L15.39 3.09L15.39 11.11L20.26 3.09L22.58 3.09L18.57 9.57L23.19 19.90L20.86 19.90L17.33 11.16L15.39 14.09L15.39 19.90L13.51 19.90ZM25.44 16.36L27.34 16.36Q27.66 18.76 30.14 18.76L30.14 18.76Q32.64 18.76 32.64 17.00L32.64 17.00Q32.64 16.16 32.06 15.69L32.06 15.69Q31.45 15.19 29.88 14.64L29.88 14.64L29.54 14.51Q27.81 13.91 27.02 13.31L27.02 13.31Q25.90 12.43 25.90 11.19L25.90 11.19Q25.90 9.70 27.20 8.80L27.20 8.80Q28.32 8.03 29.93 8.03L29.93 8.03Q33.55 8.03 34.13 11.32L34.13 11.32L32.26 11.32Q31.97 9.56 29.91 9.56L29.91 9.56Q27.70 9.56 27.70 11.12L27.70 11.12Q27.70 12.14 30.66 13.18L30.66 13.18Q32.32 13.77 33.05 14.30L33.05 14.30Q34.46 15.30 34.46 16.96L34.46 16.96Q34.46 18.56 33.20 19.50L33.20 19.50Q32.00 20.37 30.09 20.37L30.09 20.37Q25.91 20.37 25.44 16.36L25.44 16.36ZM44.68 16.36L46.56 16.36Q45.52 20.37 42.02 20.37L42.02 20.37Q39.86 20.37 38.59 18.56L38.59 18.56Q37.44 16.91 37.44 14.20L37.44 14.20Q37.44 11.61 38.52 9.96L38.52 9.96Q39.79 8.04 42 8.04L42 8.04Q46.32 8.04 46.61 14.57L46.61 14.57L39.25 14.57Q39.39 18.76 42.05 18.76L42.05 18.76Q44.16 18.76 44.68 16.36L44.68 16.36ZM39.32 13.03L44.68 13.03Q44.30 9.64 42 9.64L42 9.64Q39.79 9.64 39.32 13.03L39.32 13.03Z"/></svg>