<svg xmlns="http://www.w3.org/2000/svg" xmlns:xlink="http://www.w3.org/1999/xlink" width="48" height="24"><path fill="black" stroke="black" d="M10.68 6.83L8.71 6.83Q8.34 4.29 6.42 4.29L6.42 4.29Q4.76 4.29 3.86 6.30L3.86 6.30Q3.01 8.19 2.98 11.41L2.98 11.41Q4.35 9.42 6.47 9.42L6.47 9.42Q8.23 9.42 9.45 10.72L9.45 10.72Q10.89 12.23 10.89 14.71L10.89 14.71Q10.89 16.77 9.90 18.30L9.90 18.30Q8.57 20.37 6.14 20.37L6.14 20.37Q3.94 20.37 2.61 18.35L2.61 18.35Q1.20 16.14 1.20 12.21L1.20 12.21Q1.20 8.04 2.44 5.47L2.44 5.47Q3.86 2.61 6.40 2.61L6.40 2.61Q9.88 2.61 10.68 6.83L10.68 6.83ZM6.16 10.98L6.16 10.98Q4.77 10.98 3.93 12.26L3.93 12.26Q3.28 13.27 3.28 14.78L3.28 14.78Q3.28 16.14 3.74 17.09L3.74 17.09Q4.54 18.71 6.19 18.71L6.19 18.71Q7.51 18.71 8.32 17.52L8.32 17.52Q9.04 16.46 9.04 14.75L9.04 14.75Q9.04 13.20 8.41 12.21L8.41 12.21Q7.65 10.98 6.16 10.98ZM13.92 8.50L16.83 8.50L16.83 5.52Q16.83 3.09 19.30 3.09L19.30 3.09L21.89 3.09L21.89 4.77L19.64 4.77Q18.66 4.77 18.66 5.66L18.66 5.66L18.66 8.50L21.89 8.50L21.89 10.17L18.66 10.17L18.66 19.90L16.83 19.90L16.83 10.17L13.92 10.17L13.92 8.50ZM25.10 15.07L27.12 15.07Q27.26 18.62 30.19 18.62L30.19 18.62Q31.24 18.62 31.95 18.09L31.95 18.09Q32.93 17.33 32.93 15.96L32.93 15.96Q32.93 14.48 31.70 13.36L31.70 13.36Q30.86 12.61 28.80 11.43L28.80 11.43Q25.56 9.52 25.56 6.87L25.56 6.87Q25.56 5.19 26.61 4.03L26.61 4.03Q27.89 2.61 30.02 2.61L30.02 2.61Q34.00 2.61 34.54 7.39L34.54 7.39L32.57 7.39Q32.48 6.29 32.11 5.64L32.11 5.64Q31.36 4.31 30.02 4.31L30.02 4.31Q28.64 4.31 27.96 5.25L27.96 5.25Q27.48 5.92 27.48 6.71L27.48 6.71Q27.48 8.61 30.57 10.42L30.57 10.42Q32.48 11.53 33.50 12.55L33.50 12.55Q34.88 13.89 34.88 15.94L34.88 15.94Q34.88 17.87 33.64 19.05L33.64 19.05Q32.33 20.38 30.25 20.38L30.25 20.38Q27.63 20.38 26.18 18.46L26.18 18.46Q25.17 17.12 25.10 15.07L25.10 15.07ZM43.32 19.90L41.36 19.90L41.36 5.54Q40.45 6.15 38.84 6.83L38.84 6.83L38.84 4.90Q40.71 4.21 41.86 3.09L41.86 3.09L43.32 3.09L43.32 19.90Z"/></svg>