<svg xmlns="http://www.w3.org/2000/svg" xmlns:xlink="http://www.w3.org/1999/xlink" width="48" height="24"><path fill="black" stroke="black" d="M10.68 6.83L8.71 6.83Q8.34 4.29 6.42 4.29L6.42 4.29Q4.76 4.29 3.86 6.30L3.86 6.30Q3.01 8.19 2.98 11.41L2.98 11.41Q4.35 9.42 6.47 9.42L6.47 9.42Q8.23 9.42 9.45 10.72L9.45 10.72Q10.89 12.23 10.89 14.71L10.89 14.71Q10.89 16.77 9.90 18.30L9.90 18.30Q8.57 20.37 6.14 20.37L6.14 20.37Q3.94 20.37 2.61 18.35L2.61 18.35Q1.20 16.14 1.20 12.21L1.20 12.21Q1.20 8.04 2.44 5.47L2.44 5.47Q3.86 2.61 6.40 2.61L6.40 2.61Q9.88 2.61 10.68 6.83L10.68 6.83ZM6.16 10.98L6.16 10.98Q4.77 10.98 3.93 12.26L3.93 12.26Q3.28 13.27 3.28 14.78L3.28 14.78Q3.28 16.14 3.74 17.09L3.74 17.09Q4.54 18.71 6.19 18.71L6.19 18.71Q7.51 18.71 8.32 17.52L8.32 17.52Q9.04 16.46 9.04 14.75L9.04 14.75Q9.04 13.20 8.41 12.21L8.41 12.21Q7.65 10.98 6.16 10.98ZM15.50 8.50L17.33 8.50L17.33 10.90Q19.41 8.71 21.77 8.04L21.77 8.04L21.77 10.13Q19.05 10.78 17.33 13.08L17.33 13.08L17.33 19.90L15.50 19.90L15.50 8.50ZM31.32 19.90L29.36 19.90L29.36 5.54Q28.45 6.15 26.84 6.83L26.84 6.83L26.84 4.90Q28.71 4.21 29.86 3.09L29.86 3.09L31.32 3.09L31.32 19.90ZM43.32 19.90L41.36 19.90L41.36 5.54Q40.45 6.15 38.84 6.83L38.84 6.83L38.84 4.90Q40.71 4.21 41.86 3.09L41.86 3.09L43.32 3.09L43.32 19.90Z"/></svg>