<svg xmlns="http://www.w3.org/2000/svg" xmlns:xlink="http://www.w3.org/1999/xlink" width="48" height="24"><path fill="black" stroke="black" d="M10.68 6.83L8.71 6.83Q8.34 4.29 6.42 4.29L6.42 4.29Q4.76 4.29 3.86 6.30L3.86 6.30Q3.01 8.19 2.98 11.41L2.98 11.41Q4.35 9.42 6.47 9.42L6.47 9.42Q8.23 9.42 9.45 10.72L9.45 10.72Q10.89 12.23 10.89 14.71L10.89 14.71Q10.89 16.77 9.90 18.30L9.90 18.30Q8.57 20.37 6.14 20.37L6.14 20.37Q3.94 20.37 2.61 18.35L2.61 18.35Q1.20 16.14 1.20 12.21L1.20 12.21Q1.20 8.04 2.44 5.47L2.44 5.47Q3.86 2.61 6.40 2.61L6.40 2.61Q9.88 2.61 10.68 6.83L10.68 6.83ZM6.16 10.98L6.16 10.98Q4.77 10.98 3.93 12.26L3.93 12.26Q3.28 13.27 3.28 14.78L3.28 14.78Q3.28 16.14 3.74 17.09L3.74 17.09Q4.54 18.71 6.19 18.71L6.19 18.71Q7.51 18.71 8.32 17.52L8.32 17.52Q9.04 16.46 9.04 14.75L9.04 14.75Q9.04 13.20 8.41 12.21L8.41 12.21Q7.65 10.98 6.16 10.98ZM15.50 8.50L17.33 8.50L17.33 10.90Q19.41 8.71 21.77 8.04L21.77 8.04L21.77 10.13Q19.05 10.78 17.33 13.08L17.33 13.08L17.33 19.90L15.50 19.90L15.50 8.50ZM30.02 8.04L30.02 8.04Q32.23 8.04 33.48 9.98L33.48 9.98Q34.56 11.60 34.56 14.20L34.56 14.20Q34.56 16.16 33.91 17.64L33.91 17.64Q32.72 20.38 29.98 20.38L29.98 20.38Q27.86 20.38 26.59 18.57L26.59 18.57Q25.44 16.92 25.44 14.20L25.44 14.20Q25.44 11.27 26.77 9.60L26.77 9.60Q28.03 8.04 30.02 8.04ZM29.98 9.71L29.98 9.71Q28.69 9.71 27.96 11.06L27.96 11.06Q27.32 12.25 27.32 14.20L27.32 14.20Q27.32 16.01 27.84 17.14L27.84 17.14Q28.57 18.70 30 18.70L30 18.70Q31.31 18.70 32.04 17.36L32.04 17.36Q32.68 16.17 32.68 14.23L32.68 14.23Q32.68 12.20 32.02 11.04L32.02 11.04Q31.30 9.71 29.98 9.71ZM41.11 19.90L36.64 19.90L36.64 18.12L38.02 18.12L38.02 4.88L36.64 4.88L36.64 3.09L40.99 3.09Q43.85 3.09 45.39 5.09L45.39 5.09Q46.90 7.04 46.90 11.23L46.90 11.23Q46.90 15.56 45.50 17.59L45.50 17.59Q43.92 19.90 41.11 19.90L41.11 19.90ZM40.90 4.88L39.94 4.88L39.94 18.12L41.04 18.12Q44.93 18.12 44.93 11.23L44.93 11.23Q44.93 7.80 43.82 6.26L43.82 6.26Q42.83 4.88 40.90 4.88L40.90 4.88Z"/></svg>