<svg xmlns="http://www.w3.org/2000/svg" xmlns:xlink="http://www.w3.org/1999/xlink" width="48" height="24"><path fill="black" stroke="black" d="M10.68 6.83L8.71 6.83Q8.34 4.29 6.42 4.29L6.42 4.29Q4.76 4.29 3.86 6.30L3.86 6.30Q3.01 8.19 2.98 11.41L2.98 11.41Q4.35 9.42 6.47 9.42L6.47 9.42Q8.23 9.42 9.45 10.72L9.45 10.72Q10.89 12.23 10.89 14.71L10.89 14.71Q10.89 16.77 9.90 18.30L9.90 18.30Q8.57 20.37 6.14 20.37L6.14 20.37Q3.94 20.37 2.61 18.35L2.61 18.35Q1.20 16.14 1.20 12.21L1.20 12.21Q1.20 8.04 2.44 5.47L2.44 5.47Q3.86 2.61 6.40 2.61L6.40 2.61Q9.88 2.61 10.68 6.83L10.68 6.83ZM6.16 10.98L6.16 10.98Q4.77 10.98 3.93 12.26L3.93 12.26Q3.28 13.27 3.28 14.78L3.28 14.78Q3.28 16.14 3.74 17.09L3.74 17.09Q4.54 18.71 6.19 18.71L6.19 18.71Q7.51 18.71 8.32 17.52L8.32 17.52Q9.04 16.46 9.04 14.75L9.04 14.75Q9.04 13.20 8.41 12.21L8.41 12.21Q7.65 10.98 6.16 10.98ZM17.45 18.89L13.42 8.50L15.48 8.50L18.34 16.61L20.86 8.50L22.95 8.50L18.23 21.67Q17.85 22.82 16.90 23.18L16.90 23.18Q16.45 23.36 14.06 23.36L14.06 23.36L14.06 21.62L15.09 21.62Q15.46 21.62 15.62 21.62L15.62 21.62Q16.43 21.62 16.68 20.98L16.68 20.98L17.45 18.89ZM28.99 13.61L25.77 8.50L27.96 8.50L30 12.23L32.04 8.50L34.22 8.50L31.01 13.61L34.97 19.90L32.64 19.90L30 15.16L27.36 19.90L25.03 19.90L28.99 13.61ZM37.68 19.90L37.68 3.09L46.10 3.09L46.10 4.92L39.60 4.92L39.60 10.27L45.23 10.27L45.23 12.05L39.60 12.05L39.60 18.07L46.58 18.07L46.58 19.90L37.68 19.90Z"/></svg>