<svg xmlns="http://www.w3.org/2000/svg" xmlns:xlink="http://www.w3.org/1999/xlink" width="48" height="24"><path fill="black" stroke="black" d="M1.20 4.92L1.20 3.09L10.79 3.09L10.79 4.46Q7.42 12.82 5.73 19.90L5.73 19.90L3.55 19.90Q5.38 13.43 8.73 4.92L8.73 4.92L1.20 4.92ZM13.76 8.50L15.18 8.50L15.45 9.96Q17.25 8.04 19.01 8.04L19.01 8.04Q20.96 8.04 21.87 9.76L21.87 9.76Q22.37 10.73 22.37 12.12L22.37 12.12L22.37 19.90L20.59 19.90L20.59 12.64Q20.59 9.74 18.73 9.74L18.73 9.74Q17.46 9.74 16.52 10.65L16.52 10.65Q15.54 11.64 15.54 12.91L15.54 12.91L15.54 19.90L13.76 19.90L13.76 8.50ZM24.50 19.90L28.80 3.09L31.20 3.09L35.50 19.90L33.41 19.90L32.13 14.41L27.87 14.41L26.59 19.90L24.50 19.90ZM31.75 12.74L30 4.79L28.24 12.74L31.75 12.74ZM40.17 11.66L40.17 10.13L41.37 10.13Q42.90 10.13 43.48 9.69L43.48 9.69Q44.55 8.86 44.55 7.20L44.55 7.20Q44.55 4.24 41.87 4.24L41.87 4.24Q39.64 4.24 39.14 6.76L39.14 6.76L37.24 6.76Q37.50 5.18 38.34 4.15L38.34 4.15Q39.63 2.61 41.87 2.61L41.87 2.61Q43.75 2.61 44.96 3.69L44.96 3.69Q46.41 4.96 46.41 7.13L46.41 7.13Q46.41 10.04 43.79 10.95L43.79 10.95Q46.95 12.16 46.95 15.39L46.95 15.39Q46.95 17.45 45.77 18.77L45.77 18.77Q44.37 20.38 41.91 20.38L41.91 20.38Q39.60 20.38 38.23 18.80L38.23 18.80Q37.22 17.64 37.01 15.60L37.01 15.60L38.98 15.60Q39.22 18.73 41.91 18.73L41.91 18.73Q43.15 18.73 43.99 18.02L43.99 18.02Q45.05 17.12 45.05 15.39L45.05 15.39Q45.05 11.66 41.37 11.66L41.37 11.66L40.17 11.66Z"/></svg>