<svg xmlns="http://www.w3.org/2000/svg" xmlns:xlink="http://www.w3.org/1999/xlink" width="48" height="24"><path fill="black" stroke="black" d="M1.20 4.92L1.20 3.09L10.79 3.09L10.79 4.46Q7.42 12.82 5.73 19.90L5.73 19.90L3.55 19.90Q5.38 13.43 8.73 4.92L8.73 4.92L1.20 4.92ZM18.02 8.04L18.02 8.04Q20.23 8.04 21.48 9.98L21.48 9.98Q22.56 11.60 22.56 14.20L22.56 14.20Q22.56 16.16 21.91 17.64L21.91 17.64Q20.72 20.38 17.98 20.38L17.98 20.38Q15.86 20.38 14.59 18.57L14.59 18.57Q13.44 16.92 13.44 14.20L13.44 14.20Q13.44 11.27 14.77 9.60L14.77 9.60Q16.03 8.04 18.02 8.04ZM17.98 9.71L17.98 9.71Q16.69 9.71 15.96 11.06L15.96 11.06Q15.32 12.25 15.32 14.20L15.32 14.20Q15.32 16.01 15.84 17.14L15.84 17.14Q16.57 18.70 18 18.70L18 18.70Q19.31 18.70 20.04 17.36L20.04 17.36Q20.68 16.17 20.68 14.23L20.68 14.23Q20.68 12.20 20.02 11.04L20.02 11.04Q19.30 9.71 17.98 9.71ZM30 2.61L30 2.61Q34.66 2.61 34.66 11.50L34.66 11.50Q34.66 20.38 30 20.38L30 20.38Q25.35 20.38 25.35 11.50L25.35 11.50Q25.35 2.61 30 2.61ZM27.66 15.67L27.66 15.67L31.95 5.88Q31.27 4.27 29.98 4.27L29.98 4.27Q27.32 4.27 27.32 11.50L27.32 11.50Q27.32 13.96 27.66 15.67ZM32.36 7.34L28.05 17.09Q28.71 18.73 30 18.73L30 18.73Q32.70 18.73 32.70 11.47L32.70 11.47Q32.70 9.07 32.36 7.34L32.36 7.34ZM37.68 19.90L37.68 3.09L41.88 3.09Q43.96 3.09 45.25 4.05L45.25 4.05Q46.95 5.37 46.95 7.83L46.95 7.83Q46.95 10.79 44.54 12.08L44.54 12.08Q43.41 12.70 41.93 12.70L41.93 12.70L39.60 12.70L39.60 19.90L37.68 19.90ZM41.73 4.92L39.60 4.92L39.60 10.88L41.73 10.88Q44.98 10.88 44.98 7.85L44.98 7.85Q44.98 6.08 43.54 5.33L43.54 5.33Q42.76 4.92 41.73 4.92L41.73 4.92Z"/></svg>