<svg xmlns="http://www.w3.org/2000/svg" xmlns:xlink="http://www.w3.org/1999/xlink" width="48" height="24"><path fill="black" stroke="black" d="M1.20 4.92L1.20 3.09L10.79 3.09L10.79 4.46Q7.42 12.82 5.73 19.90L5.73 19.90L3.55 19.90Q5.38 13.43 8.73 4.92L8.73 4.92L1.20 4.92ZM12.94 4.97L12.94 3.09L23.06 3.09L23.06 4.97L19.01 4.97L19.01 19.90L16.99 19.90L16.99 4.97L12.94 4.97ZM25.68 19.90L25.68 3.09L34.10 3.09L34.10 4.92L27.60 4.92L27.60 10.27L33.23 10.27L33.23 12.05L27.60 12.05L27.60 18.07L34.58 18.07L34.58 19.90L25.68 19.90ZM45.64 20.73L44.23 21.74Q43.98 20.77 43.56 19.97L43.56 19.97Q42.77 20.38 41.95 20.38L41.95 20.38Q39.68 20.38 38.43 18.05L38.43 18.05Q37.10 15.66 37.10 11.50L37.10 11.50Q37.10 7.28 38.47 4.88L38.47 4.88Q39.76 2.61 42 2.61L42 2.61Q44.25 2.61 45.55 4.90L45.55 4.90Q46.90 7.32 46.90 11.47L46.90 11.47Q46.90 16.64 44.88 18.98L44.88 18.98Q45.53 20.43 45.64 20.73L45.64 20.73ZM41.20 15.48L42.50 14.59Q43.02 15.29 44.06 17.18L44.06 17.18Q44.88 15.55 44.88 11.52L44.88 11.52Q44.88 4.37 42 4.37L42 4.37Q39.12 4.37 39.12 11.47L39.12 11.47Q39.12 18.68 41.95 18.68L41.95 18.68Q42.41 18.68 42.91 18.50L42.91 18.50Q42.21 16.93 41.20 15.48L41.20 15.48Z"/></svg>