<svg xmlns="http://www.w3.org/2000/svg" xmlns:xlink="http://www.w3.org/1999/xlink" width="48" height="24"><path fill="black" stroke="black" d="M3.94 10.84L3.94 10.84Q1.51 9.66 1.51 7.05L1.51 7.05Q1.51 5.80 2.11 4.77L2.11 4.77Q3.38 2.61 6 2.61L6 2.61Q7.31 2.61 8.45 3.30L8.45 3.30Q10.49 4.56 10.49 7.05L10.49 7.05Q10.49 9.66 8.06 10.84L8.06 10.84Q11.17 12.04 11.17 15.34L11.17 15.34Q11.17 17.23 10.11 18.57L10.11 18.57Q8.71 20.38 6 20.38L6 20.38Q3.70 20.38 2.31 19.05L2.31 19.05Q0.84 17.66 0.84 15.34L0.84 15.34Q0.84 12.04 3.94 10.84ZM6 4.15L6 4.15Q4.79 4.15 4.03 5.02L4.03 5.02Q3.34 5.82 3.34 7.03L3.34 7.03Q3.34 7.83 3.63 8.47L3.63 8.47Q4.35 10.03 6.02 10.03L6.02 10.03Q6.98 10.03 7.65 9.43L7.65 9.43Q8.66 8.57 8.66 7.03L8.66 7.03Q8.66 5.53 7.65 4.70L7.65 4.70Q6.96 4.15 6 4.15ZM5.98 11.75L5.98 11.75Q4.42 11.75 3.49 12.90L3.49 12.90Q2.72 13.90 2.72 15.34L2.72 15.34Q2.72 16.72 3.47 17.65L3.47 17.65Q4.39 18.80 6 18.80L6 18.80Q7.62 18.80 8.55 17.65L8.55 17.65Q9.29 16.72 9.29 15.34L9.29 15.34Q9.29 13.54 8.19 12.57L8.19 12.57Q7.30 11.75 5.98 11.75ZM21.02 8.50L22.27 8.50L22.27 18.57Q22.27 23.34 17.88 23.34L17.88 23.34Q14.13 23.34 13.49 19.65L13.49 19.65L15.36 19.65Q15.68 21.74 17.93 21.74L17.93 21.74Q20.54 21.74 20.54 18.71L20.54 18.71L20.54 16.77Q19.29 18.23 17.52 18.23L17.52 18.23Q15.61 18.23 14.34 16.72L14.34 16.72Q13.20 15.32 13.20 13.22L13.20 13.22Q13.20 11.70 13.79 10.54L13.79 10.54Q15.06 8.04 17.61 8.04L17.61 8.04Q19.39 8.04 20.61 9.48L20.61 9.48L21.02 8.50ZM17.78 9.69L17.78 9.69Q16.45 9.69 15.67 10.86L15.67 10.86Q15.02 11.80 15.02 13.20L15.02 13.20Q15.02 14.65 15.74 15.62L15.74 15.62Q16.51 16.68 17.80 16.68L17.80 16.68Q18.87 16.68 19.61 15.86L19.61 15.86Q20.59 14.80 20.59 13.22L20.59 13.22Q20.59 11.65 19.75 10.63L19.75 10.63Q18.93 9.69 17.78 9.69ZM25.71 12.46L26.12 3.09L34.09 3.09L34.09 4.77L27.80 4.77L27.54 10.29Q28.72 8.93 30.52 8.93L30.52 8.93Q32.44 8.93 33.70 10.56L33.70 10.56Q34.91 12.13 34.91 14.47L34.91 14.47Q34.91 16.48 34.11 17.95L34.11 17.95Q32.78 20.38 29.96 20.38L29.96 20.38Q26.02 20.38 25.23 15.96L25.23 15.96L27.15 15.96Q27.55 18.70 29.95 18.70L29.95 18.70Q31.50 18.70 32.36 17.38L32.36 17.38Q33.08 16.27 33.08 14.50L33.08 14.50Q33.08 12.93 32.47 11.91L32.47 11.91Q31.72 10.54 30.20 10.54L30.20 10.54Q28.34 10.54 27.22 12.77L27.22 12.77L25.71 12.46ZM36.94 4.97L36.94 3.09L47.06 3.09L47.06 4.97L43.01 4.97L43.01 19.90L40.99 19.90L40.99 4.97L36.94 4.97Z"/></svg>