<svg xmlns="http://www.w3.org/2000/svg" xmlns:xlink="http://www.w3.org/1999/xlink" width="48" height="24"><path fill="black" stroke="black" d="M3.94 10.84L3.94 10.84Q1.51 9.66 1.51 7.05L1.51 7.05Q1.51 5.80 2.11 4.77L2.11 4.77Q3.38 2.61 6 2.61L6 2.61Q7.31 2.61 8.45 3.30L8.45 3.30Q10.49 4.56 10.49 7.05L10.49 7.05Q10.49 9.66 8.06 10.84L8.06 10.84Q11.17 12.04 11.17 15.34L11.17 15.34Q11.17 17.23 10.11 18.57L10.11 18.57Q8.71 20.38 6 20.38L6 20.38Q3.70 20.38 2.31 19.05L2.31 19.05Q0.84 17.66 0.84 15.34L0.84 15.34Q0.84 12.04 3.94 10.84ZM6 4.15L6 4.15Q4.79 4.15 4.03 5.02L4.03 5.02Q3.34 5.82 3.34 7.03L3.34 7.03Q3.34 7.83 3.63 8.47L3.63 8.47Q4.35 10.03 6.02 10.03L6.02 10.03Q6.98 10.03 7.65 9.43L7.65 9.43Q8.66 8.57 8.66 7.03L8.66 7.03Q8.66 5.53 7.65 4.70L7.65 4.70Q6.96 4.15 6 4.15ZM5.98 11.75L5.98 11.75Q4.42 11.75 3.49 12.90L3.49 12.90Q2.72 13.90 2.72 15.34L2.72 15.34Q2.72 16.72 3.47 17.65L3.47 17.65Q4.39 18.80 6 18.80L6 18.80Q7.62 18.80 8.55 17.65L8.55 17.65Q9.29 16.72 9.29 15.34L9.29 15.34Q9.29 13.54 8.19 12.57L8.19 12.57Q7.30 11.75 5.98 11.75ZM13.10 8.50L14.37 8.50L14.64 9.39Q15.66 8.04 16.77 8.04L16.77 8.04Q17.88 8.04 18.49 9.39L18.49 9.39Q19.56 8.04 20.84 8.04L20.84 8.04Q22.90 8.04 22.90 10.92L22.90 10.92L22.90 19.90L21.18 19.90L21.18 11.25Q21.18 9.57 20.33 9.57L20.33 9.57Q19.57 9.57 19.10 10.42L19.10 10.42Q18.83 10.95 18.83 11.57L18.83 11.57L18.83 19.90L17.16 19.90L17.16 11.23Q17.16 9.57 16.29 9.57L16.29 9.57Q14.82 9.57 14.82 11.54L14.82 11.54L14.82 19.90L13.10 19.90L13.10 8.50ZM25.20 4.92L25.20 3.09L34.79 3.09L34.79 4.46Q31.42 12.82 29.73 19.90L29.73 19.90L27.55 19.90Q29.38 13.43 32.73 4.92L32.73 4.92L25.20 4.92ZM41.53 5.25L41.53 3.09L43.64 3.09L43.64 5.25L41.53 5.25ZM41.64 20.75L41.64 8.50L43.51 8.50L43.51 20.84Q43.51 23.36 41.06 23.36L41.06 23.36Q40.10 23.36 38.31 23.16L38.31 23.16L38.31 21.39Q39.38 21.63 40.68 21.63L40.68 21.63Q41.64 21.63 41.64 20.75L41.64 20.75Z"/></svg>