<svg xmlns="http://www.w3.org/2000/svg" xmlns:xlink="http://www.w3.org/1999/xlink" width="48" height="24"><path fill="black" stroke="black" d="M3.94 10.84L3.94 10.84Q1.51 9.66 1.51 7.05L1.51 7.05Q1.51 5.80 2.11 4.77L2.11 4.77Q3.38 2.61 6 2.61L6 2.61Q7.31 2.61 8.45 3.30L8.45 3.30Q10.49 4.56 10.49 7.05L10.49 7.05Q10.49 9.66 8.06 10.84L8.06 10.84Q11.17 12.04 11.17 15.34L11.17 15.34Q11.17 17.23 10.11 18.57L10.11 18.57Q8.71 20.38 6 20.38L6 20.38Q3.70 20.38 2.31 19.05L2.31 19.05Q0.84 17.66 0.84 15.34L0.84 15.34Q0.84 12.04 3.94 10.84ZM6 4.15L6 4.15Q4.79 4.15 4.03 5.02L4.03 5.02Q3.34 5.82 3.34 7.03L3.34 7.03Q3.34 7.83 3.63 8.47L3.63 8.47Q4.35 10.03 6.02 10.03L6.02 10.03Q6.98 10.03 7.65 9.43L7.65 9.43Q8.66 8.57 8.66 7.03L8.66 7.03Q8.66 5.53 7.65 4.70L7.65 4.70Q6.96 4.15 6 4.15ZM5.98 11.75L5.98 11.75Q4.42 11.75 3.49 12.90L3.49 12.90Q2.72 13.90 2.72 15.34L2.72 15.34Q2.72 16.72 3.47 17.65L3.47 17.65Q4.39 18.80 6 18.80L6 18.80Q7.62 18.80 8.55 17.65L8.55 17.65Q9.29 16.72 9.29 15.34L9.29 15.34Q9.29 13.54 8.19 12.57L8.19 12.57Q7.30 11.75 5.98 11.75ZM18 2.61L18 2.61Q20.24 2.61 21.53 4.88L21.53 4.88Q22.90 7.28 22.90 11.50L22.90 11.50Q22.90 15.62 21.60 18L21.60 18Q20.31 20.38 18 20.38L18 20.38Q15.70 20.38 14.45 18.07L14.45 18.07Q13.10 15.61 13.10 11.47L13.10 11.47Q13.10 7.09 14.59 4.65L14.59 4.65Q15.84 2.61 18 2.61ZM18 4.37L18 4.37Q15.12 4.37 15.12 11.47L15.12 11.47Q15.12 18.62 18.02 18.62L18.02 18.62Q20.88 18.62 20.88 11.54L20.88 11.54Q20.88 4.37 18 4.37ZM32.68 16.36L34.56 16.36Q33.52 20.37 30.02 20.37L30.02 20.37Q27.86 20.37 26.59 18.56L26.59 18.56Q25.44 16.91 25.44 14.20L25.44 14.20Q25.44 11.61 26.52 9.96L26.52 9.96Q27.79 8.04 30 8.04L30 8.04Q34.32 8.04 34.61 14.57L34.61 14.57L27.25 14.57Q27.39 18.76 30.05 18.76L30.05 18.76Q32.16 18.76 32.68 16.36L32.68 16.36ZM27.32 13.03L32.68 13.03Q32.30 9.64 30 9.64L30 9.64Q27.79 9.64 27.32 13.03L27.32 13.03ZM45.64 20.73L44.23 21.74Q43.98 20.77 43.56 19.97L43.56 19.97Q42.77 20.38 41.95 20.38L41.95 20.38Q39.68 20.38 38.43 18.05L38.43 18.05Q37.10 15.66 37.10 11.50L37.10 11.50Q37.10 7.28 38.47 4.88L38.47 4.88Q39.76 2.61 42 2.61L42 2.61Q44.25 2.61 45.55 4.90L45.55 4.90Q46.90 7.32 46.90 11.47L46.90 11.47Q46.90 16.64 44.88 18.98L44.88 18.98Q45.53 20.43 45.64 20.73L45.64 20.73ZM41.20 15.48L42.50 14.59Q43.02 15.29 44.06 17.18L44.06 17.18Q44.88 15.55 44.88 11.52L44.88 11.52Q44.88 4.37 42 4.37L42 4.37Q39.12 4.37 39.12 11.47L39.12 11.47Q39.12 18.68 41.95 18.68L41.95 18.68Q42.41 18.68 42.91 18.50L42.91 18.50Q42.21 16.93 41.20 15.48L41.20 15.48Z"/></svg>