<svg xmlns="http://www.w3.org/2000/svg" xmlns:xlink="http://www.w3.org/1999/xlink" width="48" height="24"><path fill="black" stroke="black" d="M1.44 16.01L3.41 16.01Q3.70 18.62 5.88 18.62L5.88 18.62Q9.12 18.62 9.08 11.74L9.08 11.74Q7.73 13.72 5.70 13.72L5.70 13.72Q3.22 13.72 1.99 11.41L1.99 11.41Q1.30 10.07 1.30 8.30L1.30 8.30Q1.30 6.05 2.52 4.39L2.52 4.39Q3.83 2.61 5.88 2.61L5.88 2.61Q10.83 2.61 10.83 10.97L10.83 10.97Q10.83 20.38 5.91 20.38L5.91 20.38Q3.66 20.38 2.36 18.43L2.36 18.43Q1.69 17.43 1.44 16.01L1.44 16.01ZM5.96 4.27L5.96 4.27Q3.13 4.27 3.13 8.25L3.13 8.25Q3.13 9.73 3.63 10.70L3.63 10.70Q4.38 12.14 5.96 12.14L5.96 12.14Q6.97 12.14 7.76 11.25L7.76 11.25Q8.77 10.10 8.77 8.25L8.77 8.25Q8.77 6.40 7.97 5.32L7.97 5.32Q7.21 4.27 5.96 4.27ZM18 2.61L18 2.61Q20.24 2.61 21.53 4.88L21.53 4.88Q22.90 7.28 22.90 11.50L22.90 11.50Q22.90 15.62 21.60 18L21.60 18Q20.31 20.38 18 20.38L18 20.38Q15.70 20.38 14.45 18.07L14.45 18.07Q13.10 15.61 13.10 11.47L13.10 11.47Q13.10 7.09 14.59 4.65L14.59 4.65Q15.84 2.61 18 2.61ZM18 4.37L18 4.37Q15.12 4.37 15.12 11.47L15.12 11.47Q15.12 18.62 18.02 18.62L18.02 18.62Q20.88 18.62 20.88 11.54L20.88 11.54Q20.88 4.37 18 4.37ZM27.94 10.84L27.94 10.84Q25.51 9.66 25.51 7.05L25.51 7.05Q25.51 5.80 26.11 4.77L26.11 4.77Q27.38 2.61 30 2.61L30 2.61Q31.31 2.61 32.45 3.30L32.45 3.30Q34.49 4.56 34.49 7.05L34.49 7.05Q34.49 9.66 32.06 10.84L32.06 10.84Q35.17 12.04 35.17 15.34L35.17 15.34Q35.17 17.23 34.11 18.57L34.11 18.57Q32.71 20.38 30 20.38L30 20.38Q27.70 20.38 26.31 19.05L26.31 19.05Q24.84 17.66 24.84 15.34L24.84 15.34Q24.84 12.04 27.94 10.84ZM30 4.15L30 4.15Q28.79 4.15 28.03 5.02L28.03 5.02Q27.34 5.82 27.34 7.03L27.34 7.03Q27.34 7.83 27.63 8.47L27.63 8.47Q28.35 10.03 30.02 10.03L30.02 10.03Q30.98 10.03 31.65 9.43L31.65 9.43Q32.66 8.57 32.66 7.03L32.66 7.03Q32.66 5.53 31.65 4.70L31.65 4.70Q30.96 4.15 30 4.15ZM29.98 11.75L29.98 11.75Q28.42 11.75 27.49 12.90L27.49 12.90Q26.72 13.90 26.72 15.34L26.72 15.34Q26.72 16.72 27.47 17.65L27.47 17.65Q28.39 18.80 30 18.80L30 18.80Q31.62 18.80 32.55 17.65L32.55 17.65Q33.29 16.72 33.29 15.34L33.29 15.34Q33.29 13.54 32.19 12.57L32.19 12.57Q31.30 11.75 29.98 11.75ZM39.94 10.84L39.94 10.84Q37.51 9.66 37.51 7.05L37.51 7.05Q37.51 5.80 38.11 4.77L38.11 4.77Q39.38 2.61 42 2.61L42 2.61Q43.31 2.61 44.45 3.30L44.45 3.30Q46.49 4.56 46.49 7.05L46.49 7.05Q46.49 9.66 44.06 10.84L44.06 10.84Q47.17 12.04 47.17 15.34L47.17 15.34Q47.17 17.23 46.11 18.57L46.11 18.57Q44.71 20.38 42 20.38L42 20.38Q39.70 20.38 38.31 19.05L38.31 19.05Q36.84 17.66 36.84 15.34L36.84 15.34Q36.84 12.04 39.94 10.84ZM42 4.15L42 4.15Q40.79 4.15 40.03 5.02L40.03 5.02Q39.34 5.82 39.34 7.03L39.34 7.03Q39.34 7.83 39.63 8.47L39.63 8.47Q40.35 10.03 42.02 10.03L42.02 10.03Q42.98 10.03 43.65 9.43L43.65 9.43Q44.66 8.57 44.66 7.03L44.66 7.03Q44.66 5.53 43.65 4.70L43.65 4.70Q42.96 4.15 42 4.15ZM41.98 11.75L41.98 11.75Q40.42 11.75 39.49 12.90L39.49 12.90Q38.72 13.90 38.72 15.34L38.72 15.34Q38.72 16.72 39.47 17.65L39.47 17.65Q40.39 18.80 42 18.80L42 18.80Q43.62 18.80 44.55 17.65L44.55 17.65Q45.29 16.72 45.29 15.34L45.29 15.34Q45.29 13.54 44.19 12.57L44.19 12.57Q43.30 11.75 41.98 11.75Z"/></svg>