<svg xmlns="http://www.w3.org/2000/svg" xmlns:xlink="http://www.w3.org/1999/xlink" width="48" height="24"><path fill="black" stroke="black" d="M1.44 16.01L3.41 16.01Q3.70 18.62 5.88 18.62L5.88 18.62Q9.12 18.62 9.08 11.74L9.08 11.74Q7.73 13.72 5.70 13.72L5.70 13.72Q3.22 13.72 1.99 11.41L1.99 11.41Q1.30 10.07 1.30 8.30L1.30 8.30Q1.30 6.05 2.52 4.39L2.52 4.39Q3.83 2.61 5.88 2.61L5.88 2.61Q10.83 2.61 10.83 10.97L10.83 10.97Q10.83 20.38 5.91 20.38L5.91 20.38Q3.66 20.38 2.36 18.43L2.36 18.43Q1.69 17.43 1.44 16.01L1.44 16.01ZM5.96 4.27L5.96 4.27Q3.13 4.27 3.13 8.25L3.13 8.25Q3.13 9.73 3.63 10.70L3.63 10.70Q4.38 12.14 5.96 12.14L5.96 12.14Q6.97 12.14 7.76 11.25L7.76 11.25Q8.77 10.10 8.77 8.25L8.77 8.25Q8.77 6.40 7.97 5.32L7.97 5.32Q7.21 4.27 5.96 4.27ZM13.76 16.42L13.76 8.50L15.54 8.50L15.54 16.23Q15.54 18.70 17.50 18.70L17.50 18.70Q18.76 18.70 19.72 17.77L19.72 17.77Q20.59 16.93 20.59 15.57L20.59 15.57L20.59 8.50L22.37 8.50L22.37 19.90L21.05 19.90L20.73 18.55Q19.16 20.38 17.10 20.38L17.10 20.38Q15.30 20.38 14.40 19.01L14.40 19.01Q13.76 18 13.76 16.42L13.76 16.42ZM25.68 19.90L25.68 3.09L29.88 3.09Q31.96 3.09 33.25 4.05L33.25 4.05Q34.95 5.37 34.95 7.83L34.95 7.83Q34.95 10.79 32.54 12.08L32.54 12.08Q31.41 12.70 29.93 12.70L29.93 12.70L27.60 12.70L27.60 19.90L25.68 19.90ZM29.73 4.92L27.60 4.92L27.60 10.88L29.73 10.88Q32.98 10.88 32.98 7.85L32.98 7.85Q32.98 6.08 31.54 5.33L31.54 5.33Q30.76 4.92 29.73 4.92L29.73 4.92ZM37.68 19.90L37.68 3.09L46.13 3.09L46.13 4.97L39.64 4.97L39.64 10.27L45.26 10.27L45.26 12.09L39.64 12.09L39.64 19.90L37.68 19.90Z"/></svg>