<svg xmlns="http://www.w3.org/2000/svg" xmlns:xlink="http://www.w3.org/1999/xlink" width="48" height="24"><path fill="black" stroke="black" d="M3.59 11.82L1.66 11.82Q2.13 8.03 6.01 8.03L6.01 8.03Q9.91 8.03 9.91 12.21L9.91 12.21L9.91 17.94Q9.91 18.62 10.54 18.62L10.54 18.62Q10.75 18.62 11.11 18.54L11.11 18.54L11.11 20.23Q10.63 20.34 9.96 20.34L9.96 20.34Q8.38 20.34 8.17 18.57L8.17 18.57Q6.54 20.34 4.59 20.34L4.59 20.34Q3.32 20.34 2.50 19.68L2.50 19.68Q1.42 18.81 1.42 17.11L1.42 17.11Q1.42 13.16 8.19 12.69L8.19 12.69L8.19 12.21Q8.19 9.63 6.01 9.63L6.01 9.63Q3.76 9.63 3.59 11.82L3.59 11.82ZM8.19 15.79L8.19 14.20Q3.18 14.45 3.18 17.02L3.18 17.02Q3.18 18.74 4.88 18.74L4.88 18.74Q6.04 18.74 7.14 17.85L7.14 17.85Q8.19 17.02 8.19 15.79L8.19 15.79ZM20.82 14.30L22.84 14.30Q22.31 20.37 18.09 20.37L18.09 20.37Q15.62 20.37 14.27 17.80L14.27 17.80Q13.10 15.55 13.10 11.52L13.10 11.52Q13.10 7.41 14.40 4.99L14.40 4.99Q15.69 2.61 18.09 2.61L18.09 2.61Q21.95 2.61 22.70 7.90L22.70 7.90L20.73 7.90Q20.23 4.42 18.09 4.42L18.09 4.42Q15.16 4.42 15.16 11.52L15.16 11.52Q15.16 18.56 18.12 18.56L18.12 18.56Q20.61 18.56 20.82 14.30L20.82 14.30ZM33.02 8.50L34.27 8.50L34.27 18.57Q34.27 23.34 29.88 23.34L29.88 23.34Q26.13 23.34 25.49 19.65L25.49 19.65L27.36 19.65Q27.68 21.74 29.93 21.74L29.93 21.74Q32.54 21.74 32.54 18.71L32.54 18.71L32.54 16.77Q31.29 18.23 29.52 18.23L29.52 18.23Q27.61 18.23 26.34 16.72L26.34 16.72Q25.20 15.32 25.20 13.22L25.20 13.22Q25.20 11.70 25.79 10.54L25.79 10.54Q27.06 8.04 29.61 8.04L29.61 8.04Q31.39 8.04 32.61 9.48L32.61 9.48L33.02 8.50ZM29.78 9.69L29.78 9.69Q28.45 9.69 27.67 10.86L27.67 10.86Q27.02 11.80 27.02 13.20L27.02 13.20Q27.02 14.65 27.74 15.62L27.74 15.62Q28.51 16.68 29.80 16.68L29.80 16.68Q30.87 16.68 31.61 15.86L31.61 15.86Q32.59 14.80 32.59 13.22L32.59 13.22Q32.59 11.65 31.75 10.63L31.75 10.63Q30.93 9.69 29.78 9.69ZM37.68 19.90L37.68 3.09L41.88 3.09Q43.96 3.09 45.25 4.05L45.25 4.05Q46.95 5.37 46.95 7.83L46.95 7.83Q46.95 10.79 44.54 12.08L44.54 12.08Q43.41 12.70 41.93 12.70L41.93 12.70L39.60 12.70L39.60 19.90L37.68 19.90ZM41.73 4.92L39.60 4.92L39.60 10.88L41.73 10.88Q44.98 10.88 44.98 7.85L44.98 7.85Q44.98 6.08 43.54 5.33L43.54 5.33Q42.76 4.92 41.73 4.92L41.73 4.92Z"/></svg>