<svg xmlns="http://www.w3.org/2000/svg" xmlns:xlink="http://www.w3.org/1999/xlink" width="48" height="24"><path fill="black" stroke="black" d="M3.59 11.82L1.66 11.82Q2.13 8.03 6.01 8.03L6.01 8.03Q9.91 8.03 9.91 12.21L9.91 12.21L9.91 17.94Q9.91 18.62 10.54 18.62L10.54 18.62Q10.75 18.62 11.11 18.54L11.11 18.54L11.11 20.23Q10.63 20.34 9.96 20.34L9.96 20.34Q8.38 20.34 8.17 18.57L8.17 18.57Q6.54 20.34 4.59 20.34L4.59 20.34Q3.32 20.34 2.50 19.68L2.50 19.68Q1.42 18.81 1.42 17.11L1.42 17.11Q1.42 13.16 8.19 12.69L8.19 12.69L8.19 12.21Q8.19 9.63 6.01 9.63L6.01 9.63Q3.76 9.63 3.59 11.82L3.59 11.82ZM8.19 15.79L8.19 14.20Q3.18 14.45 3.18 17.02L3.18 17.02Q3.18 18.74 4.88 18.74L4.88 18.74Q6.04 18.74 7.14 17.85L7.14 17.85Q8.19 17.02 8.19 15.79L8.19 15.79ZM13.90 19.90L13.90 3.09L15.68 3.09L15.68 13.39L19.88 8.50L22.11 8.50L18.49 12.55L23.05 19.90L20.81 19.90L17.38 13.82L15.68 15.64L15.68 19.90L13.90 19.90ZM25.10 15.07L27.12 15.07Q27.26 18.62 30.19 18.62L30.19 18.62Q31.24 18.62 31.95 18.09L31.95 18.09Q32.93 17.33 32.93 15.96L32.93 15.96Q32.93 14.48 31.70 13.36L31.70 13.36Q30.86 12.61 28.80 11.43L28.80 11.43Q25.56 9.52 25.56 6.87L25.56 6.87Q25.56 5.19 26.61 4.03L26.61 4.03Q27.89 2.61 30.02 2.61L30.02 2.61Q34.00 2.61 34.54 7.39L34.54 7.39L32.57 7.39Q32.48 6.29 32.11 5.64L32.11 5.64Q31.36 4.31 30.02 4.31L30.02 4.31Q28.64 4.31 27.96 5.25L27.96 5.25Q27.48 5.92 27.48 6.71L27.48 6.71Q27.48 8.61 30.57 10.42L30.57 10.42Q32.48 11.53 33.50 12.55L33.50 12.55Q34.88 13.89 34.88 15.94L34.88 15.94Q34.88 17.87 33.64 19.05L33.64 19.05Q32.33 20.38 30.25 20.38L30.25 20.38Q27.63 20.38 26.18 18.46L26.18 18.46Q25.17 17.12 25.10 15.07L25.10 15.07ZM37.39 14.75L37.39 3.09L39.32 3.09L39.32 14.75Q39.32 18.57 42 18.57L42 18.57Q44.68 18.57 44.68 14.75L44.68 14.75L44.68 3.09L46.61 3.09L46.61 14.75Q46.61 17.17 45.62 18.62L45.62 18.62Q44.44 20.38 42 20.38L42 20.38Q37.39 20.38 37.39 14.75L37.39 14.75Z"/></svg>