<svg xmlns="http://www.w3.org/2000/svg" xmlns:xlink="http://www.w3.org/1999/xlink" width="48" height="24"><path fill="black" stroke="black" d="M3.59 11.82L1.66 11.82Q2.13 8.03 6.01 8.03L6.01 8.03Q9.91 8.03 9.91 12.21L9.91 12.21L9.91 17.94Q9.91 18.62 10.54 18.62L10.54 18.62Q10.75 18.62 11.11 18.54L11.11 18.54L11.11 20.23Q10.63 20.34 9.96 20.34L9.96 20.34Q8.38 20.34 8.17 18.57L8.17 18.57Q6.54 20.34 4.59 20.34L4.59 20.34Q3.32 20.34 2.50 19.68L2.50 19.68Q1.42 18.81 1.42 17.11L1.42 17.11Q1.42 13.16 8.19 12.69L8.19 12.69L8.19 12.21Q8.19 9.63 6.01 9.63L6.01 9.63Q3.76 9.63 3.59 11.82L3.59 11.82ZM8.19 15.79L8.19 14.20Q3.18 14.45 3.18 17.02L3.18 17.02Q3.18 18.74 4.88 18.74L4.88 18.74Q6.04 18.74 7.14 17.85L7.14 17.85Q8.19 17.02 8.19 15.79L8.19 15.79ZM21.64 20.73L20.23 21.74Q19.98 20.77 19.56 19.97L19.56 19.97Q18.77 20.38 17.95 20.38L17.95 20.38Q15.68 20.38 14.43 18.05L14.43 18.05Q13.10 15.66 13.10 11.50L13.10 11.50Q13.10 7.28 14.47 4.88L14.47 4.88Q15.76 2.61 18 2.61L18 2.61Q20.25 2.61 21.55 4.90L21.55 4.90Q22.90 7.32 22.90 11.47L22.90 11.47Q22.90 16.64 20.88 18.98L20.88 18.98Q21.53 20.43 21.64 20.73L21.64 20.73ZM17.20 15.48L18.50 14.59Q19.02 15.29 20.06 17.18L20.06 17.18Q20.88 15.55 20.88 11.52L20.88 11.52Q20.88 4.37 18 4.37L18 4.37Q15.12 4.37 15.12 11.47L15.12 11.47Q15.12 18.68 17.95 18.68L17.95 18.68Q18.41 18.68 18.91 18.50L18.91 18.50Q18.21 16.93 17.20 15.48L17.20 15.48ZM33.64 20.73L32.23 21.74Q31.98 20.77 31.56 19.97L31.56 19.97Q30.77 20.38 29.95 20.38L29.95 20.38Q27.68 20.38 26.43 18.05L26.43 18.05Q25.10 15.66 25.10 11.50L25.10 11.50Q25.10 7.28 26.47 4.88L26.47 4.88Q27.76 2.61 30 2.61L30 2.61Q32.25 2.61 33.55 4.90L33.55 4.90Q34.90 7.32 34.90 11.47L34.90 11.47Q34.90 16.64 32.88 18.98L32.88 18.98Q33.53 20.43 33.64 20.73L33.64 20.73ZM29.20 15.48L30.50 14.59Q31.02 15.29 32.06 17.18L32.06 17.18Q32.88 15.55 32.88 11.52L32.88 11.52Q32.88 4.37 30 4.37L30 4.37Q27.12 4.37 27.12 11.47L27.12 11.47Q27.12 18.68 29.95 18.68L29.95 18.68Q30.41 18.68 30.91 18.50L30.91 18.50Q30.21 16.93 29.20 15.48L29.20 15.48ZM37.44 16.36L39.34 16.36Q39.66 18.76 42.14 18.76L42.14 18.76Q44.64 18.76 44.64 17.00L44.64 17.00Q44.64 16.16 44.06 15.69L44.06 15.69Q43.45 15.19 41.88 14.64L41.88 14.64L41.54 14.51Q39.81 13.91 39.02 13.31L39.02 13.31Q37.90 12.43 37.90 11.19L37.90 11.19Q37.90 9.70 39.20 8.80L39.20 8.80Q40.32 8.03 41.93 8.03L41.93 8.03Q45.55 8.03 46.13 11.32L46.13 11.32L44.26 11.32Q43.97 9.56 41.91 9.56L41.91 9.56Q39.70 9.56 39.70 11.12L39.70 11.12Q39.70 12.14 42.66 13.18L42.66 13.18Q44.32 13.77 45.05 14.30L45.05 14.30Q46.46 15.30 46.46 16.96L46.46 16.96Q46.46 18.56 45.20 19.50L45.20 19.50Q44.00 20.37 42.09 20.37L42.09 20.37Q37.91 20.37 37.44 16.36L37.44 16.36Z"/></svg>