<svg xmlns="http://www.w3.org/2000/svg" xmlns:xlink="http://www.w3.org/1999/xlink" width="48" height="24"><path fill="black" stroke="black" d="M0.50 19.90L4.80 3.09L7.20 3.09L11.50 19.90L9.41 19.90L8.13 14.41L3.87 14.41L2.59 19.90L0.50 19.90ZM7.75 12.74L6 4.79L4.24 12.74L7.75 12.74ZM16.99 13.61L13.77 8.50L15.96 8.50L18 12.23L20.04 8.50L22.22 8.50L19.01 13.61L22.97 19.90L20.64 19.90L18 15.16L15.36 19.90L13.03 19.90L16.99 13.61ZM27.50 8.50L29.33 8.50L29.33 10.90Q31.41 8.71 33.77 8.04L33.77 8.04L33.77 10.13Q31.05 10.78 29.33 13.08L29.33 13.08L29.33 19.90L27.50 19.90L27.50 8.50ZM37.76 8.50L39.18 8.50L39.45 9.96Q41.25 8.04 43.01 8.04L43.01 8.04Q44.96 8.04 45.87 9.76L45.87 9.76Q46.37 10.73 46.37 12.12L46.37 12.12L46.37 19.90L44.59 19.90L44.59 12.64Q44.59 9.74 42.73 9.74L42.73 9.74Q41.46 9.74 40.52 10.65L40.52 10.65Q39.54 11.64 39.54 12.91L39.54 12.91L39.54 19.90L37.76 19.90L37.76 8.50Z"/></svg>