<svg xmlns="http://www.w3.org/2000/svg" xmlns:xlink="http://www.w3.org/1999/xlink" width="48" height="24"><path fill="black" stroke="black" d="M0.50 19.90L4.80 3.09L7.20 3.09L11.50 19.90L9.41 19.90L8.13 14.41L3.87 14.41L2.59 19.90L0.50 19.90ZM7.75 12.74L6 4.79L4.24 12.74L7.75 12.74ZM17.03 13.31L12.73 3.09L14.88 3.09L18.01 11.11L21.13 3.09L23.29 3.09L19.00 13.31L19.00 19.90L17.03 19.90L17.03 13.31ZM25.46 19.90L25.46 3.09L27.39 3.09L27.39 10.24L32.61 10.24L32.61 3.09L34.54 3.09L34.54 19.90L32.61 19.90L32.61 12.07L27.39 12.07L27.39 19.90L25.46 19.90ZM37.51 19.90L37.51 3.09L39.39 3.09L39.39 11.11L44.26 3.09L46.58 3.09L42.57 9.57L47.19 19.90L44.86 19.90L41.33 11.16L39.39 14.09L39.39 19.90L37.51 19.90Z"/></svg>