<svg xmlns="http://www.w3.org/2000/svg" xmlns:xlink="http://www.w3.org/1999/xlink" width="48" height="24"><path fill="black" stroke="black" d="M3.59 11.82L1.66 11.82Q2.13 8.03 6.01 8.03L6.01 8.03Q9.91 8.03 9.91 12.21L9.91 12.21L9.91 17.94Q9.91 18.62 10.54 18.62L10.54 18.62Q10.75 18.62 11.11 18.54L11.11 18.54L11.11 20.23Q10.63 20.34 9.96 20.34L9.96 20.34Q8.38 20.34 8.17 18.57L8.17 18.57Q6.54 20.34 4.59 20.34L4.59 20.34Q3.32 20.34 2.50 19.68L2.50 19.68Q1.42 18.81 1.42 17.11L1.42 17.11Q1.42 13.16 8.19 12.69L8.19 12.69L8.19 12.21Q8.19 9.63 6.01 9.63L6.01 9.63Q3.76 9.63 3.59 11.82L3.59 11.82ZM8.19 15.79L8.19 14.20Q3.18 14.45 3.18 17.02L3.18 17.02Q3.18 18.74 4.88 18.74L4.88 18.74Q6.04 18.74 7.14 17.85L7.14 17.85Q8.19 17.02 8.19 15.79L8.19 15.79ZM13.83 4.97L13.83 3.09L22.30 3.09L22.30 4.78L15.66 17.98L22.56 17.98L22.56 19.90L13.51 19.90L13.51 18.02L20.10 4.97L13.83 4.97ZM28.99 13.61L25.77 8.50L27.96 8.50L30 12.23L32.04 8.50L34.22 8.50L31.01 13.61L34.97 19.90L32.64 19.90L30 15.16L27.36 19.90L25.03 19.90L28.99 13.61ZM44.61 16.08L46.56 16.08Q45.62 20.38 42.02 20.38L42.02 20.38Q39.86 20.38 38.59 18.57L38.59 18.57Q37.44 16.92 37.44 14.20L37.44 14.20Q37.44 11.61 38.52 9.96L38.52 9.96Q39.79 8.04 42 8.04L42 8.04Q45.43 8.04 46.37 11.93L46.37 11.93L44.45 11.93Q43.95 9.71 42.02 9.71L42.02 9.71Q40.80 9.71 40.09 10.84L40.09 10.84Q39.32 12.05 39.32 14.20L39.32 14.20Q39.32 15.98 39.84 17.12L39.84 17.12Q40.56 18.70 42.02 18.70L42.02 18.70Q44.16 18.70 44.61 16.08L44.61 16.08Z"/></svg>