<svg xmlns="http://www.w3.org/2000/svg" xmlns:xlink="http://www.w3.org/1999/xlink" width="48" height="24"><path fill="black" stroke="black" d="M1.63 19.90L1.63 3.09L5.68 3.09Q7.57 3.09 8.81 4.05L8.81 4.05Q10.28 5.13 10.28 7.22L10.28 7.22Q10.28 9.90 7.56 11.05L7.56 11.05Q10.88 12.09 10.88 15.35L10.88 15.35Q10.88 17.47 9.36 18.76L9.36 18.76Q8.05 19.90 6.07 19.90L6.07 19.90L1.63 19.90ZM5.66 4.88L3.50 4.88L3.50 10.29L5.59 10.29Q6.57 10.29 7.21 9.83L7.21 9.83Q8.33 9.07 8.33 7.46L8.33 7.46Q8.33 4.88 5.66 4.88L5.66 4.88ZM5.66 11.96L3.50 11.96L3.50 18.12L5.77 18.12Q8.88 18.12 8.88 15.09L8.88 15.09Q8.88 11.96 5.66 11.96L5.66 11.96ZM20.82 14.30L22.84 14.30Q22.31 20.37 18.09 20.37L18.09 20.37Q15.62 20.37 14.27 17.80L14.27 17.80Q13.10 15.55 13.10 11.52L13.10 11.52Q13.10 7.41 14.40 4.99L14.40 4.99Q15.69 2.61 18.09 2.61L18.09 2.61Q21.95 2.61 22.70 7.90L22.70 7.90L20.73 7.90Q20.23 4.42 18.09 4.42L18.09 4.42Q15.16 4.42 15.16 11.52L15.16 11.52Q15.16 18.56 18.12 18.56L18.12 18.56Q20.61 18.56 20.82 14.30L20.82 14.30ZM30.02 8.04L30.02 8.04Q32.23 8.04 33.48 9.98L33.48 9.98Q34.56 11.60 34.56 14.20L34.56 14.20Q34.56 16.16 33.91 17.64L33.91 17.64Q32.72 20.38 29.98 20.38L29.98 20.38Q27.86 20.38 26.59 18.57L26.59 18.57Q25.44 16.92 25.44 14.20L25.44 14.20Q25.44 11.27 26.77 9.60L26.77 9.60Q28.03 8.04 30.02 8.04ZM29.98 9.71L29.98 9.71Q28.69 9.71 27.96 11.06L27.96 11.06Q27.32 12.25 27.32 14.20L27.32 14.20Q27.32 16.01 27.84 17.14L27.84 17.14Q28.57 18.70 30 18.70L30 18.70Q31.31 18.70 32.04 17.36L32.04 17.36Q32.68 16.17 32.68 14.23L32.68 14.23Q32.68 12.20 32.02 11.04L32.02 11.04Q31.30 9.71 29.98 9.71ZM41.11 19.90L36.64 19.90L36.64 18.12L38.02 18.12L38.02 4.88L36.64 4.88L36.64 3.09L40.99 3.09Q43.85 3.09 45.39 5.09L45.39 5.09Q46.90 7.04 46.90 11.23L46.90 11.23Q46.90 15.56 45.50 17.59L45.50 17.59Q43.92 19.90 41.11 19.90L41.11 19.90ZM40.90 4.88L39.94 4.88L39.94 18.12L41.04 18.12Q44.93 18.12 44.93 11.23L44.93 11.23Q44.93 7.80 43.82 6.26L43.82 6.26Q42.83 4.88 40.90 4.88L40.90 4.88Z"/></svg>