<svg xmlns="http://www.w3.org/2000/svg" xmlns:xlink="http://www.w3.org/1999/xlink" width="48" height="24"><path fill="black" stroke="black" d="M1.63 19.90L1.63 3.09L5.68 3.09Q7.57 3.09 8.81 4.05L8.81 4.05Q10.28 5.13 10.28 7.22L10.28 7.22Q10.28 9.90 7.56 11.05L7.56 11.05Q10.88 12.09 10.88 15.35L10.88 15.35Q10.88 17.47 9.36 18.76L9.36 18.76Q8.05 19.90 6.07 19.90L6.07 19.90L1.63 19.90ZM5.66 4.88L3.50 4.88L3.50 10.29L5.59 10.29Q6.57 10.29 7.21 9.83L7.21 9.83Q8.33 9.07 8.33 7.46L8.33 7.46Q8.33 4.88 5.66 4.88L5.66 4.88ZM5.66 11.96L3.50 11.96L3.50 18.12L5.77 18.12Q8.88 18.12 8.88 15.09L8.88 15.09Q8.88 11.96 5.66 11.96L5.66 11.96ZM13.46 19.90L13.46 3.09L15.39 3.09L15.39 10.24L20.61 10.24L20.61 3.09L22.54 3.09L22.54 19.90L20.61 19.90L20.61 12.07L15.39 12.07L15.39 19.90L13.46 19.90ZM28.17 11.66L28.17 10.13L29.37 10.13Q30.90 10.13 31.48 9.69L31.48 9.69Q32.55 8.86 32.55 7.20L32.55 7.20Q32.55 4.24 29.87 4.24L29.87 4.24Q27.64 4.24 27.14 6.76L27.14 6.76L25.24 6.76Q25.50 5.18 26.34 4.15L26.34 4.15Q27.63 2.61 29.87 2.61L29.87 2.61Q31.75 2.61 32.96 3.69L32.96 3.69Q34.41 4.96 34.41 7.13L34.41 7.13Q34.41 10.04 31.79 10.95L31.79 10.95Q34.95 12.16 34.95 15.39L34.95 15.39Q34.95 17.45 33.77 18.77L33.77 18.77Q32.37 20.38 29.91 20.38L29.91 20.38Q27.60 20.38 26.23 18.80L26.23 18.80Q25.22 17.64 25.01 15.60L25.01 15.60L26.98 15.60Q27.22 18.73 29.91 18.73L29.91 18.73Q31.15 18.73 31.99 18.02L31.99 18.02Q33.05 17.12 33.05 15.39L33.05 15.39Q33.05 11.66 29.37 11.66L29.37 11.66L28.17 11.66ZM36.94 4.97L36.94 3.09L47.06 3.09L47.06 4.97L43.01 4.97L43.01 19.90L40.99 19.90L40.99 4.97L36.94 4.97Z"/></svg>