<svg xmlns="http://www.w3.org/2000/svg" xmlns:xlink="http://www.w3.org/1999/xlink" width="48" height="24"><path fill="black" stroke="black" d="M1.78 19.90L1.78 3.09L3.56 3.09L3.56 9.79Q5.03 8.04 6.73 8.04L6.73 8.04Q8.50 8.04 9.61 9.57L9.61 9.57Q10.78 11.21 10.78 14.09L10.78 14.09Q10.78 16.10 10.16 17.64L10.16 17.64Q9.05 20.38 6.68 20.38L6.68 20.38Q4.72 20.38 3.54 18.41L3.54 18.41L3.08 19.90L1.78 19.90ZM6.29 9.74L6.29 9.74Q4.92 9.74 4.14 11.13L4.14 11.13Q3.49 12.28 3.49 14.09L3.49 14.09Q3.49 16.04 4.18 17.29L4.18 17.29Q4.97 18.68 6.32 18.68L6.32 18.68Q7.50 18.68 8.19 17.47L8.19 17.47Q8.91 16.25 8.91 14.09L8.91 14.09Q8.91 11.96 8.09 10.79L8.09 10.79Q7.41 9.74 6.29 9.74ZM17.53 5.25L17.53 3.09L19.64 3.09L19.64 5.25L17.53 5.25ZM17.64 20.75L17.64 8.50L19.51 8.50L19.51 20.84Q19.51 23.36 17.06 23.36L17.06 23.36Q16.10 23.36 14.31 23.16L14.31 23.16L14.31 21.39Q15.38 21.63 16.68 21.63L16.68 21.63Q17.64 21.63 17.64 20.75L17.64 20.75ZM25.90 19.90L25.90 3.09L27.68 3.09L27.68 13.39L31.88 8.50L34.11 8.50L30.49 12.55L35.05 19.90L32.81 19.90L29.38 13.82L27.68 15.64L27.68 19.90L25.90 19.90ZM37.44 16.01L39.41 16.01Q39.70 18.62 41.88 18.62L41.88 18.62Q45.12 18.62 45.08 11.74L45.08 11.74Q43.73 13.72 41.70 13.72L41.70 13.72Q39.22 13.72 37.99 11.41L37.99 11.41Q37.30 10.07 37.30 8.30L37.30 8.30Q37.30 6.05 38.52 4.39L38.52 4.39Q39.83 2.61 41.88 2.61L41.88 2.61Q46.83 2.61 46.83 10.97L46.83 10.97Q46.83 20.38 41.91 20.38L41.91 20.38Q39.66 20.38 38.36 18.43L38.36 18.43Q37.69 17.43 37.44 16.01L37.44 16.01ZM41.96 4.27L41.96 4.27Q39.13 4.27 39.13 8.25L39.13 8.25Q39.13 9.73 39.63 10.70L39.63 10.70Q40.38 12.14 41.96 12.14L41.96 12.14Q42.97 12.14 43.76 11.25L43.76 11.25Q44.77 10.10 44.77 8.25L44.77 8.25Q44.77 6.40 43.97 5.32L43.97 5.32Q43.21 4.27 41.96 4.27Z"/></svg>