<svg xmlns="http://www.w3.org/2000/svg" xmlns:xlink="http://www.w3.org/1999/xlink" width="48" height="24"><path fill="black" stroke="black" d="M1.78 19.90L1.78 3.09L3.56 3.09L3.56 9.79Q5.03 8.04 6.73 8.04L6.73 8.04Q8.50 8.04 9.61 9.57L9.61 9.57Q10.78 11.21 10.78 14.09L10.78 14.09Q10.78 16.10 10.16 17.64L10.16 17.64Q9.05 20.38 6.68 20.38L6.68 20.38Q4.72 20.38 3.54 18.41L3.54 18.41L3.08 19.90L1.78 19.90ZM6.29 9.74L6.29 9.74Q4.92 9.74 4.14 11.13L4.14 11.13Q3.49 12.28 3.49 14.09L3.49 14.09Q3.49 16.04 4.18 17.29L4.18 17.29Q4.97 18.68 6.32 18.68L6.32 18.68Q7.50 18.68 8.19 17.47L8.19 17.47Q8.91 16.25 8.91 14.09L8.91 14.09Q8.91 11.96 8.09 10.79L8.09 10.79Q7.41 9.74 6.29 9.74ZM18.94 3.09L18.94 17.27Q18.94 18.30 19.92 18.30L19.92 18.30Q20.73 18.30 21.69 18.12L21.69 18.12L21.69 19.91Q20.27 20.11 19.61 20.11L19.61 20.11Q17.06 20.11 17.06 17.61L17.06 17.61L17.06 3.09L18.94 3.09ZM24.60 14.06L31.37 3.09L33.41 3.09L33.41 14.11L35.40 14.11L35.40 15.74L33.41 15.74L33.41 19.90L31.63 19.90L31.63 15.74L24.60 15.74L24.60 14.06ZM31.63 14.11L31.63 5.71L26.40 14.11L31.63 14.11ZM42.02 8.04L42.02 8.04Q44.23 8.04 45.48 9.98L45.48 9.98Q46.56 11.60 46.56 14.20L46.56 14.20Q46.56 16.16 45.91 17.64L45.91 17.64Q44.72 20.38 41.98 20.38L41.98 20.38Q39.86 20.38 38.59 18.57L38.59 18.57Q37.44 16.92 37.44 14.20L37.44 14.20Q37.44 11.27 38.77 9.60L38.77 9.60Q40.03 8.04 42.02 8.04ZM41.98 9.71L41.98 9.71Q40.69 9.71 39.96 11.06L39.96 11.06Q39.32 12.25 39.32 14.20L39.32 14.20Q39.32 16.01 39.84 17.14L39.84 17.14Q40.57 18.70 42 18.70L42 18.70Q43.31 18.70 44.04 17.36L44.04 17.36Q44.68 16.17 44.68 14.23L44.68 14.23Q44.68 12.20 44.02 11.04L44.02 11.04Q43.30 9.71 41.98 9.71Z"/></svg>