<svg xmlns="http://www.w3.org/2000/svg" xmlns:xlink="http://www.w3.org/1999/xlink" width="48" height="24"><path fill="black" stroke="black" d="M1.63 19.90L1.63 3.09L5.68 3.09Q7.57 3.09 8.81 4.05L8.81 4.05Q10.28 5.13 10.28 7.22L10.28 7.22Q10.28 9.90 7.56 11.05L7.56 11.05Q10.88 12.09 10.88 15.35L10.88 15.35Q10.88 17.47 9.36 18.76L9.36 18.76Q8.05 19.90 6.07 19.90L6.07 19.90L1.63 19.90ZM5.66 4.88L3.50 4.88L3.50 10.29L5.59 10.29Q6.57 10.29 7.21 9.83L7.21 9.83Q8.33 9.07 8.33 7.46L8.33 7.46Q8.33 4.88 5.66 4.88L5.66 4.88ZM5.66 11.96L3.50 11.96L3.50 18.12L5.77 18.12Q8.88 18.12 8.88 15.09L8.88 15.09Q8.88 11.96 5.66 11.96L5.66 11.96ZM13.78 8.50L15.11 8.50L15.40 10.01Q17.00 8.04 18.73 8.04L18.73 8.04Q20.48 8.04 21.61 9.60L21.61 9.60Q22.80 11.27 22.80 13.93L22.80 13.93Q22.80 16.42 21.84 18.08L21.84 18.08Q20.71 20.05 18.70 20.05L18.70 20.05Q16.97 20.05 15.56 18.47L15.56 18.47L15.56 23.34L13.78 23.34L13.78 8.50ZM18.32 9.74L18.32 9.74Q17.14 9.74 16.32 10.91L16.32 10.91Q15.49 12.12 15.49 13.96L15.49 13.96Q15.49 15.63 16.07 16.75L16.07 16.75Q16.85 18.33 18.34 18.33L18.34 18.33Q19.52 18.33 20.21 17.20L20.21 17.20Q20.91 15.98 20.91 13.96L20.91 13.96Q20.91 12.11 20.26 10.98L20.26 10.98Q19.55 9.74 18.32 9.74ZM25.76 19.90L25.76 3.09L27.54 3.09L27.54 9.79Q29.29 8.04 31.01 8.04L31.01 8.04Q32.96 8.04 33.87 9.76L33.87 9.76Q34.37 10.73 34.37 12.12L34.37 12.12L34.37 19.90L32.59 19.90L32.59 12.64Q32.59 9.74 30.73 9.74L30.73 9.74Q29.47 9.74 28.52 10.65L28.52 10.65Q27.54 11.64 27.54 12.90L27.54 12.90L27.54 19.90L25.76 19.90ZM37.46 19.90L37.46 3.09L39.39 3.09L39.39 10.24L44.61 10.24L44.61 3.09L46.54 3.09L46.54 19.90L44.61 19.90L44.61 12.07L39.39 12.07L39.39 19.90L37.46 19.90Z"/></svg>