<svg xmlns="http://www.w3.org/2000/svg" xmlns:xlink="http://www.w3.org/1999/xlink" width="48" height="24"><path fill="black" stroke="black" d="M1.63 19.90L1.63 3.09L5.68 3.09Q7.57 3.09 8.81 4.05L8.81 4.05Q10.28 5.13 10.28 7.22L10.28 7.22Q10.28 9.90 7.56 11.05L7.56 11.05Q10.88 12.09 10.88 15.35L10.88 15.35Q10.88 17.47 9.36 18.76L9.36 18.76Q8.05 19.90 6.07 19.90L6.07 19.90L1.63 19.90ZM5.66 4.88L3.50 4.88L3.50 10.29L5.59 10.29Q6.57 10.29 7.21 9.83L7.21 9.83Q8.33 9.07 8.33 7.46L8.33 7.46Q8.33 4.88 5.66 4.88L5.66 4.88ZM5.66 11.96L3.50 11.96L3.50 18.12L5.77 18.12Q8.88 18.12 8.88 15.09L8.88 15.09Q8.88 11.96 5.66 11.96L5.66 11.96ZM14.41 19.90L12.71 8.50L14.39 8.50L15.40 17.23L17.09 8.50L18.90 8.50L20.59 17.23L21.60 8.50L23.27 8.50L21.57 19.90L19.72 19.90L18 11.02L16.27 19.90L14.41 19.90ZM28.95 5.25L28.95 3.09L31.05 3.09L31.05 5.25L28.95 5.25ZM29.06 19.90L29.06 8.50L30.94 8.50L30.94 19.90L29.06 19.90ZM37.68 19.90L37.68 3.09L46.13 3.09L46.13 4.97L39.64 4.97L39.64 10.27L45.26 10.27L45.26 12.09L39.64 12.09L39.64 19.90L37.68 19.90Z"/></svg>