<svg xmlns="http://www.w3.org/2000/svg" xmlns:xlink="http://www.w3.org/1999/xlink" width="48" height="24"><path fill="black" stroke="black" d="M8.82 14.30L10.84 14.30Q10.31 20.37 6.09 20.37L6.09 20.37Q3.62 20.37 2.27 17.80L2.27 17.80Q1.10 15.55 1.10 11.52L1.10 11.52Q1.10 7.41 2.40 4.99L2.40 4.99Q3.69 2.61 6.09 2.61L6.09 2.61Q9.95 2.61 10.70 7.90L10.70 7.90L8.73 7.90Q8.23 4.42 6.09 4.42L6.09 4.42Q3.16 4.42 3.16 11.52L3.16 11.52Q3.16 18.56 6.12 18.56L6.12 18.56Q8.61 18.56 8.82 14.30L8.82 14.30ZM13.71 12.46L14.12 3.09L22.09 3.09L22.09 4.77L15.80 4.77L15.54 10.29Q16.72 8.93 18.52 8.93L18.52 8.93Q20.44 8.93 21.70 10.56L21.70 10.56Q22.91 12.13 22.91 14.47L22.91 14.47Q22.91 16.48 22.11 17.95L22.11 17.95Q20.78 20.38 17.96 20.38L17.96 20.38Q14.02 20.38 13.23 15.96L13.23 15.96L15.15 15.96Q15.55 18.70 17.95 18.70L17.95 18.70Q19.50 18.70 20.36 17.38L20.36 17.38Q21.08 16.27 21.08 14.50L21.08 14.50Q21.08 12.93 20.47 11.91L20.47 11.91Q19.72 10.54 18.20 10.54L18.20 10.54Q16.34 10.54 15.22 12.77L15.22 12.77L13.71 12.46ZM34.22 23.34L32.44 23.34L32.44 18.47Q31.03 20.05 29.30 20.05L29.30 20.05Q27.50 20.05 26.39 18.45L26.39 18.45Q25.20 16.73 25.20 13.93L25.20 13.93Q25.20 11.70 26.06 10.15L26.06 10.15Q27.20 8.04 29.25 8.04L29.25 8.04Q30.96 8.04 32.60 10.01L32.60 10.01L32.89 8.50L34.22 8.50L34.22 23.34ZM29.66 9.74L29.66 9.74Q28.43 9.74 27.74 11.02L27.74 11.02Q27.09 12.13 27.09 13.98L27.09 13.98Q27.09 18.33 29.68 18.33L29.68 18.33Q31.03 18.33 31.86 16.89L31.86 16.89Q32.51 15.74 32.51 13.96L32.51 13.96Q32.51 11.82 31.43 10.61L31.43 10.61Q30.68 9.74 29.66 9.74ZM37.68 19.90L37.68 3.09L46.13 3.09L46.13 4.97L39.64 4.97L39.64 10.27L45.26 10.27L45.26 12.09L39.64 12.09L39.64 19.90L37.68 19.90Z"/></svg>