<svg xmlns="http://www.w3.org/2000/svg" xmlns:xlink="http://www.w3.org/1999/xlink" width="48" height="24"><path fill="black" stroke="black" d="M8.82 14.30L10.84 14.30Q10.31 20.37 6.09 20.37L6.09 20.37Q3.62 20.37 2.27 17.80L2.27 17.80Q1.10 15.55 1.10 11.52L1.10 11.52Q1.10 7.41 2.40 4.99L2.40 4.99Q3.69 2.61 6.09 2.61L6.09 2.61Q9.95 2.61 10.70 7.90L10.70 7.90L8.73 7.90Q8.23 4.42 6.09 4.42L6.09 4.42Q3.16 4.42 3.16 11.52L3.16 11.52Q3.16 18.56 6.12 18.56L6.12 18.56Q8.61 18.56 8.82 14.30L8.82 14.30ZM13.68 19.90L13.68 3.09L22.10 3.09L22.10 4.92L15.60 4.92L15.60 10.27L21.23 10.27L21.23 12.05L15.60 12.05L15.60 18.07L22.58 18.07L22.58 19.90L13.68 19.90ZM31.32 19.90L29.36 19.90L29.36 5.54Q28.45 6.15 26.84 6.83L26.84 6.83L26.84 4.90Q28.71 4.21 29.86 3.09L29.86 3.09L31.32 3.09L31.32 19.90ZM43.32 19.90L41.36 19.90L41.36 5.54Q40.45 6.15 38.84 6.83L38.84 6.83L38.84 4.90Q40.71 4.21 41.86 3.09L41.86 3.09L43.32 3.09L43.32 19.90Z"/></svg>