<svg xmlns="http://www.w3.org/2000/svg" xmlns:xlink="http://www.w3.org/1999/xlink" width="48" height="24"><path fill="black" stroke="black" d="M8.61 16.08L10.56 16.08Q9.62 20.38 6.02 20.38L6.02 20.38Q3.86 20.38 2.59 18.57L2.59 18.57Q1.44 16.92 1.44 14.20L1.44 14.20Q1.44 11.61 2.52 9.96L2.52 9.96Q3.79 8.04 6 8.04L6 8.04Q9.43 8.04 10.37 11.93L10.37 11.93L8.45 11.93Q7.95 9.71 6.02 9.71L6.02 9.71Q4.80 9.71 4.09 10.84L4.09 10.84Q3.32 12.05 3.32 14.20L3.32 14.20Q3.32 15.98 3.84 17.12L3.84 17.12Q4.56 18.70 6.02 18.70L6.02 18.70Q8.16 18.70 8.61 16.08L8.61 16.08ZM13.68 19.90L13.68 3.09L22.13 3.09L22.13 4.97L15.64 4.97L15.64 10.27L21.26 10.27L21.26 12.09L15.64 12.09L15.64 19.90L13.68 19.90ZM31.65 15.64L31.65 3.09L33.67 3.09L33.67 15.55Q33.67 20.37 29.50 20.37L29.50 20.37Q25.31 20.37 25.05 15.26L25.05 15.26L27.09 15.26Q27.13 18.49 29.50 18.49L29.50 18.49Q31.65 18.49 31.65 15.64L31.65 15.64ZM38.41 19.90L36.71 8.50L38.39 8.50L39.40 17.23L41.09 8.50L42.90 8.50L44.59 17.23L45.60 8.50L47.27 8.50L45.57 19.90L43.72 19.90L42 11.02L40.27 19.90L38.41 19.90Z"/></svg>