<svg xmlns="http://www.w3.org/2000/svg" xmlns:xlink="http://www.w3.org/1999/xlink" width="48" height="24"><path fill="black" stroke="black" d="M8.61 16.08L10.56 16.08Q9.62 20.38 6.02 20.38L6.02 20.38Q3.86 20.38 2.59 18.57L2.59 18.57Q1.44 16.92 1.44 14.20L1.44 14.20Q1.44 11.61 2.52 9.96L2.52 9.96Q3.79 8.04 6 8.04L6 8.04Q9.43 8.04 10.37 11.93L10.37 11.93L8.45 11.93Q7.95 9.71 6.02 9.71L6.02 9.71Q4.80 9.71 4.09 10.84L4.09 10.84Q3.32 12.05 3.32 14.20L3.32 14.20Q3.32 15.98 3.84 17.12L3.84 17.12Q4.56 18.70 6.02 18.70L6.02 18.70Q8.16 18.70 8.61 16.08L8.61 16.08ZM13.46 19.90L13.46 3.09L15.39 3.09L15.39 10.24L20.61 10.24L20.61 3.09L22.54 3.09L22.54 19.90L20.61 19.90L20.61 12.07L15.39 12.07L15.39 19.90L13.46 19.90ZM29.03 13.31L24.73 3.09L26.88 3.09L30.01 11.11L33.13 3.09L35.29 3.09L31.00 13.31L31.00 19.90L29.03 19.90L29.03 13.31ZM41.45 18.89L37.42 8.50L39.48 8.50L42.34 16.61L44.86 8.50L46.95 8.50L42.23 21.67Q41.85 22.82 40.90 23.18L40.90 23.18Q40.45 23.36 38.06 23.36L38.06 23.36L38.06 21.62L39.09 21.62Q39.46 21.62 39.62 21.62L39.62 21.62Q40.43 21.62 40.68 20.98L40.68 20.98L41.45 18.89Z"/></svg>