<svg xmlns="http://www.w3.org/2000/svg" xmlns:xlink="http://www.w3.org/1999/xlink" width="48" height="24"><path fill="black" stroke="black" d="M8.61 16.08L10.56 16.08Q9.62 20.38 6.02 20.38L6.02 20.38Q3.86 20.38 2.59 18.57L2.59 18.57Q1.44 16.92 1.44 14.20L1.44 14.20Q1.44 11.61 2.52 9.96L2.52 9.96Q3.79 8.04 6 8.04L6 8.04Q9.43 8.04 10.37 11.93L10.37 11.93L8.45 11.93Q7.95 9.71 6.02 9.71L6.02 9.71Q4.80 9.71 4.09 10.84L4.09 10.84Q3.32 12.05 3.32 14.20L3.32 14.20Q3.32 15.98 3.84 17.12L3.84 17.12Q4.56 18.70 6.02 18.70L6.02 18.70Q8.16 18.70 8.61 16.08L8.61 16.08ZM13.44 16.36L15.34 16.36Q15.66 18.76 18.14 18.76L18.14 18.76Q20.64 18.76 20.64 17.00L20.64 17.00Q20.64 16.16 20.06 15.69L20.06 15.69Q19.45 15.19 17.88 14.64L17.88 14.64L17.54 14.51Q15.81 13.91 15.02 13.31L15.02 13.31Q13.90 12.43 13.90 11.19L13.90 11.19Q13.90 9.70 15.20 8.80L15.20 8.80Q16.32 8.03 17.93 8.03L17.93 8.03Q21.55 8.03 22.13 11.32L22.13 11.32L20.26 11.32Q19.97 9.56 17.91 9.56L17.91 9.56Q15.70 9.56 15.70 11.12L15.70 11.12Q15.70 12.14 18.66 13.18L18.66 13.18Q20.32 13.77 21.05 14.30L21.05 14.30Q22.46 15.30 22.46 16.96L22.46 16.96Q22.46 18.56 21.20 19.50L21.20 19.50Q20.00 20.37 18.09 20.37L18.09 20.37Q13.91 20.37 13.44 16.36L13.44 16.36ZM26.41 19.90L24.71 8.50L26.39 8.50L27.40 17.23L29.09 8.50L30.90 8.50L32.59 17.23L33.60 8.50L35.27 8.50L33.57 19.90L31.72 19.90L30 11.02L28.27 19.90L26.41 19.90ZM44.82 14.30L46.84 14.30Q46.31 20.37 42.09 20.37L42.09 20.37Q39.62 20.37 38.27 17.80L38.27 17.80Q37.10 15.55 37.10 11.52L37.10 11.52Q37.10 7.41 38.40 4.99L38.40 4.99Q39.69 2.61 42.09 2.61L42.09 2.61Q45.95 2.61 46.70 7.90L46.70 7.90L44.73 7.90Q44.23 4.42 42.09 4.42L42.09 4.42Q39.16 4.42 39.16 11.52L39.16 11.52Q39.16 18.56 42.12 18.56L42.12 18.56Q44.61 18.56 44.82 14.30L44.82 14.30Z"/></svg>