<svg xmlns="http://www.w3.org/2000/svg" xmlns:xlink="http://www.w3.org/1999/xlink" width="48" height="24"><path fill="black" stroke="black" d="M8.61 16.08L10.56 16.08Q9.62 20.38 6.02 20.38L6.02 20.38Q3.86 20.38 2.59 18.57L2.59 18.57Q1.44 16.92 1.44 14.20L1.44 14.20Q1.44 11.61 2.52 9.96L2.52 9.96Q3.79 8.04 6 8.04L6 8.04Q9.43 8.04 10.37 11.93L10.37 11.93L8.45 11.93Q7.95 9.71 6.02 9.71L6.02 9.71Q4.80 9.71 4.09 10.84L4.09 10.84Q3.32 12.05 3.32 14.20L3.32 14.20Q3.32 15.98 3.84 17.12L3.84 17.12Q4.56 18.70 6.02 18.70L6.02 18.70Q8.16 18.70 8.61 16.08L8.61 16.08ZM16.66 8.50L16.66 5.40L18.49 5.40L18.49 8.50L21.32 8.50L21.32 10.22L18.49 10.22L18.49 17.48Q18.49 18.30 19.41 18.30L19.41 18.30Q20.52 18.30 21.48 18.12L21.48 18.12L21.48 19.91Q20.06 20.11 19.04 20.11L19.04 20.11Q16.66 20.11 16.66 17.73L16.66 17.73L16.66 10.22L14.40 10.22L14.40 8.50L16.66 8.50ZM32.61 16.08L34.56 16.08Q33.62 20.38 30.02 20.38L30.02 20.38Q27.86 20.38 26.59 18.57L26.59 18.57Q25.44 16.92 25.44 14.20L25.44 14.20Q25.44 11.61 26.52 9.96L26.52 9.96Q27.79 8.04 30 8.04L30 8.04Q33.43 8.04 34.37 11.93L34.37 11.93L32.45 11.93Q31.95 9.71 30.02 9.71L30.02 9.71Q28.80 9.71 28.09 10.84L28.09 10.84Q27.32 12.05 27.32 14.20L27.32 14.20Q27.32 15.98 27.84 17.12L27.84 17.12Q28.56 18.70 30.02 18.70L30.02 18.70Q32.16 18.70 32.61 16.08L32.61 16.08ZM45.43 4.88L43.03 4.88L43.03 18.12L45.43 18.12L45.43 19.90L38.57 19.90L38.57 18.12L40.97 18.12L40.97 4.88L38.57 4.88L38.57 3.09L45.43 3.09L45.43 4.88Z"/></svg>