<svg xmlns="http://www.w3.org/2000/svg" xmlns:xlink="http://www.w3.org/1999/xlink" width="48" height="24"><path fill="black" stroke="black" d="M8.61 16.08L10.56 16.08Q9.62 20.38 6.02 20.38L6.02 20.38Q3.86 20.38 2.59 18.57L2.59 18.57Q1.44 16.92 1.44 14.20L1.44 14.20Q1.44 11.61 2.52 9.96L2.52 9.96Q3.79 8.04 6 8.04L6 8.04Q9.43 8.04 10.37 11.93L10.37 11.93L8.45 11.93Q7.95 9.71 6.02 9.71L6.02 9.71Q4.80 9.71 4.09 10.84L4.09 10.84Q3.32 12.05 3.32 14.20L3.32 14.20Q3.32 15.98 3.84 17.12L3.84 17.12Q4.56 18.70 6.02 18.70L6.02 18.70Q8.16 18.70 8.61 16.08L8.61 16.08ZM13.83 4.97L13.83 3.09L22.30 3.09L22.30 4.78L15.66 17.98L22.56 17.98L22.56 19.90L13.51 19.90L13.51 18.02L20.10 4.97L13.83 4.97ZM29.53 5.25L29.53 3.09L31.64 3.09L31.64 5.25L29.53 5.25ZM29.64 20.75L29.64 8.50L31.51 8.50L31.51 20.84Q31.51 23.36 29.06 23.36L29.06 23.36Q28.10 23.36 26.31 23.16L26.31 23.16L26.31 21.39Q27.38 21.63 28.68 21.63L28.68 21.63Q29.64 21.63 29.64 20.75L29.64 20.75ZM42.94 3.09L42.94 17.27Q42.94 18.30 43.92 18.30L43.92 18.30Q44.73 18.30 45.69 18.12L45.69 18.12L45.69 19.91Q44.27 20.11 43.61 20.11L43.61 20.11Q41.06 20.11 41.06 17.61L41.06 17.61L41.06 3.09L42.94 3.09Z"/></svg>