<svg xmlns="http://www.w3.org/2000/svg" xmlns:xlink="http://www.w3.org/1999/xlink" width="48" height="24"><path fill="black" stroke="black" d="M8.44 9.79L8.44 3.09L10.22 3.09L10.22 19.90L8.92 19.90L8.46 18.41Q7.24 20.38 5.27 20.38L5.27 20.38Q3.46 20.38 2.34 18.62L2.34 18.62Q1.22 16.91 1.22 14.06L1.22 14.06Q1.22 11.73 2.06 10.13L2.06 10.13Q3.18 8.04 5.25 8.04L5.25 8.04Q6.97 8.04 8.44 9.79L8.44 9.79ZM5.68 9.74L5.68 9.74Q4.44 9.74 3.71 11.09L3.71 11.09Q3.09 12.30 3.09 14.09L3.09 14.09Q3.09 16.02 3.67 17.21L3.67 17.21Q4.35 18.68 5.68 18.68L5.68 18.68Q6.89 18.68 7.69 17.47L7.69 17.47Q8.51 16.27 8.51 14.09L8.51 14.09Q8.51 12.32 7.89 11.18L7.89 11.18Q7.13 9.74 5.68 9.74ZM13.78 19.90L13.78 3.09L15.56 3.09L15.56 9.79Q17.03 8.04 18.73 8.04L18.73 8.04Q20.50 8.04 21.61 9.57L21.61 9.57Q22.78 11.21 22.78 14.09L22.78 14.09Q22.78 16.10 22.16 17.64L22.16 17.64Q21.05 20.38 18.68 20.38L18.68 20.38Q16.72 20.38 15.54 18.41L15.54 18.41L15.08 19.90L13.78 19.90ZM18.29 9.74L18.29 9.74Q16.92 9.74 16.14 11.13L16.14 11.13Q15.49 12.28 15.49 14.09L15.49 14.09Q15.49 16.04 16.18 17.29L16.18 17.29Q16.97 18.68 18.32 18.68L18.32 18.68Q19.50 18.68 20.19 17.47L20.19 17.47Q20.91 16.25 20.91 14.09L20.91 14.09Q20.91 11.96 20.09 10.79L20.09 10.79Q19.41 9.74 18.29 9.74ZM28.95 5.25L28.95 3.09L31.05 3.09L31.05 5.25L28.95 5.25ZM29.06 19.90L29.06 8.50L30.94 8.50L30.94 19.90L29.06 19.90ZM41.53 5.25L41.53 3.09L43.64 3.09L43.64 5.25L41.53 5.25ZM41.64 20.75L41.64 8.50L43.51 8.50L43.51 20.84Q43.51 23.36 41.06 23.36L41.06 23.36Q40.10 23.36 38.31 23.16L38.31 23.16L38.31 21.39Q39.38 21.63 40.68 21.63L40.68 21.63Q41.64 21.63 41.64 20.75L41.64 20.75Z"/></svg>