<svg xmlns="http://www.w3.org/2000/svg" xmlns:xlink="http://www.w3.org/1999/xlink" width="48" height="24"><path fill="black" stroke="black" d="M8.44 9.79L8.44 3.09L10.22 3.09L10.22 19.90L8.92 19.90L8.46 18.41Q7.24 20.38 5.27 20.38L5.27 20.38Q3.46 20.38 2.34 18.62L2.34 18.62Q1.22 16.91 1.22 14.06L1.22 14.06Q1.22 11.73 2.06 10.13L2.06 10.13Q3.18 8.04 5.25 8.04L5.25 8.04Q6.97 8.04 8.44 9.79L8.44 9.79ZM5.68 9.74L5.68 9.74Q4.44 9.74 3.71 11.09L3.71 11.09Q3.09 12.30 3.09 14.09L3.09 14.09Q3.09 16.02 3.67 17.21L3.67 17.21Q4.35 18.68 5.68 18.68L5.68 18.68Q6.89 18.68 7.69 17.47L7.69 17.47Q8.51 16.27 8.51 14.09L8.51 14.09Q8.51 12.32 7.89 11.18L7.89 11.18Q7.13 9.74 5.68 9.74ZM13.51 19.90L13.51 3.09L15.39 3.09L15.39 11.11L20.26 3.09L22.58 3.09L18.57 9.57L23.19 19.90L20.86 19.90L17.33 11.16L15.39 14.09L15.39 19.90L13.51 19.90ZM29.03 13.31L24.73 3.09L26.88 3.09L30.01 11.11L33.13 3.09L35.29 3.09L31.00 13.31L31.00 19.90L29.03 19.90L29.03 13.31ZM37.92 8.50L40.83 8.50L40.83 5.52Q40.83 3.09 43.30 3.09L43.30 3.09L45.89 3.09L45.89 4.77L43.64 4.77Q42.66 4.77 42.66 5.66L42.66 5.66L42.66 8.50L45.89 8.50L45.89 10.17L42.66 10.17L42.66 19.90L40.83 19.90L40.83 10.17L37.92 10.17L37.92 8.50Z"/></svg>