<svg xmlns="http://www.w3.org/2000/svg" xmlns:xlink="http://www.w3.org/1999/xlink" width="48" height="24"><path fill="black" stroke="black" d="M5.11 19.90L0.64 19.90L0.64 18.12L2.02 18.12L2.02 4.88L0.64 4.88L0.64 3.09L4.99 3.09Q7.85 3.09 9.39 5.09L9.39 5.09Q10.90 7.04 10.90 11.23L10.90 11.23Q10.90 15.56 9.50 17.59L9.50 17.59Q7.92 19.90 5.11 19.90L5.11 19.90ZM4.90 4.88L3.94 4.88L3.94 18.12L5.04 18.12Q8.93 18.12 8.93 11.23L8.93 11.23Q8.93 7.80 7.82 6.26L7.82 6.26Q6.83 4.88 4.90 4.88L4.90 4.88ZM18.94 3.09L18.94 17.27Q18.94 18.30 19.92 18.30L19.92 18.30Q20.73 18.30 21.69 18.12L21.69 18.12L21.69 19.91Q20.27 20.11 19.61 20.11L19.61 20.11Q17.06 20.11 17.06 17.61L17.06 17.61L17.06 3.09L18.94 3.09ZM27.59 11.82L25.66 11.82Q26.13 8.03 30.01 8.03L30.01 8.03Q33.91 8.03 33.91 12.21L33.91 12.21L33.91 17.94Q33.91 18.62 34.54 18.62L34.54 18.62Q34.75 18.62 35.11 18.54L35.11 18.54L35.11 20.23Q34.63 20.34 33.96 20.34L33.96 20.34Q32.38 20.34 32.17 18.57L32.17 18.57Q30.54 20.34 28.59 20.34L28.59 20.34Q27.32 20.34 26.50 19.68L26.50 19.68Q25.42 18.81 25.42 17.11L25.42 17.11Q25.42 13.16 32.19 12.69L32.19 12.69L32.19 12.21Q32.19 9.63 30.01 9.63L30.01 9.63Q27.76 9.63 27.59 11.82L27.59 11.82ZM32.19 15.79L32.19 14.20Q27.18 14.45 27.18 17.02L27.18 17.02Q27.18 18.74 28.88 18.74L28.88 18.74Q30.04 18.74 31.14 17.85L31.14 17.85Q32.19 17.02 32.19 15.79L32.19 15.79ZM37.46 19.90L37.46 3.09L39.39 3.09L39.39 10.24L44.61 10.24L44.61 3.09L46.54 3.09L46.54 19.90L44.61 19.90L44.61 12.07L39.39 12.07L39.39 19.90L37.46 19.90Z"/></svg>