<svg xmlns="http://www.w3.org/2000/svg" xmlns:xlink="http://www.w3.org/1999/xlink" width="48" height="24"><path fill="black" stroke="black" d="M5.11 19.90L0.64 19.90L0.64 18.12L2.02 18.12L2.02 4.88L0.64 4.88L0.64 3.09L4.99 3.09Q7.85 3.09 9.39 5.09L9.39 5.09Q10.90 7.04 10.90 11.23L10.90 11.23Q10.90 15.56 9.50 17.59L9.50 17.59Q7.92 19.90 5.11 19.90L5.11 19.90ZM4.90 4.88L3.94 4.88L3.94 18.12L5.04 18.12Q8.93 18.12 8.93 11.23L8.93 11.23Q8.93 7.80 7.82 6.26L7.82 6.26Q6.83 4.88 4.90 4.88L4.90 4.88ZM13.10 8.50L14.37 8.50L14.64 9.39Q15.66 8.04 16.77 8.04L16.77 8.04Q17.88 8.04 18.49 9.39L18.49 9.39Q19.56 8.04 20.84 8.04L20.84 8.04Q22.90 8.04 22.90 10.92L22.90 10.92L22.90 19.90L21.18 19.90L21.18 11.25Q21.18 9.57 20.33 9.57L20.33 9.57Q19.57 9.57 19.10 10.42L19.10 10.42Q18.83 10.95 18.83 11.57L18.83 11.57L18.83 19.90L17.16 19.90L17.16 11.23Q17.16 9.57 16.29 9.57L16.29 9.57Q14.82 9.57 14.82 11.54L14.82 11.54L14.82 19.90L13.10 19.90L13.10 8.50ZM27.50 8.50L29.33 8.50L29.33 10.90Q31.41 8.71 33.77 8.04L33.77 8.04L33.77 10.13Q31.05 10.78 29.33 13.08L29.33 13.08L29.33 19.90L27.50 19.90L27.50 8.50ZM46.88 19.90L45.34 19.90L45.34 17.64Q44.00 20.38 41.78 20.38L41.78 20.38Q39.61 20.38 38.34 18.14L38.34 18.14Q37.10 15.90 37.10 11.52L37.10 11.52Q37.10 7.41 38.40 4.99L38.40 4.99Q39.69 2.61 42.09 2.61L42.09 2.61Q45.95 2.61 46.71 7.90L46.71 7.90L44.74 7.90Q44.20 4.42 42.09 4.42L42.09 4.42Q39.16 4.42 39.16 11.47L39.16 11.47Q39.16 18.57 42 18.57L42 18.57Q44.58 18.57 45.13 13.63L45.13 13.63L42.60 13.63L42.60 11.91L46.88 11.91L46.88 19.90Z"/></svg>