<svg xmlns="http://www.w3.org/2000/svg" xmlns:xlink="http://www.w3.org/1999/xlink" width="48" height="24"><path fill="black" stroke="black" d="M5.11 19.90L0.64 19.90L0.64 18.12L2.02 18.12L2.02 4.88L0.64 4.88L0.64 3.09L4.99 3.09Q7.85 3.09 9.39 5.09L9.39 5.09Q10.90 7.04 10.90 11.23L10.90 11.23Q10.90 15.56 9.50 17.59L9.50 17.59Q7.92 19.90 5.11 19.90L5.11 19.90ZM4.90 4.88L3.94 4.88L3.94 18.12L5.04 18.12Q8.93 18.12 8.93 11.23L8.93 11.23Q8.93 7.80 7.82 6.26L7.82 6.26Q6.83 4.88 4.90 4.88L4.90 4.88ZM13.76 16.42L13.76 8.50L15.54 8.50L15.54 16.23Q15.54 18.70 17.50 18.70L17.50 18.70Q18.76 18.70 19.72 17.77L19.72 17.77Q20.59 16.93 20.59 15.57L20.59 15.57L20.59 8.50L22.37 8.50L22.37 19.90L21.05 19.90L20.73 18.55Q19.16 20.38 17.10 20.38L17.10 20.38Q15.30 20.38 14.40 19.01L14.40 19.01Q13.76 18 13.76 16.42L13.76 16.42ZM33.64 20.73L32.23 21.74Q31.98 20.77 31.56 19.97L31.56 19.97Q30.77 20.38 29.95 20.38L29.95 20.38Q27.68 20.38 26.43 18.05L26.43 18.05Q25.10 15.66 25.10 11.50L25.10 11.50Q25.10 7.28 26.47 4.88L26.47 4.88Q27.76 2.61 30 2.61L30 2.61Q32.25 2.61 33.55 4.90L33.55 4.90Q34.90 7.32 34.90 11.47L34.90 11.47Q34.90 16.64 32.88 18.98L32.88 18.98Q33.53 20.43 33.64 20.73L33.64 20.73ZM29.20 15.48L30.50 14.59Q31.02 15.29 32.06 17.18L32.06 17.18Q32.88 15.55 32.88 11.52L32.88 11.52Q32.88 4.37 30 4.37L30 4.37Q27.12 4.37 27.12 11.47L27.12 11.47Q27.12 18.68 29.95 18.68L29.95 18.68Q30.41 18.68 30.91 18.50L30.91 18.50Q30.21 16.93 29.20 15.48L29.20 15.48ZM44.44 9.79L44.44 3.09L46.22 3.09L46.22 19.90L44.92 19.90L44.46 18.41Q43.24 20.38 41.27 20.38L41.27 20.38Q39.46 20.38 38.34 18.62L38.34 18.62Q37.22 16.91 37.22 14.06L37.22 14.06Q37.22 11.73 38.06 10.13L38.06 10.13Q39.18 8.04 41.25 8.04L41.25 8.04Q42.97 8.04 44.44 9.79L44.44 9.79ZM41.68 9.74L41.68 9.74Q40.44 9.74 39.71 11.09L39.71 11.09Q39.09 12.30 39.09 14.09L39.09 14.09Q39.09 16.02 39.67 17.21L39.67 17.21Q40.35 18.68 41.68 18.68L41.68 18.68Q42.89 18.68 43.69 17.47L43.69 17.47Q44.51 16.27 44.51 14.09L44.51 14.09Q44.51 12.32 43.89 11.18L43.89 11.18Q43.13 9.74 41.68 9.74Z"/></svg>