<svg xmlns="http://www.w3.org/2000/svg" xmlns:xlink="http://www.w3.org/1999/xlink" width="48" height="24"><path fill="black" stroke="black" d="M1.68 19.90L1.68 3.09L10.10 3.09L10.10 4.92L3.60 4.92L3.60 10.27L9.23 10.27L9.23 12.05L3.60 12.05L3.60 18.07L10.58 18.07L10.58 19.90L1.68 19.90ZM22.68 6.83L20.71 6.83Q20.34 4.29 18.42 4.29L18.42 4.29Q16.76 4.29 15.86 6.30L15.86 6.30Q15.01 8.19 14.98 11.41L14.98 11.41Q16.35 9.42 18.47 9.42L18.47 9.42Q20.23 9.42 21.45 10.72L21.45 10.72Q22.89 12.23 22.89 14.71L22.89 14.71Q22.89 16.77 21.90 18.30L21.90 18.30Q20.57 20.37 18.14 20.37L18.14 20.37Q15.94 20.37 14.61 18.35L14.61 18.35Q13.20 16.14 13.20 12.21L13.20 12.21Q13.20 8.04 14.44 5.47L14.44 5.47Q15.86 2.61 18.40 2.61L18.40 2.61Q21.88 2.61 22.68 6.83L22.68 6.83ZM18.16 10.98L18.16 10.98Q16.77 10.98 15.93 12.26L15.93 12.26Q15.28 13.27 15.28 14.78L15.28 14.78Q15.28 16.14 15.74 17.09L15.74 17.09Q16.54 18.71 18.19 18.71L18.19 18.71Q19.51 18.71 20.32 17.52L20.32 17.52Q21.04 16.46 21.04 14.75L21.04 14.75Q21.04 13.20 20.41 12.21L20.41 12.21Q19.65 10.98 18.16 10.98ZM28.66 8.50L28.66 5.40L30.49 5.40L30.49 8.50L33.32 8.50L33.32 10.22L30.49 10.22L30.49 17.48Q30.49 18.30 31.41 18.30L31.41 18.30Q32.52 18.30 33.48 18.12L33.48 18.12L33.48 19.91Q32.06 20.11 31.04 20.11L31.04 20.11Q28.66 20.11 28.66 17.73L28.66 17.73L28.66 10.22L26.40 10.22L26.40 8.50L28.66 8.50ZM37.68 19.90L37.68 3.09L41.84 3.09Q43.86 3.09 45.14 4.01L45.14 4.01Q46.77 5.20 46.77 7.46L46.77 7.46Q46.77 10.77 43.63 11.74L43.63 11.74L47.23 19.90L45.02 19.90L41.75 12.06L39.55 12.06L39.55 19.90L37.68 19.90ZM41.54 4.88L39.55 4.88L39.55 10.34L41.57 10.34Q42.62 10.34 43.41 9.90L43.41 9.90Q44.85 9.15 44.85 7.51L44.85 7.51Q44.85 4.88 41.54 4.88L41.54 4.88Z"/></svg>