<svg xmlns="http://www.w3.org/2000/svg" xmlns:xlink="http://www.w3.org/1999/xlink" width="48" height="24"><path fill="black" stroke="black" d="M8.68 16.36L10.56 16.36Q9.52 20.37 6.02 20.37L6.02 20.37Q3.86 20.37 2.59 18.56L2.59 18.56Q1.44 16.91 1.44 14.20L1.44 14.20Q1.44 11.61 2.52 9.96L2.52 9.96Q3.79 8.04 6 8.04L6 8.04Q10.32 8.04 10.61 14.57L10.61 14.57L3.25 14.57Q3.39 18.76 6.05 18.76L6.05 18.76Q8.16 18.76 8.68 16.36L8.68 16.36ZM3.32 13.03L8.68 13.03Q8.30 9.64 6 9.64L6 9.64Q3.79 9.64 3.32 13.03L3.32 13.03ZM15.94 10.84L15.94 10.84Q13.51 9.66 13.51 7.05L13.51 7.05Q13.51 5.80 14.11 4.77L14.11 4.77Q15.38 2.61 18 2.61L18 2.61Q19.31 2.61 20.45 3.30L20.45 3.30Q22.49 4.56 22.49 7.05L22.49 7.05Q22.49 9.66 20.06 10.84L20.06 10.84Q23.17 12.04 23.17 15.34L23.17 15.34Q23.17 17.23 22.11 18.57L22.11 18.57Q20.71 20.38 18 20.38L18 20.38Q15.70 20.38 14.31 19.05L14.31 19.05Q12.84 17.66 12.84 15.34L12.84 15.34Q12.84 12.04 15.94 10.84ZM18 4.15L18 4.15Q16.79 4.15 16.03 5.02L16.03 5.02Q15.34 5.82 15.34 7.03L15.34 7.03Q15.34 7.83 15.63 8.47L15.63 8.47Q16.35 10.03 18.02 10.03L18.02 10.03Q18.98 10.03 19.65 9.43L19.65 9.43Q20.66 8.57 20.66 7.03L20.66 7.03Q20.66 5.53 19.65 4.70L19.65 4.70Q18.96 4.15 18 4.15ZM17.98 11.75L17.98 11.75Q16.42 11.75 15.49 12.90L15.49 12.90Q14.72 13.90 14.72 15.34L14.72 15.34Q14.72 16.72 15.47 17.65L15.47 17.65Q16.39 18.80 18 18.80L18 18.80Q19.62 18.80 20.55 17.65L20.55 17.65Q21.29 16.72 21.29 15.34L21.29 15.34Q21.29 13.54 20.19 12.57L20.19 12.57Q19.30 11.75 17.98 11.75ZM29.45 18.89L25.42 8.50L27.48 8.50L30.34 16.61L32.86 8.50L34.95 8.50L30.23 21.67Q29.85 22.82 28.90 23.18L28.90 23.18Q28.45 23.36 26.06 23.36L26.06 23.36L26.06 21.62L27.09 21.62Q27.46 21.62 27.62 21.62L27.62 21.62Q28.43 21.62 28.68 20.98L28.68 20.98L29.45 18.89ZM40.99 13.61L37.77 8.50L39.96 8.50L42 12.23L44.04 8.50L46.22 8.50L43.01 13.61L46.97 19.90L44.64 19.90L42 15.16L39.36 19.90L37.03 19.90L40.99 13.61Z"/></svg>