<svg xmlns="http://www.w3.org/2000/svg" xmlns:xlink="http://www.w3.org/1999/xlink" width="48" height="24"><path fill="black" stroke="black" d="M1.68 19.90L1.68 3.09L10.10 3.09L10.10 4.92L3.60 4.92L3.60 10.27L9.23 10.27L9.23 12.05L3.60 12.05L3.60 18.07L10.58 18.07L10.58 19.90L1.68 19.90ZM15.59 11.82L13.66 11.82Q14.13 8.03 18.01 8.03L18.01 8.03Q21.91 8.03 21.91 12.21L21.91 12.21L21.91 17.94Q21.91 18.62 22.54 18.62L22.54 18.62Q22.75 18.62 23.11 18.54L23.11 18.54L23.11 20.23Q22.63 20.34 21.96 20.34L21.96 20.34Q20.38 20.34 20.17 18.57L20.17 18.57Q18.54 20.34 16.59 20.34L16.59 20.34Q15.32 20.34 14.50 19.68L14.50 19.68Q13.42 18.81 13.42 17.11L13.42 17.11Q13.42 13.16 20.19 12.69L20.19 12.69L20.19 12.21Q20.19 9.63 18.01 9.63L18.01 9.63Q15.76 9.63 15.59 11.82L15.59 11.82ZM20.19 15.79L20.19 14.20Q15.18 14.45 15.18 17.02L15.18 17.02Q15.18 18.74 16.88 18.74L16.88 18.74Q18.04 18.74 19.14 17.85L19.14 17.85Q20.19 17.02 20.19 15.79L20.19 15.79ZM25.90 19.90L25.90 3.09L27.68 3.09L27.68 13.39L31.88 8.50L34.11 8.50L30.49 12.55L35.05 19.90L32.81 19.90L29.38 13.82L27.68 15.64L27.68 19.90L25.90 19.90ZM37.68 19.90L37.68 3.09L46.10 3.09L46.10 4.92L39.60 4.92L39.60 10.27L45.23 10.27L45.23 12.05L39.60 12.05L39.60 18.07L46.58 18.07L46.58 19.90L37.68 19.90Z"/></svg>