<svg xmlns="http://www.w3.org/2000/svg" xmlns:xlink="http://www.w3.org/1999/xlink" width="48" height="24"><path fill="black" stroke="black" d="M1.68 19.90L1.68 3.09L10.10 3.09L10.10 4.92L3.60 4.92L3.60 10.27L9.23 10.27L9.23 12.05L3.60 12.05L3.60 18.07L10.58 18.07L10.58 19.90L1.68 19.90ZM13.46 19.90L13.46 3.09L15.39 3.09L15.39 10.24L20.61 10.24L20.61 3.09L22.54 3.09L22.54 19.90L20.61 19.90L20.61 12.07L15.39 12.07L15.39 19.90L13.46 19.90ZM28.95 5.25L28.95 3.09L31.05 3.09L31.05 5.25L28.95 5.25ZM29.06 19.90L29.06 8.50L30.94 8.50L30.94 19.90L29.06 19.90ZM37.39 19.90L37.39 3.09L39.87 3.09L44.73 16.63L44.73 3.09L46.56 3.09L46.56 19.90L44.30 19.90L39.32 6.07L39.32 19.90L37.39 19.90Z"/></svg>