<svg xmlns="http://www.w3.org/2000/svg" xmlns:xlink="http://www.w3.org/1999/xlink" width="48" height="24"><path fill="black" stroke="black" d="M8.68 16.36L10.56 16.36Q9.52 20.37 6.02 20.37L6.02 20.37Q3.86 20.37 2.59 18.56L2.59 18.56Q1.44 16.91 1.44 14.20L1.44 14.20Q1.44 11.61 2.52 9.96L2.52 9.96Q3.79 8.04 6 8.04L6 8.04Q10.32 8.04 10.61 14.57L10.61 14.57L3.25 14.57Q3.39 18.76 6.05 18.76L6.05 18.76Q8.16 18.76 8.68 16.36L8.68 16.36ZM3.32 13.03L8.68 13.03Q8.30 9.64 6 9.64L6 9.64Q3.79 9.64 3.32 13.03L3.32 13.03ZM13.78 8.50L15.11 8.50L15.40 10.01Q17.00 8.04 18.73 8.04L18.73 8.04Q20.48 8.04 21.61 9.60L21.61 9.60Q22.80 11.27 22.80 13.93L22.80 13.93Q22.80 16.42 21.84 18.08L21.84 18.08Q20.71 20.05 18.70 20.05L18.70 20.05Q16.97 20.05 15.56 18.47L15.56 18.47L15.56 23.34L13.78 23.34L13.78 8.50ZM18.32 9.74L18.32 9.74Q17.14 9.74 16.32 10.91L16.32 10.91Q15.49 12.12 15.49 13.96L15.49 13.96Q15.49 15.63 16.07 16.75L16.07 16.75Q16.85 18.33 18.34 18.33L18.34 18.33Q19.52 18.33 20.21 17.20L20.21 17.20Q20.91 15.98 20.91 13.96L20.91 13.96Q20.91 12.11 20.26 10.98L20.26 10.98Q19.55 9.74 18.32 9.74ZM26.43 19.90L24.57 3.09L26.47 3.09L27.46 15.95L29.11 3.09L30.89 3.09L32.54 15.95L33.53 3.09L35.43 3.09L33.57 19.90L31.68 19.90L30 6.55L28.31 19.90L26.43 19.90ZM41.11 19.90L36.64 19.90L36.64 18.12L38.02 18.12L38.02 4.88L36.64 4.88L36.64 3.09L40.99 3.09Q43.85 3.09 45.39 5.09L45.39 5.09Q46.90 7.04 46.90 11.23L46.90 11.23Q46.90 15.56 45.50 17.59L45.50 17.59Q43.92 19.90 41.11 19.90L41.11 19.90ZM40.90 4.88L39.94 4.88L39.94 18.12L41.04 18.12Q44.93 18.12 44.93 11.23L44.93 11.23Q44.93 7.80 43.82 6.26L43.82 6.26Q42.83 4.88 40.90 4.88L40.90 4.88Z"/></svg>