<svg xmlns="http://www.w3.org/2000/svg" xmlns:xlink="http://www.w3.org/1999/xlink" width="48" height="24"><path fill="black" stroke="black" d="M8.68 16.36L10.56 16.36Q9.52 20.37 6.02 20.37L6.02 20.37Q3.86 20.37 2.59 18.56L2.59 18.56Q1.44 16.91 1.44 14.20L1.44 14.20Q1.44 11.61 2.52 9.96L2.52 9.96Q3.79 8.04 6 8.04L6 8.04Q10.32 8.04 10.61 14.57L10.61 14.57L3.25 14.57Q3.39 18.76 6.05 18.76L6.05 18.76Q8.16 18.76 8.68 16.36L8.68 16.36ZM3.32 13.03L8.68 13.03Q8.30 9.64 6 9.64L6 9.64Q3.79 9.64 3.32 13.03L3.32 13.03ZM16.99 13.61L13.77 8.50L15.96 8.50L18 12.23L20.04 8.50L22.22 8.50L19.01 13.61L22.97 19.90L20.64 19.90L18 15.16L15.36 19.90L13.03 19.90L16.99 13.61ZM28.73 19.90L24.82 3.09L26.95 3.09L30 17.55L33.05 3.09L35.19 3.09L31.28 19.90L28.73 19.90ZM37.71 12.46L38.12 3.09L46.09 3.09L46.09 4.77L39.80 4.77L39.54 10.29Q40.72 8.93 42.52 8.93L42.52 8.93Q44.44 8.93 45.70 10.56L45.70 10.56Q46.91 12.13 46.91 14.47L46.91 14.47Q46.91 16.48 46.11 17.95L46.11 17.95Q44.78 20.38 41.96 20.38L41.96 20.38Q38.02 20.38 37.23 15.96L37.23 15.96L39.15 15.96Q39.55 18.70 41.95 18.70L41.95 18.70Q43.50 18.70 44.36 17.38L44.36 17.38Q45.08 16.27 45.08 14.50L45.08 14.50Q45.08 12.93 44.47 11.91L44.47 11.91Q43.72 10.54 42.20 10.54L42.20 10.54Q40.34 10.54 39.22 12.77L39.22 12.77L37.71 12.46Z"/></svg>