<svg xmlns="http://www.w3.org/2000/svg" xmlns:xlink="http://www.w3.org/1999/xlink" width="48" height="24"><path fill="black" stroke="black" d="M1.68 19.90L1.68 3.09L10.13 3.09L10.13 4.97L3.64 4.97L3.64 10.27L9.26 10.27L9.26 12.09L3.64 12.09L3.64 19.90L1.68 19.90ZM22.68 6.83L20.71 6.83Q20.34 4.29 18.42 4.29L18.42 4.29Q16.76 4.29 15.86 6.30L15.86 6.30Q15.01 8.19 14.98 11.41L14.98 11.41Q16.35 9.42 18.47 9.42L18.47 9.42Q20.23 9.42 21.45 10.72L21.45 10.72Q22.89 12.23 22.89 14.71L22.89 14.71Q22.89 16.77 21.90 18.30L21.90 18.30Q20.57 20.37 18.14 20.37L18.14 20.37Q15.94 20.37 14.61 18.35L14.61 18.35Q13.20 16.14 13.20 12.21L13.20 12.21Q13.20 8.04 14.44 5.47L14.44 5.47Q15.86 2.61 18.40 2.61L18.40 2.61Q21.88 2.61 22.68 6.83L22.68 6.83ZM18.16 10.98L18.16 10.98Q16.77 10.98 15.93 12.26L15.93 12.26Q15.28 13.27 15.28 14.78L15.28 14.78Q15.28 16.14 15.74 17.09L15.74 17.09Q16.54 18.71 18.19 18.71L18.19 18.71Q19.51 18.71 20.32 17.52L20.32 17.52Q21.04 16.46 21.04 14.75L21.04 14.75Q21.04 13.20 20.41 12.21L20.41 12.21Q19.65 10.98 18.16 10.98ZM25.92 8.50L28.83 8.50L28.83 5.52Q28.83 3.09 31.30 3.09L31.30 3.09L33.89 3.09L33.89 4.77L31.64 4.77Q30.66 4.77 30.66 5.66L30.66 5.66L30.66 8.50L33.89 8.50L33.89 10.17L30.66 10.17L30.66 19.90L28.83 19.90L28.83 10.17L25.92 10.17L25.92 8.50ZM37.76 19.90L37.76 3.09L39.54 3.09L39.54 9.79Q41.29 8.04 43.01 8.04L43.01 8.04Q44.96 8.04 45.87 9.76L45.87 9.76Q46.37 10.73 46.37 12.12L46.37 12.12L46.37 19.90L44.59 19.90L44.59 12.64Q44.59 9.74 42.73 9.74L42.73 9.74Q41.47 9.74 40.52 10.65L40.52 10.65Q39.54 11.64 39.54 12.90L39.54 12.90L39.54 19.90L37.76 19.90Z"/></svg>