<svg xmlns="http://www.w3.org/2000/svg" xmlns:xlink="http://www.w3.org/1999/xlink" width="48" height="24"><path fill="black" stroke="black" d="M1.68 19.90L1.68 3.09L10.13 3.09L10.13 4.97L3.64 4.97L3.64 10.27L9.26 10.27L9.26 12.09L3.64 12.09L3.64 19.90L1.68 19.90ZM22.68 6.83L20.71 6.83Q20.34 4.29 18.42 4.29L18.42 4.29Q16.76 4.29 15.86 6.30L15.86 6.30Q15.01 8.19 14.98 11.41L14.98 11.41Q16.35 9.42 18.47 9.42L18.47 9.42Q20.23 9.42 21.45 10.72L21.45 10.72Q22.89 12.23 22.89 14.71L22.89 14.71Q22.89 16.77 21.90 18.30L21.90 18.30Q20.57 20.37 18.14 20.37L18.14 20.37Q15.94 20.37 14.61 18.35L14.61 18.35Q13.20 16.14 13.20 12.21L13.20 12.21Q13.20 8.04 14.44 5.47L14.44 5.47Q15.86 2.61 18.40 2.61L18.40 2.61Q21.88 2.61 22.68 6.83L22.68 6.83ZM18.16 10.98L18.16 10.98Q16.77 10.98 15.93 12.26L15.93 12.26Q15.28 13.27 15.28 14.78L15.28 14.78Q15.28 16.14 15.74 17.09L15.74 17.09Q16.54 18.71 18.19 18.71L18.19 18.71Q19.51 18.71 20.32 17.52L20.32 17.52Q21.04 16.46 21.04 14.75L21.04 14.75Q21.04 13.20 20.41 12.21L20.41 12.21Q19.65 10.98 18.16 10.98ZM25.78 8.50L27.11 8.50L27.40 10.01Q29.00 8.04 30.73 8.04L30.73 8.04Q32.48 8.04 33.61 9.60L33.61 9.60Q34.80 11.27 34.80 13.93L34.80 13.93Q34.80 16.42 33.84 18.08L33.84 18.08Q32.71 20.05 30.70 20.05L30.70 20.05Q28.97 20.05 27.56 18.47L27.56 18.47L27.56 23.34L25.78 23.34L25.78 8.50ZM30.32 9.74L30.32 9.74Q29.14 9.74 28.32 10.91L28.32 10.91Q27.49 12.12 27.49 13.96L27.49 13.96Q27.49 15.63 28.07 16.75L28.07 16.75Q28.85 18.33 30.34 18.33L30.34 18.33Q31.52 18.33 32.21 17.20L32.21 17.20Q32.91 15.98 32.91 13.96L32.91 13.96Q32.91 12.11 32.26 10.98L32.26 10.98Q31.55 9.74 30.32 9.74ZM45.64 20.73L44.23 21.74Q43.98 20.77 43.56 19.97L43.56 19.97Q42.77 20.38 41.95 20.38L41.95 20.38Q39.68 20.38 38.43 18.05L38.43 18.05Q37.10 15.66 37.10 11.50L37.10 11.50Q37.10 7.28 38.47 4.88L38.47 4.88Q39.76 2.61 42 2.61L42 2.61Q44.25 2.61 45.55 4.90L45.55 4.90Q46.90 7.32 46.90 11.47L46.90 11.47Q46.90 16.64 44.88 18.98L44.88 18.98Q45.53 20.43 45.64 20.73L45.64 20.73ZM41.20 15.48L42.50 14.59Q43.02 15.29 44.06 17.18L44.06 17.18Q44.88 15.55 44.88 11.52L44.88 11.52Q44.88 4.37 42 4.37L42 4.37Q39.12 4.37 39.12 11.47L39.12 11.47Q39.12 18.68 41.95 18.68L41.95 18.68Q42.41 18.68 42.91 18.50L42.91 18.50Q42.21 16.93 41.20 15.48L41.20 15.48Z"/></svg>