<svg xmlns="http://www.w3.org/2000/svg" xmlns:xlink="http://www.w3.org/1999/xlink" width="48" height="24"><path fill="black" stroke="black" d="M1.68 19.90L1.68 3.09L10.13 3.09L10.13 4.97L3.64 4.97L3.64 10.27L9.26 10.27L9.26 12.09L3.64 12.09L3.64 19.90L1.68 19.90ZM15.94 10.84L15.94 10.84Q13.51 9.66 13.51 7.05L13.51 7.05Q13.51 5.80 14.11 4.77L14.11 4.77Q15.38 2.61 18 2.61L18 2.61Q19.31 2.61 20.45 3.30L20.45 3.30Q22.49 4.56 22.49 7.05L22.49 7.05Q22.49 9.66 20.06 10.84L20.06 10.84Q23.17 12.04 23.17 15.34L23.17 15.34Q23.17 17.23 22.11 18.57L22.11 18.57Q20.71 20.38 18 20.38L18 20.38Q15.70 20.38 14.31 19.05L14.31 19.05Q12.84 17.66 12.84 15.34L12.84 15.34Q12.84 12.04 15.94 10.84ZM18 4.15L18 4.15Q16.79 4.15 16.03 5.02L16.03 5.02Q15.34 5.82 15.34 7.03L15.34 7.03Q15.34 7.83 15.63 8.47L15.63 8.47Q16.35 10.03 18.02 10.03L18.02 10.03Q18.98 10.03 19.65 9.43L19.65 9.43Q20.66 8.57 20.66 7.03L20.66 7.03Q20.66 5.53 19.65 4.70L19.65 4.70Q18.96 4.15 18 4.15ZM17.98 11.75L17.98 11.75Q16.42 11.75 15.49 12.90L15.49 12.90Q14.72 13.90 14.72 15.34L14.72 15.34Q14.72 16.72 15.47 17.65L15.47 17.65Q16.39 18.80 18 18.80L18 18.80Q19.62 18.80 20.55 17.65L20.55 17.65Q21.29 16.72 21.29 15.34L21.29 15.34Q21.29 13.54 20.19 12.57L20.19 12.57Q19.30 11.75 17.98 11.75ZM25.39 14.75L25.39 3.09L27.32 3.09L27.32 14.75Q27.32 18.57 30 18.57L30 18.57Q32.68 18.57 32.68 14.75L32.68 14.75L32.68 3.09L34.61 3.09L34.61 14.75Q34.61 17.17 33.62 18.62L33.62 18.62Q32.44 20.38 30 20.38L30 20.38Q25.39 20.38 25.39 14.75L25.39 14.75ZM37.71 12.46L38.12 3.09L46.09 3.09L46.09 4.77L39.80 4.77L39.54 10.29Q40.72 8.93 42.52 8.93L42.52 8.93Q44.44 8.93 45.70 10.56L45.70 10.56Q46.91 12.13 46.91 14.47L46.91 14.47Q46.91 16.48 46.11 17.95L46.11 17.95Q44.78 20.38 41.96 20.38L41.96 20.38Q38.02 20.38 37.23 15.96L37.23 15.96L39.15 15.96Q39.55 18.70 41.95 18.70L41.95 18.70Q43.50 18.70 44.36 17.38L44.36 17.38Q45.08 16.27 45.08 14.50L45.08 14.50Q45.08 12.93 44.47 11.91L44.47 11.91Q43.72 10.54 42.20 10.54L42.20 10.54Q40.34 10.54 39.22 12.77L39.22 12.77L37.71 12.46Z"/></svg>