<svg xmlns="http://www.w3.org/2000/svg" xmlns:xlink="http://www.w3.org/1999/xlink" width="48" height="24"><path fill="black" stroke="black" d="M1.68 19.90L1.68 3.09L10.13 3.09L10.13 4.97L3.64 4.97L3.64 10.27L9.26 10.27L9.26 12.09L3.64 12.09L3.64 19.90L1.68 19.90ZM13.44 16.01L15.41 16.01Q15.70 18.62 17.88 18.62L17.88 18.62Q21.12 18.62 21.08 11.74L21.08 11.74Q19.73 13.72 17.70 13.72L17.70 13.72Q15.22 13.72 13.99 11.41L13.99 11.41Q13.30 10.07 13.30 8.30L13.30 8.30Q13.30 6.05 14.52 4.39L14.52 4.39Q15.83 2.61 17.88 2.61L17.88 2.61Q22.83 2.61 22.83 10.97L22.83 10.97Q22.83 20.38 17.91 20.38L17.91 20.38Q15.66 20.38 14.36 18.43L14.36 18.43Q13.69 17.43 13.44 16.01L13.44 16.01ZM17.96 4.27L17.96 4.27Q15.13 4.27 15.13 8.25L15.13 8.25Q15.13 9.73 15.63 10.70L15.63 10.70Q16.38 12.14 17.96 12.14L17.96 12.14Q18.97 12.14 19.76 11.25L19.76 11.25Q20.77 10.10 20.77 8.25L20.77 8.25Q20.77 6.40 19.97 5.32L19.97 5.32Q19.21 4.27 17.96 4.27ZM31.32 19.90L29.36 19.90L29.36 5.54Q28.45 6.15 26.84 6.83L26.84 6.83L26.84 4.90Q28.71 4.21 29.86 3.09L29.86 3.09L31.32 3.09L31.32 19.90ZM40.95 5.25L40.95 3.09L43.05 3.09L43.05 5.25L40.95 5.25ZM41.06 19.90L41.06 8.50L42.94 8.50L42.94 19.90L41.06 19.90Z"/></svg>