<svg xmlns="http://www.w3.org/2000/svg" xmlns:xlink="http://www.w3.org/1999/xlink" width="48" height="24"><path fill="black" stroke="black" d="M1.68 19.90L1.68 3.09L10.13 3.09L10.13 4.97L3.64 4.97L3.64 10.27L9.26 10.27L9.26 12.09L3.64 12.09L3.64 19.90L1.68 19.90ZM13.68 19.90L13.68 3.09L22.10 3.09L22.10 4.92L15.60 4.92L15.60 10.27L21.23 10.27L21.23 12.05L15.60 12.05L15.60 18.07L22.58 18.07L22.58 19.90L13.68 19.90ZM25.39 14.75L25.39 3.09L27.32 3.09L27.32 14.75Q27.32 18.57 30 18.57L30 18.57Q32.68 18.57 32.68 14.75L32.68 14.75L32.68 3.09L34.61 3.09L34.61 14.75Q34.61 17.17 33.62 18.62L33.62 18.62Q32.44 20.38 30 20.38L30 20.38Q25.39 20.38 25.39 14.75L25.39 14.75ZM37.39 19.90L37.39 3.09L39.87 3.09L44.73 16.63L44.73 3.09L46.56 3.09L46.56 19.90L44.30 19.90L39.32 6.07L39.32 19.90L37.39 19.90Z"/></svg>