<svg xmlns="http://www.w3.org/2000/svg" xmlns:xlink="http://www.w3.org/1999/xlink" width="48" height="24"><path fill="black" stroke="black" d="M1.68 19.90L1.68 3.09L10.13 3.09L10.13 4.97L3.64 4.97L3.64 10.27L9.26 10.27L9.26 12.09L3.64 12.09L3.64 19.90L1.68 19.90ZM16.95 5.25L16.95 3.09L19.05 3.09L19.05 5.25L16.95 5.25ZM17.06 19.90L17.06 8.50L18.94 8.50L18.94 19.90L17.06 19.90ZM25.10 15.07L27.12 15.07Q27.26 18.62 30.19 18.62L30.19 18.62Q31.24 18.62 31.95 18.09L31.95 18.09Q32.93 17.33 32.93 15.96L32.93 15.96Q32.93 14.48 31.70 13.36L31.70 13.36Q30.86 12.61 28.80 11.43L28.80 11.43Q25.56 9.52 25.56 6.87L25.56 6.87Q25.56 5.19 26.61 4.03L26.61 4.03Q27.89 2.61 30.02 2.61L30.02 2.61Q34.00 2.61 34.54 7.39L34.54 7.39L32.57 7.39Q32.48 6.29 32.11 5.64L32.11 5.64Q31.36 4.31 30.02 4.31L30.02 4.31Q28.64 4.31 27.96 5.25L27.96 5.25Q27.48 5.92 27.48 6.71L27.48 6.71Q27.48 8.61 30.57 10.42L30.57 10.42Q32.48 11.53 33.50 12.55L33.50 12.55Q34.88 13.89 34.88 15.94L34.88 15.94Q34.88 17.87 33.64 19.05L33.64 19.05Q32.33 20.38 30.25 20.38L30.25 20.38Q27.63 20.38 26.18 18.46L26.18 18.46Q25.17 17.12 25.10 15.07L25.10 15.07ZM37.10 15.07L39.12 15.07Q39.26 18.62 42.19 18.62L42.19 18.62Q43.24 18.62 43.95 18.09L43.95 18.09Q44.93 17.33 44.93 15.96L44.93 15.96Q44.93 14.48 43.70 13.36L43.70 13.36Q42.86 12.61 40.80 11.43L40.80 11.43Q37.56 9.52 37.56 6.87L37.56 6.87Q37.56 5.19 38.61 4.03L38.61 4.03Q39.89 2.61 42.02 2.61L42.02 2.61Q46.00 2.61 46.54 7.39L46.54 7.39L44.57 7.39Q44.48 6.29 44.11 5.64L44.11 5.64Q43.36 4.31 42.02 4.31L42.02 4.31Q40.64 4.31 39.96 5.25L39.96 5.25Q39.48 5.92 39.48 6.71L39.48 6.71Q39.48 8.61 42.57 10.42L42.57 10.42Q44.48 11.53 45.50 12.55L45.50 12.55Q46.88 13.89 46.88 15.94L46.88 15.94Q46.88 17.87 45.64 19.05L45.64 19.05Q44.33 20.38 42.25 20.38L42.25 20.38Q39.63 20.38 38.18 18.46L38.18 18.46Q37.17 17.12 37.10 15.07L37.10 15.07Z"/></svg>