<svg xmlns="http://www.w3.org/2000/svg" xmlns:xlink="http://www.w3.org/1999/xlink" width="48" height="24"><path fill="black" stroke="black" d="M1.92 8.50L4.83 8.50L4.83 5.52Q4.83 3.09 7.30 3.09L7.30 3.09L9.89 3.09L9.89 4.77L7.64 4.77Q6.66 4.77 6.66 5.66L6.66 5.66L6.66 8.50L9.89 8.50L9.89 10.17L6.66 10.17L6.66 19.90L4.83 19.90L4.83 10.17L1.92 10.17L1.92 8.50ZM13.10 8.50L14.37 8.50L14.64 9.39Q15.66 8.04 16.77 8.04L16.77 8.04Q17.88 8.04 18.49 9.39L18.49 9.39Q19.56 8.04 20.84 8.04L20.84 8.04Q22.90 8.04 22.90 10.92L22.90 10.92L22.90 19.90L21.18 19.90L21.18 11.25Q21.18 9.57 20.33 9.57L20.33 9.57Q19.57 9.57 19.10 10.42L19.10 10.42Q18.83 10.95 18.83 11.57L18.83 11.57L18.83 19.90L17.16 19.90L17.16 11.23Q17.16 9.57 16.29 9.57L16.29 9.57Q14.82 9.57 14.82 11.54L14.82 11.54L14.82 19.90L13.10 19.90L13.10 8.50ZM31.65 15.64L31.65 3.09L33.67 3.09L33.67 15.55Q33.67 20.37 29.50 20.37L29.50 20.37Q25.31 20.37 25.05 15.26L25.05 15.26L27.09 15.26Q27.13 18.49 29.50 18.49L29.50 18.49Q31.65 18.49 31.65 15.64L31.65 15.64ZM37.39 19.90L37.39 3.09L39.87 3.09L44.73 16.63L44.73 3.09L46.56 3.09L46.56 19.90L44.30 19.90L39.32 6.07L39.32 19.90L37.39 19.90Z"/></svg>