<svg xmlns="http://www.w3.org/2000/svg" xmlns:xlink="http://www.w3.org/1999/xlink" width="48" height="24"><path fill="black" stroke="black" d="M1.68 19.90L1.68 3.09L10.13 3.09L10.13 4.97L3.64 4.97L3.64 10.27L9.26 10.27L9.26 12.09L3.64 12.09L3.64 19.90L1.68 19.90ZM13.39 19.90L13.39 3.09L15.87 3.09L20.73 16.63L20.73 3.09L22.56 3.09L22.56 19.90L20.30 19.90L15.32 6.07L15.32 19.90L13.39 19.90ZM30 2.61L30 2.61Q34.66 2.61 34.66 11.50L34.66 11.50Q34.66 20.38 30 20.38L30 20.38Q25.35 20.38 25.35 11.50L25.35 11.50Q25.35 2.61 30 2.61ZM27.66 15.67L27.66 15.67L31.95 5.88Q31.27 4.27 29.98 4.27L29.98 4.27Q27.32 4.27 27.32 11.50L27.32 11.50Q27.32 13.96 27.66 15.67ZM32.36 7.34L28.05 17.09Q28.71 18.73 30 18.73L30 18.73Q32.70 18.73 32.70 11.47L32.70 11.47Q32.70 9.07 32.36 7.34L32.36 7.34ZM36.60 14.06L43.37 3.09L45.41 3.09L45.41 14.11L47.40 14.11L47.40 15.74L45.41 15.74L45.41 19.90L43.63 19.90L43.63 15.74L36.60 15.74L36.60 14.06ZM43.63 14.11L43.63 5.71L38.40 14.11L43.63 14.11Z"/></svg>