<svg xmlns="http://www.w3.org/2000/svg" xmlns:xlink="http://www.w3.org/1999/xlink" width="48" height="24"><path fill="black" stroke="black" d="M1.92 8.50L4.83 8.50L4.83 5.52Q4.83 3.09 7.30 3.09L7.30 3.09L9.89 3.09L9.89 4.77L7.64 4.77Q6.66 4.77 6.66 5.66L6.66 5.66L6.66 8.50L9.89 8.50L9.89 10.17L6.66 10.17L6.66 19.90L4.83 19.90L4.83 10.17L1.92 10.17L1.92 8.50ZM16.99 13.61L13.77 8.50L15.96 8.50L18 12.23L20.04 8.50L22.22 8.50L19.01 13.61L22.97 19.90L20.64 19.90L18 15.16L15.36 19.90L13.03 19.90L16.99 13.61ZM25.76 8.50L27.18 8.50L27.45 9.96Q29.25 8.04 31.01 8.04L31.01 8.04Q32.96 8.04 33.87 9.76L33.87 9.76Q34.37 10.73 34.37 12.12L34.37 12.12L34.37 19.90L32.59 19.90L32.59 12.64Q32.59 9.74 30.73 9.74L30.73 9.74Q29.46 9.74 28.52 10.65L28.52 10.65Q27.54 11.64 27.54 12.91L27.54 12.91L27.54 19.90L25.76 19.90L25.76 8.50ZM44.44 9.79L44.44 3.09L46.22 3.09L46.22 19.90L44.92 19.90L44.46 18.41Q43.24 20.38 41.27 20.38L41.27 20.38Q39.46 20.38 38.34 18.62L38.34 18.62Q37.22 16.91 37.22 14.06L37.22 14.06Q37.22 11.73 38.06 10.13L38.06 10.13Q39.18 8.04 41.25 8.04L41.25 8.04Q42.97 8.04 44.44 9.79L44.44 9.79ZM41.68 9.74L41.68 9.74Q40.44 9.74 39.71 11.09L39.71 11.09Q39.09 12.30 39.09 14.09L39.09 14.09Q39.09 16.02 39.67 17.21L39.67 17.21Q40.35 18.68 41.68 18.68L41.68 18.68Q42.89 18.68 43.69 17.47L43.69 17.47Q44.51 16.27 44.51 14.09L44.51 14.09Q44.51 12.32 43.89 11.18L43.89 11.18Q43.13 9.74 41.68 9.74Z"/></svg>