<svg xmlns="http://www.w3.org/2000/svg" xmlns:xlink="http://www.w3.org/1999/xlink" width="48" height="24"><path fill="black" stroke="black" d="M10.88 19.90L9.34 19.90L9.34 17.64Q8.00 20.38 5.78 20.38L5.78 20.38Q3.61 20.38 2.34 18.14L2.34 18.14Q1.10 15.90 1.10 11.52L1.10 11.52Q1.10 7.41 2.40 4.99L2.40 4.99Q3.69 2.61 6.09 2.61L6.09 2.61Q9.95 2.61 10.71 7.90L10.71 7.90L8.74 7.90Q8.20 4.42 6.09 4.42L6.09 4.42Q3.16 4.42 3.16 11.47L3.16 11.47Q3.16 18.57 6 18.57L6 18.57Q8.58 18.57 9.13 13.63L9.13 13.63L6.60 13.63L6.60 11.91L10.88 11.91L10.88 19.90ZM13.78 19.90L13.78 3.09L15.56 3.09L15.56 9.79Q17.03 8.04 18.73 8.04L18.73 8.04Q20.50 8.04 21.61 9.57L21.61 9.57Q22.78 11.21 22.78 14.09L22.78 14.09Q22.78 16.10 22.16 17.64L22.16 17.64Q21.05 20.38 18.68 20.38L18.68 20.38Q16.72 20.38 15.54 18.41L15.54 18.41L15.08 19.90L13.78 19.90ZM18.29 9.74L18.29 9.74Q16.92 9.74 16.14 11.13L16.14 11.13Q15.49 12.28 15.49 14.09L15.49 14.09Q15.49 16.04 16.18 17.29L16.18 17.29Q16.97 18.68 18.32 18.68L18.32 18.68Q19.50 18.68 20.19 17.47L20.19 17.47Q20.91 16.25 20.91 14.09L20.91 14.09Q20.91 11.96 20.09 10.79L20.09 10.79Q19.41 9.74 18.29 9.74ZM25.90 19.90L25.90 3.09L27.68 3.09L27.68 13.39L31.88 8.50L34.11 8.50L30.49 12.55L35.05 19.90L32.81 19.90L29.38 13.82L27.68 15.64L27.68 19.90L25.90 19.90ZM40.66 8.50L40.66 5.40L42.49 5.40L42.49 8.50L45.32 8.50L45.32 10.22L42.49 10.22L42.49 17.48Q42.49 18.30 43.41 18.30L43.41 18.30Q44.52 18.30 45.48 18.12L45.48 18.12L45.48 19.91Q44.06 20.11 43.04 20.11L43.04 20.11Q40.66 20.11 40.66 17.73L40.66 17.73L40.66 10.22L38.40 10.22L38.40 8.50L40.66 8.50Z"/></svg>