<svg xmlns="http://www.w3.org/2000/svg" xmlns:xlink="http://www.w3.org/1999/xlink" width="48" height="24"><path fill="black" stroke="black" d="M1.46 19.90L1.46 3.09L3.39 3.09L3.39 10.24L8.61 10.24L8.61 3.09L10.54 3.09L10.54 19.90L8.61 19.90L8.61 12.07L3.39 12.07L3.39 19.90L1.46 19.90ZM20.68 16.36L22.56 16.36Q21.52 20.37 18.02 20.37L18.02 20.37Q15.86 20.37 14.59 18.56L14.59 18.56Q13.44 16.91 13.44 14.20L13.44 14.20Q13.44 11.61 14.52 9.96L14.52 9.96Q15.79 8.04 18 8.04L18 8.04Q22.32 8.04 22.61 14.57L22.61 14.57L15.25 14.57Q15.39 18.76 18.05 18.76L18.05 18.76Q20.16 18.76 20.68 16.36L20.68 16.36ZM15.32 13.03L20.68 13.03Q20.30 9.64 18 9.64L18 9.64Q15.79 9.64 15.32 13.03L15.32 13.03ZM25.78 8.50L27.11 8.50L27.40 10.01Q29.00 8.04 30.73 8.04L30.73 8.04Q32.48 8.04 33.61 9.60L33.61 9.60Q34.80 11.27 34.80 13.93L34.80 13.93Q34.80 16.42 33.84 18.08L33.84 18.08Q32.71 20.05 30.70 20.05L30.70 20.05Q28.97 20.05 27.56 18.47L27.56 18.47L27.56 23.34L25.78 23.34L25.78 8.50ZM30.32 9.74L30.32 9.74Q29.14 9.74 28.32 10.91L28.32 10.91Q27.49 12.12 27.49 13.96L27.49 13.96Q27.49 15.63 28.07 16.75L28.07 16.75Q28.85 18.33 30.34 18.33L30.34 18.33Q31.52 18.33 32.21 17.20L32.21 17.20Q32.91 15.98 32.91 13.96L32.91 13.96Q32.91 12.11 32.26 10.98L32.26 10.98Q31.55 9.74 30.32 9.74ZM43.65 15.64L43.65 3.09L45.67 3.09L45.67 15.55Q45.67 20.37 41.50 20.37L41.50 20.37Q37.31 20.37 37.05 15.26L37.05 15.26L39.09 15.26Q39.13 18.49 41.50 18.49L41.50 18.49Q43.65 18.49 43.65 15.64L43.65 15.64Z"/></svg>