<svg xmlns="http://www.w3.org/2000/svg" xmlns:xlink="http://www.w3.org/1999/xlink" width="48" height="24"><path fill="black" stroke="black" d="M1.76 19.90L1.76 3.09L3.54 3.09L3.54 9.79Q5.29 8.04 7.01 8.04L7.01 8.04Q8.96 8.04 9.87 9.76L9.87 9.76Q10.37 10.73 10.37 12.12L10.37 12.12L10.37 19.90L8.59 19.90L8.59 12.64Q8.59 9.74 6.73 9.74L6.73 9.74Q5.47 9.74 4.52 10.65L4.52 10.65Q3.54 11.64 3.54 12.90L3.54 12.90L3.54 19.90L1.76 19.90ZM19.65 15.64L19.65 3.09L21.67 3.09L21.67 15.55Q21.67 20.37 17.50 20.37L17.50 20.37Q13.31 20.37 13.05 15.26L13.05 15.26L15.09 15.26Q15.13 18.49 17.50 18.49L17.50 18.49Q19.65 18.49 19.65 15.64L19.65 15.64ZM25.68 19.90L25.68 3.09L27.69 3.09L27.69 17.98L34.77 17.98L34.77 19.90L25.68 19.90ZM41.03 13.31L36.73 3.09L38.88 3.09L42.01 11.11L45.13 3.09L47.29 3.09L43.00 13.31L43.00 19.90L41.03 19.90L41.03 13.31Z"/></svg>