<svg xmlns="http://www.w3.org/2000/svg" xmlns:xlink="http://www.w3.org/1999/xlink" width="48" height="24"><path fill="black" stroke="black" d="M1.46 19.90L1.46 3.09L3.39 3.09L3.39 10.24L8.61 10.24L8.61 3.09L10.54 3.09L10.54 19.90L8.61 19.90L8.61 12.07L3.39 12.07L3.39 19.90L1.46 19.90ZM18.02 8.04L18.02 8.04Q20.23 8.04 21.48 9.98L21.48 9.98Q22.56 11.60 22.56 14.20L22.56 14.20Q22.56 16.16 21.91 17.64L21.91 17.64Q20.72 20.38 17.98 20.38L17.98 20.38Q15.86 20.38 14.59 18.57L14.59 18.57Q13.44 16.92 13.44 14.20L13.44 14.20Q13.44 11.27 14.77 9.60L14.77 9.60Q16.03 8.04 18.02 8.04ZM17.98 9.71L17.98 9.71Q16.69 9.71 15.96 11.06L15.96 11.06Q15.32 12.25 15.32 14.20L15.32 14.20Q15.32 16.01 15.84 17.14L15.84 17.14Q16.57 18.70 18 18.70L18 18.70Q19.31 18.70 20.04 17.36L20.04 17.36Q20.68 16.17 20.68 14.23L20.68 14.23Q20.68 12.20 20.02 11.04L20.02 11.04Q19.30 9.71 17.98 9.71ZM34.88 18.12L34.88 19.90L24.94 19.90Q25.65 15.29 29.73 11.92L29.73 11.92Q31.36 10.59 31.93 9.74L31.93 9.74Q32.68 8.67 32.68 7.22L32.68 7.22Q32.68 6.04 32.16 5.30L32.16 5.30Q31.48 4.27 30.12 4.27L30.12 4.27Q27.35 4.27 27.09 8.34L27.09 8.34L25.21 8.34Q25.35 5.91 26.36 4.51L26.36 4.51Q27.68 2.64 30.16 2.64L30.16 2.64Q31.90 2.64 33.09 3.64L33.09 3.64Q34.61 4.95 34.61 7.20L34.61 7.20Q34.61 10.34 31.05 13.03L31.05 13.03Q28.02 15.34 27.41 18.12L27.41 18.12L34.88 18.12ZM39.50 8.50L41.33 8.50L41.33 10.90Q43.41 8.71 45.77 8.04L45.77 8.04L45.77 10.13Q43.05 10.78 41.33 13.08L41.33 13.08L41.33 19.90L39.50 19.90L39.50 8.50Z"/></svg>