<svg xmlns="http://www.w3.org/2000/svg" xmlns:xlink="http://www.w3.org/1999/xlink" width="48" height="24"><path fill="black" stroke="black" d="M1.76 19.90L1.76 3.09L3.54 3.09L3.54 9.79Q5.29 8.04 7.01 8.04L7.01 8.04Q8.96 8.04 9.87 9.76L9.87 9.76Q10.37 10.73 10.37 12.12L10.37 12.12L10.37 19.90L8.59 19.90L8.59 12.64Q8.59 9.74 6.73 9.74L6.73 9.74Q5.47 9.74 4.52 10.65L4.52 10.65Q3.54 11.64 3.54 12.90L3.54 12.90L3.54 19.90L1.76 19.90ZM13.44 16.36L15.34 16.36Q15.66 18.76 18.14 18.76L18.14 18.76Q20.64 18.76 20.64 17.00L20.64 17.00Q20.64 16.16 20.06 15.69L20.06 15.69Q19.45 15.19 17.88 14.64L17.88 14.64L17.54 14.51Q15.81 13.91 15.02 13.31L15.02 13.31Q13.90 12.43 13.90 11.19L13.90 11.19Q13.90 9.70 15.20 8.80L15.20 8.80Q16.32 8.03 17.93 8.03L17.93 8.03Q21.55 8.03 22.13 11.32L22.13 11.32L20.26 11.32Q19.97 9.56 17.91 9.56L17.91 9.56Q15.70 9.56 15.70 11.12L15.70 11.12Q15.70 12.14 18.66 13.18L18.66 13.18Q20.32 13.77 21.05 14.30L21.05 14.30Q22.46 15.30 22.46 16.96L22.46 16.96Q22.46 18.56 21.20 19.50L21.20 19.50Q20.00 20.37 18.09 20.37L18.09 20.37Q13.91 20.37 13.44 16.36L13.44 16.36ZM29.03 13.31L24.73 3.09L26.88 3.09L30.01 11.11L33.13 3.09L35.29 3.09L31.00 13.31L31.00 19.90L29.03 19.90L29.03 13.31ZM37.83 4.97L37.83 3.09L46.30 3.09L46.30 4.78L39.66 17.98L46.56 17.98L46.56 19.90L37.51 19.90L37.51 18.02L44.10 4.97L37.83 4.97Z"/></svg>