<svg xmlns="http://www.w3.org/2000/svg" xmlns:xlink="http://www.w3.org/1999/xlink" width="48" height="24"><path fill="black" stroke="black" d="M4.95 5.25L4.95 3.09L7.05 3.09L7.05 5.25L4.95 5.25ZM5.06 19.90L5.06 8.50L6.94 8.50L6.94 19.90L5.06 19.90ZM17.53 5.25L17.53 3.09L19.64 3.09L19.64 5.25L17.53 5.25ZM17.64 20.75L17.64 8.50L19.51 8.50L19.51 20.84Q19.51 23.36 17.06 23.36L17.06 23.36Q16.10 23.36 14.31 23.16L14.31 23.16L14.31 21.39Q15.38 21.63 16.68 21.63L16.68 21.63Q17.64 21.63 17.64 20.75L17.64 20.75ZM29.03 13.31L24.73 3.09L26.88 3.09L30.01 11.11L33.13 3.09L35.29 3.09L31.00 13.31L31.00 19.90L29.03 19.90L29.03 13.31ZM40.73 19.90L36.82 3.09L38.95 3.09L42 17.55L45.05 3.09L47.19 3.09L43.28 19.90L40.73 19.90Z"/></svg>