<svg xmlns="http://www.w3.org/2000/svg" xmlns:xlink="http://www.w3.org/1999/xlink" width="48" height="24"><path fill="black" stroke="black" d="M9.43 4.88L7.03 4.88L7.03 18.12L9.43 18.12L9.43 19.90L2.57 19.90L2.57 18.12L4.97 18.12L4.97 4.88L2.57 4.88L2.57 3.09L9.43 3.09L9.43 4.88ZM14.41 19.90L12.71 8.50L14.39 8.50L15.40 17.23L17.09 8.50L18.90 8.50L20.59 17.23L21.60 8.50L23.27 8.50L21.57 19.90L19.72 19.90L18 11.02L16.27 19.90L14.41 19.90ZM24.94 4.97L24.94 3.09L35.06 3.09L35.06 4.97L31.01 4.97L31.01 19.90L28.99 19.90L28.99 4.97L24.94 4.97ZM40.66 8.50L40.66 5.40L42.49 5.40L42.49 8.50L45.32 8.50L45.32 10.22L42.49 10.22L42.49 17.48Q42.49 18.30 43.41 18.30L43.41 18.30Q44.52 18.30 45.48 18.12L45.48 18.12L45.48 19.91Q44.06 20.11 43.04 20.11L43.04 20.11Q40.66 20.11 40.66 17.73L40.66 17.73L40.66 10.22L38.40 10.22L38.40 8.50L40.66 8.50Z"/></svg>