<svg xmlns="http://www.w3.org/2000/svg" xmlns:xlink="http://www.w3.org/1999/xlink" width="48" height="24"><path fill="black" stroke="black" d="M4.95 5.25L4.95 3.09L7.05 3.09L7.05 5.25L4.95 5.25ZM5.06 19.90L5.06 8.50L6.94 8.50L6.94 19.90L5.06 19.90ZM16.85 10.97L13.44 3.09L15.61 3.09L18 9L20.40 3.09L22.56 3.09L19.16 10.97L23.17 19.90L20.91 19.90L18 12.88L15.11 19.90L12.84 19.90L16.85 10.97ZM33.64 20.73L32.23 21.74Q31.98 20.77 31.56 19.97L31.56 19.97Q30.77 20.38 29.95 20.38L29.95 20.38Q27.68 20.38 26.43 18.05L26.43 18.05Q25.10 15.66 25.10 11.50L25.10 11.50Q25.10 7.28 26.47 4.88L26.47 4.88Q27.76 2.61 30 2.61L30 2.61Q32.25 2.61 33.55 4.90L33.55 4.90Q34.90 7.32 34.90 11.47L34.90 11.47Q34.90 16.64 32.88 18.98L32.88 18.98Q33.53 20.43 33.64 20.73L33.64 20.73ZM29.20 15.48L30.50 14.59Q31.02 15.29 32.06 17.18L32.06 17.18Q32.88 15.55 32.88 11.52L32.88 11.52Q32.88 4.37 30 4.37L30 4.37Q27.12 4.37 27.12 11.47L27.12 11.47Q27.12 18.68 29.95 18.68L29.95 18.68Q30.41 18.68 30.91 18.50L30.91 18.50Q30.21 16.93 29.20 15.48L29.20 15.48ZM44.44 9.79L44.44 3.09L46.22 3.09L46.22 19.90L44.92 19.90L44.46 18.41Q43.24 20.38 41.27 20.38L41.27 20.38Q39.46 20.38 38.34 18.62L38.34 18.62Q37.22 16.91 37.22 14.06L37.22 14.06Q37.22 11.73 38.06 10.13L38.06 10.13Q39.18 8.04 41.25 8.04L41.25 8.04Q42.97 8.04 44.44 9.79L44.44 9.79ZM41.68 9.74L41.68 9.74Q40.44 9.74 39.71 11.09L39.71 11.09Q39.09 12.30 39.09 14.09L39.09 14.09Q39.09 16.02 39.67 17.21L39.67 17.21Q40.35 18.68 41.68 18.68L41.68 18.68Q42.89 18.68 43.69 17.47L43.69 17.47Q44.51 16.27 44.51 14.09L44.51 14.09Q44.51 12.32 43.89 11.18L43.89 11.18Q43.13 9.74 41.68 9.74Z"/></svg>