<svg xmlns="http://www.w3.org/2000/svg" xmlns:xlink="http://www.w3.org/1999/xlink" width="48" height="24"><path fill="black" stroke="black" d="M4.95 5.25L4.95 3.09L7.05 3.09L7.05 5.25L4.95 5.25ZM5.06 19.90L5.06 8.50L6.94 8.50L6.94 19.90L5.06 19.90ZM17.45 18.89L13.42 8.50L15.48 8.50L18.34 16.61L20.86 8.50L22.95 8.50L18.23 21.67Q17.85 22.82 16.90 23.18L16.90 23.18Q16.45 23.36 14.06 23.36L14.06 23.36L14.06 21.62L15.09 21.62Q15.46 21.62 15.62 21.62L15.62 21.62Q16.43 21.62 16.68 20.98L16.68 20.98L17.45 18.89ZM30 2.61L30 2.61Q34.66 2.61 34.66 11.50L34.66 11.50Q34.66 20.38 30 20.38L30 20.38Q25.35 20.38 25.35 11.50L25.35 11.50Q25.35 2.61 30 2.61ZM27.66 15.67L27.66 15.67L31.95 5.88Q31.27 4.27 29.98 4.27L29.98 4.27Q27.32 4.27 27.32 11.50L27.32 11.50Q27.32 13.96 27.66 15.67ZM32.36 7.34L28.05 17.09Q28.71 18.73 30 18.73L30 18.73Q32.70 18.73 32.70 11.47L32.70 11.47Q32.70 9.07 32.36 7.34L32.36 7.34ZM41.11 19.90L36.64 19.90L36.64 18.12L38.02 18.12L38.02 4.88L36.64 4.88L36.64 3.09L40.99 3.09Q43.85 3.09 45.39 5.09L45.39 5.09Q46.90 7.04 46.90 11.23L46.90 11.23Q46.90 15.56 45.50 17.59L45.50 17.59Q43.92 19.90 41.11 19.90L41.11 19.90ZM40.90 4.88L39.94 4.88L39.94 18.12L41.04 18.12Q44.93 18.12 44.93 11.23L44.93 11.23Q44.93 7.80 43.82 6.26L43.82 6.26Q42.83 4.88 40.90 4.88L40.90 4.88Z"/></svg>