<svg xmlns="http://www.w3.org/2000/svg" xmlns:xlink="http://www.w3.org/1999/xlink" width="48" height="24"><path fill="black" stroke="black" d="M9.43 4.88L7.03 4.88L7.03 18.12L9.43 18.12L9.43 19.90L2.57 19.90L2.57 18.12L4.97 18.12L4.97 4.88L2.57 4.88L2.57 3.09L9.43 3.09L9.43 4.88ZM13.83 4.97L13.83 3.09L22.30 3.09L22.30 4.78L15.66 17.98L22.56 17.98L22.56 19.90L13.51 19.90L13.51 18.02L20.10 4.97L13.83 4.97ZM26.41 19.90L24.71 8.50L26.39 8.50L27.40 17.23L29.09 8.50L30.90 8.50L32.59 17.23L33.60 8.50L35.27 8.50L33.57 19.90L31.72 19.90L30 11.02L28.27 19.90L26.41 19.90ZM40.17 11.66L40.17 10.13L41.37 10.13Q42.90 10.13 43.48 9.69L43.48 9.69Q44.55 8.86 44.55 7.20L44.55 7.20Q44.55 4.24 41.87 4.24L41.87 4.24Q39.64 4.24 39.14 6.76L39.14 6.76L37.24 6.76Q37.50 5.18 38.34 4.15L38.34 4.15Q39.63 2.61 41.87 2.61L41.87 2.61Q43.75 2.61 44.96 3.69L44.96 3.69Q46.41 4.96 46.41 7.13L46.41 7.13Q46.41 10.04 43.79 10.95L43.79 10.95Q46.95 12.16 46.95 15.39L46.95 15.39Q46.95 17.45 45.77 18.77L45.77 18.77Q44.37 20.38 41.91 20.38L41.91 20.38Q39.60 20.38 38.23 18.80L38.23 18.80Q37.22 17.64 37.01 15.60L37.01 15.60L38.98 15.60Q39.22 18.73 41.91 18.73L41.91 18.73Q43.15 18.73 43.99 18.02L43.99 18.02Q45.05 17.12 45.05 15.39L45.05 15.39Q45.05 11.66 41.37 11.66L41.37 11.66L40.17 11.66Z"/></svg>