<svg xmlns="http://www.w3.org/2000/svg" xmlns:xlink="http://www.w3.org/1999/xlink" width="48" height="24"><path fill="black" stroke="black" d="M5.53 5.25L5.53 3.09L7.64 3.09L7.64 5.25L5.53 5.25ZM5.64 20.75L5.64 8.50L7.51 8.50L7.51 20.84Q7.51 23.36 5.06 23.36L5.06 23.36Q4.10 23.36 2.31 23.16L2.31 23.16L2.31 21.39Q3.38 21.63 4.68 21.63L4.68 21.63Q5.64 21.63 5.64 20.75L5.64 20.75ZM13.78 19.90L13.78 3.09L15.56 3.09L15.56 9.79Q17.03 8.04 18.73 8.04L18.73 8.04Q20.50 8.04 21.61 9.57L21.61 9.57Q22.78 11.21 22.78 14.09L22.78 14.09Q22.78 16.10 22.16 17.64L22.16 17.64Q21.05 20.38 18.68 20.38L18.68 20.38Q16.72 20.38 15.54 18.41L15.54 18.41L15.08 19.90L13.78 19.90ZM18.29 9.74L18.29 9.74Q16.92 9.74 16.14 11.13L16.14 11.13Q15.49 12.28 15.49 14.09L15.49 14.09Q15.49 16.04 16.18 17.29L16.18 17.29Q16.97 18.68 18.32 18.68L18.32 18.68Q19.50 18.68 20.19 17.47L20.19 17.47Q20.91 16.25 20.91 14.09L20.91 14.09Q20.91 11.96 20.09 10.79L20.09 10.79Q19.41 9.74 18.29 9.74ZM27.50 8.50L29.33 8.50L29.33 10.90Q31.41 8.71 33.77 8.04L33.77 8.04L33.77 10.13Q31.05 10.78 29.33 13.08L29.33 13.08L29.33 19.90L27.50 19.90L27.50 8.50ZM41.53 5.25L41.53 3.09L43.64 3.09L43.64 5.25L41.53 5.25ZM41.64 20.75L41.64 8.50L43.51 8.50L43.51 20.84Q43.51 23.36 41.06 23.36L41.06 23.36Q40.10 23.36 38.31 23.16L38.31 23.16L38.31 21.39Q39.38 21.63 40.68 21.63L40.68 21.63Q41.64 21.63 41.64 20.75L41.64 20.75Z"/></svg>