<svg xmlns="http://www.w3.org/2000/svg" xmlns:xlink="http://www.w3.org/1999/xlink" width="48" height="24"><path fill="black" stroke="black" d="M7.65 15.64L7.65 3.09L9.67 3.09L9.67 15.55Q9.67 20.37 5.50 20.37L5.50 20.37Q1.31 20.37 1.05 15.26L1.05 15.26L3.09 15.26Q3.13 18.49 5.50 18.49L5.50 18.49Q7.65 18.49 7.65 15.64L7.65 15.64ZM13.92 8.50L16.83 8.50L16.83 5.52Q16.83 3.09 19.30 3.09L19.30 3.09L21.89 3.09L21.89 4.77L19.64 4.77Q18.66 4.77 18.66 5.66L18.66 5.66L18.66 8.50L21.89 8.50L21.89 10.17L18.66 10.17L18.66 19.90L16.83 19.90L16.83 10.17L13.92 10.17L13.92 8.50ZM25.83 4.97L25.83 3.09L34.30 3.09L34.30 4.78L27.66 17.98L34.56 17.98L34.56 19.90L25.51 19.90L25.51 18.02L32.10 4.97L25.83 4.97ZM37.68 19.90L37.68 3.09L46.13 3.09L46.13 4.97L39.64 4.97L39.64 10.27L45.26 10.27L45.26 12.09L39.64 12.09L39.64 19.90L37.68 19.90Z"/></svg>