<svg xmlns="http://www.w3.org/2000/svg" xmlns:xlink="http://www.w3.org/1999/xlink" width="48" height="24"><path fill="black" stroke="black" d="M7.65 15.64L7.65 3.09L9.67 3.09L9.67 15.55Q9.67 20.37 5.50 20.37L5.50 20.37Q1.31 20.37 1.05 15.26L1.05 15.26L3.09 15.26Q3.13 18.49 5.50 18.49L5.50 18.49Q7.65 18.49 7.65 15.64L7.65 15.64ZM13.39 19.90L13.39 3.09L15.87 3.09L20.73 16.63L20.73 3.09L22.56 3.09L22.56 19.90L20.30 19.90L15.32 6.07L15.32 19.90L13.39 19.90ZM30.94 3.09L30.94 17.27Q30.94 18.30 31.92 18.30L31.92 18.30Q32.73 18.30 33.69 18.12L33.69 18.12L33.69 19.91Q32.27 20.11 31.61 20.11L31.61 20.11Q29.06 20.11 29.06 17.61L29.06 17.61L29.06 3.09L30.94 3.09ZM46.22 23.34L44.44 23.34L44.44 18.47Q43.03 20.05 41.30 20.05L41.30 20.05Q39.50 20.05 38.39 18.45L38.39 18.45Q37.20 16.73 37.20 13.93L37.20 13.93Q37.20 11.70 38.06 10.15L38.06 10.15Q39.20 8.04 41.25 8.04L41.25 8.04Q42.96 8.04 44.60 10.01L44.60 10.01L44.89 8.50L46.22 8.50L46.22 23.34ZM41.66 9.74L41.66 9.74Q40.43 9.74 39.74 11.02L39.74 11.02Q39.09 12.13 39.09 13.98L39.09 13.98Q39.09 18.33 41.68 18.33L41.68 18.33Q43.03 18.33 43.86 16.89L43.86 16.89Q44.51 15.74 44.51 13.96L44.51 13.96Q44.51 11.82 43.43 10.61L43.43 10.61Q42.68 9.74 41.66 9.74Z"/></svg>