<svg xmlns="http://www.w3.org/2000/svg" xmlns:xlink="http://www.w3.org/1999/xlink" width="48" height="24"><path fill="black" stroke="black" d="M7.65 15.64L7.65 3.09L9.67 3.09L9.67 15.55Q9.67 20.37 5.50 20.37L5.50 20.37Q1.31 20.37 1.05 15.26L1.05 15.26L3.09 15.26Q3.13 18.49 5.50 18.49L5.50 18.49Q7.65 18.49 7.65 15.64L7.65 15.64ZM18 2.61L18 2.61Q20.24 2.61 21.53 4.88L21.53 4.88Q22.90 7.28 22.90 11.50L22.90 11.50Q22.90 15.62 21.60 18L21.60 18Q20.31 20.38 18 20.38L18 20.38Q15.70 20.38 14.45 18.07L14.45 18.07Q13.10 15.61 13.10 11.47L13.10 11.47Q13.10 7.09 14.59 4.65L14.59 4.65Q15.84 2.61 18 2.61ZM18 4.37L18 4.37Q15.12 4.37 15.12 11.47L15.12 11.47Q15.12 18.62 18.02 18.62L18.02 18.62Q20.88 18.62 20.88 11.54L20.88 11.54Q20.88 4.37 18 4.37ZM29.03 13.31L24.73 3.09L26.88 3.09L30.01 11.11L33.13 3.09L35.29 3.09L31.00 13.31L31.00 19.90L29.03 19.90L29.03 13.31ZM39.50 8.50L41.33 8.50L41.33 10.90Q43.41 8.71 45.77 8.04L45.77 8.04L45.77 10.13Q43.05 10.78 41.33 13.08L41.33 13.08L41.33 19.90L39.50 19.90L39.50 8.50Z"/></svg>