<svg xmlns="http://www.w3.org/2000/svg" xmlns:xlink="http://www.w3.org/1999/xlink" width="48" height="24"><path fill="black" stroke="black" d="M5.53 5.25L5.53 3.09L7.64 3.09L7.64 5.25L5.53 5.25ZM5.64 20.75L5.64 8.50L7.51 8.50L7.51 20.84Q7.51 23.36 5.06 23.36L5.06 23.36Q4.10 23.36 2.31 23.16L2.31 23.16L2.31 21.39Q3.38 21.63 4.68 21.63L4.68 21.63Q5.64 21.63 5.64 20.75L5.64 20.75ZM13.44 16.36L15.34 16.36Q15.66 18.76 18.14 18.76L18.14 18.76Q20.64 18.76 20.64 17.00L20.64 17.00Q20.64 16.16 20.06 15.69L20.06 15.69Q19.45 15.19 17.88 14.64L17.88 14.64L17.54 14.51Q15.81 13.91 15.02 13.31L15.02 13.31Q13.90 12.43 13.90 11.19L13.90 11.19Q13.90 9.70 15.20 8.80L15.20 8.80Q16.32 8.03 17.93 8.03L17.93 8.03Q21.55 8.03 22.13 11.32L22.13 11.32L20.26 11.32Q19.97 9.56 17.91 9.56L17.91 9.56Q15.70 9.56 15.70 11.12L15.70 11.12Q15.70 12.14 18.66 13.18L18.66 13.18Q20.32 13.77 21.05 14.30L21.05 14.30Q22.46 15.30 22.46 16.96L22.46 16.96Q22.46 18.56 21.20 19.50L21.20 19.50Q20.00 20.37 18.09 20.37L18.09 20.37Q13.91 20.37 13.44 16.36L13.44 16.36ZM25.51 19.90L25.51 3.09L27.39 3.09L27.39 11.11L32.26 3.09L34.58 3.09L30.57 9.57L35.19 19.90L32.86 19.90L29.33 11.16L27.39 14.09L27.39 19.90L25.51 19.90ZM37.83 4.97L37.83 3.09L46.30 3.09L46.30 4.78L39.66 17.98L46.56 17.98L46.56 19.90L37.51 19.90L37.51 18.02L44.10 4.97L37.83 4.97Z"/></svg>