<svg xmlns="http://www.w3.org/2000/svg" xmlns:xlink="http://www.w3.org/1999/xlink" width="48" height="24"><path fill="black" stroke="black" d="M7.65 15.64L7.65 3.09L9.67 3.09L9.67 15.55Q9.67 20.37 5.50 20.37L5.50 20.37Q1.31 20.37 1.05 15.26L1.05 15.26L3.09 15.26Q3.13 18.49 5.50 18.49L5.50 18.49Q7.65 18.49 7.65 15.64L7.65 15.64ZM16.66 8.50L16.66 5.40L18.49 5.40L18.49 8.50L21.32 8.50L21.32 10.22L18.49 10.22L18.49 17.48Q18.49 18.30 19.41 18.30L19.41 18.30Q20.52 18.30 21.48 18.12L21.48 18.12L21.48 19.91Q20.06 20.11 19.04 20.11L19.04 20.11Q16.66 20.11 16.66 17.73L16.66 17.73L16.66 10.22L14.40 10.22L14.40 8.50L16.66 8.50ZM25.20 4.92L25.20 3.09L34.79 3.09L34.79 4.46Q31.42 12.82 29.73 19.90L29.73 19.90L27.55 19.90Q29.38 13.43 32.73 4.92L32.73 4.92L25.20 4.92ZM42.02 8.04L42.02 8.04Q44.23 8.04 45.48 9.98L45.48 9.98Q46.56 11.60 46.56 14.20L46.56 14.20Q46.56 16.16 45.91 17.64L45.91 17.64Q44.72 20.38 41.98 20.38L41.98 20.38Q39.86 20.38 38.59 18.57L38.59 18.57Q37.44 16.92 37.44 14.20L37.44 14.20Q37.44 11.27 38.77 9.60L38.77 9.60Q40.03 8.04 42.02 8.04ZM41.98 9.71L41.98 9.71Q40.69 9.71 39.96 11.06L39.96 11.06Q39.32 12.25 39.32 14.20L39.32 14.20Q39.32 16.01 39.84 17.14L39.84 17.14Q40.57 18.70 42 18.70L42 18.70Q43.31 18.70 44.04 17.36L44.04 17.36Q44.68 16.17 44.68 14.23L44.68 14.23Q44.68 12.20 44.02 11.04L44.02 11.04Q43.30 9.71 41.98 9.71Z"/></svg>