<svg xmlns="http://www.w3.org/2000/svg" xmlns:xlink="http://www.w3.org/1999/xlink" width="48" height="24"><path fill="black" stroke="black" d="M1.90 19.90L1.90 3.09L3.68 3.09L3.68 13.39L7.88 8.50L10.11 8.50L6.49 12.55L11.05 19.90L8.81 19.90L5.38 13.82L3.68 15.64L3.68 19.90L1.90 19.90ZM13.78 19.90L13.78 3.09L15.56 3.09L15.56 9.79Q17.03 8.04 18.73 8.04L18.73 8.04Q20.50 8.04 21.61 9.57L21.61 9.57Q22.78 11.21 22.78 14.09L22.78 14.09Q22.78 16.10 22.16 17.64L22.16 17.64Q21.05 20.38 18.68 20.38L18.68 20.38Q16.72 20.38 15.54 18.41L15.54 18.41L15.08 19.90L13.78 19.90ZM18.29 9.74L18.29 9.74Q16.92 9.74 16.14 11.13L16.14 11.13Q15.49 12.28 15.49 14.09L15.49 14.09Q15.49 16.04 16.18 17.29L16.18 17.29Q16.97 18.68 18.32 18.68L18.32 18.68Q19.50 18.68 20.19 17.47L20.19 17.47Q20.91 16.25 20.91 14.09L20.91 14.09Q20.91 11.96 20.09 10.79L20.09 10.79Q19.41 9.74 18.29 9.74ZM25.68 19.90L25.68 3.09L34.13 3.09L34.13 4.97L27.64 4.97L27.64 10.27L33.26 10.27L33.26 12.09L27.64 12.09L27.64 19.90L25.68 19.90ZM37.92 8.50L40.83 8.50L40.83 5.52Q40.83 3.09 43.30 3.09L43.30 3.09L45.89 3.09L45.89 4.77L43.64 4.77Q42.66 4.77 42.66 5.66L42.66 5.66L42.66 8.50L45.89 8.50L45.89 10.17L42.66 10.17L42.66 19.90L40.83 19.90L40.83 10.17L37.92 10.17L37.92 8.50Z"/></svg>