<svg xmlns="http://www.w3.org/2000/svg" xmlns:xlink="http://www.w3.org/1999/xlink" width="48" height="24"><path fill="black" stroke="black" d="M1.51 19.90L1.51 3.09L3.39 3.09L3.39 11.11L8.26 3.09L10.58 3.09L6.57 9.57L11.19 19.90L8.86 19.90L5.33 11.16L3.39 14.09L3.39 19.90L1.51 19.90ZM13.63 19.90L13.63 3.09L17.68 3.09Q19.57 3.09 20.81 4.05L20.81 4.05Q22.28 5.13 22.28 7.22L22.28 7.22Q22.28 9.90 19.56 11.05L19.56 11.05Q22.88 12.09 22.88 15.35L22.88 15.35Q22.88 17.47 21.36 18.76L21.36 18.76Q20.05 19.90 18.07 19.90L18.07 19.90L13.63 19.90ZM17.66 4.88L15.50 4.88L15.50 10.29L17.59 10.29Q18.57 10.29 19.21 9.83L19.21 9.83Q20.33 9.07 20.33 7.46L20.33 7.46Q20.33 4.88 17.66 4.88L17.66 4.88ZM17.66 11.96L15.50 11.96L15.50 18.12L17.77 18.12Q20.88 18.12 20.88 15.09L20.88 15.09Q20.88 11.96 17.66 11.96L17.66 11.96ZM30.02 8.04L30.02 8.04Q32.23 8.04 33.48 9.98L33.48 9.98Q34.56 11.60 34.56 14.20L34.56 14.20Q34.56 16.16 33.91 17.64L33.91 17.64Q32.72 20.38 29.98 20.38L29.98 20.38Q27.86 20.38 26.59 18.57L26.59 18.57Q25.44 16.92 25.44 14.20L25.44 14.20Q25.44 11.27 26.77 9.60L26.77 9.60Q28.03 8.04 30.02 8.04ZM29.98 9.71L29.98 9.71Q28.69 9.71 27.96 11.06L27.96 11.06Q27.32 12.25 27.32 14.20L27.32 14.20Q27.32 16.01 27.84 17.14L27.84 17.14Q28.57 18.70 30 18.70L30 18.70Q31.31 18.70 32.04 17.36L32.04 17.36Q32.68 16.17 32.68 14.23L32.68 14.23Q32.68 12.20 32.02 11.04L32.02 11.04Q31.30 9.71 29.98 9.71ZM46.88 19.90L45.34 19.90L45.34 17.64Q44.00 20.38 41.78 20.38L41.78 20.38Q39.61 20.38 38.34 18.14L38.34 18.14Q37.10 15.90 37.10 11.52L37.10 11.52Q37.10 7.41 38.40 4.99L38.40 4.99Q39.69 2.61 42.09 2.61L42.09 2.61Q45.95 2.61 46.71 7.90L46.71 7.90L44.74 7.90Q44.20 4.42 42.09 4.42L42.09 4.42Q39.16 4.42 39.16 11.47L39.16 11.47Q39.16 18.57 42 18.57L42 18.57Q44.58 18.57 45.13 13.63L45.13 13.63L42.60 13.63L42.60 11.91L46.88 11.91L46.88 19.90Z"/></svg>