<svg xmlns="http://www.w3.org/2000/svg" xmlns:xlink="http://www.w3.org/1999/xlink" width="48" height="24"><path fill="black" stroke="black" d="M1.90 19.90L1.90 3.09L3.68 3.09L3.68 13.39L7.88 8.50L10.11 8.50L6.49 12.55L11.05 19.90L8.81 19.90L5.38 13.82L3.68 15.64L3.68 19.90L1.90 19.90ZM13.78 8.50L15.11 8.50L15.40 10.01Q17.00 8.04 18.73 8.04L18.73 8.04Q20.48 8.04 21.61 9.60L21.61 9.60Q22.80 11.27 22.80 13.93L22.80 13.93Q22.80 16.42 21.84 18.08L21.84 18.08Q20.71 20.05 18.70 20.05L18.70 20.05Q16.97 20.05 15.56 18.47L15.56 18.47L15.56 23.34L13.78 23.34L13.78 8.50ZM18.32 9.74L18.32 9.74Q17.14 9.74 16.32 10.91L16.32 10.91Q15.49 12.12 15.49 13.96L15.49 13.96Q15.49 15.63 16.07 16.75L16.07 16.75Q16.85 18.33 18.34 18.33L18.34 18.33Q19.52 18.33 20.21 17.20L20.21 17.20Q20.91 15.98 20.91 13.96L20.91 13.96Q20.91 12.11 20.26 10.98L20.26 10.98Q19.55 9.74 18.32 9.74ZM25.63 19.90L25.63 3.09L29.68 3.09Q31.57 3.09 32.81 4.05L32.81 4.05Q34.28 5.13 34.28 7.22L34.28 7.22Q34.28 9.90 31.56 11.05L31.56 11.05Q34.88 12.09 34.88 15.35L34.88 15.35Q34.88 17.47 33.36 18.76L33.36 18.76Q32.05 19.90 30.07 19.90L30.07 19.90L25.63 19.90ZM29.66 4.88L27.50 4.88L27.50 10.29L29.59 10.29Q30.57 10.29 31.21 9.83L31.21 9.83Q32.33 9.07 32.33 7.46L32.33 7.46Q32.33 4.88 29.66 4.88L29.66 4.88ZM29.66 11.96L27.50 11.96L27.50 18.12L29.77 18.12Q32.88 18.12 32.88 15.09L32.88 15.09Q32.88 11.96 29.66 11.96L29.66 11.96ZM37.71 12.46L38.12 3.09L46.09 3.09L46.09 4.77L39.80 4.77L39.54 10.29Q40.72 8.93 42.52 8.93L42.52 8.93Q44.44 8.93 45.70 10.56L45.70 10.56Q46.91 12.13 46.91 14.47L46.91 14.47Q46.91 16.48 46.11 17.95L46.11 17.95Q44.78 20.38 41.96 20.38L41.96 20.38Q38.02 20.38 37.23 15.96L37.23 15.96L39.15 15.96Q39.55 18.70 41.95 18.70L41.95 18.70Q43.50 18.70 44.36 17.38L44.36 17.38Q45.08 16.27 45.08 14.50L45.08 14.50Q45.08 12.93 44.47 11.91L44.47 11.91Q43.72 10.54 42.20 10.54L42.20 10.54Q40.34 10.54 39.22 12.77L39.22 12.77L37.71 12.46Z"/></svg>