<svg xmlns="http://www.w3.org/2000/svg" xmlns:xlink="http://www.w3.org/1999/xlink" width="48" height="24"><path fill="black" stroke="black" d="M1.90 19.90L1.90 3.09L3.68 3.09L3.68 13.39L7.88 8.50L10.11 8.50L6.49 12.55L11.05 19.90L8.81 19.90L5.38 13.82L3.68 15.64L3.68 19.90L1.90 19.90ZM13.76 16.42L13.76 8.50L15.54 8.50L15.54 16.23Q15.54 18.70 17.50 18.70L17.50 18.70Q18.76 18.70 19.72 17.77L19.72 17.77Q20.59 16.93 20.59 15.57L20.59 15.57L20.59 8.50L22.37 8.50L22.37 19.90L21.05 19.90L20.73 18.55Q19.16 20.38 17.10 20.38L17.10 20.38Q15.30 20.38 14.40 19.01L14.40 19.01Q13.76 18 13.76 16.42L13.76 16.42ZM27.59 11.82L25.66 11.82Q26.13 8.03 30.01 8.03L30.01 8.03Q33.91 8.03 33.91 12.21L33.91 12.21L33.91 17.94Q33.91 18.62 34.54 18.62L34.54 18.62Q34.75 18.62 35.11 18.54L35.11 18.54L35.11 20.23Q34.63 20.34 33.96 20.34L33.96 20.34Q32.38 20.34 32.17 18.57L32.17 18.57Q30.54 20.34 28.59 20.34L28.59 20.34Q27.32 20.34 26.50 19.68L26.50 19.68Q25.42 18.81 25.42 17.11L25.42 17.11Q25.42 13.16 32.19 12.69L32.19 12.69L32.19 12.21Q32.19 9.63 30.01 9.63L30.01 9.63Q27.76 9.63 27.59 11.82L27.59 11.82ZM32.19 15.79L32.19 14.20Q27.18 14.45 27.18 17.02L27.18 17.02Q27.18 18.74 28.88 18.74L28.88 18.74Q30.04 18.74 31.14 17.85L31.14 17.85Q32.19 17.02 32.19 15.79L32.19 15.79ZM46.88 19.90L45.34 19.90L45.34 17.64Q44.00 20.38 41.78 20.38L41.78 20.38Q39.61 20.38 38.34 18.14L38.34 18.14Q37.10 15.90 37.10 11.52L37.10 11.52Q37.10 7.41 38.40 4.99L38.40 4.99Q39.69 2.61 42.09 2.61L42.09 2.61Q45.95 2.61 46.71 7.90L46.71 7.90L44.74 7.90Q44.20 4.42 42.09 4.42L42.09 4.42Q39.16 4.42 39.16 11.47L39.16 11.47Q39.16 18.57 42 18.57L42 18.57Q44.58 18.57 45.13 13.63L45.13 13.63L42.60 13.63L42.60 11.91L46.88 11.91L46.88 19.90Z"/></svg>