<svg xmlns="http://www.w3.org/2000/svg" xmlns:xlink="http://www.w3.org/1999/xlink" width="48" height="24"><path fill="black" stroke="black" d="M6.94 3.09L6.94 17.27Q6.94 18.30 7.92 18.30L7.92 18.30Q8.73 18.30 9.69 18.12L9.69 18.12L9.69 19.91Q8.27 20.11 7.61 20.11L7.61 20.11Q5.06 20.11 5.06 17.61L5.06 17.61L5.06 3.09L6.94 3.09ZM19.32 19.90L17.36 19.90L17.36 5.54Q16.45 6.15 14.84 6.83L14.84 6.83L14.84 4.90Q16.71 4.21 17.86 3.09L17.86 3.09L19.32 3.09L19.32 19.90ZM24.60 14.06L31.37 3.09L33.41 3.09L33.41 14.11L35.40 14.11L35.40 15.74L33.41 15.74L33.41 19.90L31.63 19.90L31.63 15.74L24.60 15.74L24.60 14.06ZM31.63 14.11L31.63 5.71L26.40 14.11L31.63 14.11ZM45.43 4.88L43.03 4.88L43.03 18.12L45.43 18.12L45.43 19.90L38.57 19.90L38.57 18.12L40.97 18.12L40.97 4.88L38.57 4.88L38.57 3.09L45.43 3.09L45.43 4.88Z"/></svg>