<svg xmlns="http://www.w3.org/2000/svg" xmlns:xlink="http://www.w3.org/1999/xlink" width="48" height="24"><path fill="black" stroke="black" d="M6.94 3.09L6.94 17.27Q6.94 18.30 7.92 18.30L7.92 18.30Q8.73 18.30 9.69 18.12L9.69 18.12L9.69 19.91Q8.27 20.11 7.61 20.11L7.61 20.11Q5.06 20.11 5.06 17.61L5.06 17.61L5.06 3.09L6.94 3.09ZM13.71 12.46L14.12 3.09L22.09 3.09L22.09 4.77L15.80 4.77L15.54 10.29Q16.72 8.93 18.52 8.93L18.52 8.93Q20.44 8.93 21.70 10.56L21.70 10.56Q22.91 12.13 22.91 14.47L22.91 14.47Q22.91 16.48 22.11 17.95L22.11 17.95Q20.78 20.38 17.96 20.38L17.96 20.38Q14.02 20.38 13.23 15.96L13.23 15.96L15.15 15.96Q15.55 18.70 17.95 18.70L17.95 18.70Q19.50 18.70 20.36 17.38L20.36 17.38Q21.08 16.27 21.08 14.50L21.08 14.50Q21.08 12.93 20.47 11.91L20.47 11.91Q19.72 10.54 18.20 10.54L18.20 10.54Q16.34 10.54 15.22 12.77L15.22 12.77L13.71 12.46ZM26.41 19.90L24.71 8.50L26.39 8.50L27.40 17.23L29.09 8.50L30.90 8.50L32.59 17.23L33.60 8.50L35.27 8.50L33.57 19.90L31.72 19.90L30 11.02L28.27 19.90L26.41 19.90ZM37.68 19.90L37.68 3.09L41.84 3.09Q43.86 3.09 45.14 4.01L45.14 4.01Q46.77 5.20 46.77 7.46L46.77 7.46Q46.77 10.77 43.63 11.74L43.63 11.74L47.23 19.90L45.02 19.90L41.75 12.06L39.55 12.06L39.55 19.90L37.68 19.90ZM41.54 4.88L39.55 4.88L39.55 10.34L41.57 10.34Q42.62 10.34 43.41 9.90L43.41 9.90Q44.85 9.15 44.85 7.51L44.85 7.51Q44.85 4.88 41.54 4.88L41.54 4.88Z"/></svg>