<svg xmlns="http://www.w3.org/2000/svg" xmlns:xlink="http://www.w3.org/1999/xlink" width="48" height="24"><path fill="black" stroke="black" d="M1.68 19.90L1.68 3.09L3.69 3.09L3.69 17.98L10.77 17.98L10.77 19.90L1.68 19.90ZM13.76 19.90L13.76 3.09L15.54 3.09L15.54 9.79Q17.29 8.04 19.01 8.04L19.01 8.04Q20.96 8.04 21.87 9.76L21.87 9.76Q22.37 10.73 22.37 12.12L22.37 12.12L22.37 19.90L20.59 19.90L20.59 12.64Q20.59 9.74 18.73 9.74L18.73 9.74Q17.47 9.74 16.52 10.65L16.52 10.65Q15.54 11.64 15.54 12.90L15.54 12.90L15.54 19.90L13.76 19.90ZM31.65 15.64L31.65 3.09L33.67 3.09L33.67 15.55Q33.67 20.37 29.50 20.37L29.50 20.37Q25.31 20.37 25.05 15.26L25.05 15.26L27.09 15.26Q27.13 18.49 29.50 18.49L29.50 18.49Q31.65 18.49 31.65 15.64L31.65 15.64ZM42 2.61L42 2.61Q44.24 2.61 45.53 4.88L45.53 4.88Q46.90 7.28 46.90 11.50L46.90 11.50Q46.90 15.62 45.60 18L45.60 18Q44.31 20.38 42 20.38L42 20.38Q39.70 20.38 38.45 18.07L38.45 18.07Q37.10 15.61 37.10 11.47L37.10 11.47Q37.10 7.09 38.59 4.65L38.59 4.65Q39.84 2.61 42 2.61ZM42 4.37L42 4.37Q39.12 4.37 39.12 11.47L39.12 11.47Q39.12 18.62 42.02 18.62L42.02 18.62Q44.88 18.62 44.88 11.54L44.88 11.54Q44.88 4.37 42 4.37Z"/></svg>