<svg xmlns="http://www.w3.org/2000/svg" xmlns:xlink="http://www.w3.org/1999/xlink" width="48" height="24"><path fill="black" stroke="black" d="M6.94 3.09L6.94 17.27Q6.94 18.30 7.92 18.30L7.92 18.30Q8.73 18.30 9.69 18.12L9.69 18.12L9.69 19.91Q8.27 20.11 7.61 20.11L7.61 20.11Q5.06 20.11 5.06 17.61L5.06 17.61L5.06 3.09L6.94 3.09ZM16.95 5.25L16.95 3.09L19.05 3.09L19.05 5.25L16.95 5.25ZM17.06 19.90L17.06 8.50L18.94 8.50L18.94 19.90L17.06 19.90ZM25.90 19.90L25.90 3.09L27.68 3.09L27.68 13.39L31.88 8.50L34.11 8.50L30.49 12.55L35.05 19.90L32.81 19.90L29.38 13.82L27.68 15.64L27.68 19.90L25.90 19.90ZM37.15 19.90L37.15 3.09L39.54 3.09L41.99 16.89L44.44 3.09L46.84 3.09L46.84 19.90L45.21 19.90L45.21 6.86L42.88 19.90L41.11 19.90L38.87 6.86L38.87 19.90L37.15 19.90Z"/></svg>