<svg xmlns="http://www.w3.org/2000/svg" xmlns:xlink="http://www.w3.org/1999/xlink" width="48" height="24"><path fill="black" stroke="black" d="M6.94 3.09L6.94 17.27Q6.94 18.30 7.92 18.30L7.92 18.30Q8.73 18.30 9.69 18.12L9.69 18.12L9.69 19.91Q8.27 20.11 7.61 20.11L7.61 20.11Q5.06 20.11 5.06 17.61L5.06 17.61L5.06 3.09L6.94 3.09ZM13.68 19.90L13.68 3.09L15.69 3.09L15.69 17.98L22.77 17.98L22.77 19.90L13.68 19.90ZM27.59 11.82L25.66 11.82Q26.13 8.03 30.01 8.03L30.01 8.03Q33.91 8.03 33.91 12.21L33.91 12.21L33.91 17.94Q33.91 18.62 34.54 18.62L34.54 18.62Q34.75 18.62 35.11 18.54L35.11 18.54L35.11 20.23Q34.63 20.34 33.96 20.34L33.96 20.34Q32.38 20.34 32.17 18.57L32.17 18.57Q30.54 20.34 28.59 20.34L28.59 20.34Q27.32 20.34 26.50 19.68L26.50 19.68Q25.42 18.81 25.42 17.11L25.42 17.11Q25.42 13.16 32.19 12.69L32.19 12.69L32.19 12.21Q32.19 9.63 30.01 9.63L30.01 9.63Q27.76 9.63 27.59 11.82L27.59 11.82ZM32.19 15.79L32.19 14.20Q27.18 14.45 27.18 17.02L27.18 17.02Q27.18 18.74 28.88 18.74L28.88 18.74Q30.04 18.74 31.14 17.85L31.14 17.85Q32.19 17.02 32.19 15.79L32.19 15.79ZM42 2.61L42 2.61Q46.66 2.61 46.66 11.50L46.66 11.50Q46.66 20.38 42 20.38L42 20.38Q37.35 20.38 37.35 11.50L37.35 11.50Q37.35 2.61 42 2.61ZM39.66 15.67L39.66 15.67L43.95 5.88Q43.27 4.27 41.98 4.27L41.98 4.27Q39.32 4.27 39.32 11.50L39.32 11.50Q39.32 13.96 39.66 15.67ZM44.36 7.34L40.05 17.09Q40.71 18.73 42 18.73L42 18.73Q44.70 18.73 44.70 11.47L44.70 11.47Q44.70 9.07 44.36 7.34L44.36 7.34Z"/></svg>