<svg xmlns="http://www.w3.org/2000/svg" xmlns:xlink="http://www.w3.org/1999/xlink" width="48" height="24"><path fill="black" stroke="black" d="M1.68 19.90L1.68 3.09L3.69 3.09L3.69 17.98L10.77 17.98L10.77 19.90L1.68 19.90ZM13.10 15.07L15.12 15.07Q15.26 18.62 18.19 18.62L18.19 18.62Q19.24 18.62 19.95 18.09L19.95 18.09Q20.93 17.33 20.93 15.96L20.93 15.96Q20.93 14.48 19.70 13.36L19.70 13.36Q18.86 12.61 16.80 11.43L16.80 11.43Q13.56 9.52 13.56 6.87L13.56 6.87Q13.56 5.19 14.61 4.03L14.61 4.03Q15.89 2.61 18.02 2.61L18.02 2.61Q22.00 2.61 22.54 7.39L22.54 7.39L20.57 7.39Q20.48 6.29 20.11 5.64L20.11 5.64Q19.36 4.31 18.02 4.31L18.02 4.31Q16.64 4.31 15.96 5.25L15.96 5.25Q15.48 5.92 15.48 6.71L15.48 6.71Q15.48 8.61 18.57 10.42L18.57 10.42Q20.48 11.53 21.50 12.55L21.50 12.55Q22.88 13.89 22.88 15.94L22.88 15.94Q22.88 17.87 21.64 19.05L21.64 19.05Q20.33 20.38 18.25 20.38L18.25 20.38Q15.63 20.38 14.18 18.46L14.18 18.46Q13.17 17.12 13.10 15.07L13.10 15.07ZM34.22 23.34L32.44 23.34L32.44 18.47Q31.03 20.05 29.30 20.05L29.30 20.05Q27.50 20.05 26.39 18.45L26.39 18.45Q25.20 16.73 25.20 13.93L25.20 13.93Q25.20 11.70 26.06 10.15L26.06 10.15Q27.20 8.04 29.25 8.04L29.25 8.04Q30.96 8.04 32.60 10.01L32.60 10.01L32.89 8.50L34.22 8.50L34.22 23.34ZM29.66 9.74L29.66 9.74Q28.43 9.74 27.74 11.02L27.74 11.02Q27.09 12.13 27.09 13.98L27.09 13.98Q27.09 18.33 29.68 18.33L29.68 18.33Q31.03 18.33 31.86 16.89L31.86 16.89Q32.51 15.74 32.51 13.96L32.51 13.96Q32.51 11.82 31.43 10.61L31.43 10.61Q30.68 9.74 29.66 9.74ZM37.78 19.90L37.78 3.09L39.56 3.09L39.56 9.79Q41.03 8.04 42.73 8.04L42.73 8.04Q44.50 8.04 45.61 9.57L45.61 9.57Q46.78 11.21 46.78 14.09L46.78 14.09Q46.78 16.10 46.16 17.64L46.16 17.64Q45.05 20.38 42.68 20.38L42.68 20.38Q40.72 20.38 39.54 18.41L39.54 18.41L39.08 19.90L37.78 19.90ZM42.29 9.74L42.29 9.74Q40.92 9.74 40.14 11.13L40.14 11.13Q39.49 12.28 39.49 14.09L39.49 14.09Q39.49 16.04 40.18 17.29L40.18 17.29Q40.97 18.68 42.32 18.68L42.32 18.68Q43.50 18.68 44.19 17.47L44.19 17.47Q44.91 16.25 44.91 14.09L44.91 14.09Q44.91 11.96 44.09 10.79L44.09 10.79Q43.41 9.74 42.29 9.74Z"/></svg>