<svg xmlns="http://www.w3.org/2000/svg" xmlns:xlink="http://www.w3.org/1999/xlink" width="48" height="24"><path fill="black" stroke="black" d="M1.68 19.90L1.68 3.09L3.69 3.09L3.69 17.98L10.77 17.98L10.77 19.90L1.68 19.90ZM16.66 8.50L16.66 5.40L18.49 5.40L18.49 8.50L21.32 8.50L21.32 10.22L18.49 10.22L18.49 17.48Q18.49 18.30 19.41 18.30L19.41 18.30Q20.52 18.30 21.48 18.12L21.48 18.12L21.48 19.91Q20.06 20.11 19.04 20.11L19.04 20.11Q16.66 20.11 16.66 17.73L16.66 17.73L16.66 10.22L14.40 10.22L14.40 8.50L16.66 8.50ZM27.50 8.50L29.33 8.50L29.33 10.90Q31.41 8.71 33.77 8.04L33.77 8.04L33.77 10.13Q31.05 10.78 29.33 13.08L29.33 13.08L29.33 19.90L27.50 19.90L27.50 8.50ZM41.53 5.25L41.53 3.09L43.64 3.09L43.64 5.25L41.53 5.25ZM41.64 20.75L41.64 8.50L43.51 8.50L43.51 20.84Q43.51 23.36 41.06 23.36L41.06 23.36Q40.10 23.36 38.31 23.16L38.31 23.16L38.31 21.39Q39.38 21.63 40.68 21.63L40.68 21.63Q41.64 21.63 41.64 20.75L41.64 20.75Z"/></svg>