<svg xmlns="http://www.w3.org/2000/svg" xmlns:xlink="http://www.w3.org/1999/xlink" width="48" height="24"><path fill="black" stroke="black" d="M1.68 19.90L1.68 3.09L3.69 3.09L3.69 17.98L10.77 17.98L10.77 19.90L1.68 19.90ZM14.41 19.90L12.71 8.50L14.39 8.50L15.40 17.23L17.09 8.50L18.90 8.50L20.59 17.23L21.60 8.50L23.27 8.50L21.57 19.90L19.72 19.90L18 11.02L16.27 19.90L14.41 19.90ZM25.39 19.90L25.39 3.09L27.87 3.09L32.73 16.63L32.73 3.09L34.56 3.09L34.56 19.90L32.30 19.90L27.32 6.07L27.32 19.90L25.39 19.90ZM36.50 19.90L40.80 3.09L43.20 3.09L47.50 19.90L45.41 19.90L44.13 14.41L39.87 14.41L38.59 19.90L36.50 19.90ZM43.75 12.74L42 4.79L40.24 12.74L43.75 12.74Z"/></svg>