<svg xmlns="http://www.w3.org/2000/svg" xmlns:xlink="http://www.w3.org/1999/xlink" width="48" height="24"><path fill="black" stroke="black" d="M6.94 3.09L6.94 17.27Q6.94 18.30 7.92 18.30L7.92 18.30Q8.73 18.30 9.69 18.12L9.69 18.12L9.69 19.91Q8.27 20.11 7.61 20.11L7.61 20.11Q5.06 20.11 5.06 17.61L5.06 17.61L5.06 3.09L6.94 3.09ZM13.83 4.97L13.83 3.09L22.30 3.09L22.30 4.78L15.66 17.98L22.56 17.98L22.56 19.90L13.51 19.90L13.51 18.02L20.10 4.97L13.83 4.97ZM33.64 20.73L32.23 21.74Q31.98 20.77 31.56 19.97L31.56 19.97Q30.77 20.38 29.95 20.38L29.95 20.38Q27.68 20.38 26.43 18.05L26.43 18.05Q25.10 15.66 25.10 11.50L25.10 11.50Q25.10 7.28 26.47 4.88L26.47 4.88Q27.76 2.61 30 2.61L30 2.61Q32.25 2.61 33.55 4.90L33.55 4.90Q34.90 7.32 34.90 11.47L34.90 11.47Q34.90 16.64 32.88 18.98L32.88 18.98Q33.53 20.43 33.64 20.73L33.64 20.73ZM29.20 15.48L30.50 14.59Q31.02 15.29 32.06 17.18L32.06 17.18Q32.88 15.55 32.88 11.52L32.88 11.52Q32.88 4.37 30 4.37L30 4.37Q27.12 4.37 27.12 11.47L27.12 11.47Q27.12 18.68 29.95 18.68L29.95 18.68Q30.41 18.68 30.91 18.50L30.91 18.50Q30.21 16.93 29.20 15.48L29.20 15.48ZM36.94 4.97L36.94 3.09L47.06 3.09L47.06 4.97L43.01 4.97L43.01 19.90L40.99 19.90L40.99 4.97L36.94 4.97Z"/></svg>