<svg xmlns="http://www.w3.org/2000/svg" xmlns:xlink="http://www.w3.org/1999/xlink" width="48" height="24"><path fill="black" stroke="black" d="M1.10 8.50L2.37 8.50L2.64 9.39Q3.66 8.04 4.77 8.04L4.77 8.04Q5.88 8.04 6.49 9.39L6.49 9.39Q7.56 8.04 8.84 8.04L8.84 8.04Q10.90 8.04 10.90 10.92L10.90 10.92L10.90 19.90L9.18 19.90L9.18 11.25Q9.18 9.57 8.33 9.57L8.33 9.57Q7.57 9.57 7.10 10.42L7.10 10.42Q6.83 10.95 6.83 11.57L6.83 11.57L6.83 19.90L5.16 19.90L5.16 11.23Q5.16 9.57 4.29 9.57L4.29 9.57Q2.82 9.57 2.82 11.54L2.82 11.54L2.82 19.90L1.10 19.90L1.10 8.50ZM13.20 4.92L13.20 3.09L22.79 3.09L22.79 4.46Q19.42 12.82 17.73 19.90L17.73 19.90L15.55 19.90Q17.38 13.43 20.73 4.92L20.73 4.92L13.20 4.92ZM25.39 19.90L25.39 3.09L27.87 3.09L32.73 16.63L32.73 3.09L34.56 3.09L34.56 19.90L32.30 19.90L27.32 6.07L27.32 19.90L25.39 19.90ZM37.20 4.92L37.20 3.09L46.79 3.09L46.79 4.46Q43.42 12.82 41.73 19.90L41.73 19.90L39.55 19.90Q41.38 13.43 44.73 4.92L44.73 4.92L37.20 4.92Z"/></svg>