<svg xmlns="http://www.w3.org/2000/svg" xmlns:xlink="http://www.w3.org/1999/xlink" width="48" height="24"><path fill="black" stroke="black" d="M1.15 19.90L1.15 3.09L3.54 3.09L5.99 16.89L8.44 3.09L10.84 3.09L10.84 19.90L9.21 19.90L9.21 6.86L6.88 19.90L5.11 19.90L2.87 6.86L2.87 19.90L1.15 19.90ZM16.95 5.25L16.95 3.09L19.05 3.09L19.05 5.25L16.95 5.25ZM17.06 19.90L17.06 8.50L18.94 8.50L18.94 19.90L17.06 19.90ZM25.78 8.50L27.11 8.50L27.40 10.01Q29.00 8.04 30.73 8.04L30.73 8.04Q32.48 8.04 33.61 9.60L33.61 9.60Q34.80 11.27 34.80 13.93L34.80 13.93Q34.80 16.42 33.84 18.08L33.84 18.08Q32.71 20.05 30.70 20.05L30.70 20.05Q28.97 20.05 27.56 18.47L27.56 18.47L27.56 23.34L25.78 23.34L25.78 8.50ZM30.32 9.74L30.32 9.74Q29.14 9.74 28.32 10.91L28.32 10.91Q27.49 12.12 27.49 13.96L27.49 13.96Q27.49 15.63 28.07 16.75L28.07 16.75Q28.85 18.33 30.34 18.33L30.34 18.33Q31.52 18.33 32.21 17.20L32.21 17.20Q32.91 15.98 32.91 13.96L32.91 13.96Q32.91 12.11 32.26 10.98L32.26 10.98Q31.55 9.74 30.32 9.74ZM37.44 16.01L39.41 16.01Q39.70 18.62 41.88 18.62L41.88 18.62Q45.12 18.62 45.08 11.74L45.08 11.74Q43.73 13.72 41.70 13.72L41.70 13.72Q39.22 13.72 37.99 11.41L37.99 11.41Q37.30 10.07 37.30 8.30L37.30 8.30Q37.30 6.05 38.52 4.39L38.52 4.39Q39.83 2.61 41.88 2.61L41.88 2.61Q46.83 2.61 46.83 10.97L46.83 10.97Q46.83 20.38 41.91 20.38L41.91 20.38Q39.66 20.38 38.36 18.43L38.36 18.43Q37.69 17.43 37.44 16.01L37.44 16.01ZM41.96 4.27L41.96 4.27Q39.13 4.27 39.13 8.25L39.13 8.25Q39.13 9.73 39.63 10.70L39.63 10.70Q40.38 12.14 41.96 12.14L41.96 12.14Q42.97 12.14 43.76 11.25L43.76 11.25Q44.77 10.10 44.77 8.25L44.77 8.25Q44.77 6.40 43.97 5.32L43.97 5.32Q43.21 4.27 41.96 4.27Z"/></svg>