<svg xmlns="http://www.w3.org/2000/svg" xmlns:xlink="http://www.w3.org/1999/xlink" width="48" height="24"><path fill="black" stroke="black" d="M1.15 19.90L1.15 3.09L3.54 3.09L5.99 16.89L8.44 3.09L10.84 3.09L10.84 19.90L9.21 19.90L9.21 6.86L6.88 19.90L5.11 19.90L2.87 6.86L2.87 19.90L1.15 19.90ZM17.53 5.25L17.53 3.09L19.64 3.09L19.64 5.25L17.53 5.25ZM17.64 20.75L17.64 8.50L19.51 8.50L19.51 20.84Q19.51 23.36 17.06 23.36L17.06 23.36Q16.10 23.36 14.31 23.16L14.31 23.16L14.31 21.39Q15.38 21.63 16.68 21.63L16.68 21.63Q17.64 21.63 17.64 20.75L17.64 20.75ZM25.68 19.90L25.68 3.09L34.10 3.09L34.10 4.92L27.60 4.92L27.60 10.27L33.23 10.27L33.23 12.05L27.60 12.05L27.60 18.07L34.58 18.07L34.58 19.90L25.68 19.90ZM44.68 16.36L46.56 16.36Q45.52 20.37 42.02 20.37L42.02 20.37Q39.86 20.37 38.59 18.56L38.59 18.56Q37.44 16.91 37.44 14.20L37.44 14.20Q37.44 11.61 38.52 9.96L38.52 9.96Q39.79 8.04 42 8.04L42 8.04Q46.32 8.04 46.61 14.57L46.61 14.57L39.25 14.57Q39.39 18.76 42.05 18.76L42.05 18.76Q44.16 18.76 44.68 16.36L44.68 16.36ZM39.32 13.03L44.68 13.03Q44.30 9.64 42 9.64L42 9.64Q39.79 9.64 39.32 13.03L39.32 13.03Z"/></svg>