<svg xmlns="http://www.w3.org/2000/svg" xmlns:xlink="http://www.w3.org/1999/xlink" width="48" height="24"><path fill="black" stroke="black" d="M1.10 8.50L2.37 8.50L2.64 9.39Q3.66 8.04 4.77 8.04L4.77 8.04Q5.88 8.04 6.49 9.39L6.49 9.39Q7.56 8.04 8.84 8.04L8.84 8.04Q10.90 8.04 10.90 10.92L10.90 10.92L10.90 19.90L9.18 19.90L9.18 11.25Q9.18 9.57 8.33 9.57L8.33 9.57Q7.57 9.57 7.10 10.42L7.10 10.42Q6.83 10.95 6.83 11.57L6.83 11.57L6.83 19.90L5.16 19.90L5.16 11.23Q5.16 9.57 4.29 9.57L4.29 9.57Q2.82 9.57 2.82 11.54L2.82 11.54L2.82 19.90L1.10 19.90L1.10 8.50ZM13.15 19.90L13.15 3.09L15.54 3.09L17.99 16.89L20.44 3.09L22.84 3.09L22.84 19.90L21.21 19.90L21.21 6.86L18.88 19.90L17.11 19.90L14.87 6.86L14.87 19.90L13.15 19.90ZM34.22 23.34L32.44 23.34L32.44 18.47Q31.03 20.05 29.30 20.05L29.30 20.05Q27.50 20.05 26.39 18.45L26.39 18.45Q25.20 16.73 25.20 13.93L25.20 13.93Q25.20 11.70 26.06 10.15L26.06 10.15Q27.20 8.04 29.25 8.04L29.25 8.04Q30.96 8.04 32.60 10.01L32.60 10.01L32.89 8.50L34.22 8.50L34.22 23.34ZM29.66 9.74L29.66 9.74Q28.43 9.74 27.74 11.02L27.74 11.02Q27.09 12.13 27.09 13.98L27.09 13.98Q27.09 18.33 29.68 18.33L29.68 18.33Q31.03 18.33 31.86 16.89L31.86 16.89Q32.51 15.74 32.51 13.96L32.51 13.96Q32.51 11.82 31.43 10.61L31.43 10.61Q30.68 9.74 29.66 9.74ZM41.11 19.90L36.64 19.90L36.64 18.12L38.02 18.12L38.02 4.88L36.64 4.88L36.64 3.09L40.99 3.09Q43.85 3.09 45.39 5.09L45.39 5.09Q46.90 7.04 46.90 11.23L46.90 11.23Q46.90 15.56 45.50 17.59L45.50 17.59Q43.92 19.90 41.11 19.90L41.11 19.90ZM40.90 4.88L39.94 4.88L39.94 18.12L41.04 18.12Q44.93 18.12 44.93 11.23L44.93 11.23Q44.93 7.80 43.82 6.26L43.82 6.26Q42.83 4.88 40.90 4.88L40.90 4.88Z"/></svg>