<svg xmlns="http://www.w3.org/2000/svg" xmlns:xlink="http://www.w3.org/1999/xlink" width="48" height="24"><path fill="black" stroke="black" d="M1.10 8.50L2.37 8.50L2.64 9.39Q3.66 8.04 4.77 8.04L4.77 8.04Q5.88 8.04 6.49 9.39L6.49 9.39Q7.56 8.04 8.84 8.04L8.84 8.04Q10.90 8.04 10.90 10.92L10.90 10.92L10.90 19.90L9.18 19.90L9.18 11.25Q9.18 9.57 8.33 9.57L8.33 9.57Q7.57 9.57 7.10 10.42L7.10 10.42Q6.83 10.95 6.83 11.57L6.83 11.57L6.83 19.90L5.16 19.90L5.16 11.23Q5.16 9.57 4.29 9.57L4.29 9.57Q2.82 9.57 2.82 11.54L2.82 11.54L2.82 19.90L1.10 19.90L1.10 8.50ZM13.39 19.90L13.39 3.09L15.87 3.09L20.73 16.63L20.73 3.09L22.56 3.09L22.56 19.90L20.30 19.90L15.32 6.07L15.32 19.90L13.39 19.90ZM27.94 10.84L27.94 10.84Q25.51 9.66 25.51 7.05L25.51 7.05Q25.51 5.80 26.11 4.77L26.11 4.77Q27.38 2.61 30 2.61L30 2.61Q31.31 2.61 32.45 3.30L32.45 3.30Q34.49 4.56 34.49 7.05L34.49 7.05Q34.49 9.66 32.06 10.84L32.06 10.84Q35.17 12.04 35.17 15.34L35.17 15.34Q35.17 17.23 34.11 18.57L34.11 18.57Q32.71 20.38 30 20.38L30 20.38Q27.70 20.38 26.31 19.05L26.31 19.05Q24.84 17.66 24.84 15.34L24.84 15.34Q24.84 12.04 27.94 10.84ZM30 4.15L30 4.15Q28.79 4.15 28.03 5.02L28.03 5.02Q27.34 5.82 27.34 7.03L27.34 7.03Q27.34 7.83 27.63 8.47L27.63 8.47Q28.35 10.03 30.02 10.03L30.02 10.03Q30.98 10.03 31.65 9.43L31.65 9.43Q32.66 8.57 32.66 7.03L32.66 7.03Q32.66 5.53 31.65 4.70L31.65 4.70Q30.96 4.15 30 4.15ZM29.98 11.75L29.98 11.75Q28.42 11.75 27.49 12.90L27.49 12.90Q26.72 13.90 26.72 15.34L26.72 15.34Q26.72 16.72 27.47 17.65L27.47 17.65Q28.39 18.80 30 18.80L30 18.80Q31.62 18.80 32.55 17.65L32.55 17.65Q33.29 16.72 33.29 15.34L33.29 15.34Q33.29 13.54 32.19 12.57L32.19 12.57Q31.30 11.75 29.98 11.75ZM37.76 8.50L39.18 8.50L39.45 9.96Q41.25 8.04 43.01 8.04L43.01 8.04Q44.96 8.04 45.87 9.76L45.87 9.76Q46.37 10.73 46.37 12.12L46.37 12.12L46.37 19.90L44.59 19.90L44.59 12.64Q44.59 9.74 42.73 9.74L42.73 9.74Q41.46 9.74 40.52 10.65L40.52 10.65Q39.54 11.64 39.54 12.91L39.54 12.91L39.54 19.90L37.76 19.90L37.76 8.50Z"/></svg>