<svg xmlns="http://www.w3.org/2000/svg" xmlns:xlink="http://www.w3.org/1999/xlink" width="48" height="24"><path fill="black" stroke="black" d="M1.15 19.90L1.15 3.09L3.54 3.09L5.99 16.89L8.44 3.09L10.84 3.09L10.84 19.90L9.21 19.90L9.21 6.86L6.88 19.90L5.11 19.90L2.87 6.86L2.87 19.90L1.15 19.90ZM12.94 4.97L12.94 3.09L23.06 3.09L23.06 4.97L19.01 4.97L19.01 19.90L16.99 19.90L16.99 4.97L12.94 4.97ZM27.59 11.82L25.66 11.82Q26.13 8.03 30.01 8.03L30.01 8.03Q33.91 8.03 33.91 12.21L33.91 12.21L33.91 17.94Q33.91 18.62 34.54 18.62L34.54 18.62Q34.75 18.62 35.11 18.54L35.11 18.54L35.11 20.23Q34.63 20.34 33.96 20.34L33.96 20.34Q32.38 20.34 32.17 18.57L32.17 18.57Q30.54 20.34 28.59 20.34L28.59 20.34Q27.32 20.34 26.50 19.68L26.50 19.68Q25.42 18.81 25.42 17.11L25.42 17.11Q25.42 13.16 32.19 12.69L32.19 12.69L32.19 12.21Q32.19 9.63 30.01 9.63L30.01 9.63Q27.76 9.63 27.59 11.82L27.59 11.82ZM32.19 15.79L32.19 14.20Q27.18 14.45 27.18 17.02L27.18 17.02Q27.18 18.74 28.88 18.74L28.88 18.74Q30.04 18.74 31.14 17.85L31.14 17.85Q32.19 17.02 32.19 15.79L32.19 15.79ZM37.92 8.50L40.83 8.50L40.83 5.52Q40.83 3.09 43.30 3.09L43.30 3.09L45.89 3.09L45.89 4.77L43.64 4.77Q42.66 4.77 42.66 5.66L42.66 5.66L42.66 8.50L45.89 8.50L45.89 10.17L42.66 10.17L42.66 19.90L40.83 19.90L40.83 10.17L37.92 10.17L37.92 8.50Z"/></svg>