<svg xmlns="http://www.w3.org/2000/svg" xmlns:xlink="http://www.w3.org/1999/xlink" width="48" height="24"><path fill="black" stroke="black" d="M1.39 19.90L1.39 3.09L3.87 3.09L8.73 16.63L8.73 3.09L10.56 3.09L10.56 19.90L8.30 19.90L3.32 6.07L3.32 19.90L1.39 19.90ZM13.63 19.90L13.63 3.09L17.68 3.09Q19.57 3.09 20.81 4.05L20.81 4.05Q22.28 5.13 22.28 7.22L22.28 7.22Q22.28 9.90 19.56 11.05L19.56 11.05Q22.88 12.09 22.88 15.35L22.88 15.35Q22.88 17.47 21.36 18.76L21.36 18.76Q20.05 19.90 18.07 19.90L18.07 19.90L13.63 19.90ZM17.66 4.88L15.50 4.88L15.50 10.29L17.59 10.29Q18.57 10.29 19.21 9.83L19.21 9.83Q20.33 9.07 20.33 7.46L20.33 7.46Q20.33 4.88 17.66 4.88L17.66 4.88ZM17.66 11.96L15.50 11.96L15.50 18.12L17.77 18.12Q20.88 18.12 20.88 15.09L20.88 15.09Q20.88 11.96 17.66 11.96L17.66 11.96ZM25.46 19.90L25.46 3.09L27.39 3.09L27.39 10.24L32.61 10.24L32.61 3.09L34.54 3.09L34.54 19.90L32.61 19.90L32.61 12.07L27.39 12.07L27.39 19.90L25.46 19.90ZM44.82 14.30L46.84 14.30Q46.31 20.37 42.09 20.37L42.09 20.37Q39.62 20.37 38.27 17.80L38.27 17.80Q37.10 15.55 37.10 11.52L37.10 11.52Q37.10 7.41 38.40 4.99L38.40 4.99Q39.69 2.61 42.09 2.61L42.09 2.61Q45.95 2.61 46.70 7.90L46.70 7.90L44.73 7.90Q44.23 4.42 42.09 4.42L42.09 4.42Q39.16 4.42 39.16 11.52L39.16 11.52Q39.16 18.56 42.12 18.56L42.12 18.56Q44.61 18.56 44.82 14.30L44.82 14.30Z"/></svg>