<svg xmlns="http://www.w3.org/2000/svg" xmlns:xlink="http://www.w3.org/1999/xlink" width="48" height="24"><path fill="black" stroke="black" d="M1.76 8.50L3.18 8.50L3.45 9.96Q5.25 8.04 7.01 8.04L7.01 8.04Q8.96 8.04 9.87 9.76L9.87 9.76Q10.37 10.73 10.37 12.12L10.37 12.12L10.37 19.90L8.59 19.90L8.59 12.64Q8.59 9.74 6.73 9.74L6.73 9.74Q5.46 9.74 4.52 10.65L4.52 10.65Q3.54 11.64 3.54 12.91L3.54 12.91L3.54 19.90L1.76 19.90L1.76 8.50ZM13.10 8.50L14.37 8.50L14.64 9.39Q15.66 8.04 16.77 8.04L16.77 8.04Q17.88 8.04 18.49 9.39L18.49 9.39Q19.56 8.04 20.84 8.04L20.84 8.04Q22.90 8.04 22.90 10.92L22.90 10.92L22.90 19.90L21.18 19.90L21.18 11.25Q21.18 9.57 20.33 9.57L20.33 9.57Q19.57 9.57 19.10 10.42L19.10 10.42Q18.83 10.95 18.83 11.57L18.83 11.57L18.83 19.90L17.16 19.90L17.16 11.23Q17.16 9.57 16.29 9.57L16.29 9.57Q14.82 9.57 14.82 11.54L14.82 11.54L14.82 19.90L13.10 19.90L13.10 8.50ZM29.02 19.90L25.22 8.50L27.23 8.50L30 17.71L32.75 8.50L34.77 8.50L30.98 19.90L29.02 19.90ZM37.39 19.90L37.39 3.09L39.87 3.09L44.73 16.63L44.73 3.09L46.56 3.09L46.56 19.90L44.30 19.90L39.32 6.07L39.32 19.90L37.39 19.90Z"/></svg>