<svg xmlns="http://www.w3.org/2000/svg" xmlns:xlink="http://www.w3.org/1999/xlink" width="48" height="24"><path fill="black" stroke="black" d="M6.02 8.04L6.02 8.04Q8.23 8.04 9.48 9.98L9.48 9.98Q10.56 11.60 10.56 14.20L10.56 14.20Q10.56 16.16 9.91 17.64L9.91 17.64Q8.72 20.38 5.98 20.38L5.98 20.38Q3.86 20.38 2.59 18.57L2.59 18.57Q1.44 16.92 1.44 14.20L1.44 14.20Q1.44 11.27 2.77 9.60L2.77 9.60Q4.03 8.04 6.02 8.04ZM5.98 9.71L5.98 9.71Q4.69 9.71 3.96 11.06L3.96 11.06Q3.32 12.25 3.32 14.20L3.32 14.20Q3.32 16.01 3.84 17.14L3.84 17.14Q4.57 18.70 6 18.70L6 18.70Q7.31 18.70 8.04 17.36L8.04 17.36Q8.68 16.17 8.68 14.23L8.68 14.23Q8.68 12.20 8.02 11.04L8.02 11.04Q7.30 9.71 5.98 9.71ZM12.60 14.06L19.37 3.09L21.41 3.09L21.41 14.11L23.40 14.11L23.40 15.74L21.41 15.74L21.41 19.90L19.63 19.90L19.63 15.74L12.60 15.74L12.60 14.06ZM19.63 14.11L19.63 5.71L14.40 14.11L19.63 14.11ZM27.94 10.84L27.94 10.84Q25.51 9.66 25.51 7.05L25.51 7.05Q25.51 5.80 26.11 4.77L26.11 4.77Q27.38 2.61 30 2.61L30 2.61Q31.31 2.61 32.45 3.30L32.45 3.30Q34.49 4.56 34.49 7.05L34.49 7.05Q34.49 9.66 32.06 10.84L32.06 10.84Q35.17 12.04 35.17 15.34L35.17 15.34Q35.17 17.23 34.11 18.57L34.11 18.57Q32.71 20.38 30 20.38L30 20.38Q27.70 20.38 26.31 19.05L26.31 19.05Q24.84 17.66 24.84 15.34L24.84 15.34Q24.84 12.04 27.94 10.84ZM30 4.15L30 4.15Q28.79 4.15 28.03 5.02L28.03 5.02Q27.34 5.82 27.34 7.03L27.34 7.03Q27.34 7.83 27.63 8.47L27.63 8.47Q28.35 10.03 30.02 10.03L30.02 10.03Q30.98 10.03 31.65 9.43L31.65 9.43Q32.66 8.57 32.66 7.03L32.66 7.03Q32.66 5.53 31.65 4.70L31.65 4.70Q30.96 4.15 30 4.15ZM29.98 11.75L29.98 11.75Q28.42 11.75 27.49 12.90L27.49 12.90Q26.72 13.90 26.72 15.34L26.72 15.34Q26.72 16.72 27.47 17.65L27.47 17.65Q28.39 18.80 30 18.80L30 18.80Q31.62 18.80 32.55 17.65L32.55 17.65Q33.29 16.72 33.29 15.34L33.29 15.34Q33.29 13.54 32.19 12.57L32.19 12.57Q31.30 11.75 29.98 11.75ZM45.02 8.50L46.27 8.50L46.27 18.57Q46.27 23.34 41.88 23.34L41.88 23.34Q38.13 23.34 37.49 19.65L37.49 19.65L39.36 19.65Q39.68 21.74 41.93 21.74L41.93 21.74Q44.54 21.74 44.54 18.71L44.54 18.71L44.54 16.77Q43.29 18.23 41.52 18.23L41.52 18.23Q39.61 18.23 38.34 16.72L38.34 16.72Q37.20 15.32 37.20 13.22L37.20 13.22Q37.20 11.70 37.79 10.54L37.79 10.54Q39.06 8.04 41.61 8.04L41.61 8.04Q43.39 8.04 44.61 9.48L44.61 9.48L45.02 8.50ZM41.78 9.69L41.78 9.69Q40.45 9.69 39.67 10.86L39.67 10.86Q39.02 11.80 39.02 13.20L39.02 13.20Q39.02 14.65 39.74 15.62L39.74 15.62Q40.51 16.68 41.80 16.68L41.80 16.68Q42.87 16.68 43.61 15.86L43.61 15.86Q44.59 14.80 44.59 13.22L44.59 13.22Q44.59 11.65 43.75 10.63L43.75 10.63Q42.93 9.69 41.78 9.69Z"/></svg>