<svg xmlns="http://www.w3.org/2000/svg" xmlns:xlink="http://www.w3.org/1999/xlink" width="48" height="24"><path fill="black" stroke="black" d="M6 2.61L6 2.61Q8.24 2.61 9.53 4.88L9.53 4.88Q10.90 7.28 10.90 11.50L10.90 11.50Q10.90 15.62 9.60 18L9.60 18Q8.31 20.38 6 20.38L6 20.38Q3.70 20.38 2.45 18.07L2.45 18.07Q1.10 15.61 1.10 11.47L1.10 11.47Q1.10 7.09 2.59 4.65L2.59 4.65Q3.84 2.61 6 2.61ZM6 4.37L6 4.37Q3.12 4.37 3.12 11.47L3.12 11.47Q3.12 18.62 6.02 18.62L6.02 18.62Q8.88 18.62 8.88 11.54L8.88 11.54Q8.88 4.37 6 4.37ZM20.82 14.30L22.84 14.30Q22.31 20.37 18.09 20.37L18.09 20.37Q15.62 20.37 14.27 17.80L14.27 17.80Q13.10 15.55 13.10 11.52L13.10 11.52Q13.10 7.41 14.40 4.99L14.40 4.99Q15.69 2.61 18.09 2.61L18.09 2.61Q21.95 2.61 22.70 7.90L22.70 7.90L20.73 7.90Q20.23 4.42 18.09 4.42L18.09 4.42Q15.16 4.42 15.16 11.52L15.16 11.52Q15.16 18.56 18.12 18.56L18.12 18.56Q20.61 18.56 20.82 14.30L20.82 14.30ZM25.44 16.01L27.41 16.01Q27.70 18.62 29.88 18.62L29.88 18.62Q33.12 18.62 33.08 11.74L33.08 11.74Q31.73 13.72 29.70 13.72L29.70 13.72Q27.22 13.72 25.99 11.41L25.99 11.41Q25.30 10.07 25.30 8.30L25.30 8.30Q25.30 6.05 26.52 4.39L26.52 4.39Q27.83 2.61 29.88 2.61L29.88 2.61Q34.83 2.61 34.83 10.97L34.83 10.97Q34.83 20.38 29.91 20.38L29.91 20.38Q27.66 20.38 26.36 18.43L26.36 18.43Q25.69 17.43 25.44 16.01L25.44 16.01ZM29.96 4.27L29.96 4.27Q27.13 4.27 27.13 8.25L27.13 8.25Q27.13 9.73 27.63 10.70L27.63 10.70Q28.38 12.14 29.96 12.14L29.96 12.14Q30.97 12.14 31.76 11.25L31.76 11.25Q32.77 10.10 32.77 8.25L32.77 8.25Q32.77 6.40 31.97 5.32L31.97 5.32Q31.21 4.27 29.96 4.27ZM42.94 3.09L42.94 17.27Q42.94 18.30 43.92 18.30L43.92 18.30Q44.73 18.30 45.69 18.12L45.69 18.12L45.69 19.91Q44.27 20.11 43.61 20.11L43.61 20.11Q41.06 20.11 41.06 17.61L41.06 17.61L41.06 3.09L42.94 3.09Z"/></svg>