<svg xmlns="http://www.w3.org/2000/svg" xmlns:xlink="http://www.w3.org/1999/xlink" width="48" height="24"><path fill="black" stroke="black" d="M6.02 8.04L6.02 8.04Q8.23 8.04 9.48 9.98L9.48 9.98Q10.56 11.60 10.56 14.20L10.56 14.20Q10.56 16.16 9.91 17.64L9.91 17.64Q8.72 20.38 5.98 20.38L5.98 20.38Q3.86 20.38 2.59 18.57L2.59 18.57Q1.44 16.92 1.44 14.20L1.44 14.20Q1.44 11.27 2.77 9.60L2.77 9.60Q4.03 8.04 6.02 8.04ZM5.98 9.71L5.98 9.71Q4.69 9.71 3.96 11.06L3.96 11.06Q3.32 12.25 3.32 14.20L3.32 14.20Q3.32 16.01 3.84 17.14L3.84 17.14Q4.57 18.70 6 18.70L6 18.70Q7.31 18.70 8.04 17.36L8.04 17.36Q8.68 16.17 8.68 14.23L8.68 14.23Q8.68 12.20 8.02 11.04L8.02 11.04Q7.30 9.71 5.98 9.71ZM13.92 8.50L16.83 8.50L16.83 5.52Q16.83 3.09 19.30 3.09L19.30 3.09L21.89 3.09L21.89 4.77L19.64 4.77Q18.66 4.77 18.66 5.66L18.66 5.66L18.66 8.50L21.89 8.50L21.89 10.17L18.66 10.17L18.66 19.90L16.83 19.90L16.83 10.17L13.92 10.17L13.92 8.50ZM30 2.61L30 2.61Q34.66 2.61 34.66 11.50L34.66 11.50Q34.66 20.38 30 20.38L30 20.38Q25.35 20.38 25.35 11.50L25.35 11.50Q25.35 2.61 30 2.61ZM27.66 15.67L27.66 15.67L31.95 5.88Q31.27 4.27 29.98 4.27L29.98 4.27Q27.32 4.27 27.32 11.50L27.32 11.50Q27.32 13.96 27.66 15.67ZM32.36 7.34L28.05 17.09Q28.71 18.73 30 18.73L30 18.73Q32.70 18.73 32.70 11.47L32.70 11.47Q32.70 9.07 32.36 7.34L32.36 7.34ZM42.94 3.09L42.94 17.27Q42.94 18.30 43.92 18.30L43.92 18.30Q44.73 18.30 45.69 18.12L45.69 18.12L45.69 19.91Q44.27 20.11 43.61 20.11L43.61 20.11Q41.06 20.11 41.06 17.61L41.06 17.61L41.06 3.09L42.94 3.09Z"/></svg>