<svg xmlns="http://www.w3.org/2000/svg" xmlns:xlink="http://www.w3.org/1999/xlink" width="48" height="24"><path fill="black" stroke="black" d="M6.02 8.04L6.02 8.04Q8.23 8.04 9.48 9.98L9.48 9.98Q10.56 11.60 10.56 14.20L10.56 14.20Q10.56 16.16 9.91 17.64L9.91 17.64Q8.72 20.38 5.98 20.38L5.98 20.38Q3.86 20.38 2.59 18.57L2.59 18.57Q1.44 16.92 1.44 14.20L1.44 14.20Q1.44 11.27 2.77 9.60L2.77 9.60Q4.03 8.04 6.02 8.04ZM5.98 9.71L5.98 9.71Q4.69 9.71 3.96 11.06L3.96 11.06Q3.32 12.25 3.32 14.20L3.32 14.20Q3.32 16.01 3.84 17.14L3.84 17.14Q4.57 18.70 6 18.70L6 18.70Q7.31 18.70 8.04 17.36L8.04 17.36Q8.68 16.17 8.68 14.23L8.68 14.23Q8.68 12.20 8.02 11.04L8.02 11.04Q7.30 9.71 5.98 9.71ZM16.95 5.25L16.95 3.09L19.05 3.09L19.05 5.25L16.95 5.25ZM17.06 19.90L17.06 8.50L18.94 8.50L18.94 19.90L17.06 19.90ZM31.32 19.90L29.36 19.90L29.36 5.54Q28.45 6.15 26.84 6.83L26.84 6.83L26.84 4.90Q28.71 4.21 29.86 3.09L29.86 3.09L31.32 3.09L31.32 19.90ZM42.02 8.04L42.02 8.04Q44.23 8.04 45.48 9.98L45.48 9.98Q46.56 11.60 46.56 14.20L46.56 14.20Q46.56 16.16 45.91 17.64L45.91 17.64Q44.72 20.38 41.98 20.38L41.98 20.38Q39.86 20.38 38.59 18.57L38.59 18.57Q37.44 16.92 37.44 14.20L37.44 14.20Q37.44 11.27 38.77 9.60L38.77 9.60Q40.03 8.04 42.02 8.04ZM41.98 9.71L41.98 9.71Q40.69 9.71 39.96 11.06L39.96 11.06Q39.32 12.25 39.32 14.20L39.32 14.20Q39.32 16.01 39.84 17.14L39.84 17.14Q40.57 18.70 42 18.70L42 18.70Q43.31 18.70 44.04 17.36L44.04 17.36Q44.68 16.17 44.68 14.23L44.68 14.23Q44.68 12.20 44.02 11.04L44.02 11.04Q43.30 9.71 41.98 9.71Z"/></svg>