<svg xmlns="http://www.w3.org/2000/svg" xmlns:xlink="http://www.w3.org/1999/xlink" width="48" height="24"><path fill="black" stroke="black" d="M6.02 8.04L6.02 8.04Q8.23 8.04 9.48 9.98L9.48 9.98Q10.56 11.60 10.56 14.20L10.56 14.20Q10.56 16.16 9.91 17.64L9.91 17.64Q8.72 20.38 5.98 20.38L5.98 20.38Q3.86 20.38 2.59 18.57L2.59 18.57Q1.44 16.92 1.44 14.20L1.44 14.20Q1.44 11.27 2.77 9.60L2.77 9.60Q4.03 8.04 6.02 8.04ZM5.98 9.71L5.98 9.71Q4.69 9.71 3.96 11.06L3.96 11.06Q3.32 12.25 3.32 14.20L3.32 14.20Q3.32 16.01 3.84 17.14L3.84 17.14Q4.57 18.70 6 18.70L6 18.70Q7.31 18.70 8.04 17.36L8.04 17.36Q8.68 16.17 8.68 14.23L8.68 14.23Q8.68 12.20 8.02 11.04L8.02 11.04Q7.30 9.71 5.98 9.71ZM13.39 19.90L13.39 3.09L15.87 3.09L20.73 16.63L20.73 3.09L22.56 3.09L22.56 19.90L20.30 19.90L15.32 6.07L15.32 19.90L13.39 19.90ZM27.94 10.84L27.94 10.84Q25.51 9.66 25.51 7.05L25.51 7.05Q25.51 5.80 26.11 4.77L26.11 4.77Q27.38 2.61 30 2.61L30 2.61Q31.31 2.61 32.45 3.30L32.45 3.30Q34.49 4.56 34.49 7.05L34.49 7.05Q34.49 9.66 32.06 10.84L32.06 10.84Q35.17 12.04 35.17 15.34L35.17 15.34Q35.17 17.23 34.11 18.57L34.11 18.57Q32.71 20.38 30 20.38L30 20.38Q27.70 20.38 26.31 19.05L26.31 19.05Q24.84 17.66 24.84 15.34L24.84 15.34Q24.84 12.04 27.94 10.84ZM30 4.15L30 4.15Q28.79 4.15 28.03 5.02L28.03 5.02Q27.34 5.82 27.34 7.03L27.34 7.03Q27.34 7.83 27.63 8.47L27.63 8.47Q28.35 10.03 30.02 10.03L30.02 10.03Q30.98 10.03 31.65 9.43L31.65 9.43Q32.66 8.57 32.66 7.03L32.66 7.03Q32.66 5.53 31.65 4.70L31.65 4.70Q30.96 4.15 30 4.15ZM29.98 11.75L29.98 11.75Q28.42 11.75 27.49 12.90L27.49 12.90Q26.72 13.90 26.72 15.34L26.72 15.34Q26.72 16.72 27.47 17.65L27.47 17.65Q28.39 18.80 30 18.80L30 18.80Q31.62 18.80 32.55 17.65L32.55 17.65Q33.29 16.72 33.29 15.34L33.29 15.34Q33.29 13.54 32.19 12.57L32.19 12.57Q31.30 11.75 29.98 11.75ZM37.44 16.01L39.41 16.01Q39.70 18.62 41.88 18.62L41.88 18.62Q45.12 18.62 45.08 11.74L45.08 11.74Q43.73 13.72 41.70 13.72L41.70 13.72Q39.22 13.72 37.99 11.41L37.99 11.41Q37.30 10.07 37.30 8.30L37.30 8.30Q37.30 6.05 38.52 4.39L38.52 4.39Q39.83 2.61 41.88 2.61L41.88 2.61Q46.83 2.61 46.83 10.97L46.83 10.97Q46.83 20.38 41.91 20.38L41.91 20.38Q39.66 20.38 38.36 18.43L38.36 18.43Q37.69 17.43 37.44 16.01L37.44 16.01ZM41.96 4.27L41.96 4.27Q39.13 4.27 39.13 8.25L39.13 8.25Q39.13 9.73 39.63 10.70L39.63 10.70Q40.38 12.14 41.96 12.14L41.96 12.14Q42.97 12.14 43.76 11.25L43.76 11.25Q44.77 10.10 44.77 8.25L44.77 8.25Q44.77 6.40 43.97 5.32L43.97 5.32Q43.21 4.27 41.96 4.27Z"/></svg>