<svg xmlns="http://www.w3.org/2000/svg" xmlns:xlink="http://www.w3.org/1999/xlink" width="48" height="24"><path fill="black" stroke="black" d="M6.02 8.04L6.02 8.04Q8.23 8.04 9.48 9.98L9.48 9.98Q10.56 11.60 10.56 14.20L10.56 14.20Q10.56 16.16 9.91 17.64L9.91 17.64Q8.72 20.38 5.98 20.38L5.98 20.38Q3.86 20.38 2.59 18.57L2.59 18.57Q1.44 16.92 1.44 14.20L1.44 14.20Q1.44 11.27 2.77 9.60L2.77 9.60Q4.03 8.04 6.02 8.04ZM5.98 9.71L5.98 9.71Q4.69 9.71 3.96 11.06L3.96 11.06Q3.32 12.25 3.32 14.20L3.32 14.20Q3.32 16.01 3.84 17.14L3.84 17.14Q4.57 18.70 6 18.70L6 18.70Q7.31 18.70 8.04 17.36L8.04 17.36Q8.68 16.17 8.68 14.23L8.68 14.23Q8.68 12.20 8.02 11.04L8.02 11.04Q7.30 9.71 5.98 9.71ZM18.02 8.04L18.02 8.04Q20.23 8.04 21.48 9.98L21.48 9.98Q22.56 11.60 22.56 14.20L22.56 14.20Q22.56 16.16 21.91 17.64L21.91 17.64Q20.72 20.38 17.98 20.38L17.98 20.38Q15.86 20.38 14.59 18.57L14.59 18.57Q13.44 16.92 13.44 14.20L13.44 14.20Q13.44 11.27 14.77 9.60L14.77 9.60Q16.03 8.04 18.02 8.04ZM17.98 9.71L17.98 9.71Q16.69 9.71 15.96 11.06L15.96 11.06Q15.32 12.25 15.32 14.20L15.32 14.20Q15.32 16.01 15.84 17.14L15.84 17.14Q16.57 18.70 18 18.70L18 18.70Q19.31 18.70 20.04 17.36L20.04 17.36Q20.68 16.17 20.68 14.23L20.68 14.23Q20.68 12.20 20.02 11.04L20.02 11.04Q19.30 9.71 17.98 9.71ZM28.17 11.66L28.17 10.13L29.37 10.13Q30.90 10.13 31.48 9.69L31.48 9.69Q32.55 8.86 32.55 7.20L32.55 7.20Q32.55 4.24 29.87 4.24L29.87 4.24Q27.64 4.24 27.14 6.76L27.14 6.76L25.24 6.76Q25.50 5.18 26.34 4.15L26.34 4.15Q27.63 2.61 29.87 2.61L29.87 2.61Q31.75 2.61 32.96 3.69L32.96 3.69Q34.41 4.96 34.41 7.13L34.41 7.13Q34.41 10.04 31.79 10.95L31.79 10.95Q34.95 12.16 34.95 15.39L34.95 15.39Q34.95 17.45 33.77 18.77L33.77 18.77Q32.37 20.38 29.91 20.38L29.91 20.38Q27.60 20.38 26.23 18.80L26.23 18.80Q25.22 17.64 25.01 15.60L25.01 15.60L26.98 15.60Q27.22 18.73 29.91 18.73L29.91 18.73Q31.15 18.73 31.99 18.02L31.99 18.02Q33.05 17.12 33.05 15.39L33.05 15.39Q33.05 11.66 29.37 11.66L29.37 11.66L28.17 11.66ZM42 2.61L42 2.61Q46.66 2.61 46.66 11.50L46.66 11.50Q46.66 20.38 42 20.38L42 20.38Q37.35 20.38 37.35 11.50L37.35 11.50Q37.35 2.61 42 2.61ZM39.66 15.67L39.66 15.67L43.95 5.88Q43.27 4.27 41.98 4.27L41.98 4.27Q39.32 4.27 39.32 11.50L39.32 11.50Q39.32 13.96 39.66 15.67ZM44.36 7.34L40.05 17.09Q40.71 18.73 42 18.73L42 18.73Q44.70 18.73 44.70 11.47L44.70 11.47Q44.70 9.07 44.36 7.34L44.36 7.34Z"/></svg>