<svg xmlns="http://www.w3.org/2000/svg" xmlns:xlink="http://www.w3.org/1999/xlink" width="48" height="24"><path fill="black" stroke="black" d="M6.02 8.04L6.02 8.04Q8.23 8.04 9.48 9.98L9.48 9.98Q10.56 11.60 10.56 14.20L10.56 14.20Q10.56 16.16 9.91 17.64L9.91 17.64Q8.72 20.38 5.98 20.38L5.98 20.38Q3.86 20.38 2.59 18.57L2.59 18.57Q1.44 16.92 1.44 14.20L1.44 14.20Q1.44 11.27 2.77 9.60L2.77 9.60Q4.03 8.04 6.02 8.04ZM5.98 9.71L5.98 9.71Q4.69 9.71 3.96 11.06L3.96 11.06Q3.32 12.25 3.32 14.20L3.32 14.20Q3.32 16.01 3.84 17.14L3.84 17.14Q4.57 18.70 6 18.70L6 18.70Q7.31 18.70 8.04 17.36L8.04 17.36Q8.68 16.17 8.68 14.23L8.68 14.23Q8.68 12.20 8.02 11.04L8.02 11.04Q7.30 9.71 5.98 9.71ZM13.76 16.42L13.76 8.50L15.54 8.50L15.54 16.23Q15.54 18.70 17.50 18.70L17.50 18.70Q18.76 18.70 19.72 17.77L19.72 17.77Q20.59 16.93 20.59 15.57L20.59 15.57L20.59 8.50L22.37 8.50L22.37 19.90L21.05 19.90L20.73 18.55Q19.16 20.38 17.10 20.38L17.10 20.38Q15.30 20.38 14.40 19.01L14.40 19.01Q13.76 18 13.76 16.42L13.76 16.42ZM34.22 23.34L32.44 23.34L32.44 18.47Q31.03 20.05 29.30 20.05L29.30 20.05Q27.50 20.05 26.39 18.45L26.39 18.45Q25.20 16.73 25.20 13.93L25.20 13.93Q25.20 11.70 26.06 10.15L26.06 10.15Q27.20 8.04 29.25 8.04L29.25 8.04Q30.96 8.04 32.60 10.01L32.60 10.01L32.89 8.50L34.22 8.50L34.22 23.34ZM29.66 9.74L29.66 9.74Q28.43 9.74 27.74 11.02L27.74 11.02Q27.09 12.13 27.09 13.98L27.09 13.98Q27.09 18.33 29.68 18.33L29.68 18.33Q31.03 18.33 31.86 16.89L31.86 16.89Q32.51 15.74 32.51 13.96L32.51 13.96Q32.51 11.82 31.43 10.61L31.43 10.61Q30.68 9.74 29.66 9.74ZM37.83 4.97L37.83 3.09L46.30 3.09L46.30 4.78L39.66 17.98L46.56 17.98L46.56 19.90L37.51 19.90L37.51 18.02L44.10 4.97L37.83 4.97Z"/></svg>