<svg xmlns="http://www.w3.org/2000/svg" xmlns:xlink="http://www.w3.org/1999/xlink" width="48" height="24"><path fill="black" stroke="black" d="M1.78 8.50L3.11 8.50L3.40 10.01Q5.00 8.04 6.73 8.04L6.73 8.04Q8.48 8.04 9.61 9.60L9.61 9.60Q10.80 11.27 10.80 13.93L10.80 13.93Q10.80 16.42 9.84 18.08L9.84 18.08Q8.71 20.05 6.70 20.05L6.70 20.05Q4.97 20.05 3.56 18.47L3.56 18.47L3.56 23.34L1.78 23.34L1.78 8.50ZM6.32 9.74L6.32 9.74Q5.14 9.74 4.32 10.91L4.32 10.91Q3.49 12.12 3.49 13.96L3.49 13.96Q3.49 15.63 4.07 16.75L4.07 16.75Q4.85 18.33 6.34 18.33L6.34 18.33Q7.52 18.33 8.21 17.20L8.21 17.20Q8.91 15.98 8.91 13.96L8.91 13.96Q8.91 12.11 8.26 10.98L8.26 10.98Q7.55 9.74 6.32 9.74ZM13.44 16.01L15.41 16.01Q15.70 18.62 17.88 18.62L17.88 18.62Q21.12 18.62 21.08 11.74L21.08 11.74Q19.73 13.72 17.70 13.72L17.70 13.72Q15.22 13.72 13.99 11.41L13.99 11.41Q13.30 10.07 13.30 8.30L13.30 8.30Q13.30 6.05 14.52 4.39L14.52 4.39Q15.83 2.61 17.88 2.61L17.88 2.61Q22.83 2.61 22.83 10.97L22.83 10.97Q22.83 20.38 17.91 20.38L17.91 20.38Q15.66 20.38 14.36 18.43L14.36 18.43Q13.69 17.43 13.44 16.01L13.44 16.01ZM17.96 4.27L17.96 4.27Q15.13 4.27 15.13 8.25L15.13 8.25Q15.13 9.73 15.63 10.70L15.63 10.70Q16.38 12.14 17.96 12.14L17.96 12.14Q18.97 12.14 19.76 11.25L19.76 11.25Q20.77 10.10 20.77 8.25L20.77 8.25Q20.77 6.40 19.97 5.32L19.97 5.32Q19.21 4.27 17.96 4.27ZM29.45 18.89L25.42 8.50L27.48 8.50L30.34 16.61L32.86 8.50L34.95 8.50L30.23 21.67Q29.85 22.82 28.90 23.18L28.90 23.18Q28.45 23.36 26.06 23.36L26.06 23.36L26.06 21.62L27.09 21.62Q27.46 21.62 27.62 21.62L27.62 21.62Q28.43 21.62 28.68 20.98L28.68 20.98L29.45 18.89ZM41.45 18.89L37.42 8.50L39.48 8.50L42.34 16.61L44.86 8.50L46.95 8.50L42.23 21.67Q41.85 22.82 40.90 23.18L40.90 23.18Q40.45 23.36 38.06 23.36L38.06 23.36L38.06 21.62L39.09 21.62Q39.46 21.62 39.62 21.62L39.62 21.62Q40.43 21.62 40.68 20.98L40.68 20.98L41.45 18.89Z"/></svg>