<svg xmlns="http://www.w3.org/2000/svg" xmlns:xlink="http://www.w3.org/1999/xlink" width="48" height="24"><path fill="black" stroke="black" d="M1.78 8.50L3.11 8.50L3.40 10.01Q5.00 8.04 6.73 8.04L6.73 8.04Q8.48 8.04 9.61 9.60L9.61 9.60Q10.80 11.27 10.80 13.93L10.80 13.93Q10.80 16.42 9.84 18.08L9.84 18.08Q8.71 20.05 6.70 20.05L6.70 20.05Q4.97 20.05 3.56 18.47L3.56 18.47L3.56 23.34L1.78 23.34L1.78 8.50ZM6.32 9.74L6.32 9.74Q5.14 9.74 4.32 10.91L4.32 10.91Q3.49 12.12 3.49 13.96L3.49 13.96Q3.49 15.63 4.07 16.75L4.07 16.75Q4.85 18.33 6.34 18.33L6.34 18.33Q7.52 18.33 8.21 17.20L8.21 17.20Q8.91 15.98 8.91 13.96L8.91 13.96Q8.91 12.11 8.26 10.98L8.26 10.98Q7.55 9.74 6.32 9.74ZM13.78 19.90L13.78 3.09L15.56 3.09L15.56 9.79Q17.03 8.04 18.73 8.04L18.73 8.04Q20.50 8.04 21.61 9.57L21.61 9.57Q22.78 11.21 22.78 14.09L22.78 14.09Q22.78 16.10 22.16 17.64L22.16 17.64Q21.05 20.38 18.68 20.38L18.68 20.38Q16.72 20.38 15.54 18.41L15.54 18.41L15.08 19.90L13.78 19.90ZM18.29 9.74L18.29 9.74Q16.92 9.74 16.14 11.13L16.14 11.13Q15.49 12.28 15.49 14.09L15.49 14.09Q15.49 16.04 16.18 17.29L16.18 17.29Q16.97 18.68 18.32 18.68L18.32 18.68Q19.50 18.68 20.19 17.47L20.19 17.47Q20.91 16.25 20.91 14.09L20.91 14.09Q20.91 11.96 20.09 10.79L20.09 10.79Q19.41 9.74 18.29 9.74ZM33.64 20.73L32.23 21.74Q31.98 20.77 31.56 19.97L31.56 19.97Q30.77 20.38 29.95 20.38L29.95 20.38Q27.68 20.38 26.43 18.05L26.43 18.05Q25.10 15.66 25.10 11.50L25.10 11.50Q25.10 7.28 26.47 4.88L26.47 4.88Q27.76 2.61 30 2.61L30 2.61Q32.25 2.61 33.55 4.90L33.55 4.90Q34.90 7.32 34.90 11.47L34.90 11.47Q34.90 16.64 32.88 18.98L32.88 18.98Q33.53 20.43 33.64 20.73L33.64 20.73ZM29.20 15.48L30.50 14.59Q31.02 15.29 32.06 17.18L32.06 17.18Q32.88 15.55 32.88 11.52L32.88 11.52Q32.88 4.37 30 4.37L30 4.37Q27.12 4.37 27.12 11.47L27.12 11.47Q27.12 18.68 29.95 18.68L29.95 18.68Q30.41 18.68 30.91 18.50L30.91 18.50Q30.21 16.93 29.20 15.48L29.20 15.48ZM40.17 11.66L40.17 10.13L41.37 10.13Q42.90 10.13 43.48 9.69L43.48 9.69Q44.55 8.86 44.55 7.20L44.55 7.20Q44.55 4.24 41.87 4.24L41.87 4.24Q39.64 4.24 39.14 6.76L39.14 6.76L37.24 6.76Q37.50 5.18 38.34 4.15L38.34 4.15Q39.63 2.61 41.87 2.61L41.87 2.61Q43.75 2.61 44.96 3.69L44.96 3.69Q46.41 4.96 46.41 7.13L46.41 7.13Q46.41 10.04 43.79 10.95L43.79 10.95Q46.95 12.16 46.95 15.39L46.95 15.39Q46.95 17.45 45.77 18.77L45.77 18.77Q44.37 20.38 41.91 20.38L41.91 20.38Q39.60 20.38 38.23 18.80L38.23 18.80Q37.22 17.64 37.01 15.60L37.01 15.60L38.98 15.60Q39.22 18.73 41.91 18.73L41.91 18.73Q43.15 18.73 43.99 18.02L43.99 18.02Q45.05 17.12 45.05 15.39L45.05 15.39Q45.05 11.66 41.37 11.66L41.37 11.66L40.17 11.66Z"/></svg>