<svg xmlns="http://www.w3.org/2000/svg" xmlns:xlink="http://www.w3.org/1999/xlink" width="48" height="24"><path fill="black" stroke="black" d="M1.78 8.50L3.11 8.50L3.40 10.01Q5.00 8.04 6.73 8.04L6.73 8.04Q8.48 8.04 9.61 9.60L9.61 9.60Q10.80 11.27 10.80 13.93L10.80 13.93Q10.80 16.42 9.84 18.08L9.84 18.08Q8.71 20.05 6.70 20.05L6.70 20.05Q4.97 20.05 3.56 18.47L3.56 18.47L3.56 23.34L1.78 23.34L1.78 8.50ZM6.32 9.74L6.32 9.74Q5.14 9.74 4.32 10.91L4.32 10.91Q3.49 12.12 3.49 13.96L3.49 13.96Q3.49 15.63 4.07 16.75L4.07 16.75Q4.85 18.33 6.34 18.33L6.34 18.33Q7.52 18.33 8.21 17.20L8.21 17.20Q8.91 15.98 8.91 13.96L8.91 13.96Q8.91 12.11 8.26 10.98L8.26 10.98Q7.55 9.74 6.32 9.74ZM20.61 16.08L22.56 16.08Q21.62 20.38 18.02 20.38L18.02 20.38Q15.86 20.38 14.59 18.57L14.59 18.57Q13.44 16.92 13.44 14.20L13.44 14.20Q13.44 11.61 14.52 9.96L14.52 9.96Q15.79 8.04 18 8.04L18 8.04Q21.43 8.04 22.37 11.93L22.37 11.93L20.45 11.93Q19.95 9.71 18.02 9.71L18.02 9.71Q16.80 9.71 16.09 10.84L16.09 10.84Q15.32 12.05 15.32 14.20L15.32 14.20Q15.32 15.98 15.84 17.12L15.84 17.12Q16.56 18.70 18.02 18.70L18.02 18.70Q20.16 18.70 20.61 16.08L20.61 16.08ZM25.76 8.50L27.18 8.50L27.45 9.96Q29.25 8.04 31.01 8.04L31.01 8.04Q32.96 8.04 33.87 9.76L33.87 9.76Q34.37 10.73 34.37 12.12L34.37 12.12L34.37 19.90L32.59 19.90L32.59 12.64Q32.59 9.74 30.73 9.74L30.73 9.74Q29.46 9.74 28.52 10.65L28.52 10.65Q27.54 11.64 27.54 12.91L27.54 12.91L27.54 19.90L25.76 19.90L25.76 8.50ZM40.66 8.50L40.66 5.40L42.49 5.40L42.49 8.50L45.32 8.50L45.32 10.22L42.49 10.22L42.49 17.48Q42.49 18.30 43.41 18.30L43.41 18.30Q44.52 18.30 45.48 18.12L45.48 18.12L45.48 19.91Q44.06 20.11 43.04 20.11L43.04 20.11Q40.66 20.11 40.66 17.73L40.66 17.73L40.66 10.22L38.40 10.22L38.40 8.50L40.66 8.50Z"/></svg>