<svg xmlns="http://www.w3.org/2000/svg" xmlns:xlink="http://www.w3.org/1999/xlink" width="48" height="24"><path fill="black" stroke="black" d="M1.68 19.90L1.68 3.09L5.88 3.09Q7.96 3.09 9.25 4.05L9.25 4.05Q10.95 5.37 10.95 7.83L10.95 7.83Q10.95 10.79 8.54 12.08L8.54 12.08Q7.41 12.70 5.93 12.70L5.93 12.70L3.60 12.70L3.60 19.90L1.68 19.90ZM5.73 4.92L3.60 4.92L3.60 10.88L5.73 10.88Q8.98 10.88 8.98 7.85L8.98 7.85Q8.98 6.08 7.54 5.33L7.54 5.33Q6.76 4.92 5.73 4.92L5.73 4.92ZM20.44 9.79L20.44 3.09L22.22 3.09L22.22 19.90L20.92 19.90L20.46 18.41Q19.24 20.38 17.27 20.38L17.27 20.38Q15.46 20.38 14.34 18.62L14.34 18.62Q13.22 16.91 13.22 14.06L13.22 14.06Q13.22 11.73 14.06 10.13L14.06 10.13Q15.18 8.04 17.25 8.04L17.25 8.04Q18.97 8.04 20.44 9.79L20.44 9.79ZM17.68 9.74L17.68 9.74Q16.44 9.74 15.71 11.09L15.71 11.09Q15.09 12.30 15.09 14.09L15.09 14.09Q15.09 16.02 15.67 17.21L15.67 17.21Q16.35 18.68 17.68 18.68L17.68 18.68Q18.89 18.68 19.69 17.47L19.69 17.47Q20.51 16.27 20.51 14.09L20.51 14.09Q20.51 12.32 19.89 11.18L19.89 11.18Q19.13 9.74 17.68 9.74ZM25.44 16.01L27.41 16.01Q27.70 18.62 29.88 18.62L29.88 18.62Q33.12 18.62 33.08 11.74L33.08 11.74Q31.73 13.72 29.70 13.72L29.70 13.72Q27.22 13.72 25.99 11.41L25.99 11.41Q25.30 10.07 25.30 8.30L25.30 8.30Q25.30 6.05 26.52 4.39L26.52 4.39Q27.83 2.61 29.88 2.61L29.88 2.61Q34.83 2.61 34.83 10.97L34.83 10.97Q34.83 20.38 29.91 20.38L29.91 20.38Q27.66 20.38 26.36 18.43L26.36 18.43Q25.69 17.43 25.44 16.01L25.44 16.01ZM29.96 4.27L29.96 4.27Q27.13 4.27 27.13 8.25L27.13 8.25Q27.13 9.73 27.63 10.70L27.63 10.70Q28.38 12.14 29.96 12.14L29.96 12.14Q30.97 12.14 31.76 11.25L31.76 11.25Q32.77 10.10 32.77 8.25L32.77 8.25Q32.77 6.40 31.97 5.32L31.97 5.32Q31.21 4.27 29.96 4.27ZM37.92 8.50L40.83 8.50L40.83 5.52Q40.83 3.09 43.30 3.09L43.30 3.09L45.89 3.09L45.89 4.77L43.64 4.77Q42.66 4.77 42.66 5.66L42.66 5.66L42.66 8.50L45.89 8.50L45.89 10.17L42.66 10.17L42.66 19.90L40.83 19.90L40.83 10.17L37.92 10.17L37.92 8.50Z"/></svg>