<svg xmlns="http://www.w3.org/2000/svg" xmlns:xlink="http://www.w3.org/1999/xlink" width="48" height="24"><path fill="black" stroke="black" d="M1.78 8.50L3.11 8.50L3.40 10.01Q5.00 8.04 6.73 8.04L6.73 8.04Q8.48 8.04 9.61 9.60L9.61 9.60Q10.80 11.27 10.80 13.93L10.80 13.93Q10.80 16.42 9.84 18.08L9.84 18.08Q8.71 20.05 6.70 20.05L6.70 20.05Q4.97 20.05 3.56 18.47L3.56 18.47L3.56 23.34L1.78 23.34L1.78 8.50ZM6.32 9.74L6.32 9.74Q5.14 9.74 4.32 10.91L4.32 10.91Q3.49 12.12 3.49 13.96L3.49 13.96Q3.49 15.63 4.07 16.75L4.07 16.75Q4.85 18.33 6.34 18.33L6.34 18.33Q7.52 18.33 8.21 17.20L8.21 17.20Q8.91 15.98 8.91 13.96L8.91 13.96Q8.91 12.11 8.26 10.98L8.26 10.98Q7.55 9.74 6.32 9.74ZM13.92 8.50L16.83 8.50L16.83 5.52Q16.83 3.09 19.30 3.09L19.30 3.09L21.89 3.09L21.89 4.77L19.64 4.77Q18.66 4.77 18.66 5.66L18.66 5.66L18.66 8.50L21.89 8.50L21.89 10.17L18.66 10.17L18.66 19.90L16.83 19.90L16.83 10.17L13.92 10.17L13.92 8.50ZM25.46 19.90L25.46 3.09L27.39 3.09L27.39 10.24L32.61 10.24L32.61 3.09L34.54 3.09L34.54 19.90L32.61 19.90L32.61 12.07L27.39 12.07L27.39 19.90L25.46 19.90ZM37.51 19.90L37.51 3.09L39.39 3.09L39.39 11.11L44.26 3.09L46.58 3.09L42.57 9.57L47.19 19.90L44.86 19.90L41.33 11.16L39.39 14.09L39.39 19.90L37.51 19.90Z"/></svg>