<svg xmlns="http://www.w3.org/2000/svg" xmlns:xlink="http://www.w3.org/1999/xlink" width="48" height="24"><path fill="black" stroke="black" d="M1.78 8.50L3.11 8.50L3.40 10.01Q5.00 8.04 6.73 8.04L6.73 8.04Q8.48 8.04 9.61 9.60L9.61 9.60Q10.80 11.27 10.80 13.93L10.80 13.93Q10.80 16.42 9.84 18.08L9.84 18.08Q8.71 20.05 6.70 20.05L6.70 20.05Q4.97 20.05 3.56 18.47L3.56 18.47L3.56 23.34L1.78 23.34L1.78 8.50ZM6.32 9.74L6.32 9.74Q5.14 9.74 4.32 10.91L4.32 10.91Q3.49 12.12 3.49 13.96L3.49 13.96Q3.49 15.63 4.07 16.75L4.07 16.75Q4.85 18.33 6.34 18.33L6.34 18.33Q7.52 18.33 8.21 17.20L8.21 17.20Q8.91 15.98 8.91 13.96L8.91 13.96Q8.91 12.11 8.26 10.98L8.26 10.98Q7.55 9.74 6.32 9.74ZM13.76 16.42L13.76 8.50L15.54 8.50L15.54 16.23Q15.54 18.70 17.50 18.70L17.50 18.70Q18.76 18.70 19.72 17.77L19.72 17.77Q20.59 16.93 20.59 15.57L20.59 15.57L20.59 8.50L22.37 8.50L22.37 19.90L21.05 19.90L20.73 18.55Q19.16 20.38 17.10 20.38L17.10 20.38Q15.30 20.38 14.40 19.01L14.40 19.01Q13.76 18 13.76 16.42L13.76 16.42ZM28.99 13.61L25.77 8.50L27.96 8.50L30 12.23L32.04 8.50L34.22 8.50L31.01 13.61L34.97 19.90L32.64 19.90L30 15.16L27.36 19.90L25.03 19.90L28.99 13.61ZM37.76 19.90L37.76 3.09L39.54 3.09L39.54 9.79Q41.29 8.04 43.01 8.04L43.01 8.04Q44.96 8.04 45.87 9.76L45.87 9.76Q46.37 10.73 46.37 12.12L46.37 12.12L46.37 19.90L44.59 19.90L44.59 12.64Q44.59 9.74 42.73 9.74L42.73 9.74Q41.47 9.74 40.52 10.65L40.52 10.65Q39.54 11.64 39.54 12.90L39.54 12.90L39.54 19.90L37.76 19.90Z"/></svg>