<svg xmlns="http://www.w3.org/2000/svg" xmlns:xlink="http://www.w3.org/1999/xlink" width="48" height="24"><path fill="black" stroke="black" d="M1.68 19.90L1.68 3.09L5.88 3.09Q7.96 3.09 9.25 4.05L9.25 4.05Q10.95 5.37 10.95 7.83L10.95 7.83Q10.95 10.79 8.54 12.08L8.54 12.08Q7.41 12.70 5.93 12.70L5.93 12.70L3.60 12.70L3.60 19.90L1.68 19.90ZM5.73 4.92L3.60 4.92L3.60 10.88L5.73 10.88Q8.98 10.88 8.98 7.85L8.98 7.85Q8.98 6.08 7.54 5.33L7.54 5.33Q6.76 4.92 5.73 4.92L5.73 4.92ZM14.41 19.90L12.71 8.50L14.39 8.50L15.40 17.23L17.09 8.50L18.90 8.50L20.59 17.23L21.60 8.50L23.27 8.50L21.57 19.90L19.72 19.90L18 11.02L16.27 19.90L14.41 19.90ZM25.76 16.42L25.76 8.50L27.54 8.50L27.54 16.23Q27.54 18.70 29.50 18.70L29.50 18.70Q30.76 18.70 31.72 17.77L31.72 17.77Q32.59 16.93 32.59 15.57L32.59 15.57L32.59 8.50L34.37 8.50L34.37 19.90L33.05 19.90L32.73 18.55Q31.16 20.38 29.10 20.38L29.10 20.38Q27.30 20.38 26.40 19.01L26.40 19.01Q25.76 18 25.76 16.42L25.76 16.42ZM46.22 23.34L44.44 23.34L44.44 18.47Q43.03 20.05 41.30 20.05L41.30 20.05Q39.50 20.05 38.39 18.45L38.39 18.45Q37.20 16.73 37.20 13.93L37.20 13.93Q37.20 11.70 38.06 10.15L38.06 10.15Q39.20 8.04 41.25 8.04L41.25 8.04Q42.96 8.04 44.60 10.01L44.60 10.01L44.89 8.50L46.22 8.50L46.22 23.34ZM41.66 9.74L41.66 9.74Q40.43 9.74 39.74 11.02L39.74 11.02Q39.09 12.13 39.09 13.98L39.09 13.98Q39.09 18.33 41.68 18.33L41.68 18.33Q43.03 18.33 43.86 16.89L43.86 16.89Q44.51 15.74 44.51 13.96L44.51 13.96Q44.51 11.82 43.43 10.61L43.43 10.61Q42.68 9.74 41.66 9.74Z"/></svg>