<svg xmlns="http://www.w3.org/2000/svg" xmlns:xlink="http://www.w3.org/1999/xlink" width="48" height="24"><path fill="black" stroke="black" d="M10.22 23.34L8.44 23.34L8.44 18.47Q7.03 20.05 5.30 20.05L5.30 20.05Q3.50 20.05 2.39 18.45L2.39 18.45Q1.20 16.73 1.20 13.93L1.20 13.93Q1.20 11.70 2.06 10.15L2.06 10.15Q3.20 8.04 5.25 8.04L5.25 8.04Q6.96 8.04 8.60 10.01L8.60 10.01L8.89 8.50L10.22 8.50L10.22 23.34ZM5.66 9.74L5.66 9.74Q4.43 9.74 3.74 11.02L3.74 11.02Q3.09 12.13 3.09 13.98L3.09 13.98Q3.09 18.33 5.68 18.33L5.68 18.33Q7.03 18.33 7.86 16.89L7.86 16.89Q8.51 15.74 8.51 13.96L8.51 13.96Q8.51 11.82 7.43 10.61L7.43 10.61Q6.68 9.74 5.66 9.74ZM13.63 19.90L13.63 3.09L17.68 3.09Q19.57 3.09 20.81 4.05L20.81 4.05Q22.28 5.13 22.28 7.22L22.28 7.22Q22.28 9.90 19.56 11.05L19.56 11.05Q22.88 12.09 22.88 15.35L22.88 15.35Q22.88 17.47 21.36 18.76L21.36 18.76Q20.05 19.90 18.07 19.90L18.07 19.90L13.63 19.90ZM17.66 4.88L15.50 4.88L15.50 10.29L17.59 10.29Q18.57 10.29 19.21 9.83L19.21 9.83Q20.33 9.07 20.33 7.46L20.33 7.46Q20.33 4.88 17.66 4.88L17.66 4.88ZM17.66 11.96L15.50 11.96L15.50 18.12L17.77 18.12Q20.88 18.12 20.88 15.09L20.88 15.09Q20.88 11.96 17.66 11.96L17.66 11.96ZM29.11 19.90L24.64 19.90L24.64 18.12L26.02 18.12L26.02 4.88L24.64 4.88L24.64 3.09L28.99 3.09Q31.85 3.09 33.39 5.09L33.39 5.09Q34.90 7.04 34.90 11.23L34.90 11.23Q34.90 15.56 33.50 17.59L33.50 17.59Q31.92 19.90 29.11 19.90L29.11 19.90ZM28.90 4.88L27.94 4.88L27.94 18.12L29.04 18.12Q32.93 18.12 32.93 11.23L32.93 11.23Q32.93 7.80 31.82 6.26L31.82 6.26Q30.83 4.88 28.90 4.88L28.90 4.88ZM39.59 11.82L37.66 11.82Q38.13 8.03 42.01 8.03L42.01 8.03Q45.91 8.03 45.91 12.21L45.91 12.21L45.91 17.94Q45.91 18.62 46.54 18.62L46.54 18.62Q46.75 18.62 47.11 18.54L47.11 18.54L47.11 20.23Q46.63 20.34 45.96 20.34L45.96 20.34Q44.38 20.34 44.17 18.57L44.17 18.57Q42.54 20.34 40.59 20.34L40.59 20.34Q39.32 20.34 38.50 19.68L38.50 19.68Q37.42 18.81 37.42 17.11L37.42 17.11Q37.42 13.16 44.19 12.69L44.19 12.69L44.19 12.21Q44.19 9.63 42.01 9.63L42.01 9.63Q39.76 9.63 39.59 11.82L39.59 11.82ZM44.19 15.79L44.19 14.20Q39.18 14.45 39.18 17.02L39.18 17.02Q39.18 18.74 40.88 18.74L40.88 18.74Q42.04 18.74 43.14 17.85L43.14 17.85Q44.19 17.02 44.19 15.79L44.19 15.79Z"/></svg>