<svg xmlns="http://www.w3.org/2000/svg" xmlns:xlink="http://www.w3.org/1999/xlink" width="48" height="24"><path fill="black" stroke="black" d="M9.64 20.73L8.23 21.74Q7.98 20.77 7.56 19.97L7.56 19.97Q6.77 20.38 5.95 20.38L5.95 20.38Q3.68 20.38 2.43 18.05L2.43 18.05Q1.10 15.66 1.10 11.50L1.10 11.50Q1.10 7.28 2.47 4.88L2.47 4.88Q3.76 2.61 6 2.61L6 2.61Q8.25 2.61 9.55 4.90L9.55 4.90Q10.90 7.32 10.90 11.47L10.90 11.47Q10.90 16.64 8.88 18.98L8.88 18.98Q9.53 20.43 9.64 20.73L9.64 20.73ZM5.20 15.48L6.50 14.59Q7.02 15.29 8.06 17.18L8.06 17.18Q8.88 15.55 8.88 11.52L8.88 11.52Q8.88 4.37 6 4.37L6 4.37Q3.12 4.37 3.12 11.47L3.12 11.47Q3.12 18.68 5.95 18.68L5.95 18.68Q6.41 18.68 6.91 18.50L6.91 18.50Q6.21 16.93 5.20 15.48L5.20 15.48ZM13.63 19.90L13.63 3.09L17.68 3.09Q19.57 3.09 20.81 4.05L20.81 4.05Q22.28 5.13 22.28 7.22L22.28 7.22Q22.28 9.90 19.56 11.05L19.56 11.05Q22.88 12.09 22.88 15.35L22.88 15.35Q22.88 17.47 21.36 18.76L21.36 18.76Q20.05 19.90 18.07 19.90L18.07 19.90L13.63 19.90ZM17.66 4.88L15.50 4.88L15.50 10.29L17.59 10.29Q18.57 10.29 19.21 9.83L19.21 9.83Q20.33 9.07 20.33 7.46L20.33 7.46Q20.33 4.88 17.66 4.88L17.66 4.88ZM17.66 11.96L15.50 11.96L15.50 18.12L17.77 18.12Q20.88 18.12 20.88 15.09L20.88 15.09Q20.88 11.96 17.66 11.96L17.66 11.96ZM25.44 16.36L27.34 16.36Q27.66 18.76 30.14 18.76L30.14 18.76Q32.64 18.76 32.64 17.00L32.64 17.00Q32.64 16.16 32.06 15.69L32.06 15.69Q31.45 15.19 29.88 14.64L29.88 14.64L29.54 14.51Q27.81 13.91 27.02 13.31L27.02 13.31Q25.90 12.43 25.90 11.19L25.90 11.19Q25.90 9.70 27.20 8.80L27.20 8.80Q28.32 8.03 29.93 8.03L29.93 8.03Q33.55 8.03 34.13 11.32L34.13 11.32L32.26 11.32Q31.97 9.56 29.91 9.56L29.91 9.56Q27.70 9.56 27.70 11.12L27.70 11.12Q27.70 12.14 30.66 13.18L30.66 13.18Q32.32 13.77 33.05 14.30L33.05 14.30Q34.46 15.30 34.46 16.96L34.46 16.96Q34.46 18.56 33.20 19.50L33.20 19.50Q32.00 20.37 30.09 20.37L30.09 20.37Q25.91 20.37 25.44 16.36L25.44 16.36ZM41.02 19.90L37.22 8.50L39.23 8.50L42 17.71L44.75 8.50L46.77 8.50L42.98 19.90L41.02 19.90Z"/></svg>