<svg xmlns="http://www.w3.org/2000/svg" xmlns:xlink="http://www.w3.org/1999/xlink" width="48" height="24"><path fill="black" stroke="black" d="M10.22 23.34L8.44 23.34L8.44 18.47Q7.03 20.05 5.30 20.05L5.30 20.05Q3.50 20.05 2.39 18.45L2.39 18.45Q1.20 16.73 1.20 13.93L1.20 13.93Q1.20 11.70 2.06 10.15L2.06 10.15Q3.20 8.04 5.25 8.04L5.25 8.04Q6.96 8.04 8.60 10.01L8.60 10.01L8.89 8.50L10.22 8.50L10.22 23.34ZM5.66 9.74L5.66 9.74Q4.43 9.74 3.74 11.02L3.74 11.02Q3.09 12.13 3.09 13.98L3.09 13.98Q3.09 18.33 5.68 18.33L5.68 18.33Q7.03 18.33 7.86 16.89L7.86 16.89Q8.51 15.74 8.51 13.96L8.51 13.96Q8.51 11.82 7.43 10.61L7.43 10.61Q6.68 9.74 5.66 9.74ZM17.11 19.90L12.64 19.90L12.64 18.12L14.02 18.12L14.02 4.88L12.64 4.88L12.64 3.09L16.99 3.09Q19.85 3.09 21.39 5.09L21.39 5.09Q22.90 7.04 22.90 11.23L22.90 11.23Q22.90 15.56 21.50 17.59L21.50 17.59Q19.92 19.90 17.11 19.90L17.11 19.90ZM16.90 4.88L15.94 4.88L15.94 18.12L17.04 18.12Q20.93 18.12 20.93 11.23L20.93 11.23Q20.93 7.80 19.82 6.26L19.82 6.26Q18.83 4.88 16.90 4.88L16.90 4.88ZM29.02 19.90L25.22 8.50L27.23 8.50L30 17.71L32.75 8.50L34.77 8.50L30.98 19.90L29.02 19.90ZM37.68 19.90L37.68 3.09L46.10 3.09L46.10 4.92L39.60 4.92L39.60 10.27L45.23 10.27L45.23 12.05L39.60 12.05L39.60 18.07L46.58 18.07L46.58 19.90L37.68 19.90Z"/></svg>