<svg xmlns="http://www.w3.org/2000/svg" xmlns:xlink="http://www.w3.org/1999/xlink" width="48" height="24"><path fill="black" stroke="black" d="M9.64 20.73L8.23 21.74Q7.98 20.77 7.56 19.97L7.56 19.97Q6.77 20.38 5.95 20.38L5.95 20.38Q3.68 20.38 2.43 18.05L2.43 18.05Q1.10 15.66 1.10 11.50L1.10 11.50Q1.10 7.28 2.47 4.88L2.47 4.88Q3.76 2.61 6 2.61L6 2.61Q8.25 2.61 9.55 4.90L9.55 4.90Q10.90 7.32 10.90 11.47L10.90 11.47Q10.90 16.64 8.88 18.98L8.88 18.98Q9.53 20.43 9.64 20.73L9.64 20.73ZM5.20 15.48L6.50 14.59Q7.02 15.29 8.06 17.18L8.06 17.18Q8.88 15.55 8.88 11.52L8.88 11.52Q8.88 4.37 6 4.37L6 4.37Q3.12 4.37 3.12 11.47L3.12 11.47Q3.12 18.68 5.95 18.68L5.95 18.68Q6.41 18.68 6.91 18.50L6.91 18.50Q6.21 16.93 5.20 15.48L5.20 15.48ZM18.94 3.09L18.94 17.27Q18.94 18.30 19.92 18.30L19.92 18.30Q20.73 18.30 21.69 18.12L21.69 18.12L21.69 19.91Q20.27 20.11 19.61 20.11L19.61 20.11Q17.06 20.11 17.06 17.61L17.06 17.61L17.06 3.09L18.94 3.09ZM29.02 19.90L25.22 8.50L27.23 8.50L30 17.71L32.75 8.50L34.77 8.50L30.98 19.90L29.02 19.90ZM46.88 18.12L46.88 19.90L36.94 19.90Q37.65 15.29 41.73 11.92L41.73 11.92Q43.36 10.59 43.93 9.74L43.93 9.74Q44.68 8.67 44.68 7.22L44.68 7.22Q44.68 6.04 44.16 5.30L44.16 5.30Q43.48 4.27 42.12 4.27L42.12 4.27Q39.35 4.27 39.09 8.34L39.09 8.34L37.21 8.34Q37.35 5.91 38.36 4.51L38.36 4.51Q39.68 2.64 42.16 2.64L42.16 2.64Q43.90 2.64 45.09 3.64L45.09 3.64Q46.61 4.95 46.61 7.20L46.61 7.20Q46.61 10.34 43.05 13.03L43.05 13.03Q40.02 15.34 39.41 18.12L39.41 18.12L46.88 18.12Z"/></svg>