<svg xmlns="http://www.w3.org/2000/svg" xmlns:xlink="http://www.w3.org/1999/xlink" width="48" height="24"><path fill="black" stroke="black" d="M10.22 23.34L8.44 23.34L8.44 18.47Q7.03 20.05 5.30 20.05L5.30 20.05Q3.50 20.05 2.39 18.45L2.39 18.45Q1.20 16.73 1.20 13.93L1.20 13.93Q1.20 11.70 2.06 10.15L2.06 10.15Q3.20 8.04 5.25 8.04L5.25 8.04Q6.96 8.04 8.60 10.01L8.60 10.01L8.89 8.50L10.22 8.50L10.22 23.34ZM5.66 9.74L5.66 9.74Q4.43 9.74 3.74 11.02L3.74 11.02Q3.09 12.13 3.09 13.98L3.09 13.98Q3.09 18.33 5.68 18.33L5.68 18.33Q7.03 18.33 7.86 16.89L7.86 16.89Q8.51 15.74 8.51 13.96L8.51 13.96Q8.51 11.82 7.43 10.61L7.43 10.61Q6.68 9.74 5.66 9.74ZM13.68 19.90L13.68 3.09L17.88 3.09Q19.96 3.09 21.25 4.05L21.25 4.05Q22.95 5.37 22.95 7.83L22.95 7.83Q22.95 10.79 20.54 12.08L20.54 12.08Q19.41 12.70 17.93 12.70L17.93 12.70L15.60 12.70L15.60 19.90L13.68 19.90ZM17.73 4.92L15.60 4.92L15.60 10.88L17.73 10.88Q20.98 10.88 20.98 7.85L20.98 7.85Q20.98 6.08 19.54 5.33L19.54 5.33Q18.76 4.92 17.73 4.92L17.73 4.92ZM25.44 16.01L27.41 16.01Q27.70 18.62 29.88 18.62L29.88 18.62Q33.12 18.62 33.08 11.74L33.08 11.74Q31.73 13.72 29.70 13.72L29.70 13.72Q27.22 13.72 25.99 11.41L25.99 11.41Q25.30 10.07 25.30 8.30L25.30 8.30Q25.30 6.05 26.52 4.39L26.52 4.39Q27.83 2.61 29.88 2.61L29.88 2.61Q34.83 2.61 34.83 10.97L34.83 10.97Q34.83 20.38 29.91 20.38L29.91 20.38Q27.66 20.38 26.36 18.43L26.36 18.43Q25.69 17.43 25.44 16.01L25.44 16.01ZM29.96 4.27L29.96 4.27Q27.13 4.27 27.13 8.25L27.13 8.25Q27.13 9.73 27.63 10.70L27.63 10.70Q28.38 12.14 29.96 12.14L29.96 12.14Q30.97 12.14 31.76 11.25L31.76 11.25Q32.77 10.10 32.77 8.25L32.77 8.25Q32.77 6.40 31.97 5.32L31.97 5.32Q31.21 4.27 29.96 4.27ZM46.68 6.83L44.71 6.83Q44.34 4.29 42.42 4.29L42.42 4.29Q40.76 4.29 39.86 6.30L39.86 6.30Q39.01 8.19 38.98 11.41L38.98 11.41Q40.35 9.42 42.47 9.42L42.47 9.42Q44.23 9.42 45.45 10.72L45.45 10.72Q46.89 12.23 46.89 14.71L46.89 14.71Q46.89 16.77 45.90 18.30L45.90 18.30Q44.57 20.37 42.14 20.37L42.14 20.37Q39.94 20.37 38.61 18.35L38.61 18.35Q37.20 16.14 37.20 12.21L37.20 12.21Q37.20 8.04 38.44 5.47L38.44 5.47Q39.86 2.61 42.40 2.61L42.40 2.61Q45.88 2.61 46.68 6.83L46.68 6.83ZM42.16 10.98L42.16 10.98Q40.77 10.98 39.93 12.26L39.93 12.26Q39.28 13.27 39.28 14.78L39.28 14.78Q39.28 16.14 39.74 17.09L39.74 17.09Q40.54 18.71 42.19 18.71L42.19 18.71Q43.51 18.71 44.32 17.52L44.32 17.52Q45.04 16.46 45.04 14.75L45.04 14.75Q45.04 13.20 44.41 12.21L44.41 12.21Q43.65 10.98 42.16 10.98Z"/></svg>