<svg xmlns="http://www.w3.org/2000/svg" xmlns:xlink="http://www.w3.org/1999/xlink" width="48" height="24"><path fill="black" stroke="black" d="M9.64 20.73L8.23 21.74Q7.98 20.77 7.56 19.97L7.56 19.97Q6.77 20.38 5.95 20.38L5.95 20.38Q3.68 20.38 2.43 18.05L2.43 18.05Q1.10 15.66 1.10 11.50L1.10 11.50Q1.10 7.28 2.47 4.88L2.47 4.88Q3.76 2.61 6 2.61L6 2.61Q8.25 2.61 9.55 4.90L9.55 4.90Q10.90 7.32 10.90 11.47L10.90 11.47Q10.90 16.64 8.88 18.98L8.88 18.98Q9.53 20.43 9.64 20.73L9.64 20.73ZM5.20 15.48L6.50 14.59Q7.02 15.29 8.06 17.18L8.06 17.18Q8.88 15.55 8.88 11.52L8.88 11.52Q8.88 4.37 6 4.37L6 4.37Q3.12 4.37 3.12 11.47L3.12 11.47Q3.12 18.68 5.95 18.68L5.95 18.68Q6.41 18.68 6.91 18.50L6.91 18.50Q6.21 16.93 5.20 15.48L5.20 15.48ZM13.68 19.90L13.68 3.09L17.88 3.09Q19.96 3.09 21.25 4.05L21.25 4.05Q22.95 5.37 22.95 7.83L22.95 7.83Q22.95 10.79 20.54 12.08L20.54 12.08Q19.41 12.70 17.93 12.70L17.93 12.70L15.60 12.70L15.60 19.90L13.68 19.90ZM17.73 4.92L15.60 4.92L15.60 10.88L17.73 10.88Q20.98 10.88 20.98 7.85L20.98 7.85Q20.98 6.08 19.54 5.33L19.54 5.33Q18.76 4.92 17.73 4.92L17.73 4.92ZM25.76 8.50L27.18 8.50L27.45 9.96Q29.25 8.04 31.01 8.04L31.01 8.04Q32.96 8.04 33.87 9.76L33.87 9.76Q34.37 10.73 34.37 12.12L34.37 12.12L34.37 19.90L32.59 19.90L32.59 12.64Q32.59 9.74 30.73 9.74L30.73 9.74Q29.46 9.74 28.52 10.65L28.52 10.65Q27.54 11.64 27.54 12.91L27.54 12.91L27.54 19.90L25.76 19.90L25.76 8.50ZM42.02 8.04L42.02 8.04Q44.23 8.04 45.48 9.98L45.48 9.98Q46.56 11.60 46.56 14.20L46.56 14.20Q46.56 16.16 45.91 17.64L45.91 17.64Q44.72 20.38 41.98 20.38L41.98 20.38Q39.86 20.38 38.59 18.57L38.59 18.57Q37.44 16.92 37.44 14.20L37.44 14.20Q37.44 11.27 38.77 9.60L38.77 9.60Q40.03 8.04 42.02 8.04ZM41.98 9.71L41.98 9.71Q40.69 9.71 39.96 11.06L39.96 11.06Q39.32 12.25 39.32 14.20L39.32 14.20Q39.32 16.01 39.84 17.14L39.84 17.14Q40.57 18.70 42 18.70L42 18.70Q43.31 18.70 44.04 17.36L44.04 17.36Q44.68 16.17 44.68 14.23L44.68 14.23Q44.68 12.20 44.02 11.04L44.02 11.04Q43.30 9.71 41.98 9.71Z"/></svg>