<svg xmlns="http://www.w3.org/2000/svg" xmlns:xlink="http://www.w3.org/1999/xlink" width="48" height="24"><path fill="black" stroke="black" d="M10.22 23.34L8.44 23.34L8.44 18.47Q7.03 20.05 5.30 20.05L5.30 20.05Q3.50 20.05 2.39 18.45L2.39 18.45Q1.20 16.73 1.20 13.93L1.20 13.93Q1.20 11.70 2.06 10.15L2.06 10.15Q3.20 8.04 5.25 8.04L5.25 8.04Q6.96 8.04 8.60 10.01L8.60 10.01L8.89 8.50L10.22 8.50L10.22 23.34ZM5.66 9.74L5.66 9.74Q4.43 9.74 3.74 11.02L3.74 11.02Q3.09 12.13 3.09 13.98L3.09 13.98Q3.09 18.33 5.68 18.33L5.68 18.33Q7.03 18.33 7.86 16.89L7.86 16.89Q8.51 15.74 8.51 13.96L8.51 13.96Q8.51 11.82 7.43 10.61L7.43 10.61Q6.68 9.74 5.66 9.74ZM13.76 16.42L13.76 8.50L15.54 8.50L15.54 16.23Q15.54 18.70 17.50 18.70L17.50 18.70Q18.76 18.70 19.72 17.77L19.72 17.77Q20.59 16.93 20.59 15.57L20.59 15.57L20.59 8.50L22.37 8.50L22.37 19.90L21.05 19.90L20.73 18.55Q19.16 20.38 17.10 20.38L17.10 20.38Q15.30 20.38 14.40 19.01L14.40 19.01Q13.76 18 13.76 16.42L13.76 16.42ZM30 2.61L30 2.61Q34.66 2.61 34.66 11.50L34.66 11.50Q34.66 20.38 30 20.38L30 20.38Q25.35 20.38 25.35 11.50L25.35 11.50Q25.35 2.61 30 2.61ZM27.66 15.67L27.66 15.67L31.95 5.88Q31.27 4.27 29.98 4.27L29.98 4.27Q27.32 4.27 27.32 11.50L27.32 11.50Q27.32 13.96 27.66 15.67ZM32.36 7.34L28.05 17.09Q28.71 18.73 30 18.73L30 18.73Q32.70 18.73 32.70 11.47L32.70 11.47Q32.70 9.07 32.36 7.34L32.36 7.34ZM40.99 13.61L37.77 8.50L39.96 8.50L42 12.23L44.04 8.50L46.22 8.50L43.01 13.61L46.97 19.90L44.64 19.90L42 15.16L39.36 19.90L37.03 19.90L40.99 13.61Z"/></svg>