<svg xmlns="http://www.w3.org/2000/svg" xmlns:xlink="http://www.w3.org/1999/xlink" width="48" height="24"><path fill="black" stroke="black" d="M10.22 23.34L8.44 23.34L8.44 18.47Q7.03 20.05 5.30 20.05L5.30 20.05Q3.50 20.05 2.39 18.45L2.39 18.45Q1.20 16.73 1.20 13.93L1.20 13.93Q1.20 11.70 2.06 10.15L2.06 10.15Q3.20 8.04 5.25 8.04L5.25 8.04Q6.96 8.04 8.60 10.01L8.60 10.01L8.89 8.50L10.22 8.50L10.22 23.34ZM5.66 9.74L5.66 9.74Q4.43 9.74 3.74 11.02L3.74 11.02Q3.09 12.13 3.09 13.98L3.09 13.98Q3.09 18.33 5.68 18.33L5.68 18.33Q7.03 18.33 7.86 16.89L7.86 16.89Q8.51 15.74 8.51 13.96L8.51 13.96Q8.51 11.82 7.43 10.61L7.43 10.61Q6.68 9.74 5.66 9.74ZM16.85 10.97L13.44 3.09L15.61 3.09L18 9L20.40 3.09L22.56 3.09L19.16 10.97L23.17 19.90L20.91 19.90L18 12.88L15.11 19.90L12.84 19.90L16.85 10.97ZM32.44 9.79L32.44 3.09L34.22 3.09L34.22 19.90L32.92 19.90L32.46 18.41Q31.24 20.38 29.27 20.38L29.27 20.38Q27.46 20.38 26.34 18.62L26.34 18.62Q25.22 16.91 25.22 14.06L25.22 14.06Q25.22 11.73 26.06 10.13L26.06 10.13Q27.18 8.04 29.25 8.04L29.25 8.04Q30.97 8.04 32.44 9.79L32.44 9.79ZM29.68 9.74L29.68 9.74Q28.44 9.74 27.71 11.09L27.71 11.09Q27.09 12.30 27.09 14.09L27.09 14.09Q27.09 16.02 27.67 17.21L27.67 17.21Q28.35 18.68 29.68 18.68L29.68 18.68Q30.89 18.68 31.69 17.47L31.69 17.47Q32.51 16.27 32.51 14.09L32.51 14.09Q32.51 12.32 31.89 11.18L31.89 11.18Q31.13 9.74 29.68 9.74ZM37.68 19.90L37.68 3.09L39.69 3.09L39.69 17.98L46.77 17.98L46.77 19.90L37.68 19.90Z"/></svg>