<svg xmlns="http://www.w3.org/2000/svg" xmlns:xlink="http://www.w3.org/1999/xlink" width="48" height="24"><path fill="black" stroke="black" d="M1.68 19.90L1.68 3.09L5.84 3.09Q7.86 3.09 9.14 4.01L9.14 4.01Q10.77 5.20 10.77 7.46L10.77 7.46Q10.77 10.77 7.63 11.74L7.63 11.74L11.23 19.90L9.02 19.90L5.75 12.06L3.55 12.06L3.55 19.90L1.68 19.90ZM5.54 4.88L3.55 4.88L3.55 10.34L5.57 10.34Q6.62 10.34 7.41 9.90L7.41 9.90Q8.85 9.15 8.85 7.51L8.85 7.51Q8.85 4.88 5.54 4.88L5.54 4.88ZM22.68 6.83L20.71 6.83Q20.34 4.29 18.42 4.29L18.42 4.29Q16.76 4.29 15.86 6.30L15.86 6.30Q15.01 8.19 14.98 11.41L14.98 11.41Q16.35 9.42 18.47 9.42L18.47 9.42Q20.23 9.42 21.45 10.72L21.45 10.72Q22.89 12.23 22.89 14.71L22.89 14.71Q22.89 16.77 21.90 18.30L21.90 18.30Q20.57 20.37 18.14 20.37L18.14 20.37Q15.94 20.37 14.61 18.35L14.61 18.35Q13.20 16.14 13.20 12.21L13.20 12.21Q13.20 8.04 14.44 5.47L14.44 5.47Q15.86 2.61 18.40 2.61L18.40 2.61Q21.88 2.61 22.68 6.83L22.68 6.83ZM18.16 10.98L18.16 10.98Q16.77 10.98 15.93 12.26L15.93 12.26Q15.28 13.27 15.28 14.78L15.28 14.78Q15.28 16.14 15.74 17.09L15.74 17.09Q16.54 18.71 18.19 18.71L18.19 18.71Q19.51 18.71 20.32 17.52L20.32 17.52Q21.04 16.46 21.04 14.75L21.04 14.75Q21.04 13.20 20.41 12.21L20.41 12.21Q19.65 10.98 18.16 10.98ZM34.88 18.12L34.88 19.90L24.94 19.90Q25.65 15.29 29.73 11.92L29.73 11.92Q31.36 10.59 31.93 9.74L31.93 9.74Q32.68 8.67 32.68 7.22L32.68 7.22Q32.68 6.04 32.16 5.30L32.16 5.30Q31.48 4.27 30.12 4.27L30.12 4.27Q27.35 4.27 27.09 8.34L27.09 8.34L25.21 8.34Q25.35 5.91 26.36 4.51L26.36 4.51Q27.68 2.64 30.16 2.64L30.16 2.64Q31.90 2.64 33.09 3.64L33.09 3.64Q34.61 4.95 34.61 7.20L34.61 7.20Q34.61 10.34 31.05 13.03L31.05 13.03Q28.02 15.34 27.41 18.12L27.41 18.12L34.88 18.12ZM42 2.61L42 2.61Q46.66 2.61 46.66 11.50L46.66 11.50Q46.66 20.38 42 20.38L42 20.38Q37.35 20.38 37.35 11.50L37.35 11.50Q37.35 2.61 42 2.61ZM39.66 15.67L39.66 15.67L43.95 5.88Q43.27 4.27 41.98 4.27L41.98 4.27Q39.32 4.27 39.32 11.50L39.32 11.50Q39.32 13.96 39.66 15.67ZM44.36 7.34L40.05 17.09Q40.71 18.73 42 18.73L42 18.73Q44.70 18.73 44.70 11.47L44.70 11.47Q44.70 9.07 44.36 7.34L44.36 7.34Z"/></svg>