<svg xmlns="http://www.w3.org/2000/svg" xmlns:xlink="http://www.w3.org/1999/xlink" width="48" height="24"><path fill="black" stroke="black" d="M3.50 8.50L5.33 8.50L5.33 10.90Q7.41 8.71 9.77 8.04L9.77 8.04L9.77 10.13Q7.05 10.78 5.33 13.08L5.33 13.08L5.33 19.90L3.50 19.90L3.50 8.50ZM13.44 16.01L15.41 16.01Q15.70 18.62 17.88 18.62L17.88 18.62Q21.12 18.62 21.08 11.74L21.08 11.74Q19.73 13.72 17.70 13.72L17.70 13.72Q15.22 13.72 13.99 11.41L13.99 11.41Q13.30 10.07 13.30 8.30L13.30 8.30Q13.30 6.05 14.52 4.39L14.52 4.39Q15.83 2.61 17.88 2.61L17.88 2.61Q22.83 2.61 22.83 10.97L22.83 10.97Q22.83 20.38 17.91 20.38L17.91 20.38Q15.66 20.38 14.36 18.43L14.36 18.43Q13.69 17.43 13.44 16.01L13.44 16.01ZM17.96 4.27L17.96 4.27Q15.13 4.27 15.13 8.25L15.13 8.25Q15.13 9.73 15.63 10.70L15.63 10.70Q16.38 12.14 17.96 12.14L17.96 12.14Q18.97 12.14 19.76 11.25L19.76 11.25Q20.77 10.10 20.77 8.25L20.77 8.25Q20.77 6.40 19.97 5.32L19.97 5.32Q19.21 4.27 17.96 4.27ZM29.53 5.25L29.53 3.09L31.64 3.09L31.64 5.25L29.53 5.25ZM29.64 20.75L29.64 8.50L31.51 8.50L31.51 20.84Q31.51 23.36 29.06 23.36L29.06 23.36Q28.10 23.36 26.31 23.16L26.31 23.16L26.31 21.39Q27.38 21.63 28.68 21.63L28.68 21.63Q29.64 21.63 29.64 20.75L29.64 20.75ZM45.64 20.73L44.23 21.74Q43.98 20.77 43.56 19.97L43.56 19.97Q42.77 20.38 41.95 20.38L41.95 20.38Q39.68 20.38 38.43 18.05L38.43 18.05Q37.10 15.66 37.10 11.50L37.10 11.50Q37.10 7.28 38.47 4.88L38.47 4.88Q39.76 2.61 42 2.61L42 2.61Q44.25 2.61 45.55 4.90L45.55 4.90Q46.90 7.32 46.90 11.47L46.90 11.47Q46.90 16.64 44.88 18.98L44.88 18.98Q45.53 20.43 45.64 20.73L45.64 20.73ZM41.20 15.48L42.50 14.59Q43.02 15.29 44.06 17.18L44.06 17.18Q44.88 15.55 44.88 11.52L44.88 11.52Q44.88 4.37 42 4.37L42 4.37Q39.12 4.37 39.12 11.47L39.12 11.47Q39.12 18.68 41.95 18.68L41.95 18.68Q42.41 18.68 42.91 18.50L42.91 18.50Q42.21 16.93 41.20 15.48L41.20 15.48Z"/></svg>