<svg xmlns="http://www.w3.org/2000/svg" xmlns:xlink="http://www.w3.org/1999/xlink" width="48" height="24"><path fill="black" stroke="black" d="M1.68 19.90L1.68 3.09L5.84 3.09Q7.86 3.09 9.14 4.01L9.14 4.01Q10.77 5.20 10.77 7.46L10.77 7.46Q10.77 10.77 7.63 11.74L7.63 11.74L11.23 19.90L9.02 19.90L5.75 12.06L3.55 12.06L3.55 19.90L1.68 19.90ZM5.54 4.88L3.55 4.88L3.55 10.34L5.57 10.34Q6.62 10.34 7.41 9.90L7.41 9.90Q8.85 9.15 8.85 7.51L8.85 7.51Q8.85 4.88 5.54 4.88L5.54 4.88ZM12.50 19.90L16.80 3.09L19.20 3.09L23.50 19.90L21.41 19.90L20.13 14.41L15.87 14.41L14.59 19.90L12.50 19.90ZM19.75 12.74L18 4.79L16.24 12.74L19.75 12.74ZM29.53 5.25L29.53 3.09L31.64 3.09L31.64 5.25L29.53 5.25ZM29.64 20.75L29.64 8.50L31.51 8.50L31.51 20.84Q31.51 23.36 29.06 23.36L29.06 23.36Q28.10 23.36 26.31 23.16L26.31 23.16L26.31 21.39Q27.38 21.63 28.68 21.63L28.68 21.63Q29.64 21.63 29.64 20.75L29.64 20.75ZM40.99 13.61L37.77 8.50L39.96 8.50L42 12.23L44.04 8.50L46.22 8.50L43.01 13.61L46.97 19.90L44.64 19.90L42 15.16L39.36 19.90L37.03 19.90L40.99 13.61Z"/></svg>