<svg xmlns="http://www.w3.org/2000/svg" xmlns:xlink="http://www.w3.org/1999/xlink" width="48" height="24"><path fill="black" stroke="black" d="M3.50 8.50L5.33 8.50L5.33 10.90Q7.41 8.71 9.77 8.04L9.77 8.04L9.77 10.13Q7.05 10.78 5.33 13.08L5.33 13.08L5.33 19.90L3.50 19.90L3.50 8.50ZM13.46 19.90L13.46 3.09L15.39 3.09L15.39 10.24L20.61 10.24L20.61 3.09L22.54 3.09L22.54 19.90L20.61 19.90L20.61 12.07L15.39 12.07L15.39 19.90L13.46 19.90ZM25.20 4.92L25.20 3.09L34.79 3.09L34.79 4.46Q31.42 12.82 29.73 19.90L29.73 19.90L27.55 19.90Q29.38 13.43 32.73 4.92L32.73 4.92L25.20 4.92ZM37.76 19.90L37.76 3.09L39.54 3.09L39.54 9.79Q41.29 8.04 43.01 8.04L43.01 8.04Q44.96 8.04 45.87 9.76L45.87 9.76Q46.37 10.73 46.37 12.12L46.37 12.12L46.37 19.90L44.59 19.90L44.59 12.64Q44.59 9.74 42.73 9.74L42.73 9.74Q41.47 9.74 40.52 10.65L40.52 10.65Q39.54 11.64 39.54 12.90L39.54 12.90L39.54 19.90L37.76 19.90Z"/></svg>