<svg xmlns="http://www.w3.org/2000/svg" xmlns:xlink="http://www.w3.org/1999/xlink" width="48" height="24"><path fill="black" stroke="black" d="M3.50 8.50L5.33 8.50L5.33 10.90Q7.41 8.71 9.77 8.04L9.77 8.04L9.77 10.13Q7.05 10.78 5.33 13.08L5.33 13.08L5.33 19.90L3.50 19.90L3.50 8.50ZM18 2.61L18 2.61Q20.24 2.61 21.53 4.88L21.53 4.88Q22.90 7.28 22.90 11.50L22.90 11.50Q22.90 15.62 21.60 18L21.60 18Q20.31 20.38 18 20.38L18 20.38Q15.70 20.38 14.45 18.07L14.45 18.07Q13.10 15.61 13.10 11.47L13.10 11.47Q13.10 7.09 14.59 4.65L14.59 4.65Q15.84 2.61 18 2.61ZM18 4.37L18 4.37Q15.12 4.37 15.12 11.47L15.12 11.47Q15.12 18.62 18.02 18.62L18.02 18.62Q20.88 18.62 20.88 11.54L20.88 11.54Q20.88 4.37 18 4.37ZM33.43 4.88L31.03 4.88L31.03 18.12L33.43 18.12L33.43 19.90L26.57 19.90L26.57 18.12L28.97 18.12L28.97 4.88L26.57 4.88L26.57 3.09L33.43 3.09L33.43 4.88ZM37.44 16.01L39.41 16.01Q39.70 18.62 41.88 18.62L41.88 18.62Q45.12 18.62 45.08 11.74L45.08 11.74Q43.73 13.72 41.70 13.72L41.70 13.72Q39.22 13.72 37.99 11.41L37.99 11.41Q37.30 10.07 37.30 8.30L37.30 8.30Q37.30 6.05 38.52 4.39L38.52 4.39Q39.83 2.61 41.88 2.61L41.88 2.61Q46.83 2.61 46.83 10.97L46.83 10.97Q46.83 20.38 41.91 20.38L41.91 20.38Q39.66 20.38 38.36 18.43L38.36 18.43Q37.69 17.43 37.44 16.01L37.44 16.01ZM41.96 4.27L41.96 4.27Q39.13 4.27 39.13 8.25L39.13 8.25Q39.13 9.73 39.63 10.70L39.63 10.70Q40.38 12.14 41.96 12.14L41.96 12.14Q42.97 12.14 43.76 11.25L43.76 11.25Q44.77 10.10 44.77 8.25L44.77 8.25Q44.77 6.40 43.97 5.32L43.97 5.32Q43.21 4.27 41.96 4.27Z"/></svg>