<svg xmlns="http://www.w3.org/2000/svg" xmlns:xlink="http://www.w3.org/1999/xlink" width="48" height="24"><path fill="black" stroke="black" d="M1.68 19.90L1.68 3.09L5.84 3.09Q7.86 3.09 9.14 4.01L9.14 4.01Q10.77 5.20 10.77 7.46L10.77 7.46Q10.77 10.77 7.63 11.74L7.63 11.74L11.23 19.90L9.02 19.90L5.75 12.06L3.55 12.06L3.55 19.90L1.68 19.90ZM5.54 4.88L3.55 4.88L3.55 10.34L5.57 10.34Q6.62 10.34 7.41 9.90L7.41 9.90Q8.85 9.15 8.85 7.51L8.85 7.51Q8.85 4.88 5.54 4.88L5.54 4.88ZM12.94 4.97L12.94 3.09L23.06 3.09L23.06 4.97L19.01 4.97L19.01 19.90L16.99 19.90L16.99 4.97L12.94 4.97ZM29.53 5.25L29.53 3.09L31.64 3.09L31.64 5.25L29.53 5.25ZM29.64 20.75L29.64 8.50L31.51 8.50L31.51 20.84Q31.51 23.36 29.06 23.36L29.06 23.36Q28.10 23.36 26.31 23.16L26.31 23.16L26.31 21.39Q27.38 21.63 28.68 21.63L28.68 21.63Q29.64 21.63 29.64 20.75L29.64 20.75ZM39.59 11.82L37.66 11.82Q38.13 8.03 42.01 8.03L42.01 8.03Q45.91 8.03 45.91 12.21L45.91 12.21L45.91 17.94Q45.91 18.62 46.54 18.62L46.54 18.62Q46.75 18.62 47.11 18.54L47.11 18.54L47.11 20.23Q46.63 20.34 45.96 20.34L45.96 20.34Q44.38 20.34 44.17 18.57L44.17 18.57Q42.54 20.34 40.59 20.34L40.59 20.34Q39.32 20.34 38.50 19.68L38.50 19.68Q37.42 18.81 37.42 17.11L37.42 17.11Q37.42 13.16 44.19 12.69L44.19 12.69L44.19 12.21Q44.19 9.63 42.01 9.63L42.01 9.63Q39.76 9.63 39.59 11.82L39.59 11.82ZM44.19 15.79L44.19 14.20Q39.18 14.45 39.18 17.02L39.18 17.02Q39.18 18.74 40.88 18.74L40.88 18.74Q42.04 18.74 43.14 17.85L43.14 17.85Q44.19 17.02 44.19 15.79L44.19 15.79Z"/></svg>