<svg xmlns="http://www.w3.org/2000/svg" xmlns:xlink="http://www.w3.org/1999/xlink" width="48" height="24"><path fill="black" stroke="black" d="M3.50 8.50L5.33 8.50L5.33 10.90Q7.41 8.71 9.77 8.04L9.77 8.04L9.77 10.13Q7.05 10.78 5.33 13.08L5.33 13.08L5.33 19.90L3.50 19.90L3.50 8.50ZM16.85 10.97L13.44 3.09L15.61 3.09L18 9L20.40 3.09L22.56 3.09L19.16 10.97L23.17 19.90L20.91 19.90L18 12.88L15.11 19.90L12.84 19.90L16.85 10.97ZM24.94 4.97L24.94 3.09L35.06 3.09L35.06 4.97L31.01 4.97L31.01 19.90L28.99 19.90L28.99 4.97L24.94 4.97ZM45.64 20.73L44.23 21.74Q43.98 20.77 43.56 19.97L43.56 19.97Q42.77 20.38 41.95 20.38L41.95 20.38Q39.68 20.38 38.43 18.05L38.43 18.05Q37.10 15.66 37.10 11.50L37.10 11.50Q37.10 7.28 38.47 4.88L38.47 4.88Q39.76 2.61 42 2.61L42 2.61Q44.25 2.61 45.55 4.90L45.55 4.90Q46.90 7.32 46.90 11.47L46.90 11.47Q46.90 16.64 44.88 18.98L44.88 18.98Q45.53 20.43 45.64 20.73L45.64 20.73ZM41.20 15.48L42.50 14.59Q43.02 15.29 44.06 17.18L44.06 17.18Q44.88 15.55 44.88 11.52L44.88 11.52Q44.88 4.37 42 4.37L42 4.37Q39.12 4.37 39.12 11.47L39.12 11.47Q39.12 18.68 41.95 18.68L41.95 18.68Q42.41 18.68 42.91 18.50L42.91 18.50Q42.21 16.93 41.20 15.48L41.20 15.48Z"/></svg>