<svg xmlns="http://www.w3.org/2000/svg" xmlns:xlink="http://www.w3.org/1999/xlink" width="48" height="24"><path fill="black" stroke="black" d="M1.44 16.36L3.34 16.36Q3.66 18.76 6.14 18.76L6.14 18.76Q8.64 18.76 8.64 17.00L8.64 17.00Q8.64 16.16 8.06 15.69L8.06 15.69Q7.45 15.19 5.88 14.64L5.88 14.64L5.54 14.51Q3.81 13.91 3.02 13.31L3.02 13.31Q1.90 12.43 1.90 11.19L1.90 11.19Q1.90 9.70 3.20 8.80L3.20 8.80Q4.32 8.03 5.93 8.03L5.93 8.03Q9.55 8.03 10.13 11.32L10.13 11.32L8.26 11.32Q7.97 9.56 5.91 9.56L5.91 9.56Q3.70 9.56 3.70 11.12L3.70 11.12Q3.70 12.14 6.66 13.18L6.66 13.18Q8.32 13.77 9.05 14.30L9.05 14.30Q10.46 15.30 10.46 16.96L10.46 16.96Q10.46 18.56 9.20 19.50L9.20 19.50Q8.00 20.37 6.09 20.37L6.09 20.37Q1.91 20.37 1.44 16.36L1.44 16.36ZM19.32 19.90L17.36 19.90L17.36 5.54Q16.45 6.15 14.84 6.83L14.84 6.83L14.84 4.90Q16.71 4.21 17.86 3.09L17.86 3.09L19.32 3.09L19.32 19.90ZM25.15 19.90L25.15 3.09L27.54 3.09L29.99 16.89L32.44 3.09L34.84 3.09L34.84 19.90L33.21 19.90L33.21 6.86L30.88 19.90L29.11 19.90L26.87 6.86L26.87 19.90L25.15 19.90ZM46.88 19.90L45.34 19.90L45.34 17.64Q44.00 20.38 41.78 20.38L41.78 20.38Q39.61 20.38 38.34 18.14L38.34 18.14Q37.10 15.90 37.10 11.52L37.10 11.52Q37.10 7.41 38.40 4.99L38.40 4.99Q39.69 2.61 42.09 2.61L42.09 2.61Q45.95 2.61 46.71 7.90L46.71 7.90L44.74 7.90Q44.20 4.42 42.09 4.42L42.09 4.42Q39.16 4.42 39.16 11.47L39.16 11.47Q39.16 18.57 42 18.57L42 18.57Q44.58 18.57 45.13 13.63L45.13 13.63L42.60 13.63L42.60 11.91L46.88 11.91L46.88 19.90Z"/></svg>