<svg xmlns="http://www.w3.org/2000/svg" xmlns:xlink="http://www.w3.org/1999/xlink" width="48" height="24"><path fill="black" stroke="black" d="M1.44 16.36L3.34 16.36Q3.66 18.76 6.14 18.76L6.14 18.76Q8.64 18.76 8.64 17.00L8.64 17.00Q8.64 16.16 8.06 15.69L8.06 15.69Q7.45 15.19 5.88 14.64L5.88 14.64L5.54 14.51Q3.81 13.91 3.02 13.31L3.02 13.31Q1.90 12.43 1.90 11.19L1.90 11.19Q1.90 9.70 3.20 8.80L3.20 8.80Q4.32 8.03 5.93 8.03L5.93 8.03Q9.55 8.03 10.13 11.32L10.13 11.32L8.26 11.32Q7.97 9.56 5.91 9.56L5.91 9.56Q3.70 9.56 3.70 11.12L3.70 11.12Q3.70 12.14 6.66 13.18L6.66 13.18Q8.32 13.77 9.05 14.30L9.05 14.30Q10.46 15.30 10.46 16.96L10.46 16.96Q10.46 18.56 9.20 19.50L9.20 19.50Q8.00 20.37 6.09 20.37L6.09 20.37Q1.91 20.37 1.44 16.36L1.44 16.36ZM13.71 12.46L14.12 3.09L22.09 3.09L22.09 4.77L15.80 4.77L15.54 10.29Q16.72 8.93 18.52 8.93L18.52 8.93Q20.44 8.93 21.70 10.56L21.70 10.56Q22.91 12.13 22.91 14.47L22.91 14.47Q22.91 16.48 22.11 17.95L22.11 17.95Q20.78 20.38 17.96 20.38L17.96 20.38Q14.02 20.38 13.23 15.96L13.23 15.96L15.15 15.96Q15.55 18.70 17.95 18.70L17.95 18.70Q19.50 18.70 20.36 17.38L20.36 17.38Q21.08 16.27 21.08 14.50L21.08 14.50Q21.08 12.93 20.47 11.91L20.47 11.91Q19.72 10.54 18.20 10.54L18.20 10.54Q16.34 10.54 15.22 12.77L15.22 12.77L13.71 12.46ZM34.88 19.90L33.34 19.90L33.34 17.64Q32.00 20.38 29.78 20.38L29.78 20.38Q27.61 20.38 26.34 18.14L26.34 18.14Q25.10 15.90 25.10 11.52L25.10 11.52Q25.10 7.41 26.40 4.99L26.40 4.99Q27.69 2.61 30.09 2.61L30.09 2.61Q33.95 2.61 34.71 7.90L34.71 7.90L32.74 7.90Q32.20 4.42 30.09 4.42L30.09 4.42Q27.16 4.42 27.16 11.47L27.16 11.47Q27.16 18.57 30 18.57L30 18.57Q32.58 18.57 33.13 13.63L33.13 13.63L30.60 13.63L30.60 11.91L34.88 11.91L34.88 19.90ZM37.39 19.90L37.39 3.09L39.87 3.09L44.73 16.63L44.73 3.09L46.56 3.09L46.56 19.90L44.30 19.90L39.32 6.07L39.32 19.90L37.39 19.90Z"/></svg>