<svg xmlns="http://www.w3.org/2000/svg" xmlns:xlink="http://www.w3.org/1999/xlink" width="48" height="24"><path fill="black" stroke="black" d="M1.44 16.36L3.34 16.36Q3.66 18.76 6.14 18.76L6.14 18.76Q8.64 18.76 8.64 17.00L8.64 17.00Q8.64 16.16 8.06 15.69L8.06 15.69Q7.45 15.19 5.88 14.64L5.88 14.64L5.54 14.51Q3.81 13.91 3.02 13.31L3.02 13.31Q1.90 12.43 1.90 11.19L1.90 11.19Q1.90 9.70 3.20 8.80L3.20 8.80Q4.32 8.03 5.93 8.03L5.93 8.03Q9.55 8.03 10.13 11.32L10.13 11.32L8.26 11.32Q7.97 9.56 5.91 9.56L5.91 9.56Q3.70 9.56 3.70 11.12L3.70 11.12Q3.70 12.14 6.66 13.18L6.66 13.18Q8.32 13.77 9.05 14.30L9.05 14.30Q10.46 15.30 10.46 16.96L10.46 16.96Q10.46 18.56 9.20 19.50L9.20 19.50Q8.00 20.37 6.09 20.37L6.09 20.37Q1.91 20.37 1.44 16.36L1.44 16.36ZM13.63 19.90L13.63 3.09L17.68 3.09Q19.57 3.09 20.81 4.05L20.81 4.05Q22.28 5.13 22.28 7.22L22.28 7.22Q22.28 9.90 19.56 11.05L19.56 11.05Q22.88 12.09 22.88 15.35L22.88 15.35Q22.88 17.47 21.36 18.76L21.36 18.76Q20.05 19.90 18.07 19.90L18.07 19.90L13.63 19.90ZM17.66 4.88L15.50 4.88L15.50 10.29L17.59 10.29Q18.57 10.29 19.21 9.83L19.21 9.83Q20.33 9.07 20.33 7.46L20.33 7.46Q20.33 4.88 17.66 4.88L17.66 4.88ZM17.66 11.96L15.50 11.96L15.50 18.12L17.77 18.12Q20.88 18.12 20.88 15.09L20.88 15.09Q20.88 11.96 17.66 11.96L17.66 11.96ZM28.99 13.61L25.77 8.50L27.96 8.50L30 12.23L32.04 8.50L34.22 8.50L31.01 13.61L34.97 19.90L32.64 19.90L30 15.16L27.36 19.90L25.03 19.90L28.99 13.61ZM37.78 19.90L37.78 3.09L39.56 3.09L39.56 9.79Q41.03 8.04 42.73 8.04L42.73 8.04Q44.50 8.04 45.61 9.57L45.61 9.57Q46.78 11.21 46.78 14.09L46.78 14.09Q46.78 16.10 46.16 17.64L46.16 17.64Q45.05 20.38 42.68 20.38L42.68 20.38Q40.72 20.38 39.54 18.41L39.54 18.41L39.08 19.90L37.78 19.90ZM42.29 9.74L42.29 9.74Q40.92 9.74 40.14 11.13L40.14 11.13Q39.49 12.28 39.49 14.09L39.49 14.09Q39.49 16.04 40.18 17.29L40.18 17.29Q40.97 18.68 42.32 18.68L42.32 18.68Q43.50 18.68 44.19 17.47L44.19 17.47Q44.91 16.25 44.91 14.09L44.91 14.09Q44.91 11.96 44.09 10.79L44.09 10.79Q43.41 9.74 42.29 9.74Z"/></svg>