<svg xmlns="http://www.w3.org/2000/svg" xmlns:xlink="http://www.w3.org/1999/xlink" width="48" height="24"><path fill="black" stroke="black" d="M1.44 16.36L3.34 16.36Q3.66 18.76 6.14 18.76L6.14 18.76Q8.64 18.76 8.64 17.00L8.64 17.00Q8.64 16.16 8.06 15.69L8.06 15.69Q7.45 15.19 5.88 14.64L5.88 14.64L5.54 14.51Q3.81 13.91 3.02 13.31L3.02 13.31Q1.90 12.43 1.90 11.19L1.90 11.19Q1.90 9.70 3.20 8.80L3.20 8.80Q4.32 8.03 5.93 8.03L5.93 8.03Q9.55 8.03 10.13 11.32L10.13 11.32L8.26 11.32Q7.97 9.56 5.91 9.56L5.91 9.56Q3.70 9.56 3.70 11.12L3.70 11.12Q3.70 12.14 6.66 13.18L6.66 13.18Q8.32 13.77 9.05 14.30L9.05 14.30Q10.46 15.30 10.46 16.96L10.46 16.96Q10.46 18.56 9.20 19.50L9.20 19.50Q8.00 20.37 6.09 20.37L6.09 20.37Q1.91 20.37 1.44 16.36L1.44 16.36ZM21.43 4.88L19.03 4.88L19.03 18.12L21.43 18.12L21.43 19.90L14.57 19.90L14.57 18.12L16.97 18.12L16.97 4.88L14.57 4.88L14.57 3.09L21.43 3.09L21.43 4.88ZM25.39 19.90L25.39 3.09L27.87 3.09L32.73 16.63L32.73 3.09L34.56 3.09L34.56 19.90L32.30 19.90L27.32 6.07L27.32 19.90L25.39 19.90ZM36.60 14.06L43.37 3.09L45.41 3.09L45.41 14.11L47.40 14.11L47.40 15.74L45.41 15.74L45.41 19.90L43.63 19.90L43.63 15.74L36.60 15.74L36.60 14.06ZM43.63 14.11L43.63 5.71L38.40 14.11L43.63 14.11Z"/></svg>