<svg xmlns="http://www.w3.org/2000/svg" xmlns:xlink="http://www.w3.org/1999/xlink" width="48" height="24"><path fill="black" stroke="black" d="M1.44 16.36L3.34 16.36Q3.66 18.76 6.14 18.76L6.14 18.76Q8.64 18.76 8.64 17.00L8.64 17.00Q8.64 16.16 8.06 15.69L8.06 15.69Q7.45 15.19 5.88 14.64L5.88 14.64L5.54 14.51Q3.81 13.91 3.02 13.31L3.02 13.31Q1.90 12.43 1.90 11.19L1.90 11.19Q1.90 9.70 3.20 8.80L3.20 8.80Q4.32 8.03 5.93 8.03L5.93 8.03Q9.55 8.03 10.13 11.32L10.13 11.32L8.26 11.32Q7.97 9.56 5.91 9.56L5.91 9.56Q3.70 9.56 3.70 11.12L3.70 11.12Q3.70 12.14 6.66 13.18L6.66 13.18Q8.32 13.77 9.05 14.30L9.05 14.30Q10.46 15.30 10.46 16.96L10.46 16.96Q10.46 18.56 9.20 19.50L9.20 19.50Q8.00 20.37 6.09 20.37L6.09 20.37Q1.91 20.37 1.44 16.36L1.44 16.36ZM13.10 15.07L15.12 15.07Q15.26 18.62 18.19 18.62L18.19 18.62Q19.24 18.62 19.95 18.09L19.95 18.09Q20.93 17.33 20.93 15.96L20.93 15.96Q20.93 14.48 19.70 13.36L19.70 13.36Q18.86 12.61 16.80 11.43L16.80 11.43Q13.56 9.52 13.56 6.87L13.56 6.87Q13.56 5.19 14.61 4.03L14.61 4.03Q15.89 2.61 18.02 2.61L18.02 2.61Q22.00 2.61 22.54 7.39L22.54 7.39L20.57 7.39Q20.48 6.29 20.11 5.64L20.11 5.64Q19.36 4.31 18.02 4.31L18.02 4.31Q16.64 4.31 15.96 5.25L15.96 5.25Q15.48 5.92 15.48 6.71L15.48 6.71Q15.48 8.61 18.57 10.42L18.57 10.42Q20.48 11.53 21.50 12.55L21.50 12.55Q22.88 13.89 22.88 15.94L22.88 15.94Q22.88 17.87 21.64 19.05L21.64 19.05Q20.33 20.38 18.25 20.38L18.25 20.38Q15.63 20.38 14.18 18.46L14.18 18.46Q13.17 17.12 13.10 15.07L13.10 15.07ZM30.94 3.09L30.94 17.27Q30.94 18.30 31.92 18.30L31.92 18.30Q32.73 18.30 33.69 18.12L33.69 18.12L33.69 19.91Q32.27 20.11 31.61 20.11L31.61 20.11Q29.06 20.11 29.06 17.61L29.06 17.61L29.06 3.09L30.94 3.09ZM37.15 19.90L37.15 3.09L39.54 3.09L41.99 16.89L44.44 3.09L46.84 3.09L46.84 19.90L45.21 19.90L45.21 6.86L42.88 19.90L41.11 19.90L38.87 6.86L38.87 19.90L37.15 19.90Z"/></svg>