<svg xmlns="http://www.w3.org/2000/svg" xmlns:xlink="http://www.w3.org/1999/xlink" width="48" height="24"><path fill="black" stroke="black" d="M1.44 16.36L3.34 16.36Q3.66 18.76 6.14 18.76L6.14 18.76Q8.64 18.76 8.64 17.00L8.64 17.00Q8.64 16.16 8.06 15.69L8.06 15.69Q7.45 15.19 5.88 14.64L5.88 14.64L5.54 14.51Q3.81 13.91 3.02 13.31L3.02 13.31Q1.90 12.43 1.90 11.19L1.90 11.19Q1.90 9.70 3.20 8.80L3.20 8.80Q4.32 8.03 5.93 8.03L5.93 8.03Q9.55 8.03 10.13 11.32L10.13 11.32L8.26 11.32Q7.97 9.56 5.91 9.56L5.91 9.56Q3.70 9.56 3.70 11.12L3.70 11.12Q3.70 12.14 6.66 13.18L6.66 13.18Q8.32 13.77 9.05 14.30L9.05 14.30Q10.46 15.30 10.46 16.96L10.46 16.96Q10.46 18.56 9.20 19.50L9.20 19.50Q8.00 20.37 6.09 20.37L6.09 20.37Q1.91 20.37 1.44 16.36L1.44 16.36ZM13.44 16.36L15.34 16.36Q15.66 18.76 18.14 18.76L18.14 18.76Q20.64 18.76 20.64 17.00L20.64 17.00Q20.64 16.16 20.06 15.69L20.06 15.69Q19.45 15.19 17.88 14.64L17.88 14.64L17.54 14.51Q15.81 13.91 15.02 13.31L15.02 13.31Q13.90 12.43 13.90 11.19L13.90 11.19Q13.90 9.70 15.20 8.80L15.20 8.80Q16.32 8.03 17.93 8.03L17.93 8.03Q21.55 8.03 22.13 11.32L22.13 11.32L20.26 11.32Q19.97 9.56 17.91 9.56L17.91 9.56Q15.70 9.56 15.70 11.12L15.70 11.12Q15.70 12.14 18.66 13.18L18.66 13.18Q20.32 13.77 21.05 14.30L21.05 14.30Q22.46 15.30 22.46 16.96L22.46 16.96Q22.46 18.56 21.20 19.50L21.20 19.50Q20.00 20.37 18.09 20.37L18.09 20.37Q13.91 20.37 13.44 16.36L13.44 16.36ZM30.02 8.04L30.02 8.04Q32.23 8.04 33.48 9.98L33.48 9.98Q34.56 11.60 34.56 14.20L34.56 14.20Q34.56 16.16 33.91 17.64L33.91 17.64Q32.72 20.38 29.98 20.38L29.98 20.38Q27.86 20.38 26.59 18.57L26.59 18.57Q25.44 16.92 25.44 14.20L25.44 14.20Q25.44 11.27 26.77 9.60L26.77 9.60Q28.03 8.04 30.02 8.04ZM29.98 9.71L29.98 9.71Q28.69 9.71 27.96 11.06L27.96 11.06Q27.32 12.25 27.32 14.20L27.32 14.20Q27.32 16.01 27.84 17.14L27.84 17.14Q28.57 18.70 30 18.70L30 18.70Q31.31 18.70 32.04 17.36L32.04 17.36Q32.68 16.17 32.68 14.23L32.68 14.23Q32.68 12.20 32.02 11.04L32.02 11.04Q31.30 9.71 29.98 9.71ZM40.66 8.50L40.66 5.40L42.49 5.40L42.49 8.50L45.32 8.50L45.32 10.22L42.49 10.22L42.49 17.48Q42.49 18.30 43.41 18.30L43.41 18.30Q44.52 18.30 45.48 18.12L45.48 18.12L45.48 19.91Q44.06 20.11 43.04 20.11L43.04 20.11Q40.66 20.11 40.66 17.73L40.66 17.73L40.66 10.22L38.40 10.22L38.40 8.50L40.66 8.50Z"/></svg>