<svg xmlns="http://www.w3.org/2000/svg" xmlns:xlink="http://www.w3.org/1999/xlink" width="48" height="24"><path fill="black" stroke="black" d="M1.44 16.36L3.34 16.36Q3.66 18.76 6.14 18.76L6.14 18.76Q8.64 18.76 8.64 17.00L8.64 17.00Q8.64 16.16 8.06 15.69L8.06 15.69Q7.45 15.19 5.88 14.64L5.88 14.64L5.54 14.51Q3.81 13.91 3.02 13.31L3.02 13.31Q1.90 12.43 1.90 11.19L1.90 11.19Q1.90 9.70 3.20 8.80L3.20 8.80Q4.32 8.03 5.93 8.03L5.93 8.03Q9.55 8.03 10.13 11.32L10.13 11.32L8.26 11.32Q7.97 9.56 5.91 9.56L5.91 9.56Q3.70 9.56 3.70 11.12L3.70 11.12Q3.70 12.14 6.66 13.18L6.66 13.18Q8.32 13.77 9.05 14.30L9.05 14.30Q10.46 15.30 10.46 16.96L10.46 16.96Q10.46 18.56 9.20 19.50L9.20 19.50Q8.00 20.37 6.09 20.37L6.09 20.37Q1.91 20.37 1.44 16.36L1.44 16.36ZM16.85 10.97L13.44 3.09L15.61 3.09L18 9L20.40 3.09L22.56 3.09L19.16 10.97L23.17 19.90L20.91 19.90L18 12.88L15.11 19.90L12.84 19.90L16.85 10.97ZM34.88 18.12L34.88 19.90L24.94 19.90Q25.65 15.29 29.73 11.92L29.73 11.92Q31.36 10.59 31.93 9.74L31.93 9.74Q32.68 8.67 32.68 7.22L32.68 7.22Q32.68 6.04 32.16 5.30L32.16 5.30Q31.48 4.27 30.12 4.27L30.12 4.27Q27.35 4.27 27.09 8.34L27.09 8.34L25.21 8.34Q25.35 5.91 26.36 4.51L26.36 4.51Q27.68 2.64 30.16 2.64L30.16 2.64Q31.90 2.64 33.09 3.64L33.09 3.64Q34.61 4.95 34.61 7.20L34.61 7.20Q34.61 10.34 31.05 13.03L31.05 13.03Q28.02 15.34 27.41 18.12L27.41 18.12L34.88 18.12ZM37.68 19.90L37.68 3.09L46.13 3.09L46.13 4.97L39.64 4.97L39.64 10.27L45.26 10.27L45.26 12.09L39.64 12.09L39.64 19.90L37.68 19.90Z"/></svg>