<svg xmlns="http://www.w3.org/2000/svg" xmlns:xlink="http://www.w3.org/1999/xlink" width="48" height="24"><path fill="black" stroke="black" d="M4.66 8.50L4.66 5.40L6.49 5.40L6.49 8.50L9.32 8.50L9.32 10.22L6.49 10.22L6.49 17.48Q6.49 18.30 7.41 18.30L7.41 18.30Q8.52 18.30 9.48 18.12L9.48 18.12L9.48 19.91Q8.06 20.11 7.04 20.11L7.04 20.11Q4.66 20.11 4.66 17.73L4.66 17.73L4.66 10.22L2.40 10.22L2.40 8.50L4.66 8.50ZM12.60 14.06L19.37 3.09L21.41 3.09L21.41 14.11L23.40 14.11L23.40 15.74L21.41 15.74L21.41 19.90L19.63 19.90L19.63 15.74L12.60 15.74L12.60 14.06ZM19.63 14.11L19.63 5.71L14.40 14.11L19.63 14.11ZM29.53 5.25L29.53 3.09L31.64 3.09L31.64 5.25L29.53 5.25ZM29.64 20.75L29.64 8.50L31.51 8.50L31.51 20.84Q31.51 23.36 29.06 23.36L29.06 23.36Q28.10 23.36 26.31 23.16L26.31 23.16L26.31 21.39Q27.38 21.63 28.68 21.63L28.68 21.63Q29.64 21.63 29.64 20.75L29.64 20.75ZM36.50 19.90L40.80 3.09L43.20 3.09L47.50 19.90L45.41 19.90L44.13 14.41L39.87 14.41L38.59 19.90L36.50 19.90ZM43.75 12.74L42 4.79L40.24 12.74L43.75 12.74Z"/></svg>