<svg xmlns="http://www.w3.org/2000/svg" xmlns:xlink="http://www.w3.org/1999/xlink" width="48" height="24"><path fill="black" stroke="black" d="M4.66 8.50L4.66 5.40L6.49 5.40L6.49 8.50L9.32 8.50L9.32 10.22L6.49 10.22L6.49 17.48Q6.49 18.30 7.41 18.30L7.41 18.30Q8.52 18.30 9.48 18.12L9.48 18.12L9.48 19.91Q8.06 20.11 7.04 20.11L7.04 20.11Q4.66 20.11 4.66 17.73L4.66 17.73L4.66 10.22L2.40 10.22L2.40 8.50L4.66 8.50ZM20.61 16.08L22.56 16.08Q21.62 20.38 18.02 20.38L18.02 20.38Q15.86 20.38 14.59 18.57L14.59 18.57Q13.44 16.92 13.44 14.20L13.44 14.20Q13.44 11.61 14.52 9.96L14.52 9.96Q15.79 8.04 18 8.04L18 8.04Q21.43 8.04 22.37 11.93L22.37 11.93L20.45 11.93Q19.95 9.71 18.02 9.71L18.02 9.71Q16.80 9.71 16.09 10.84L16.09 10.84Q15.32 12.05 15.32 14.20L15.32 14.20Q15.32 15.98 15.84 17.12L15.84 17.12Q16.56 18.70 18.02 18.70L18.02 18.70Q20.16 18.70 20.61 16.08L20.61 16.08ZM25.76 16.42L25.76 8.50L27.54 8.50L27.54 16.23Q27.54 18.70 29.50 18.70L29.50 18.70Q30.76 18.70 31.72 17.77L31.72 17.77Q32.59 16.93 32.59 15.57L32.59 15.57L32.59 8.50L34.37 8.50L34.37 19.90L33.05 19.90L32.73 18.55Q31.16 20.38 29.10 20.38L29.10 20.38Q27.30 20.38 26.40 19.01L26.40 19.01Q25.76 18 25.76 16.42L25.76 16.42ZM38.41 19.90L36.71 8.50L38.39 8.50L39.40 17.23L41.09 8.50L42.90 8.50L44.59 17.23L45.60 8.50L47.27 8.50L45.57 19.90L43.72 19.90L42 11.02L40.27 19.90L38.41 19.90Z"/></svg>