<svg xmlns="http://www.w3.org/2000/svg" xmlns:xlink="http://www.w3.org/1999/xlink" width="48" height="24"><path fill="black" stroke="black" d="M0.94 4.97L0.94 3.09L11.06 3.09L11.06 4.97L7.01 4.97L7.01 19.90L4.99 19.90L4.99 4.97L0.94 4.97ZM20.68 16.36L22.56 16.36Q21.52 20.37 18.02 20.37L18.02 20.37Q15.86 20.37 14.59 18.56L14.59 18.56Q13.44 16.91 13.44 14.20L13.44 14.20Q13.44 11.61 14.52 9.96L14.52 9.96Q15.79 8.04 18 8.04L18 8.04Q22.32 8.04 22.61 14.57L22.61 14.57L15.25 14.57Q15.39 18.76 18.05 18.76L18.05 18.76Q20.16 18.76 20.68 16.36L20.68 16.36ZM15.32 13.03L20.68 13.03Q20.30 9.64 18 9.64L18 9.64Q15.79 9.64 15.32 13.03L15.32 13.03ZM25.68 19.90L25.68 3.09L29.84 3.09Q31.86 3.09 33.14 4.01L33.14 4.01Q34.77 5.20 34.77 7.46L34.77 7.46Q34.77 10.77 31.63 11.74L31.63 11.74L35.23 19.90L33.02 19.90L29.75 12.06L27.55 12.06L27.55 19.90L25.68 19.90ZM29.54 4.88L27.55 4.88L27.55 10.34L29.57 10.34Q30.62 10.34 31.41 9.90L31.41 9.90Q32.85 9.15 32.85 7.51L32.85 7.51Q32.85 4.88 29.54 4.88L29.54 4.88ZM37.76 19.90L37.76 3.09L39.54 3.09L39.54 9.79Q41.29 8.04 43.01 8.04L43.01 8.04Q44.96 8.04 45.87 9.76L45.87 9.76Q46.37 10.73 46.37 12.12L46.37 12.12L46.37 19.90L44.59 19.90L44.59 12.64Q44.59 9.74 42.73 9.74L42.73 9.74Q41.47 9.74 40.52 10.65L40.52 10.65Q39.54 11.64 39.54 12.90L39.54 12.90L39.54 19.90L37.76 19.90Z"/></svg>