<svg xmlns="http://www.w3.org/2000/svg" xmlns:xlink="http://www.w3.org/1999/xlink" width="48" height="24"><path fill="black" stroke="black" d="M4.66 8.50L4.66 5.40L6.49 5.40L6.49 8.50L9.32 8.50L9.32 10.22L6.49 10.22L6.49 17.48Q6.49 18.30 7.41 18.30L7.41 18.30Q8.52 18.30 9.48 18.12L9.48 18.12L9.48 19.91Q8.06 20.11 7.04 20.11L7.04 20.11Q4.66 20.11 4.66 17.73L4.66 17.73L4.66 10.22L2.40 10.22L2.40 8.50L4.66 8.50ZM18 2.61L18 2.61Q20.24 2.61 21.53 4.88L21.53 4.88Q22.90 7.28 22.90 11.50L22.90 11.50Q22.90 15.62 21.60 18L21.60 18Q20.31 20.38 18 20.38L18 20.38Q15.70 20.38 14.45 18.07L14.45 18.07Q13.10 15.61 13.10 11.47L13.10 11.47Q13.10 7.09 14.59 4.65L14.59 4.65Q15.84 2.61 18 2.61ZM18 4.37L18 4.37Q15.12 4.37 15.12 11.47L15.12 11.47Q15.12 18.62 18.02 18.62L18.02 18.62Q20.88 18.62 20.88 11.54L20.88 11.54Q20.88 4.37 18 4.37ZM29.11 19.90L24.64 19.90L24.64 18.12L26.02 18.12L26.02 4.88L24.64 4.88L24.64 3.09L28.99 3.09Q31.85 3.09 33.39 5.09L33.39 5.09Q34.90 7.04 34.90 11.23L34.90 11.23Q34.90 15.56 33.50 17.59L33.50 17.59Q31.92 19.90 29.11 19.90L29.11 19.90ZM28.90 4.88L27.94 4.88L27.94 18.12L29.04 18.12Q32.93 18.12 32.93 11.23L32.93 11.23Q32.93 7.80 31.82 6.26L31.82 6.26Q30.83 4.88 28.90 4.88L28.90 4.88ZM46.88 18.12L46.88 19.90L36.94 19.90Q37.65 15.29 41.73 11.92L41.73 11.92Q43.36 10.59 43.93 9.74L43.93 9.74Q44.68 8.67 44.68 7.22L44.68 7.22Q44.68 6.04 44.16 5.30L44.16 5.30Q43.48 4.27 42.12 4.27L42.12 4.27Q39.35 4.27 39.09 8.34L39.09 8.34L37.21 8.34Q37.35 5.91 38.36 4.51L38.36 4.51Q39.68 2.64 42.16 2.64L42.16 2.64Q43.90 2.64 45.09 3.64L45.09 3.64Q46.61 4.95 46.61 7.20L46.61 7.20Q46.61 10.34 43.05 13.03L43.05 13.03Q40.02 15.34 39.41 18.12L39.41 18.12L46.88 18.12Z"/></svg>