<svg xmlns="http://www.w3.org/2000/svg" xmlns:xlink="http://www.w3.org/1999/xlink" width="48" height="24"><path fill="black" stroke="black" d="M4.66 8.50L4.66 5.40L6.49 5.40L6.49 8.50L9.32 8.50L9.32 10.22L6.49 10.22L6.49 17.48Q6.49 18.30 7.41 18.30L7.41 18.30Q8.52 18.30 9.48 18.12L9.48 18.12L9.48 19.91Q8.06 20.11 7.04 20.11L7.04 20.11Q4.66 20.11 4.66 17.73L4.66 17.73L4.66 10.22L2.40 10.22L2.40 8.50L4.66 8.50ZM22.22 23.34L20.44 23.34L20.44 18.47Q19.03 20.05 17.30 20.05L17.30 20.05Q15.50 20.05 14.39 18.45L14.39 18.45Q13.20 16.73 13.20 13.93L13.20 13.93Q13.20 11.70 14.06 10.15L14.06 10.15Q15.20 8.04 17.25 8.04L17.25 8.04Q18.96 8.04 20.60 10.01L20.60 10.01L20.89 8.50L22.22 8.50L22.22 23.34ZM17.66 9.74L17.66 9.74Q16.43 9.74 15.74 11.02L15.74 11.02Q15.09 12.13 15.09 13.98L15.09 13.98Q15.09 18.33 17.68 18.33L17.68 18.33Q19.03 18.33 19.86 16.89L19.86 16.89Q20.51 15.74 20.51 13.96L20.51 13.96Q20.51 11.82 19.43 10.61L19.43 10.61Q18.68 9.74 17.66 9.74ZM26.43 19.90L24.57 3.09L26.47 3.09L27.46 15.95L29.11 3.09L30.89 3.09L32.54 15.95L33.53 3.09L35.43 3.09L33.57 19.90L31.68 19.90L30 6.55L28.31 19.90L26.43 19.90ZM37.78 8.50L39.11 8.50L39.40 10.01Q41.00 8.04 42.73 8.04L42.73 8.04Q44.48 8.04 45.61 9.60L45.61 9.60Q46.80 11.27 46.80 13.93L46.80 13.93Q46.80 16.42 45.84 18.08L45.84 18.08Q44.71 20.05 42.70 20.05L42.70 20.05Q40.97 20.05 39.56 18.47L39.56 18.47L39.56 23.34L37.78 23.34L37.78 8.50ZM42.32 9.74L42.32 9.74Q41.14 9.74 40.32 10.91L40.32 10.91Q39.49 12.12 39.49 13.96L39.49 13.96Q39.49 15.63 40.07 16.75L40.07 16.75Q40.85 18.33 42.34 18.33L42.34 18.33Q43.52 18.33 44.21 17.20L44.21 17.20Q44.91 15.98 44.91 13.96L44.91 13.96Q44.91 12.11 44.26 10.98L44.26 10.98Q43.55 9.74 42.32 9.74Z"/></svg>