<svg xmlns="http://www.w3.org/2000/svg" xmlns:xlink="http://www.w3.org/1999/xlink" width="48" height="24"><path fill="black" stroke="black" d="M4.66 8.50L4.66 5.40L6.49 5.40L6.49 8.50L9.32 8.50L9.32 10.22L6.49 10.22L6.49 17.48Q6.49 18.30 7.41 18.30L7.41 18.30Q8.52 18.30 9.48 18.12L9.48 18.12L9.48 19.91Q8.06 20.11 7.04 20.11L7.04 20.11Q4.66 20.11 4.66 17.73L4.66 17.73L4.66 10.22L2.40 10.22L2.40 8.50L4.66 8.50ZM14.41 19.90L12.71 8.50L14.39 8.50L15.40 17.23L17.09 8.50L18.90 8.50L20.59 17.23L21.60 8.50L23.27 8.50L21.57 19.90L19.72 19.90L18 11.02L16.27 19.90L14.41 19.90ZM34.88 19.90L33.34 19.90L33.34 17.64Q32.00 20.38 29.78 20.38L29.78 20.38Q27.61 20.38 26.34 18.14L26.34 18.14Q25.10 15.90 25.10 11.52L25.10 11.52Q25.10 7.41 26.40 4.99L26.40 4.99Q27.69 2.61 30.09 2.61L30.09 2.61Q33.95 2.61 34.71 7.90L34.71 7.90L32.74 7.90Q32.20 4.42 30.09 4.42L30.09 4.42Q27.16 4.42 27.16 11.47L27.16 11.47Q27.16 18.57 30 18.57L30 18.57Q32.58 18.57 33.13 13.63L33.13 13.63L30.60 13.63L30.60 11.91L34.88 11.91L34.88 19.90ZM37.15 19.90L37.15 3.09L39.54 3.09L41.99 16.89L44.44 3.09L46.84 3.09L46.84 19.90L45.21 19.90L45.21 6.86L42.88 19.90L41.11 19.90L38.87 6.86L38.87 19.90L37.15 19.90Z"/></svg>