<svg xmlns="http://www.w3.org/2000/svg" xmlns:xlink="http://www.w3.org/1999/xlink" width="48" height="24"><path fill="black" stroke="black" d="M0.94 4.97L0.94 3.09L11.06 3.09L11.06 4.97L7.01 4.97L7.01 19.90L4.99 19.90L4.99 4.97L0.94 4.97ZM14.41 19.90L12.71 8.50L14.39 8.50L15.40 17.23L17.09 8.50L18.90 8.50L20.59 17.23L21.60 8.50L23.27 8.50L21.57 19.90L19.72 19.90L18 11.02L16.27 19.90L14.41 19.90ZM28.66 8.50L28.66 5.40L30.49 5.40L30.49 8.50L33.32 8.50L33.32 10.22L30.49 10.22L30.49 17.48Q30.49 18.30 31.41 18.30L31.41 18.30Q32.52 18.30 33.48 18.12L33.48 18.12L33.48 19.91Q32.06 20.11 31.04 20.11L31.04 20.11Q28.66 20.11 28.66 17.73L28.66 17.73L28.66 10.22L26.40 10.22L26.40 8.50L28.66 8.50ZM41.45 18.89L37.42 8.50L39.48 8.50L42.34 16.61L44.86 8.50L46.95 8.50L42.23 21.67Q41.85 22.82 40.90 23.18L40.90 23.18Q40.45 23.36 38.06 23.36L38.06 23.36L38.06 21.62L39.09 21.62Q39.46 21.62 39.62 21.62L39.62 21.62Q40.43 21.62 40.68 20.98L40.68 20.98L41.45 18.89Z"/></svg>