<svg xmlns="http://www.w3.org/2000/svg" xmlns:xlink="http://www.w3.org/1999/xlink" width="48" height="24"><path fill="black" stroke="black" d="M0.94 4.97L0.94 3.09L11.06 3.09L11.06 4.97L7.01 4.97L7.01 19.90L4.99 19.90L4.99 4.97L0.94 4.97ZM17.03 13.31L12.73 3.09L14.88 3.09L18.01 11.11L21.13 3.09L23.29 3.09L19.00 13.31L19.00 19.90L17.03 19.90L17.03 13.31ZM32.44 9.79L32.44 3.09L34.22 3.09L34.22 19.90L32.92 19.90L32.46 18.41Q31.24 20.38 29.27 20.38L29.27 20.38Q27.46 20.38 26.34 18.62L26.34 18.62Q25.22 16.91 25.22 14.06L25.22 14.06Q25.22 11.73 26.06 10.13L26.06 10.13Q27.18 8.04 29.25 8.04L29.25 8.04Q30.97 8.04 32.44 9.79L32.44 9.79ZM29.68 9.74L29.68 9.74Q28.44 9.74 27.71 11.09L27.71 11.09Q27.09 12.30 27.09 14.09L27.09 14.09Q27.09 16.02 27.67 17.21L27.67 17.21Q28.35 18.68 29.68 18.68L29.68 18.68Q30.89 18.68 31.69 17.47L31.69 17.47Q32.51 16.27 32.51 14.09L32.51 14.09Q32.51 12.32 31.89 11.18L31.89 11.18Q31.13 9.74 29.68 9.74ZM41.11 19.90L36.64 19.90L36.64 18.12L38.02 18.12L38.02 4.88L36.64 4.88L36.64 3.09L40.99 3.09Q43.85 3.09 45.39 5.09L45.39 5.09Q46.90 7.04 46.90 11.23L46.90 11.23Q46.90 15.56 45.50 17.59L45.50 17.59Q43.92 19.90 41.11 19.90L41.11 19.90ZM40.90 4.88L39.94 4.88L39.94 18.12L41.04 18.12Q44.93 18.12 44.93 11.23L44.93 11.23Q44.93 7.80 43.82 6.26L43.82 6.26Q42.83 4.88 40.90 4.88L40.90 4.88Z"/></svg>