<svg xmlns="http://www.w3.org/2000/svg" xmlns:xlink="http://www.w3.org/1999/xlink" width="48" height="24"><path fill="black" stroke="black" d="M1.39 14.75L1.39 3.09L3.32 3.09L3.32 14.75Q3.32 18.57 6 18.57L6 18.57Q8.68 18.57 8.68 14.75L8.68 14.75L8.68 3.09L10.61 3.09L10.61 14.75Q10.61 17.17 9.62 18.62L9.62 18.62Q8.44 20.38 6 20.38L6 20.38Q1.39 20.38 1.39 14.75L1.39 14.75ZM13.10 8.50L14.37 8.50L14.64 9.39Q15.66 8.04 16.77 8.04L16.77 8.04Q17.88 8.04 18.49 9.39L18.49 9.39Q19.56 8.04 20.84 8.04L20.84 8.04Q22.90 8.04 22.90 10.92L22.90 10.92L22.90 19.90L21.18 19.90L21.18 11.25Q21.18 9.57 20.33 9.57L20.33 9.57Q19.57 9.57 19.10 10.42L19.10 10.42Q18.83 10.95 18.83 11.57L18.83 11.57L18.83 19.90L17.16 19.90L17.16 11.23Q17.16 9.57 16.29 9.57L16.29 9.57Q14.82 9.57 14.82 11.54L14.82 11.54L14.82 19.90L13.10 19.90L13.10 8.50ZM25.15 19.90L25.15 3.09L27.54 3.09L29.99 16.89L32.44 3.09L34.84 3.09L34.84 19.90L33.21 19.90L33.21 6.86L30.88 19.90L29.11 19.90L26.87 6.86L26.87 19.90L25.15 19.90ZM44.61 16.08L46.56 16.08Q45.62 20.38 42.02 20.38L42.02 20.38Q39.86 20.38 38.59 18.57L38.59 18.57Q37.44 16.92 37.44 14.20L37.44 14.20Q37.44 11.61 38.52 9.96L38.52 9.96Q39.79 8.04 42 8.04L42 8.04Q45.43 8.04 46.37 11.93L46.37 11.93L44.45 11.93Q43.95 9.71 42.02 9.71L42.02 9.71Q40.80 9.71 40.09 10.84L40.09 10.84Q39.32 12.05 39.32 14.20L39.32 14.20Q39.32 15.98 39.84 17.12L39.84 17.12Q40.56 18.70 42.02 18.70L42.02 18.70Q44.16 18.70 44.61 16.08L44.61 16.08Z"/></svg>