<svg xmlns="http://www.w3.org/2000/svg" xmlns:xlink="http://www.w3.org/1999/xlink" width="48" height="24"><path fill="black" stroke="black" d="M1.76 16.42L1.76 8.50L3.54 8.50L3.54 16.23Q3.54 18.70 5.50 18.70L5.50 18.70Q6.76 18.70 7.72 17.77L7.72 17.77Q8.59 16.93 8.59 15.57L8.59 15.57L8.59 8.50L10.37 8.50L10.37 19.90L9.05 19.90L8.73 18.55Q7.16 20.38 5.10 20.38L5.10 20.38Q3.30 20.38 2.40 19.01L2.40 19.01Q1.76 18 1.76 16.42L1.76 16.42ZM13.39 19.90L13.39 3.09L15.87 3.09L20.73 16.63L20.73 3.09L22.56 3.09L22.56 19.90L20.30 19.90L15.32 6.07L15.32 19.90L13.39 19.90ZM28.85 10.97L25.44 3.09L27.61 3.09L30 9L32.40 3.09L34.56 3.09L31.16 10.97L35.17 19.90L32.91 19.90L30 12.88L27.11 19.90L24.84 19.90L28.85 10.97ZM41.45 18.89L37.42 8.50L39.48 8.50L42.34 16.61L44.86 8.50L46.95 8.50L42.23 21.67Q41.85 22.82 40.90 23.18L40.90 23.18Q40.45 23.36 38.06 23.36L38.06 23.36L38.06 21.62L39.09 21.62Q39.46 21.62 39.62 21.62L39.62 21.62Q40.43 21.62 40.68 20.98L40.68 20.98L41.45 18.89Z"/></svg>