<svg xmlns="http://www.w3.org/2000/svg" xmlns:xlink="http://www.w3.org/1999/xlink" width="48" height="24"><path fill="black" stroke="black" d="M1.39 14.75L1.39 3.09L3.32 3.09L3.32 14.75Q3.32 18.57 6 18.57L6 18.57Q8.68 18.57 8.68 14.75L8.68 14.75L8.68 3.09L10.61 3.09L10.61 14.75Q10.61 17.17 9.62 18.62L9.62 18.62Q8.44 20.38 6 20.38L6 20.38Q1.39 20.38 1.39 14.75L1.39 14.75ZM22.22 23.34L20.44 23.34L20.44 18.47Q19.03 20.05 17.30 20.05L17.30 20.05Q15.50 20.05 14.39 18.45L14.39 18.45Q13.20 16.73 13.20 13.93L13.20 13.93Q13.20 11.70 14.06 10.15L14.06 10.15Q15.20 8.04 17.25 8.04L17.25 8.04Q18.96 8.04 20.60 10.01L20.60 10.01L20.89 8.50L22.22 8.50L22.22 23.34ZM17.66 9.74L17.66 9.74Q16.43 9.74 15.74 11.02L15.74 11.02Q15.09 12.13 15.09 13.98L15.09 13.98Q15.09 18.33 17.68 18.33L17.68 18.33Q19.03 18.33 19.86 16.89L19.86 16.89Q20.51 15.74 20.51 13.96L20.51 13.96Q20.51 11.82 19.43 10.61L19.43 10.61Q18.68 9.74 17.66 9.74ZM25.76 8.50L27.18 8.50L27.45 9.96Q29.25 8.04 31.01 8.04L31.01 8.04Q32.96 8.04 33.87 9.76L33.87 9.76Q34.37 10.73 34.37 12.12L34.37 12.12L34.37 19.90L32.59 19.90L32.59 12.64Q32.59 9.74 30.73 9.74L30.73 9.74Q29.46 9.74 28.52 10.65L28.52 10.65Q27.54 11.64 27.54 12.91L27.54 12.91L27.54 19.90L25.76 19.90L25.76 8.50ZM37.44 16.36L39.34 16.36Q39.66 18.76 42.14 18.76L42.14 18.76Q44.64 18.76 44.64 17.00L44.64 17.00Q44.64 16.16 44.06 15.69L44.06 15.69Q43.45 15.19 41.88 14.64L41.88 14.64L41.54 14.51Q39.81 13.91 39.02 13.31L39.02 13.31Q37.90 12.43 37.90 11.19L37.90 11.19Q37.90 9.70 39.20 8.80L39.20 8.80Q40.32 8.03 41.93 8.03L41.93 8.03Q45.55 8.03 46.13 11.32L46.13 11.32L44.26 11.32Q43.97 9.56 41.91 9.56L41.91 9.56Q39.70 9.56 39.70 11.12L39.70 11.12Q39.70 12.14 42.66 13.18L42.66 13.18Q44.32 13.77 45.05 14.30L45.05 14.30Q46.46 15.30 46.46 16.96L46.46 16.96Q46.46 18.56 45.20 19.50L45.20 19.50Q44.00 20.37 42.09 20.37L42.09 20.37Q37.91 20.37 37.44 16.36L37.44 16.36Z"/></svg>