<svg xmlns="http://www.w3.org/2000/svg" xmlns:xlink="http://www.w3.org/1999/xlink" width="48" height="24"><path fill="black" stroke="black" d="M1.39 14.75L1.39 3.09L3.32 3.09L3.32 14.75Q3.32 18.57 6 18.57L6 18.57Q8.68 18.57 8.68 14.75L8.68 14.75L8.68 3.09L10.61 3.09L10.61 14.75Q10.61 17.17 9.62 18.62L9.62 18.62Q8.44 20.38 6 20.38L6 20.38Q1.39 20.38 1.39 14.75L1.39 14.75ZM13.76 16.42L13.76 8.50L15.54 8.50L15.54 16.23Q15.54 18.70 17.50 18.70L17.50 18.70Q18.76 18.70 19.72 17.77L19.72 17.77Q20.59 16.93 20.59 15.57L20.59 15.57L20.59 8.50L22.37 8.50L22.37 19.90L21.05 19.90L20.73 18.55Q19.16 20.38 17.10 20.38L17.10 20.38Q15.30 20.38 14.40 19.01L14.40 19.01Q13.76 18 13.76 16.42L13.76 16.42ZM24.50 19.90L28.80 3.09L31.20 3.09L35.50 19.90L33.41 19.90L32.13 14.41L27.87 14.41L26.59 19.90L24.50 19.90ZM31.75 12.74L30 4.79L28.24 12.74L31.75 12.74ZM40.66 8.50L40.66 5.40L42.49 5.40L42.49 8.50L45.32 8.50L45.32 10.22L42.49 10.22L42.49 17.48Q42.49 18.30 43.41 18.30L43.41 18.30Q44.52 18.30 45.48 18.12L45.48 18.12L45.48 19.91Q44.06 20.11 43.04 20.11L43.04 20.11Q40.66 20.11 40.66 17.73L40.66 17.73L40.66 10.22L38.40 10.22L38.40 8.50L40.66 8.50Z"/></svg>