<svg xmlns="http://www.w3.org/2000/svg" xmlns:xlink="http://www.w3.org/1999/xlink" width="48" height="24"><path fill="black" stroke="black" d="M4.73 19.90L0.82 3.09L2.95 3.09L6 17.55L9.05 3.09L11.19 3.09L7.28 19.90L4.73 19.90ZM18 2.61L18 2.61Q22.66 2.61 22.66 11.50L22.66 11.50Q22.66 20.38 18 20.38L18 20.38Q13.35 20.38 13.35 11.50L13.35 11.50Q13.35 2.61 18 2.61ZM15.66 15.67L15.66 15.67L19.95 5.88Q19.27 4.27 17.98 4.27L17.98 4.27Q15.32 4.27 15.32 11.50L15.32 11.50Q15.32 13.96 15.66 15.67ZM20.36 7.34L16.05 17.09Q16.71 18.73 18 18.73L18 18.73Q20.70 18.73 20.70 11.47L20.70 11.47Q20.70 9.07 20.36 7.34L20.36 7.34ZM27.59 11.82L25.66 11.82Q26.13 8.03 30.01 8.03L30.01 8.03Q33.91 8.03 33.91 12.21L33.91 12.21L33.91 17.94Q33.91 18.62 34.54 18.62L34.54 18.62Q34.75 18.62 35.11 18.54L35.11 18.54L35.11 20.23Q34.63 20.34 33.96 20.34L33.96 20.34Q32.38 20.34 32.17 18.57L32.17 18.57Q30.54 20.34 28.59 20.34L28.59 20.34Q27.32 20.34 26.50 19.68L26.50 19.68Q25.42 18.81 25.42 17.11L25.42 17.11Q25.42 13.16 32.19 12.69L32.19 12.69L32.19 12.21Q32.19 9.63 30.01 9.63L30.01 9.63Q27.76 9.63 27.59 11.82L27.59 11.82ZM32.19 15.79L32.19 14.20Q27.18 14.45 27.18 17.02L27.18 17.02Q27.18 18.74 28.88 18.74L28.88 18.74Q30.04 18.74 31.14 17.85L31.14 17.85Q32.19 17.02 32.19 15.79L32.19 15.79ZM37.10 8.50L38.37 8.50L38.64 9.39Q39.66 8.04 40.77 8.04L40.77 8.04Q41.88 8.04 42.49 9.39L42.49 9.39Q43.56 8.04 44.84 8.04L44.84 8.04Q46.90 8.04 46.90 10.92L46.90 10.92L46.90 19.90L45.18 19.90L45.18 11.25Q45.18 9.57 44.33 9.57L44.33 9.57Q43.57 9.57 43.10 10.42L43.10 10.42Q42.83 10.95 42.83 11.57L42.83 11.57L42.83 19.90L41.16 19.90L41.16 11.23Q41.16 9.57 40.29 9.57L40.29 9.57Q38.82 9.57 38.82 11.54L38.82 11.54L38.82 19.90L37.10 19.90L37.10 8.50Z"/></svg>