<svg xmlns="http://www.w3.org/2000/svg" xmlns:xlink="http://www.w3.org/1999/xlink" width="48" height="24"><path fill="black" stroke="black" d="M5.02 19.90L1.22 8.50L3.23 8.50L6 17.71L8.75 8.50L10.77 8.50L6.98 19.90L5.02 19.90ZM13.92 8.50L16.83 8.50L16.83 5.52Q16.83 3.09 19.30 3.09L19.30 3.09L21.89 3.09L21.89 4.77L19.64 4.77Q18.66 4.77 18.66 5.66L18.66 5.66L18.66 8.50L21.89 8.50L21.89 10.17L18.66 10.17L18.66 19.90L16.83 19.90L16.83 10.17L13.92 10.17L13.92 8.50ZM29.53 5.25L29.53 3.09L31.64 3.09L31.64 5.25L29.53 5.25ZM29.64 20.75L29.64 8.50L31.51 8.50L31.51 20.84Q31.51 23.36 29.06 23.36L29.06 23.36Q28.10 23.36 26.31 23.16L26.31 23.16L26.31 21.39Q27.38 21.63 28.68 21.63L28.68 21.63Q29.64 21.63 29.64 20.75L29.64 20.75ZM45.64 20.73L44.23 21.74Q43.98 20.77 43.56 19.97L43.56 19.97Q42.77 20.38 41.95 20.38L41.95 20.38Q39.68 20.38 38.43 18.05L38.43 18.05Q37.10 15.66 37.10 11.50L37.10 11.50Q37.10 7.28 38.47 4.88L38.47 4.88Q39.76 2.61 42 2.61L42 2.61Q44.25 2.61 45.55 4.90L45.55 4.90Q46.90 7.32 46.90 11.47L46.90 11.47Q46.90 16.64 44.88 18.98L44.88 18.98Q45.53 20.43 45.64 20.73L45.64 20.73ZM41.20 15.48L42.50 14.59Q43.02 15.29 44.06 17.18L44.06 17.18Q44.88 15.55 44.88 11.52L44.88 11.52Q44.88 4.37 42 4.37L42 4.37Q39.12 4.37 39.12 11.47L39.12 11.47Q39.12 18.68 41.95 18.68L41.95 18.68Q42.41 18.68 42.91 18.50L42.91 18.50Q42.21 16.93 41.20 15.48L41.20 15.48Z"/></svg>