<svg xmlns="http://www.w3.org/2000/svg" xmlns:xlink="http://www.w3.org/1999/xlink" width="48" height="24"><path fill="black" stroke="black" d="M5.02 19.90L1.22 8.50L3.23 8.50L6 17.71L8.75 8.50L10.77 8.50L6.98 19.90L5.02 19.90ZM13.10 8.50L14.37 8.50L14.64 9.39Q15.66 8.04 16.77 8.04L16.77 8.04Q17.88 8.04 18.49 9.39L18.49 9.39Q19.56 8.04 20.84 8.04L20.84 8.04Q22.90 8.04 22.90 10.92L22.90 10.92L22.90 19.90L21.18 19.90L21.18 11.25Q21.18 9.57 20.33 9.57L20.33 9.57Q19.57 9.57 19.10 10.42L19.10 10.42Q18.83 10.95 18.83 11.57L18.83 11.57L18.83 19.90L17.16 19.90L17.16 11.23Q17.16 9.57 16.29 9.57L16.29 9.57Q14.82 9.57 14.82 11.54L14.82 11.54L14.82 19.90L13.10 19.90L13.10 8.50ZM25.10 8.50L26.37 8.50L26.64 9.39Q27.66 8.04 28.77 8.04L28.77 8.04Q29.88 8.04 30.49 9.39L30.49 9.39Q31.56 8.04 32.84 8.04L32.84 8.04Q34.90 8.04 34.90 10.92L34.90 10.92L34.90 19.90L33.18 19.90L33.18 11.25Q33.18 9.57 32.33 9.57L32.33 9.57Q31.57 9.57 31.10 10.42L31.10 10.42Q30.83 10.95 30.83 11.57L30.83 11.57L30.83 19.90L29.16 19.90L29.16 11.23Q29.16 9.57 28.29 9.57L28.29 9.57Q26.82 9.57 26.82 11.54L26.82 11.54L26.82 19.90L25.10 19.90L25.10 8.50ZM37.46 19.90L37.46 3.09L39.39 3.09L39.39 10.24L44.61 10.24L44.61 3.09L46.54 3.09L46.54 19.90L44.61 19.90L44.61 12.07L39.39 12.07L39.39 19.90L37.46 19.90Z"/></svg>