<svg xmlns="http://www.w3.org/2000/svg" xmlns:xlink="http://www.w3.org/1999/xlink" width="48" height="24"><path fill="black" stroke="black" d="M5.02 19.90L1.22 8.50L3.23 8.50L6 17.71L8.75 8.50L10.77 8.50L6.98 19.90L5.02 19.90ZM13.39 19.90L13.39 3.09L15.87 3.09L20.73 16.63L20.73 3.09L22.56 3.09L22.56 19.90L20.30 19.90L15.32 6.07L15.32 19.90L13.39 19.90ZM31.65 15.64L31.65 3.09L33.67 3.09L33.67 15.55Q33.67 20.37 29.50 20.37L29.50 20.37Q25.31 20.37 25.05 15.26L25.05 15.26L27.09 15.26Q27.13 18.49 29.50 18.49L29.50 18.49Q31.65 18.49 31.65 15.64L31.65 15.64ZM37.83 4.97L37.83 3.09L46.30 3.09L46.30 4.78L39.66 17.98L46.56 17.98L46.56 19.90L37.51 19.90L37.51 18.02L44.10 4.97L37.83 4.97Z"/></svg>