<svg xmlns="http://www.w3.org/2000/svg" xmlns:xlink="http://www.w3.org/1999/xlink" width="48" height="24"><path fill="black" stroke="black" d="M5.02 19.90L1.22 8.50L3.23 8.50L6 17.71L8.75 8.50L10.77 8.50L6.98 19.90L5.02 19.90ZM13.78 8.50L15.11 8.50L15.40 10.01Q17.00 8.04 18.73 8.04L18.73 8.04Q20.48 8.04 21.61 9.60L21.61 9.60Q22.80 11.27 22.80 13.93L22.80 13.93Q22.80 16.42 21.84 18.08L21.84 18.08Q20.71 20.05 18.70 20.05L18.70 20.05Q16.97 20.05 15.56 18.47L15.56 18.47L15.56 23.34L13.78 23.34L13.78 8.50ZM18.32 9.74L18.32 9.74Q17.14 9.74 16.32 10.91L16.32 10.91Q15.49 12.12 15.49 13.96L15.49 13.96Q15.49 15.63 16.07 16.75L16.07 16.75Q16.85 18.33 18.34 18.33L18.34 18.33Q19.52 18.33 20.21 17.20L20.21 17.20Q20.91 15.98 20.91 13.96L20.91 13.96Q20.91 12.11 20.26 10.98L20.26 10.98Q19.55 9.74 18.32 9.74ZM30.02 8.04L30.02 8.04Q32.23 8.04 33.48 9.98L33.48 9.98Q34.56 11.60 34.56 14.20L34.56 14.20Q34.56 16.16 33.91 17.64L33.91 17.64Q32.72 20.38 29.98 20.38L29.98 20.38Q27.86 20.38 26.59 18.57L26.59 18.57Q25.44 16.92 25.44 14.20L25.44 14.20Q25.44 11.27 26.77 9.60L26.77 9.60Q28.03 8.04 30.02 8.04ZM29.98 9.71L29.98 9.71Q28.69 9.71 27.96 11.06L27.96 11.06Q27.32 12.25 27.32 14.20L27.32 14.20Q27.32 16.01 27.84 17.14L27.84 17.14Q28.57 18.70 30 18.70L30 18.70Q31.31 18.70 32.04 17.36L32.04 17.36Q32.68 16.17 32.68 14.23L32.68 14.23Q32.68 12.20 32.02 11.04L32.02 11.04Q31.30 9.71 29.98 9.71ZM41.45 18.89L37.42 8.50L39.48 8.50L42.34 16.61L44.86 8.50L46.95 8.50L42.23 21.67Q41.85 22.82 40.90 23.18L40.90 23.18Q40.45 23.36 38.06 23.36L38.06 23.36L38.06 21.62L39.09 21.62Q39.46 21.62 39.62 21.62L39.62 21.62Q40.43 21.62 40.68 20.98L40.68 20.98L41.45 18.89Z"/></svg>