<svg xmlns="http://www.w3.org/2000/svg" xmlns:xlink="http://www.w3.org/1999/xlink" width="48" height="24"><path fill="black" stroke="black" d="M5.02 19.90L1.22 8.50L3.23 8.50L6 17.71L8.75 8.50L10.77 8.50L6.98 19.90L5.02 19.90ZM13.68 19.90L13.68 3.09L17.88 3.09Q19.96 3.09 21.25 4.05L21.25 4.05Q22.95 5.37 22.95 7.83L22.95 7.83Q22.95 10.79 20.54 12.08L20.54 12.08Q19.41 12.70 17.93 12.70L17.93 12.70L15.60 12.70L15.60 19.90L13.68 19.90ZM17.73 4.92L15.60 4.92L15.60 10.88L17.73 10.88Q20.98 10.88 20.98 7.85L20.98 7.85Q20.98 6.08 19.54 5.33L19.54 5.33Q18.76 4.92 17.73 4.92L17.73 4.92ZM28.85 10.97L25.44 3.09L27.61 3.09L30 9L32.40 3.09L34.56 3.09L31.16 10.97L35.17 19.90L32.91 19.90L30 12.88L27.11 19.90L24.84 19.90L28.85 10.97ZM37.10 15.07L39.12 15.07Q39.26 18.62 42.19 18.62L42.19 18.62Q43.24 18.62 43.95 18.09L43.95 18.09Q44.93 17.33 44.93 15.96L44.93 15.96Q44.93 14.48 43.70 13.36L43.70 13.36Q42.86 12.61 40.80 11.43L40.80 11.43Q37.56 9.52 37.56 6.87L37.56 6.87Q37.56 5.19 38.61 4.03L38.61 4.03Q39.89 2.61 42.02 2.61L42.02 2.61Q46.00 2.61 46.54 7.39L46.54 7.39L44.57 7.39Q44.48 6.29 44.11 5.64L44.11 5.64Q43.36 4.31 42.02 4.31L42.02 4.31Q40.64 4.31 39.96 5.25L39.96 5.25Q39.48 5.92 39.48 6.71L39.48 6.71Q39.48 8.61 42.57 10.42L42.57 10.42Q44.48 11.53 45.50 12.55L45.50 12.55Q46.88 13.89 46.88 15.94L46.88 15.94Q46.88 17.87 45.64 19.05L45.64 19.05Q44.33 20.38 42.25 20.38L42.25 20.38Q39.63 20.38 38.18 18.46L38.18 18.46Q37.17 17.12 37.10 15.07L37.10 15.07Z"/></svg>