<svg xmlns="http://www.w3.org/2000/svg" xmlns:xlink="http://www.w3.org/1999/xlink" width="48" height="24"><path fill="black" stroke="black" d="M5.02 19.90L1.22 8.50L3.23 8.50L6 17.71L8.75 8.50L10.77 8.50L6.98 19.90L5.02 19.90ZM16.66 8.50L16.66 5.40L18.49 5.40L18.49 8.50L21.32 8.50L21.32 10.22L18.49 10.22L18.49 17.48Q18.49 18.30 19.41 18.30L19.41 18.30Q20.52 18.30 21.48 18.12L21.48 18.12L21.48 19.91Q20.06 20.11 19.04 20.11L19.04 20.11Q16.66 20.11 16.66 17.73L16.66 17.73L16.66 10.22L14.40 10.22L14.40 8.50L16.66 8.50ZM34.88 19.90L33.34 19.90L33.34 17.64Q32.00 20.38 29.78 20.38L29.78 20.38Q27.61 20.38 26.34 18.14L26.34 18.14Q25.10 15.90 25.10 11.52L25.10 11.52Q25.10 7.41 26.40 4.99L26.40 4.99Q27.69 2.61 30.09 2.61L30.09 2.61Q33.95 2.61 34.71 7.90L34.71 7.90L32.74 7.90Q32.20 4.42 30.09 4.42L30.09 4.42Q27.16 4.42 27.16 11.47L27.16 11.47Q27.16 18.57 30 18.57L30 18.57Q32.58 18.57 33.13 13.63L33.13 13.63L30.60 13.63L30.60 11.91L34.88 11.91L34.88 19.90ZM37.76 19.90L37.76 3.09L39.54 3.09L39.54 9.79Q41.29 8.04 43.01 8.04L43.01 8.04Q44.96 8.04 45.87 9.76L45.87 9.76Q46.37 10.73 46.37 12.12L46.37 12.12L46.37 19.90L44.59 19.90L44.59 12.64Q44.59 9.74 42.73 9.74L42.73 9.74Q41.47 9.74 40.52 10.65L40.52 10.65Q39.54 11.64 39.54 12.90L39.54 12.90L39.54 19.90L37.76 19.90Z"/></svg>