<svg xmlns="http://www.w3.org/2000/svg" xmlns:xlink="http://www.w3.org/1999/xlink" width="48" height="24"><path fill="black" stroke="black" d="M4.73 19.90L0.82 3.09L2.95 3.09L6 17.55L9.05 3.09L11.19 3.09L7.28 19.90L4.73 19.90ZM14.41 19.90L12.71 8.50L14.39 8.50L15.40 17.23L17.09 8.50L18.90 8.50L20.59 17.23L21.60 8.50L23.27 8.50L21.57 19.90L19.72 19.90L18 11.02L16.27 19.90L14.41 19.90ZM31.32 19.90L29.36 19.90L29.36 5.54Q28.45 6.15 26.84 6.83L26.84 6.83L26.84 4.90Q28.71 4.21 29.86 3.09L29.86 3.09L31.32 3.09L31.32 19.90ZM37.68 19.90L37.68 3.09L41.88 3.09Q43.96 3.09 45.25 4.05L45.25 4.05Q46.95 5.37 46.95 7.83L46.95 7.83Q46.95 10.79 44.54 12.08L44.54 12.08Q43.41 12.70 41.93 12.70L41.93 12.70L39.60 12.70L39.60 19.90L37.68 19.90ZM41.73 4.92L39.60 4.92L39.60 10.88L41.73 10.88Q44.98 10.88 44.98 7.85L44.98 7.85Q44.98 6.08 43.54 5.33L43.54 5.33Q42.76 4.92 41.73 4.92L41.73 4.92Z"/></svg>