<svg xmlns="http://www.w3.org/2000/svg" xmlns:xlink="http://www.w3.org/1999/xlink" width="48" height="24"><path fill="black" stroke="black" d="M5.02 19.90L1.22 8.50L3.23 8.50L6 17.71L8.75 8.50L10.77 8.50L6.98 19.90L5.02 19.90ZM17.45 18.89L13.42 8.50L15.48 8.50L18.34 16.61L20.86 8.50L22.95 8.50L18.23 21.67Q17.85 22.82 16.90 23.18L16.90 23.18Q16.45 23.36 14.06 23.36L14.06 23.36L14.06 21.62L15.09 21.62Q15.46 21.62 15.62 21.62L15.62 21.62Q16.43 21.62 16.68 20.98L16.68 20.98L17.45 18.89ZM25.68 19.90L25.68 3.09L34.13 3.09L34.13 4.97L27.64 4.97L27.64 10.27L33.26 10.27L33.26 12.09L27.64 12.09L27.64 19.90L25.68 19.90ZM40.66 8.50L40.66 5.40L42.49 5.40L42.49 8.50L45.32 8.50L45.32 10.22L42.49 10.22L42.49 17.48Q42.49 18.30 43.41 18.30L43.41 18.30Q44.52 18.30 45.48 18.12L45.48 18.12L45.48 19.91Q44.06 20.11 43.04 20.11L43.04 20.11Q40.66 20.11 40.66 17.73L40.66 17.73L40.66 10.22L38.40 10.22L38.40 8.50L40.66 8.50Z"/></svg>