<svg xmlns="http://www.w3.org/2000/svg" xmlns:xlink="http://www.w3.org/1999/xlink" width="48" height="24"><path fill="black" stroke="black" d="M2.43 19.90L0.57 3.09L2.47 3.09L3.46 15.95L5.11 3.09L6.89 3.09L8.54 15.95L9.53 3.09L11.43 3.09L9.57 19.90L7.68 19.90L6 6.55L4.31 19.90L2.43 19.90ZM20.44 9.79L20.44 3.09L22.22 3.09L22.22 19.90L20.92 19.90L20.46 18.41Q19.24 20.38 17.27 20.38L17.27 20.38Q15.46 20.38 14.34 18.62L14.34 18.62Q13.22 16.91 13.22 14.06L13.22 14.06Q13.22 11.73 14.06 10.13L14.06 10.13Q15.18 8.04 17.25 8.04L17.25 8.04Q18.97 8.04 20.44 9.79L20.44 9.79ZM17.68 9.74L17.68 9.74Q16.44 9.74 15.71 11.09L15.71 11.09Q15.09 12.30 15.09 14.09L15.09 14.09Q15.09 16.02 15.67 17.21L15.67 17.21Q16.35 18.68 17.68 18.68L17.68 18.68Q18.89 18.68 19.69 17.47L19.69 17.47Q20.51 16.27 20.51 14.09L20.51 14.09Q20.51 12.32 19.89 11.18L19.89 11.18Q19.13 9.74 17.68 9.74ZM24.60 14.06L31.37 3.09L33.41 3.09L33.41 14.11L35.40 14.11L35.40 15.74L33.41 15.74L33.41 19.90L31.63 19.90L31.63 15.74L24.60 15.74L24.60 14.06ZM31.63 14.11L31.63 5.71L26.40 14.11L31.63 14.11ZM37.68 19.90L37.68 3.09L41.88 3.09Q43.96 3.09 45.25 4.05L45.25 4.05Q46.95 5.37 46.95 7.83L46.95 7.83Q46.95 10.79 44.54 12.08L44.54 12.08Q43.41 12.70 41.93 12.70L41.93 12.70L39.60 12.70L39.60 19.90L37.68 19.90ZM41.73 4.92L39.60 4.92L39.60 10.88L41.73 10.88Q44.98 10.88 44.98 7.85L44.98 7.85Q44.98 6.08 43.54 5.33L43.54 5.33Q42.76 4.92 41.73 4.92L41.73 4.92Z"/></svg>