<svg xmlns="http://www.w3.org/2000/svg" xmlns:xlink="http://www.w3.org/1999/xlink" width="48" height="24"><path fill="black" stroke="black" d="M2.43 19.90L0.57 3.09L2.47 3.09L3.46 15.95L5.11 3.09L6.89 3.09L8.54 15.95L9.53 3.09L11.43 3.09L9.57 19.90L7.68 19.90L6 6.55L4.31 19.90L2.43 19.90ZM17.11 19.90L12.64 19.90L12.64 18.12L14.02 18.12L14.02 4.88L12.64 4.88L12.64 3.09L16.99 3.09Q19.85 3.09 21.39 5.09L21.39 5.09Q22.90 7.04 22.90 11.23L22.90 11.23Q22.90 15.56 21.50 17.59L21.50 17.59Q19.92 19.90 17.11 19.90L17.11 19.90ZM16.90 4.88L15.94 4.88L15.94 18.12L17.04 18.12Q20.93 18.12 20.93 11.23L20.93 11.23Q20.93 7.80 19.82 6.26L19.82 6.26Q18.83 4.88 16.90 4.88L16.90 4.88ZM29.03 13.31L24.73 3.09L26.88 3.09L30.01 11.11L33.13 3.09L35.29 3.09L31.00 13.31L31.00 19.90L29.03 19.90L29.03 13.31ZM41.03 13.31L36.73 3.09L38.88 3.09L42.01 11.11L45.13 3.09L47.29 3.09L43.00 13.31L43.00 19.90L41.03 19.90L41.03 13.31Z"/></svg>