<svg xmlns="http://www.w3.org/2000/svg" xmlns:xlink="http://www.w3.org/1999/xlink" width="48" height="24"><path fill="black" stroke="black" d="M2.41 19.90L0.71 8.50L2.39 8.50L3.40 17.23L5.09 8.50L6.90 8.50L8.59 17.23L9.60 8.50L11.27 8.50L9.57 19.90L7.72 19.90L6 11.02L4.27 19.90L2.41 19.90ZM13.68 19.90L13.68 3.09L17.88 3.09Q19.96 3.09 21.25 4.05L21.25 4.05Q22.95 5.37 22.95 7.83L22.95 7.83Q22.95 10.79 20.54 12.08L20.54 12.08Q19.41 12.70 17.93 12.70L17.93 12.70L15.60 12.70L15.60 19.90L13.68 19.90ZM17.73 4.92L15.60 4.92L15.60 10.88L17.73 10.88Q20.98 10.88 20.98 7.85L20.98 7.85Q20.98 6.08 19.54 5.33L19.54 5.33Q18.76 4.92 17.73 4.92L17.73 4.92ZM32.82 14.30L34.84 14.30Q34.31 20.37 30.09 20.37L30.09 20.37Q27.62 20.37 26.27 17.80L26.27 17.80Q25.10 15.55 25.10 11.52L25.10 11.52Q25.10 7.41 26.40 4.99L26.40 4.99Q27.69 2.61 30.09 2.61L30.09 2.61Q33.95 2.61 34.70 7.90L34.70 7.90L32.73 7.90Q32.23 4.42 30.09 4.42L30.09 4.42Q27.16 4.42 27.16 11.52L27.16 11.52Q27.16 18.56 30.12 18.56L30.12 18.56Q32.61 18.56 32.82 14.30L32.82 14.30ZM42 2.61L42 2.61Q44.24 2.61 45.53 4.88L45.53 4.88Q46.90 7.28 46.90 11.50L46.90 11.50Q46.90 15.62 45.60 18L45.60 18Q44.31 20.38 42 20.38L42 20.38Q39.70 20.38 38.45 18.07L38.45 18.07Q37.10 15.61 37.10 11.47L37.10 11.47Q37.10 7.09 38.59 4.65L38.59 4.65Q39.84 2.61 42 2.61ZM42 4.37L42 4.37Q39.12 4.37 39.12 11.47L39.12 11.47Q39.12 18.62 42.02 18.62L42.02 18.62Q44.88 18.62 44.88 11.54L44.88 11.54Q44.88 4.37 42 4.37Z"/></svg>