<svg xmlns="http://www.w3.org/2000/svg" xmlns:xlink="http://www.w3.org/1999/xlink" width="48" height="24"><path fill="black" stroke="black" d="M2.41 19.90L0.71 8.50L2.39 8.50L3.40 17.23L5.09 8.50L6.90 8.50L8.59 17.23L9.60 8.50L11.27 8.50L9.57 19.90L7.72 19.90L6 11.02L4.27 19.90L2.41 19.90ZM22.22 23.34L20.44 23.34L20.44 18.47Q19.03 20.05 17.30 20.05L17.30 20.05Q15.50 20.05 14.39 18.45L14.39 18.45Q13.20 16.73 13.20 13.93L13.20 13.93Q13.20 11.70 14.06 10.15L14.06 10.15Q15.20 8.04 17.25 8.04L17.25 8.04Q18.96 8.04 20.60 10.01L20.60 10.01L20.89 8.50L22.22 8.50L22.22 23.34ZM17.66 9.74L17.66 9.74Q16.43 9.74 15.74 11.02L15.74 11.02Q15.09 12.13 15.09 13.98L15.09 13.98Q15.09 18.33 17.68 18.33L17.68 18.33Q19.03 18.33 19.86 16.89L19.86 16.89Q20.51 15.74 20.51 13.96L20.51 13.96Q20.51 11.82 19.43 10.61L19.43 10.61Q18.68 9.74 17.66 9.74ZM28.95 5.25L28.95 3.09L31.05 3.09L31.05 5.25L28.95 5.25ZM29.06 19.90L29.06 8.50L30.94 8.50L30.94 19.90L29.06 19.90ZM46.22 23.34L44.44 23.34L44.44 18.47Q43.03 20.05 41.30 20.05L41.30 20.05Q39.50 20.05 38.39 18.45L38.39 18.45Q37.20 16.73 37.20 13.93L37.20 13.93Q37.20 11.70 38.06 10.15L38.06 10.15Q39.20 8.04 41.25 8.04L41.25 8.04Q42.96 8.04 44.60 10.01L44.60 10.01L44.89 8.50L46.22 8.50L46.22 23.34ZM41.66 9.74L41.66 9.74Q40.43 9.74 39.74 11.02L39.74 11.02Q39.09 12.13 39.09 13.98L39.09 13.98Q39.09 18.33 41.68 18.33L41.68 18.33Q43.03 18.33 43.86 16.89L43.86 16.89Q44.51 15.74 44.51 13.96L44.51 13.96Q44.51 11.82 43.43 10.61L43.43 10.61Q42.68 9.74 41.66 9.74Z"/></svg>