<svg xmlns="http://www.w3.org/2000/svg" xmlns:xlink="http://www.w3.org/1999/xlink" width="48" height="24"><path fill="black" stroke="black" d="M2.43 19.90L0.57 3.09L2.47 3.09L3.46 15.95L5.11 3.09L6.89 3.09L8.54 15.95L9.53 3.09L11.43 3.09L9.57 19.90L7.68 19.90L6 6.55L4.31 19.90L2.43 19.90ZM15.50 8.50L17.33 8.50L17.33 10.90Q19.41 8.71 21.77 8.04L21.77 8.04L21.77 10.13Q19.05 10.78 17.33 13.08L17.33 13.08L17.33 19.90L15.50 19.90L15.50 8.50ZM32.44 9.79L32.44 3.09L34.22 3.09L34.22 19.90L32.92 19.90L32.46 18.41Q31.24 20.38 29.27 20.38L29.27 20.38Q27.46 20.38 26.34 18.62L26.34 18.62Q25.22 16.91 25.22 14.06L25.22 14.06Q25.22 11.73 26.06 10.13L26.06 10.13Q27.18 8.04 29.25 8.04L29.25 8.04Q30.97 8.04 32.44 9.79L32.44 9.79ZM29.68 9.74L29.68 9.74Q28.44 9.74 27.71 11.09L27.71 11.09Q27.09 12.30 27.09 14.09L27.09 14.09Q27.09 16.02 27.67 17.21L27.67 17.21Q28.35 18.68 29.68 18.68L29.68 18.68Q30.89 18.68 31.69 17.47L31.69 17.47Q32.51 16.27 32.51 14.09L32.51 14.09Q32.51 12.32 31.89 11.18L31.89 11.18Q31.13 9.74 29.68 9.74ZM41.02 19.90L37.22 8.50L39.23 8.50L42 17.71L44.75 8.50L46.77 8.50L42.98 19.90L41.02 19.90Z"/></svg>