<svg xmlns="http://www.w3.org/2000/svg" xmlns:xlink="http://www.w3.org/1999/xlink" width="48" height="24"><path fill="black" stroke="black" d="M2.43 19.90L0.57 3.09L2.47 3.09L3.46 15.95L5.11 3.09L6.89 3.09L8.54 15.95L9.53 3.09L11.43 3.09L9.57 19.90L7.68 19.90L6 6.55L4.31 19.90L2.43 19.90ZM13.44 16.36L15.34 16.36Q15.66 18.76 18.14 18.76L18.14 18.76Q20.64 18.76 20.64 17.00L20.64 17.00Q20.64 16.16 20.06 15.69L20.06 15.69Q19.45 15.19 17.88 14.64L17.88 14.64L17.54 14.51Q15.81 13.91 15.02 13.31L15.02 13.31Q13.90 12.43 13.90 11.19L13.90 11.19Q13.90 9.70 15.20 8.80L15.20 8.80Q16.32 8.03 17.93 8.03L17.93 8.03Q21.55 8.03 22.13 11.32L22.13 11.32L20.26 11.32Q19.97 9.56 17.91 9.56L17.91 9.56Q15.70 9.56 15.70 11.12L15.70 11.12Q15.70 12.14 18.66 13.18L18.66 13.18Q20.32 13.77 21.05 14.30L21.05 14.30Q22.46 15.30 22.46 16.96L22.46 16.96Q22.46 18.56 21.20 19.50L21.20 19.50Q20.00 20.37 18.09 20.37L18.09 20.37Q13.91 20.37 13.44 16.36L13.44 16.36ZM26.41 19.90L24.71 8.50L26.39 8.50L27.40 17.23L29.09 8.50L30.90 8.50L32.59 17.23L33.60 8.50L35.27 8.50L33.57 19.90L31.72 19.90L30 11.02L28.27 19.90L26.41 19.90ZM37.68 19.90L37.68 3.09L39.69 3.09L39.69 17.98L46.77 17.98L46.77 19.90L37.68 19.90Z"/></svg>