<svg xmlns="http://www.w3.org/2000/svg" xmlns:xlink="http://www.w3.org/1999/xlink" width="48" height="24"><path fill="black" stroke="black" d="M2.41 19.90L0.71 8.50L2.39 8.50L3.40 17.23L5.09 8.50L6.90 8.50L8.59 17.23L9.60 8.50L11.27 8.50L9.57 19.90L7.72 19.90L6 11.02L4.27 19.90L2.41 19.90ZM17.03 13.31L12.73 3.09L14.88 3.09L18.01 11.11L21.13 3.09L23.29 3.09L19.00 13.31L19.00 19.90L17.03 19.90L17.03 13.31ZM27.59 11.82L25.66 11.82Q26.13 8.03 30.01 8.03L30.01 8.03Q33.91 8.03 33.91 12.21L33.91 12.21L33.91 17.94Q33.91 18.62 34.54 18.62L34.54 18.62Q34.75 18.62 35.11 18.54L35.11 18.54L35.11 20.23Q34.63 20.34 33.96 20.34L33.96 20.34Q32.38 20.34 32.17 18.57L32.17 18.57Q30.54 20.34 28.59 20.34L28.59 20.34Q27.32 20.34 26.50 19.68L26.50 19.68Q25.42 18.81 25.42 17.11L25.42 17.11Q25.42 13.16 32.19 12.69L32.19 12.69L32.19 12.21Q32.19 9.63 30.01 9.63L30.01 9.63Q27.76 9.63 27.59 11.82L27.59 11.82ZM32.19 15.79L32.19 14.20Q27.18 14.45 27.18 17.02L27.18 17.02Q27.18 18.74 28.88 18.74L28.88 18.74Q30.04 18.74 31.14 17.85L31.14 17.85Q32.19 17.02 32.19 15.79L32.19 15.79ZM39.50 8.50L41.33 8.50L41.33 10.90Q43.41 8.71 45.77 8.04L45.77 8.04L45.77 10.13Q43.05 10.78 41.33 13.08L41.33 13.08L41.33 19.90L39.50 19.90L39.50 8.50Z"/></svg>