<svg xmlns="http://www.w3.org/2000/svg" xmlns:xlink="http://www.w3.org/1999/xlink" width="48" height="24"><path fill="black" stroke="black" d="M4.99 13.61L1.77 8.50L3.96 8.50L6 12.23L8.04 8.50L10.22 8.50L7.01 13.61L10.97 19.90L8.64 19.90L6 15.16L3.36 19.90L1.03 19.90L4.99 13.61ZM12.50 19.90L16.80 3.09L19.20 3.09L23.50 19.90L21.41 19.90L20.13 14.41L15.87 14.41L14.59 19.90L12.50 19.90ZM19.75 12.74L18 4.79L16.24 12.74L19.75 12.74ZM25.46 19.90L25.46 3.09L27.39 3.09L27.39 10.24L32.61 10.24L32.61 3.09L34.54 3.09L34.54 19.90L32.61 19.90L32.61 12.07L27.39 12.07L27.39 19.90L25.46 19.90ZM44.68 16.36L46.56 16.36Q45.52 20.37 42.02 20.37L42.02 20.37Q39.86 20.37 38.59 18.56L38.59 18.56Q37.44 16.91 37.44 14.20L37.44 14.20Q37.44 11.61 38.52 9.96L38.52 9.96Q39.79 8.04 42 8.04L42 8.04Q46.32 8.04 46.61 14.57L46.61 14.57L39.25 14.57Q39.39 18.76 42.05 18.76L42.05 18.76Q44.16 18.76 44.68 16.36L44.68 16.36ZM39.32 13.03L44.68 13.03Q44.30 9.64 42 9.64L42 9.64Q39.79 9.64 39.32 13.03L39.32 13.03Z"/></svg>