<svg xmlns="http://www.w3.org/2000/svg" xmlns:xlink="http://www.w3.org/1999/xlink" width="48" height="24"><path fill="black" stroke="black" d="M4.99 13.61L1.77 8.50L3.96 8.50L6 12.23L8.04 8.50L10.22 8.50L7.01 13.61L10.97 19.90L8.64 19.90L6 15.16L3.36 19.90L1.03 19.90L4.99 13.61ZM12.50 19.90L16.80 3.09L19.20 3.09L23.50 19.90L21.41 19.90L20.13 14.41L15.87 14.41L14.59 19.90L12.50 19.90ZM19.75 12.74L18 4.79L16.24 12.74L19.75 12.74ZM31.65 15.64L31.65 3.09L33.67 3.09L33.67 15.55Q33.67 20.37 29.50 20.37L29.50 20.37Q25.31 20.37 25.05 15.26L25.05 15.26L27.09 15.26Q27.13 18.49 29.50 18.49L29.50 18.49Q31.65 18.49 31.65 15.64L31.65 15.64ZM45.64 20.73L44.23 21.74Q43.98 20.77 43.56 19.97L43.56 19.97Q42.77 20.38 41.95 20.38L41.95 20.38Q39.68 20.38 38.43 18.05L38.43 18.05Q37.10 15.66 37.10 11.50L37.10 11.50Q37.10 7.28 38.47 4.88L38.47 4.88Q39.76 2.61 42 2.61L42 2.61Q44.25 2.61 45.55 4.90L45.55 4.90Q46.90 7.32 46.90 11.47L46.90 11.47Q46.90 16.64 44.88 18.98L44.88 18.98Q45.53 20.43 45.64 20.73L45.64 20.73ZM41.20 15.48L42.50 14.59Q43.02 15.29 44.06 17.18L44.06 17.18Q44.88 15.55 44.88 11.52L44.88 11.52Q44.88 4.37 42 4.37L42 4.37Q39.12 4.37 39.12 11.47L39.12 11.47Q39.12 18.68 41.95 18.68L41.95 18.68Q42.41 18.68 42.91 18.50L42.91 18.50Q42.21 16.93 41.20 15.48L41.20 15.48Z"/></svg>