<svg xmlns="http://www.w3.org/2000/svg" xmlns:xlink="http://www.w3.org/1999/xlink" width="48" height="24"><path fill="black" stroke="black" d="M4.85 10.97L1.44 3.09L3.61 3.09L6 9L8.40 3.09L10.56 3.09L7.16 10.97L11.17 19.90L8.91 19.90L6 12.88L3.11 19.90L0.84 19.90L4.85 10.97ZM13.68 19.90L13.68 3.09L15.69 3.09L15.69 17.98L22.77 17.98L22.77 19.90L13.68 19.90ZM25.68 19.90L25.68 3.09L29.84 3.09Q31.86 3.09 33.14 4.01L33.14 4.01Q34.77 5.20 34.77 7.46L34.77 7.46Q34.77 10.77 31.63 11.74L31.63 11.74L35.23 19.90L33.02 19.90L29.75 12.06L27.55 12.06L27.55 19.90L25.68 19.90ZM29.54 4.88L27.55 4.88L27.55 10.34L29.57 10.34Q30.62 10.34 31.41 9.90L31.41 9.90Q32.85 9.15 32.85 7.51L32.85 7.51Q32.85 4.88 29.54 4.88L29.54 4.88ZM39.94 10.84L39.94 10.84Q37.51 9.66 37.51 7.05L37.51 7.05Q37.51 5.80 38.11 4.77L38.11 4.77Q39.38 2.61 42 2.61L42 2.61Q43.31 2.61 44.45 3.30L44.45 3.30Q46.49 4.56 46.49 7.05L46.49 7.05Q46.49 9.66 44.06 10.84L44.06 10.84Q47.17 12.04 47.17 15.34L47.17 15.34Q47.17 17.23 46.11 18.57L46.11 18.57Q44.71 20.38 42 20.38L42 20.38Q39.70 20.38 38.31 19.05L38.31 19.05Q36.84 17.66 36.84 15.34L36.84 15.34Q36.84 12.04 39.94 10.84ZM42 4.15L42 4.15Q40.79 4.15 40.03 5.02L40.03 5.02Q39.34 5.82 39.34 7.03L39.34 7.03Q39.34 7.83 39.63 8.47L39.63 8.47Q40.35 10.03 42.02 10.03L42.02 10.03Q42.98 10.03 43.65 9.43L43.65 9.43Q44.66 8.57 44.66 7.03L44.66 7.03Q44.66 5.53 43.65 4.70L43.65 4.70Q42.96 4.15 42 4.15ZM41.98 11.75L41.98 11.75Q40.42 11.75 39.49 12.90L39.49 12.90Q38.72 13.90 38.72 15.34L38.72 15.34Q38.72 16.72 39.47 17.65L39.47 17.65Q40.39 18.80 42 18.80L42 18.80Q43.62 18.80 44.55 17.65L44.55 17.65Q45.29 16.72 45.29 15.34L45.29 15.34Q45.29 13.54 44.19 12.57L44.19 12.57Q43.30 11.75 41.98 11.75Z"/></svg>