<svg xmlns="http://www.w3.org/2000/svg" xmlns:xlink="http://www.w3.org/1999/xlink" width="48" height="24"><path fill="black" stroke="black" d="M4.85 10.97L1.44 3.09L3.61 3.09L6 9L8.40 3.09L10.56 3.09L7.16 10.97L11.17 19.90L8.91 19.90L6 12.88L3.11 19.90L0.84 19.90L4.85 10.97ZM15.50 8.50L17.33 8.50L17.33 10.90Q19.41 8.71 21.77 8.04L21.77 8.04L21.77 10.13Q19.05 10.78 17.33 13.08L17.33 13.08L17.33 19.90L15.50 19.90L15.50 8.50ZM25.63 19.90L25.63 3.09L29.68 3.09Q31.57 3.09 32.81 4.05L32.81 4.05Q34.28 5.13 34.28 7.22L34.28 7.22Q34.28 9.90 31.56 11.05L31.56 11.05Q34.88 12.09 34.88 15.35L34.88 15.35Q34.88 17.47 33.36 18.76L33.36 18.76Q32.05 19.90 30.07 19.90L30.07 19.90L25.63 19.90ZM29.66 4.88L27.50 4.88L27.50 10.29L29.59 10.29Q30.57 10.29 31.21 9.83L31.21 9.83Q32.33 9.07 32.33 7.46L32.33 7.46Q32.33 4.88 29.66 4.88L29.66 4.88ZM29.66 11.96L27.50 11.96L27.50 18.12L29.77 18.12Q32.88 18.12 32.88 15.09L32.88 15.09Q32.88 11.96 29.66 11.96L29.66 11.96ZM40.95 5.25L40.95 3.09L43.05 3.09L43.05 5.25L40.95 5.25ZM41.06 19.90L41.06 8.50L42.94 8.50L42.94 19.90L41.06 19.90Z"/></svg>