<svg xmlns="http://www.w3.org/2000/svg" xmlns:xlink="http://www.w3.org/1999/xlink" width="48" height="24"><path fill="black" stroke="black" d="M4.85 10.97L1.44 3.09L3.61 3.09L6 9L8.40 3.09L10.56 3.09L7.16 10.97L11.17 19.90L8.91 19.90L6 12.88L3.11 19.90L0.84 19.90L4.85 10.97ZM16.73 19.90L12.82 3.09L14.95 3.09L18 17.55L21.05 3.09L23.19 3.09L19.28 19.90L16.73 19.90ZM34.68 6.83L32.71 6.83Q32.34 4.29 30.42 4.29L30.42 4.29Q28.76 4.29 27.86 6.30L27.86 6.30Q27.01 8.19 26.98 11.41L26.98 11.41Q28.35 9.42 30.47 9.42L30.47 9.42Q32.23 9.42 33.45 10.72L33.45 10.72Q34.89 12.23 34.89 14.71L34.89 14.71Q34.89 16.77 33.90 18.30L33.90 18.30Q32.57 20.37 30.14 20.37L30.14 20.37Q27.94 20.37 26.61 18.35L26.61 18.35Q25.20 16.14 25.20 12.21L25.20 12.21Q25.20 8.04 26.44 5.47L26.44 5.47Q27.86 2.61 30.40 2.61L30.40 2.61Q33.88 2.61 34.68 6.83L34.68 6.83ZM30.16 10.98L30.16 10.98Q28.77 10.98 27.93 12.26L27.93 12.26Q27.28 13.27 27.28 14.78L27.28 14.78Q27.28 16.14 27.74 17.09L27.74 17.09Q28.54 18.71 30.19 18.71L30.19 18.71Q31.51 18.71 32.32 17.52L32.32 17.52Q33.04 16.46 33.04 14.75L33.04 14.75Q33.04 13.20 32.41 12.21L32.41 12.21Q31.65 10.98 30.16 10.98ZM37.15 19.90L37.15 3.09L39.54 3.09L41.99 16.89L44.44 3.09L46.84 3.09L46.84 19.90L45.21 19.90L45.21 6.86L42.88 19.90L41.11 19.90L38.87 6.86L38.87 19.90L37.15 19.90Z"/></svg>