<svg xmlns="http://www.w3.org/2000/svg" xmlns:xlink="http://www.w3.org/1999/xlink" width="48" height="24"><path fill="black" stroke="black" d="M5.45 18.89L1.42 8.50L3.48 8.50L6.34 16.61L8.86 8.50L10.95 8.50L6.23 21.67Q5.85 22.82 4.90 23.18L4.90 23.18Q4.45 23.36 2.06 23.36L2.06 23.36L2.06 21.62L3.09 21.62Q3.46 21.62 3.62 21.62L3.62 21.62Q4.43 21.62 4.68 20.98L4.68 20.98L5.45 18.89ZM21.43 4.88L19.03 4.88L19.03 18.12L21.43 18.12L21.43 19.90L14.57 19.90L14.57 18.12L16.97 18.12L16.97 4.88L14.57 4.88L14.57 3.09L21.43 3.09L21.43 4.88ZM25.78 19.90L25.78 3.09L27.56 3.09L27.56 9.79Q29.03 8.04 30.73 8.04L30.73 8.04Q32.50 8.04 33.61 9.57L33.61 9.57Q34.78 11.21 34.78 14.09L34.78 14.09Q34.78 16.10 34.16 17.64L34.16 17.64Q33.05 20.38 30.68 20.38L30.68 20.38Q28.72 20.38 27.54 18.41L27.54 18.41L27.08 19.90L25.78 19.90ZM30.29 9.74L30.29 9.74Q28.92 9.74 28.14 11.13L28.14 11.13Q27.49 12.28 27.49 14.09L27.49 14.09Q27.49 16.04 28.18 17.29L28.18 17.29Q28.97 18.68 30.32 18.68L30.32 18.68Q31.50 18.68 32.19 17.47L32.19 17.47Q32.91 16.25 32.91 14.09L32.91 14.09Q32.91 11.96 32.09 10.79L32.09 10.79Q31.41 9.74 30.29 9.74ZM41.45 18.89L37.42 8.50L39.48 8.50L42.34 16.61L44.86 8.50L46.95 8.50L42.23 21.67Q41.85 22.82 40.90 23.18L40.90 23.18Q40.45 23.36 38.06 23.36L38.06 23.36L38.06 21.62L39.09 21.62Q39.46 21.62 39.62 21.62L39.62 21.62Q40.43 21.62 40.68 20.98L40.68 20.98L41.45 18.89Z"/></svg>