<svg xmlns="http://www.w3.org/2000/svg" xmlns:xlink="http://www.w3.org/1999/xlink" width="48" height="24"><path fill="black" stroke="black" d="M5.03 13.31L0.73 3.09L2.88 3.09L6.01 11.11L9.13 3.09L11.29 3.09L7.00 13.31L7.00 19.90L5.03 19.90L5.03 13.31ZM17.02 19.90L13.22 8.50L15.23 8.50L18 17.71L20.75 8.50L22.77 8.50L18.98 19.90L17.02 19.90ZM25.92 8.50L28.83 8.50L28.83 5.52Q28.83 3.09 31.30 3.09L31.30 3.09L33.89 3.09L33.89 4.77L31.64 4.77Q30.66 4.77 30.66 5.66L30.66 5.66L30.66 8.50L33.89 8.50L33.89 10.17L30.66 10.17L30.66 19.90L28.83 19.90L28.83 10.17L25.92 10.17L25.92 8.50ZM37.63 19.90L37.63 3.09L41.68 3.09Q43.57 3.09 44.81 4.05L44.81 4.05Q46.28 5.13 46.28 7.22L46.28 7.22Q46.28 9.90 43.56 11.05L43.56 11.05Q46.88 12.09 46.88 15.35L46.88 15.35Q46.88 17.47 45.36 18.76L45.36 18.76Q44.05 19.90 42.07 19.90L42.07 19.90L37.63 19.90ZM41.66 4.88L39.50 4.88L39.50 10.29L41.59 10.29Q42.57 10.29 43.21 9.83L43.21 9.83Q44.33 9.07 44.33 7.46L44.33 7.46Q44.33 4.88 41.66 4.88L41.66 4.88ZM41.66 11.96L39.50 11.96L39.50 18.12L41.77 18.12Q44.88 18.12 44.88 15.09L44.88 15.09Q44.88 11.96 41.66 11.96L41.66 11.96Z"/></svg>