<svg xmlns="http://www.w3.org/2000/svg" xmlns:xlink="http://www.w3.org/1999/xlink" width="48" height="24"><path fill="black" stroke="black" d="M1.83 4.97L1.83 3.09L10.30 3.09L10.30 4.78L3.66 17.98L10.56 17.98L10.56 19.90L1.51 19.90L1.51 18.02L8.10 4.97L1.83 4.97ZM22.88 19.90L21.34 19.90L21.34 17.64Q20.00 20.38 17.78 20.38L17.78 20.38Q15.61 20.38 14.34 18.14L14.34 18.14Q13.10 15.90 13.10 11.52L13.10 11.52Q13.10 7.41 14.40 4.99L14.40 4.99Q15.69 2.61 18.09 2.61L18.09 2.61Q21.95 2.61 22.71 7.90L22.71 7.90L20.74 7.90Q20.20 4.42 18.09 4.42L18.09 4.42Q15.16 4.42 15.16 11.47L15.16 11.47Q15.16 18.57 18 18.57L18 18.57Q20.58 18.57 21.13 13.63L21.13 13.63L18.60 13.63L18.60 11.91L22.88 11.91L22.88 19.90ZM25.15 19.90L25.15 3.09L27.54 3.09L29.99 16.89L32.44 3.09L34.84 3.09L34.84 19.90L33.21 19.90L33.21 6.86L30.88 19.90L29.11 19.90L26.87 6.86L26.87 19.90L25.15 19.90ZM37.78 8.50L39.11 8.50L39.40 10.01Q41.00 8.04 42.73 8.04L42.73 8.04Q44.48 8.04 45.61 9.60L45.61 9.60Q46.80 11.27 46.80 13.93L46.80 13.93Q46.80 16.42 45.84 18.08L45.84 18.08Q44.71 20.05 42.70 20.05L42.70 20.05Q40.97 20.05 39.56 18.47L39.56 18.47L39.56 23.34L37.78 23.34L37.78 8.50ZM42.32 9.74L42.32 9.74Q41.14 9.74 40.32 10.91L40.32 10.91Q39.49 12.12 39.49 13.96L39.49 13.96Q39.49 15.63 40.07 16.75L40.07 16.75Q40.85 18.33 42.34 18.33L42.34 18.33Q43.52 18.33 44.21 17.20L44.21 17.20Q44.91 15.98 44.91 13.96L44.91 13.96Q44.91 12.11 44.26 10.98L44.26 10.98Q43.55 9.74 42.32 9.74Z"/></svg>