<svg xmlns="http://www.w3.org/2000/svg" xmlns:xlink="http://www.w3.org/1999/xlink" width="48" height="24"><path fill="black" stroke="black" d="M1.83 4.97L1.83 3.09L10.30 3.09L10.30 4.78L3.66 17.98L10.56 17.98L10.56 19.90L1.51 19.90L1.51 18.02L8.10 4.97L1.83 4.97ZM18.02 8.04L18.02 8.04Q20.23 8.04 21.48 9.98L21.48 9.98Q22.56 11.60 22.56 14.20L22.56 14.20Q22.56 16.16 21.91 17.64L21.91 17.64Q20.72 20.38 17.98 20.38L17.98 20.38Q15.86 20.38 14.59 18.57L14.59 18.57Q13.44 16.92 13.44 14.20L13.44 14.20Q13.44 11.27 14.77 9.60L14.77 9.60Q16.03 8.04 18.02 8.04ZM17.98 9.71L17.98 9.71Q16.69 9.71 15.96 11.06L15.96 11.06Q15.32 12.25 15.32 14.20L15.32 14.20Q15.32 16.01 15.84 17.14L15.84 17.14Q16.57 18.70 18 18.70L18 18.70Q19.31 18.70 20.04 17.36L20.04 17.36Q20.68 16.17 20.68 14.23L20.68 14.23Q20.68 12.20 20.02 11.04L20.02 11.04Q19.30 9.71 17.98 9.71ZM25.20 4.92L25.20 3.09L34.79 3.09L34.79 4.46Q31.42 12.82 29.73 19.90L29.73 19.90L27.55 19.90Q29.38 13.43 32.73 4.92L32.73 4.92L25.20 4.92ZM40.85 10.97L37.44 3.09L39.61 3.09L42 9L44.40 3.09L46.56 3.09L43.16 10.97L47.17 19.90L44.91 19.90L42 12.88L39.11 19.90L36.84 19.90L40.85 10.97Z"/></svg>