<svg width="256" height="256" viewBox="0 0 256 256" fill="none" xmlns="http://www.w3.org/2000/svg">
<rect width="256" height="256" fill="white"/>
<path d="M252.8 128C254.567 128 256.004 129.433 255.96 131.2C255.44 151.994 249.859 172.367 239.679 190.544C228.978 209.652 213.553 225.695 194.88 237.138C176.206 248.581 154.909 255.041 133.025 255.901C111.141 256.761 89.4029 251.992 69.8892 242.049C50.3755 232.106 33.7393 217.323 21.5719 199.113C9.40448 180.903 2.11289 159.876 0.39458 138.043C-1.32373 116.21 2.58872 94.3005 11.7577 74.4115C20.4797 55.492 33.6807 39.0024 50.1982 26.359C51.6016 25.2848 53.6056 25.6049 54.6444 27.0347V27.0347C55.6832 28.4644 55.3633 30.4624 53.9613 31.5384C38.329 43.5368 25.8333 59.1659 17.5698 77.091C8.85928 95.9855 5.14246 116.799 6.77485 137.541C8.40725 158.282 15.3343 178.258 26.8933 195.557C38.4523 212.857 54.2567 226.901 72.7947 236.346C91.3328 245.792 111.984 250.323 132.774 249.506C153.564 248.689 173.796 242.552 191.536 231.681C209.276 220.81 223.929 205.569 234.096 187.416C243.74 170.195 249.039 150.899 249.558 131.2C249.604 129.433 251.033 128 252.8 128V128Z" fill="url(#paint0_radial)"/>
<defs>
<radialGradient id="paint0_radial" cx="0" cy="0" r="1" gradientUnits="userSpaceOnUse" gradientTransform="translate(54.5 27) rotate(24.4634) scale(243.895)">
<stop/>
<stop offset="1" stop-color="white" stop-opacity="0"/>
</radialGradient>
</defs>
</svg>
